<svg xmlns="http://www.w3.org/2000/svg" width="315" height="338.13" viewBox="0 0 315 338.13"><g transform="translate(-2302 8725.459)"><g transform="translate(2302 -8725.459)"><g transform="translate(-2944.949 -138.165)" fill="none" stroke-miterlimit="10"><path d="M3259.949,476.294h-315V226.47l89.552-88.3h225.448Z" stroke="none"/><path d="M 3255.949462890625 472.2943725585938 L 3255.949462890625 142.1651611328125 L 3036.14208984375 142.1651611328125 L 2948.949462890625 228.1430206298828 L 2948.949462890625 472.2943725585938 L 3255.949462890625 472.2943725585938 M 3259.949462890625 476.2943725585938 L 2944.949462890625 476.2943725585938 L 2944.949462890625 226.4696807861328 L 3034.501708984375 138.1651611328125 L 3259.949462890625 138.1651611328125 L 3259.949462890625 476.2943725585938 Z" stroke="none" fill="#bf3976"/></g><path d="M3344.949,372.225h-79.737l79.737-79.737Z" transform="translate(-3029.95 -34.096)" fill="#bf3976"/></g><g transform="translate(-1285.55 -8863.805)"><path d="M3589.931,169.455a9.456,9.456,0,0,1-2.381-6.863V147.669a9.425,9.425,0,0,1,2.392-6.874q2.391-2.448,6.975-2.449,4.605,0,6.988,2.438a9.441,9.441,0,0,1,2.381,6.885v14.923a9.419,9.419,0,0,1-2.393,6.874q-2.392,2.451-6.976,2.45Q3592.312,171.916,3589.931,169.455Zm10.587-3.194a5.257,5.257,0,0,0,1.163-3.669V147.669A5.292,5.292,0,0,0,3600.53,144a5.754,5.754,0,0,0-7.224,0,5.293,5.293,0,0,0-1.151,3.668v14.923a5.261,5.261,0,0,0,1.162,3.669,5.722,5.722,0,0,0,7.2,0Z" fill="#bf3976"/><path d="M3616.47,170.911a8.278,8.278,0,0,1-3.377-2.912,10.524,10.524,0,0,1-1.614-4.594h4.7a4.968,4.968,0,0,0,.881,2.3,4.082,4.082,0,0,0,1.75,1.343,6.6,6.6,0,0,0,2.517.44,4.895,4.895,0,0,0,3.543-1.219,4.542,4.542,0,0,0,1.266-3.432v-.993a5.534,5.534,0,0,0-1.2-3.8,4.3,4.3,0,0,0-3.386-1.343h-2.324v-4.38h2.324a3.849,3.849,0,0,0,2.98-1.151,4.625,4.625,0,0,0,1.061-3.251V146.9a3.941,3.941,0,0,0-1.117-3,4.43,4.43,0,0,0-3.172-1.061,4.835,4.835,0,0,0-2.1.44,4.006,4.006,0,0,0-1.568,1.355,6.172,6.172,0,0,0-.938,2.291h-4.674a11.99,11.99,0,0,1,1.705-4.6,8.334,8.334,0,0,1,3.172-2.912,9.444,9.444,0,0,1,4.4-.993,9.1,9.1,0,0,1,6.57,2.234,8.333,8.333,0,0,1,2.324,6.3v.542a7.083,7.083,0,0,1-1.332,4.289,7.507,7.507,0,0,1-3.769,2.664,6.691,6.691,0,0,1,4.166,2.641,8.761,8.761,0,0,1,1.478,5.238v.542a10.108,10.108,0,0,1-1.107,4.9,7.3,7.3,0,0,1-3.217,3.092,12.476,12.476,0,0,1-9.943.057Z" fill="#bf3976"/></g></g></svg>