<svg xmlns="http://www.w3.org/2000/svg" width="315" height="338.408" viewBox="0 0 315 338.408"><g transform="translate(-1587 8725.278)"><g transform="translate(1587 -8725.459)"><g transform="translate(0.833 0.181)"><path d="M2954.165,169.455a9.451,9.451,0,0,1-2.382-6.863V147.669a9.421,9.421,0,0,1,2.393-6.874q2.391-2.448,6.975-2.449,4.607,0,6.988,2.438a9.444,9.444,0,0,1,2.381,6.885v14.923a9.423,9.423,0,0,1-2.392,6.874q-2.394,2.451-6.977,2.45Q2956.546,171.916,2954.165,169.455Zm10.588-3.194a5.265,5.265,0,0,0,1.162-3.669V147.669a5.3,5.3,0,0,0-1.151-3.668,5.754,5.754,0,0,0-7.224,0,5.292,5.292,0,0,0-1.151,3.668v14.923a5.255,5.255,0,0,0,1.162,3.669,5.723,5.723,0,0,0,7.2,0Z" transform="translate(-2951.783 -138.346)" fill="#bf3976"/><path d="M2985.218,171.577h-4.606V143.764l-4.673,2.867v-4.763l4.673-3.116h4.606Z" transform="translate(-2951.783 -138.346)" fill="#bf3976"/></g></g><g transform="translate(1587 -8725)"><g transform="translate(-2944.949 -138.165)" fill="none" stroke-miterlimit="10"><path d="M3259.949,476.294h-315V226.47l89.552-88.3h225.448Z" stroke="none"/><path d="M 3255.949462890625 472.2943725585938 L 3255.949462890625 142.1651611328125 L 3036.14208984375 142.1651611328125 L 2948.949462890625 228.1430206298828 L 2948.949462890625 472.2943725585938 L 3255.949462890625 472.2943725585938 M 3259.949462890625 476.2943725585938 L 2944.949462890625 476.2943725585938 L 2944.949462890625 226.4696807861328 L 3034.501708984375 138.1651611328125 L 3259.949462890625 138.1651611328125 L 3259.949462890625 476.2943725585938 Z" stroke="none" fill="#bf3976"/></g><path d="M3344.949,372.225h-79.737l79.737-79.737Z" transform="translate(-3029.95 -34.096)" fill="#bf3976"/></g></g></svg>