<svg xmlns="http://www.w3.org/2000/svg" width="64.859" height="71.002" viewBox="0 0 64.859 71.002"><g transform="translate(-872.786 -3035.657)"><rect width="48.945" height="1.512" transform="translate(880.618 3105.147)" fill="#0ac4bf"/><g transform="translate(286.47 4375.413)"><path d="M645.945-1290.09V-1315.2a6.808,6.808,0,0,0,5.23-6.4,6.807,6.807,0,0,0-5.23-6.4v-6.968a1,1,0,0,0-1.046-.955h-2.093v-.955a3.015,3.015,0,0,0-3.138-2.866,3.015,3.015,0,0,0-3.138,2.866v.955h-2.092a1,1,0,0,0-1.047.955v6.686H631.3v-6.686a1,1,0,0,0-1.046-.955h-2.092v-.955a3.015,3.015,0,0,0-3.138-2.866,3.016,3.016,0,0,0-3.139,2.866v.955h-2.092a1,1,0,0,0-1.046.955v6.686H602.008v-1.91H604.1a3.016,3.016,0,0,0,3.139-2.866,3.016,3.016,0,0,0-3.139-2.865H593.639a3.015,3.015,0,0,0-3.138,2.865,3.015,3.015,0,0,0,3.138,2.866h2.092v1.91h-4.184a5.025,5.025,0,0,0-5.231,4.775v13.372a2.9,2.9,0,0,0,2.093,2.69v3.041a1,1,0,0,0,1.046.955h2.092v8.6a.913.913,0,0,0,.306.675l2.093,1.91a1.1,1.1,0,0,0,.739.28,1.1,1.1,0,0,0,.74-.28l2.092-1.91a.911.911,0,0,0,.307-.675v-8.6h2.092a1,1,0,0,0,1.046-.955v-3.041a2.894,2.894,0,0,0,2.092-2.69v-4.776H622.93v24.833H591.547a5.025,5.025,0,0,0-5.231,4.776,5.025,5.025,0,0,0,5.231,4.776h54.4a5.024,5.024,0,0,0,5.23-4.776A5.024,5.024,0,0,0,645.945-1290.09Zm-7.323-46.8a1,1,0,0,1,1.046-.955,1,1,0,0,1,1.046.955v.955h-2.092Zm-3.138,2.865h8.369v5.731h-8.369Zm-11.508-2.865a1,1,0,0,1,1.047-.955,1,1,0,0,1,1.046.955v.955h-2.093Zm-3.138,2.865h8.369v5.731h-8.369Zm-28.245.955a1,1,0,0,1,1.046-.955H604.1a1,1,0,0,1,1.046.955,1,1,0,0,1-1.046.955H593.639A1,1,0,0,1,592.593-1333.07Zm5.231,2.866h2.092v1.91h-2.092Zm-2.093,34.943-1.046.955-1.046-.955v-8.2h2.092Zm-5.23-10.11v-1.911h8.369v1.911Zm11.507-11.462a1,1,0,0,0-1.046.955v5.731a1,1,0,0,1-1.046.955H589.455a1,1,0,0,1-1.046-.955v-13.372a3.015,3.015,0,0,1,3.138-2.865h52.306a5.024,5.024,0,0,1,5.23,4.776,5.024,5.024,0,0,1-5.23,4.775Zm23.015,1.91h18.83v24.833h-18.83Zm20.922,32.474h-54.4a3.014,3.014,0,0,1-3.138-2.865,3.014,3.014,0,0,1,3.138-2.865h54.4a3.014,3.014,0,0,1,3.138,2.865A3.014,3.014,0,0,1,645.945-1282.449Z" fill="#0ac4bf"/><path d="M634.438-1309.192a3.016,3.016,0,0,0-3.139,2.865,3.016,3.016,0,0,0,3.139,2.866,3.015,3.015,0,0,0,3.138-2.866A3.015,3.015,0,0,0,634.438-1309.192Zm0,3.821a1,1,0,0,1-1.047-.956,1,1,0,0,1,1.047-.955,1,1,0,0,1,1.046.955A1,1,0,0,1,634.438-1305.371Z" fill="#0ac4bf"/><path d="M634.438-1313.012c-4.037,0-7.323,3-7.323,6.685s3.286,6.686,7.323,6.686,7.322-3,7.322-6.686S638.474-1313.012,634.438-1313.012Zm0,11.461a5.025,5.025,0,0,1-5.231-4.776,5.025,5.025,0,0,1,5.231-4.775,5.024,5.024,0,0,1,5.23,4.775A5.024,5.024,0,0,1,634.438-1301.551Z" fill="#0ac4bf"/><path d="M595.731-1324.474h-4.184a1,1,0,0,0-1.046.955v7.641a1,1,0,0,0,1.046.955h4.184a1,1,0,0,0,1.047-.955v-7.641A1,1,0,0,0,595.731-1324.474Zm-1.046,1.911v1.91h-2.092v-1.91Zm-2.092,5.73v-1.91h2.092v1.91Z" fill="#0ac4bf"/><path d="M600.962-1324.474h2.092v5.731h-2.092Z" fill="#0ac4bf"/><path d="M605.146-1324.474h2.093v5.731h-2.093Z" fill="#0ac4bf"/><path d="M609.331-1324.474h2.092v5.731h-2.092Z" fill="#0ac4bf"/><path d="M643.853-1318.743a3.015,3.015,0,0,0,3.138-2.865,3.015,3.015,0,0,0-3.138-2.866,3.016,3.016,0,0,0-3.139,2.866A3.016,3.016,0,0,0,643.853-1318.743Zm0-3.82a1,1,0,0,1,1.046.955,1,1,0,0,1-1.046.955,1,1,0,0,1-1.047-.955A1,1,0,0,1,643.853-1322.563Z" fill="#0ac4bf"/><path d="M635.484-1318.743a3.015,3.015,0,0,0,3.138-2.865,3.015,3.015,0,0,0-3.138-2.866,3.016,3.016,0,0,0-3.139,2.866A3.016,3.016,0,0,0,635.484-1318.743Zm0-3.82a1,1,0,0,1,1.046.955,1,1,0,0,1-1.046.955,1,1,0,0,1-1.046-.955A1,1,0,0,1,635.484-1322.563Z" fill="#0ac4bf"/></g></g></svg>