<svg xmlns="http://www.w3.org/2000/svg" width="295" height="190" viewBox="0 0 295 190"><g transform="translate(-2502.478 -1089.552)"><rect width="295" height="190" transform="translate(2502.478 1089.552)" fill="#f1f1ef"/><g transform="translate(387)"><rect width="234.383" height="32.094" transform="translate(2147.367 1188.451)" fill="#bf3976"/><path d="M2158.369,1193.5v-36.653l44.494,36.653Z" fill="#bf3976"/><path d="M2216.9,1193.5v-36.653L2261.4,1193.5Z" fill="#bf3976"/><path d="M2273.554,1193.5v-36.653l44.494,36.653Z" fill="#bf3976"/><path d="M2328.989,1193.5v-36.653l44.494,36.653Z" fill="#bf3976"/><path d="M2186.619,1163.4a22.6,22.6,0,0,1-13.915-5.014c-15.475-11.719-26.737-1.981-27.209-1.561l-2.583-2.868c.139-.126,14.039-12.339,32.122,1.351,11.129,8.428,20.992,2.488,28.917-2.286,3.412-2.055,6.358-3.829,9.028-4.217,7.949-1.15,12.763-.849,20.286,3.988,6.771,4.351,19.307,8.723,24.126,1.927l.694-.979c5.669-8.014,11.532-16.3,19.587-11.7a47.368,47.368,0,0,1,7.951,6.281c3.986,3.617,8.107,7.358,13.187,8.595,6.929,1.686,12.851-1.843,18.072-4.957.916-.547,1.8-1.075,2.654-1.552,7.431-4.161,19.734-6.642,29.963.07,9.219,6.049,20.99,6.929,24.944,6.4l3.648-.487.509,3.826-3.647.487c-4.586.61-17.354-.3-27.571-7-11.564-7.585-24.521-.736-25.959.07-.825.462-1.679.972-2.564,1.5-5.566,3.32-12.494,7.45-20.961,5.393-6.035-1.468-10.728-5.729-14.869-9.488a44.846,44.846,0,0,0-7.272-5.787c-4.774-2.728-8.628,2.244-14.521,10.576l-.7.984c-6.42,9.054-21.076,4.412-29.362-.914-6.483-4.167-10.091-4.508-17.645-3.413-1.9.275-4.664,1.94-7.591,3.7C2200.891,1159.368,2194.2,1163.4,2186.619,1163.4Z" fill="#0ac4bf"/><path d="M2186.619,1149.138a22.6,22.6,0,0,1-13.915-5.013c-15.475-11.719-26.737-1.982-27.209-1.562l-2.583-2.868c.139-.125,14.039-12.338,32.122,1.351,11.128,8.427,20.99,2.488,28.916-2.286,3.412-2.054,6.359-3.83,9.03-4.216,7.944-1.152,12.761-.85,20.286,3.987,6.771,4.351,19.308,8.723,24.125,1.928l.694-.98c5.669-8.015,11.532-16.3,19.587-11.7a47.4,47.4,0,0,1,7.951,6.28c3.985,3.618,8.107,7.36,13.187,8.595,6.938,1.687,12.854-1.843,18.074-4.958.916-.546,1.8-1.073,2.652-1.551,7.431-4.159,19.734-6.642,29.963.07,9.219,6.049,20.99,6.931,24.944,6.4l3.648-.487.509,3.827-3.647.486c-4.586.609-17.354-.3-27.571-7-11.561-7.586-24.521-.736-25.959.07-.824.462-1.678.971-2.561,1.5-5.566,3.322-12.493,7.456-20.964,5.394-6.035-1.467-10.728-5.728-14.869-9.486a44.749,44.749,0,0,0-7.272-5.788c-4.774-2.729-8.628,2.245-14.521,10.577l-.7.983c-6.419,9.05-21.075,4.413-29.362-.914-6.486-4.169-10.1-4.507-17.644-3.413-1.9.275-4.665,1.94-7.593,3.7C2200.891,1145.11,2194.2,1149.137,2186.619,1149.138Z" fill="#0ac4bf"/></g><text transform="translate(2542.478 1251.468)" font-size="15" font-family="Roboto-Regular, Roboto"><tspan x="0" y="0">Arrastre de material semipesado </tspan></text></g></svg>