<svg xmlns="http://www.w3.org/2000/svg" width="189" height="92.042" viewBox="0 0 189 92.042"><g transform="translate(-1125 -7715)"><g transform="translate(79 20)"><g transform="translate(-7181.532 7295.225)"><circle cx="46.021" cy="46.021" r="46.021" transform="translate(8280.425 399.775)" fill="#bf3976"/><path d="M8298.733,482.534a46.027,46.027,0,0,0,71.643-22.989Z" fill="#931454"/><path d="M8370.08,455.48c0-2.764-36.98-4.29-37.74-6.806a19.027,19.027,0,0,0-2.408-4.772l-68.583,2.991s-6.359.163-5.757,12.5c.5,10.317,19.143,11.161,19.143,11.161l7.224-1.336,17.522-.3,67.435-1.194A21.487,21.487,0,0,0,8370.08,455.48Z" fill="#fff" stroke="#515151" stroke-miterlimit="10" stroke-width="0.94"/><path d="M8269.645,467.971l.866.466,1.332,1.266,15.853-11.789" fill="none" stroke="#515151" stroke-linecap="round" stroke-linejoin="round" stroke-width="0.94" stroke-dasharray="1.88"/><path d="M8329.4,443.55s-8.152-1.245-13.9.356-34.2,9.6-34.2,9.6l.979,3.913.621.444Z" fill="#fff" stroke="#515151" stroke-linecap="round" stroke-linejoin="round" stroke-width="0.985"/><path d="M8331.714,446.826,8282,462.755l-1.449-3.023,2.339-1.867,47.194-14.528Z" fill="#fff" stroke="#515151" stroke-linecap="round" stroke-linejoin="round" stroke-width="0.985"/><path d="M8314.946,444.059s-8.164-1.253-12.433-.97a43.745,43.745,0,0,0-5.105.883c-6.968,1.491-17.537,4.32-17.537,4.32v2.549l1.423,2.667Z" fill="#fff" stroke="#515151" stroke-linecap="round" stroke-linejoin="round" stroke-width="0.985"/><path d="M8286.095,443.089c-1.8.577-10.091,2.106-10.091,2.106l1.378,3.645,2.489-.548,17.819-4.38S8288.363,442.361,8286.095,443.089Z" fill="#fff" stroke="#515151" stroke-linecap="round" stroke-linejoin="round" stroke-width="0.985"/><ellipse cx="2.512" cy="2.685" rx="2.512" ry="2.685" transform="translate(8273.603 445.106)" fill="#fff" stroke="#515151" stroke-linecap="round" stroke-linejoin="round" stroke-width="0.985"/><ellipse cx="2.334" cy="2.512" rx="2.334" ry="2.512" transform="translate(8277.56 448.84)" fill="#fff" stroke="#515151" stroke-linecap="round" stroke-linejoin="round" stroke-width="0.985"/><ellipse cx="2.132" cy="2.294" rx="2.132" ry="2.294" transform="translate(8278.627 458.443)" fill="#fff" stroke="#515151" stroke-linecap="round" stroke-linejoin="round" stroke-width="0.985"/><ellipse cx="2.132" cy="2.568" rx="2.132" ry="2.568" transform="translate(8275.598 461.472)" fill="#fff" stroke="#515151" stroke-linecap="round" stroke-linejoin="round" stroke-width="0.985"/><ellipse cx="2.132" cy="2.568" rx="2.132" ry="2.568" transform="translate(8271.33 465.157)" fill="#fff" stroke="#515151" stroke-linecap="round" stroke-linejoin="round" stroke-width="0.985"/><ellipse cx="1.89" cy="2.415" rx="1.89" ry="2.415" transform="translate(8267.476 465.157)" fill="#fff" stroke="#515151" stroke-linecap="round" stroke-linejoin="round" stroke-width="0.985"/><ellipse cx="1.89" cy="2.415" rx="1.89" ry="2.415" transform="translate(8263.352 465.157)" fill="#fff" stroke="#515151" stroke-linecap="round" stroke-linejoin="round" stroke-width="0.985"/><circle cx="2.112" cy="2.112" r="2.112" transform="translate(8279.348 453.864)" fill="#fff" stroke="#515151" stroke-linecap="round" stroke-linejoin="round" stroke-width="0.985"/><ellipse cx="2.201" cy="2.386" rx="2.201" ry="2.386" transform="translate(8269.202 443.506)" fill="#fff" stroke="#515151" stroke-linecap="round" stroke-linejoin="round" stroke-width="0.985"/><ellipse cx="2.201" cy="2.127" rx="2.201" ry="2.127" transform="translate(8263.971 444.024)" fill="#fff" stroke="#515151" stroke-linecap="round" stroke-linejoin="round" stroke-width="0.985"/><ellipse cx="2.03" cy="2.266" rx="2.03" ry="2.266" transform="translate(8255.93 447.597)" fill="#fff" stroke="#515151" stroke-linecap="round" stroke-linejoin="round" stroke-width="0.985"/><ellipse cx="2.03" cy="2.266" rx="2.03" ry="2.266" transform="translate(8259.318 445.331)" fill="#fff" stroke="#515151" stroke-linecap="round" stroke-linejoin="round" stroke-width="0.985"/><ellipse cx="1.863" cy="2.08" rx="1.863" ry="2.08" transform="translate(8262.978 448.211)" fill="#fff" stroke="#515151" stroke-linecap="round" stroke-linejoin="round" stroke-width="0.985"/><ellipse cx="1.863" cy="2.08" rx="1.863" ry="2.08" transform="translate(8259.652 450.291)" fill="#fff" stroke="#515151" stroke-linecap="round" stroke-linejoin="round" stroke-width="0.985"/><ellipse cx="1.863" cy="2.08" rx="1.863" ry="2.08" transform="translate(8257.455 454.58)" fill="#fff" stroke="#515151" stroke-linecap="round" stroke-linejoin="round" stroke-width="0.985"/><ellipse cx="1.863" cy="2.08" rx="1.863" ry="2.08" transform="translate(8253.729 456.407)" fill="#fff" stroke="#515151" stroke-linecap="round" stroke-linejoin="round" stroke-width="0.985"/><ellipse cx="1.684" cy="2.08" rx="1.684" ry="2.08" transform="translate(8259.154 459.392)" fill="#fff" stroke="#515151" stroke-linecap="round" stroke-linejoin="round" stroke-width="0.985"/><ellipse cx="1.684" cy="2.08" rx="1.684" ry="2.08" transform="translate(8255.592 460.952)" fill="#fff" stroke="#515151" stroke-linecap="round" stroke-linejoin="round" stroke-width="0.985"/><ellipse cx="2.103" cy="2.243" rx="2.103" ry="2.243" transform="translate(8258.625 463.752)" fill="#fff" stroke="#515151" stroke-linecap="round" stroke-linejoin="round" stroke-width="0.985"/><ellipse cx="1.863" cy="2.08" rx="1.863" ry="2.08" transform="translate(8254.233 451.455)" fill="#fff" stroke="#515151" stroke-linecap="round" stroke-linejoin="round" stroke-width="0.985"/><ellipse cx="1.863" cy="2.08" rx="1.863" ry="2.08" transform="translate(8261.114 455.919)" fill="#fff" stroke="#515151" stroke-linecap="round" stroke-linejoin="round" stroke-width="0.985"/><ellipse cx="1.863" cy="2.08" rx="1.863" ry="2.08" transform="translate(8264.841 455.919)" fill="#fff" stroke="#515151" stroke-linecap="round" stroke-linejoin="round" stroke-width="0.985"/><ellipse cx="1.75" cy="1.953" rx="1.75" ry="1.953" transform="translate(8268.058 456.787)" fill="#fff" stroke="#515151" stroke-linecap="round" stroke-linejoin="round" stroke-width="0.985"/><ellipse cx="1.863" cy="2.08" rx="1.863" ry="2.08" transform="translate(8263.379 452.371)" fill="#fff" stroke="#515151" stroke-linecap="round" stroke-linejoin="round" stroke-width="0.985"/><ellipse cx="1.863" cy="2.08" rx="1.863" ry="2.08" transform="translate(8267.262 452.371)" fill="#fff" stroke="#515151" stroke-linecap="round" stroke-linejoin="round" stroke-width="0.985"/><ellipse cx="1.863" cy="2.08" rx="1.863" ry="2.08" transform="translate(8271.007 453.706)" fill="#fff" stroke="#515151" stroke-linecap="round" stroke-linejoin="round" stroke-width="0.985"/><circle cx="2.534" cy="2.534" r="2.534" transform="translate(8274.492 455.464)" fill="#fff" stroke="#515151" stroke-linecap="round" stroke-linejoin="round" stroke-width="0.985"/><circle cx="2.534" cy="2.534" r="2.534" transform="translate(8270.928 459.271)" fill="#fff" stroke="#515151" stroke-linecap="round" stroke-linejoin="round" stroke-width="0.985"/><circle cx="1.903" cy="1.903" r="1.903" transform="translate(8266.668 460.533)" fill="#fff" stroke="#515151" stroke-linecap="round" stroke-linejoin="round" stroke-width="0.985"/><ellipse cx="1.903" cy="2.045" rx="1.903" ry="2.045" transform="translate(8262.691 460.533)" fill="#fff" stroke="#515151" stroke-linecap="round" stroke-linejoin="round" stroke-width="0.985"/><ellipse cx="1.726" cy="2.089" rx="1.726" ry="2.089" transform="translate(8274.492 450.871)" fill="#fff" stroke="#515151" stroke-linecap="round" stroke-linejoin="round" stroke-width="0.985"/><ellipse cx="1.726" cy="2.267" rx="1.726" ry="2.267" transform="translate(8271.144 448.388)" fill="#fff" stroke="#515151" stroke-linecap="round" stroke-linejoin="round" stroke-width="0.985"/><ellipse cx="1.726" cy="2.267" rx="1.726" ry="2.267" transform="translate(8267.476 447.792)" fill="#fff" stroke="#515151" stroke-linecap="round" stroke-linejoin="round" stroke-width="0.985"/><path d="M8271.144,443.522l4.86-.627,7.839.611-7.36,1.6-2.88.786A2.52,2.52,0,0,0,8271.144,443.522Z" fill="#fff" stroke="#515151" stroke-linecap="round" stroke-linejoin="round" stroke-width="0.985"/><path d="M8266.023,444.024l5.12-.5s-1.786.673-1.941,2.029-.712.511-.712.511S8267.846,443.965,8266.023,444.024Z" fill="#fff" stroke="#515151" stroke-linecap="round" stroke-linejoin="round" stroke-width="0.985"/><path d="M8260.933,445.331l3.424-.692a4.445,4.445,0,0,0-.359,1.824c.152.525-.618.421-.618.421A2.266,2.266,0,0,0,8260.933,445.331Z" fill="#fff" stroke="#515151" stroke-linecap="round" stroke-linejoin="round" stroke-width="0.985"/><line y1="15.738" x2="53.763" transform="translate(8278.39 450.871)" fill="#fff" stroke="#515151" stroke-linecap="round" stroke-linejoin="round" stroke-width="0.985"/><path d="M8332.152,453.864l-54.423,16.36-3.237.356" fill="#fff" stroke="#515151" stroke-linecap="round" stroke-linejoin="round" stroke-width="0.985"/><path d="M8340.542,455.938l-44.222,13.8s-10.126.738-14.094-.8" fill="#fff" stroke="#515151" stroke-linecap="round" stroke-linejoin="round" stroke-width="0.985"/><path d="M8348.377,457.419l-36.586,11.824s-11.019.95-12.311-.324" fill="#fff" stroke="#515151" stroke-linecap="round" stroke-linejoin="round" stroke-width="0.985"/><path d="M8371.7,454.2a72.936,72.936,0,0,0,.532-13.069,57.713,57.713,0,0,0-1.857-9.087l-113.121-15.832s-6.3-.864-7.7,11.409c-1.163,10.263,17.095,14.1,17.095,14.1l7.345-.154,17.341,2.528,78.079,17.577C8370.376,459.545,8370.889,459.176,8371.7,454.2Z" fill="#fff" stroke="#515151" stroke-miterlimit="10" stroke-width="0.94"/><path d="M8262.048,438.35l.779.6,1.11,1.464,17.545-9.081" fill="none" stroke="#515151" stroke-linecap="round" stroke-linejoin="round" stroke-width="0.94" stroke-dasharray="1.88"/><path d="M8324.952,423.874s-7.844-2.542-13.776-1.888-35.3,3.967-35.3,3.967l.335,4.019.543.539Z" fill="#fff" stroke="#515151" stroke-linecap="round" stroke-linejoin="round" stroke-width="0.985"/><path d="M8330.941,426.524l-55.854,8.67-.943-3.217,2.608-1.466,48.918-6.736Z" fill="#fff" stroke="#515151" stroke-linecap="round" stroke-linejoin="round" stroke-width="0.985"/><path d="M8310.609,422.048s-7.855-2.552-12.113-2.96a43.926,43.926,0,0,0-5.181.049c-7.118.349-18,1.439-18,1.439l-.41,2.515.974,2.862Z" fill="#fff" stroke="#515151" stroke-linecap="round" stroke-linejoin="round" stroke-width="0.985"/><path d="M8282.291,416.443c-1.867.28-10.3.453-10.3.453l.772,3.82,2.546-.14,18.291-1.453S8284.646,416.09,8282.291,416.443Z" fill="#fff" stroke="#515151" stroke-linecap="round" stroke-linejoin="round" stroke-width="0.985"/><ellipse cx="2.685" cy="2.512" rx="2.685" ry="2.512" transform="translate(8268.772 421.722) rotate(-80.729)" fill="#fff" stroke="#515151" stroke-linecap="round" stroke-linejoin="round" stroke-width="0.985"/><ellipse cx="2.512" cy="2.334" rx="2.512" ry="2.334" transform="translate(8272.132 425.702) rotate(-80.729)" fill="#fff" stroke="#515151" stroke-linecap="round" stroke-linejoin="round" stroke-width="0.985"/><ellipse cx="2.294" cy="2.132" rx="2.294" ry="2.132" transform="translate(8271.708 434.922) rotate(-80.729)" fill="#fff" stroke="#515151" stroke-linecap="round" stroke-linejoin="round" stroke-width="0.985"/><ellipse cx="2.568" cy="2.132" rx="2.568" ry="2.132" transform="translate(8268.142 437.964) rotate(-80.729)" fill="#fff" stroke="#515151" stroke-linecap="round" stroke-linejoin="round" stroke-width="0.985"/><ellipse cx="2.568" cy="2.132" rx="2.568" ry="2.132" transform="translate(8263.337 440.913) rotate(-80.729)" fill="#fff" stroke="#515151" stroke-linecap="round" stroke-linejoin="round" stroke-width="0.985"/><ellipse cx="2.415" cy="1.89" rx="2.415" ry="1.89" transform="translate(8259.581 439.99) rotate(-80.729)" fill="#fff" stroke="#515151" stroke-linecap="round" stroke-linejoin="round" stroke-width="0.985"/><ellipse cx="2.415" cy="1.89" rx="2.415" ry="1.89" transform="translate(8255.512 439.325) rotate(-80.729)" fill="#fff" stroke="#515151" stroke-linecap="round" stroke-linejoin="round" stroke-width="0.985"/><circle cx="2.112" cy="2.112" r="2.112" transform="translate(8273.529 426.303)" fill="#fff" stroke="#515151" stroke-linecap="round" stroke-linejoin="round" stroke-width="0.985"/><ellipse cx="2.386" cy="2.201" rx="2.386" ry="2.201" transform="translate(8264.783 418.842) rotate(-80.729)" fill="#fff" stroke="#515151" stroke-linecap="round" stroke-linejoin="round" stroke-width="0.985"/><ellipse cx="2.127" cy="2.201" rx="2.127" ry="2.201" transform="translate(8259.62 418) rotate(-80.729)" fill="#fff" stroke="#515151" stroke-linecap="round" stroke-linejoin="round" stroke-width="0.985"/><ellipse cx="2.266" cy="2.03" rx="2.266" ry="2.03" transform="translate(8251.063 420.505) rotate(-80.729)" fill="#fff" stroke="#515151" stroke-linecap="round" stroke-linejoin="round" stroke-width="0.985"/><ellipse cx="2.266" cy="2.03" rx="2.266" ry="2.03" transform="translate(8254.773 418.815) rotate(-80.729)" fill="#fff" stroke="#515151" stroke-linecap="round" stroke-linejoin="round" stroke-width="0.985"/><ellipse cx="2.08" cy="1.863" rx="2.08" ry="1.863" transform="translate(8257.98 421.879) rotate(-80.729)" fill="#fff" stroke="#515151" stroke-linecap="round" stroke-linejoin="round" stroke-width="0.985"/><ellipse cx="2.08" cy="1.863" rx="2.08" ry="1.863" transform="translate(8254.363 423.396) rotate(-80.729)" fill="#fff" stroke="#515151" stroke-linecap="round" stroke-linejoin="round" stroke-width="0.985"/><ellipse cx="2.08" cy="1.863" rx="2.08" ry="1.863" transform="translate(8251.505 427.275) rotate(-80.729)" fill="#fff" stroke="#515151" stroke-linecap="round" stroke-linejoin="round" stroke-width="0.985"/><ellipse cx="2.08" cy="1.863" rx="2.08" ry="1.863" transform="translate(8247.532 428.478) rotate(-80.729)" fill="#fff" stroke="#515151" stroke-linecap="round" stroke-linejoin="round" stroke-width="0.985"/><ellipse cx="2.08" cy="1.684" rx="2.08" ry="1.684" transform="translate(8252.406 432.299) rotate(-80.729)" fill="#fff" stroke="#515151" stroke-linecap="round" stroke-linejoin="round" stroke-width="0.985"/><ellipse cx="2.08" cy="1.684" rx="2.08" ry="1.684" transform="translate(8248.639 433.263) rotate(-80.729)" fill="#fff" stroke="#515151" stroke-linecap="round" stroke-linejoin="round" stroke-width="0.985"/><ellipse cx="2.243" cy="2.103" rx="2.243" ry="2.103" transform="translate(8251.128 436.838) rotate(-80.729)" fill="#fff" stroke="#515151" stroke-linecap="round" stroke-linejoin="round" stroke-width="0.985"/><ellipse cx="2.08" cy="1.863" rx="2.08" ry="1.863" transform="translate(8248.828 423.672) rotate(-80.729)" fill="#fff" stroke="#515151" stroke-linecap="round" stroke-linejoin="round" stroke-width="0.985"/><ellipse cx="2.08" cy="1.863" rx="2.08" ry="1.863" transform="translate(8254.9 429.186) rotate(-80.729)" fill="#fff" stroke="#515151" stroke-linecap="round" stroke-linejoin="round" stroke-width="0.985"/><ellipse cx="2.08" cy="1.863" rx="2.08" ry="1.863" transform="translate(8258.578 429.786) rotate(-80.729)" fill="#fff" stroke="#515151" stroke-linecap="round" stroke-linejoin="round" stroke-width="0.985"/><ellipse cx="1.953" cy="1.75" rx="1.953" ry="1.75" transform="translate(8261.654 430.911) rotate(-80.729)" fill="#fff" stroke="#515151" stroke-linecap="round" stroke-linejoin="round" stroke-width="0.985"/><ellipse cx="2.08" cy="1.863" rx="2.08" ry="1.863" transform="translate(8257.706 426.049) rotate(-80.729)" fill="#fff" stroke="#515151" stroke-linecap="round" stroke-linejoin="round" stroke-width="0.985"/><ellipse cx="2.08" cy="1.863" rx="2.08" ry="1.863" transform="translate(8261.538 426.674) rotate(-80.729)" fill="#fff" stroke="#515151" stroke-linecap="round" stroke-linejoin="round" stroke-width="0.985"/><ellipse cx="2.08" cy="1.863" rx="2.08" ry="1.863" transform="translate(8265.02 428.595) rotate(-80.729)" fill="#fff" stroke="#515151" stroke-linecap="round" stroke-linejoin="round" stroke-width="0.985"/><circle cx="2.534" cy="2.534" r="2.534" transform="translate(8268.405 427.163)" fill="#fff" stroke="#515151" stroke-linecap="round" stroke-linejoin="round" stroke-width="0.985"/><circle cx="2.534" cy="2.534" r="2.534" transform="translate(8264.274 430.346)" fill="#fff" stroke="#515151" stroke-linecap="round" stroke-linejoin="round" stroke-width="0.985"/><circle cx="1.903" cy="1.903" r="1.903" transform="translate(8259.977 430.811)" fill="#fff" stroke="#515151" stroke-linecap="round" stroke-linejoin="round" stroke-width="0.985"/><ellipse cx="2.045" cy="1.903" rx="2.045" ry="1.903" transform="translate(8255.725 433.925) rotate(-80.729)" fill="#fff" stroke="#515151" stroke-linecap="round" stroke-linejoin="round" stroke-width="0.985"/><ellipse cx="2.089" cy="1.726" rx="2.089" ry="1.726" transform="translate(8268.913 426.378) rotate(-80.729)" fill="#fff" stroke="#515151" stroke-linecap="round" stroke-linejoin="round" stroke-width="0.985"/><ellipse cx="2.267" cy="1.726" rx="2.267" ry="1.726" transform="translate(8265.951 423.739) rotate(-80.729)" fill="#fff" stroke="#515151" stroke-linecap="round" stroke-linejoin="round" stroke-width="0.985"/><ellipse cx="2.267" cy="1.726" rx="2.267" ry="1.726" transform="translate(8262.427 422.56) rotate(-80.729)" fill="#fff" stroke="#515151" stroke-linecap="round" stroke-linejoin="round" stroke-width="0.985"/><path d="M8267.466,414.462l4.9.163,7.638,1.866-7.522.394-2.968.312A2.519,2.519,0,0,0,8267.466,414.462Z" fill="#fff" stroke="#515151" stroke-linecap="round" stroke-linejoin="round" stroke-width="0.985"/><path d="M8262.331,414.133l5.135.329s-1.872.376-2.244,1.689-.783.39-.783.39S8264.139,414.368,8262.331,414.133Z" fill="#fff" stroke="#515151" stroke-linecap="round" stroke-linejoin="round" stroke-width="0.985"/><path d="M8257.1,414.6l3.489-.132a4.463,4.463,0,0,0-.647,1.742c.064.543-.679.316-.679.316A2.263,2.263,0,0,0,8257.1,414.6Z" fill="#fff" stroke="#515151" stroke-linecap="round" stroke-linejoin="round" stroke-width="0.985"/><line y1="9.411" x2="76.149" transform="translate(8270.897 429.003)" fill="#fff" stroke="#515151" stroke-linecap="round" stroke-linejoin="round" stroke-width="0.985"/><path d="M8356.454,430.511l-86.791,11.365-3.252-.17" fill="#fff" stroke="#515151" stroke-linecap="round" stroke-linejoin="round" stroke-width="0.985"/><path d="M8370.376,432.739l-82.286,11.649s-10.112-.9-13.78-3.056" fill="#fff" stroke="#515151" stroke-linecap="round" stroke-linejoin="round" stroke-width="0.985"/><path d="M8371.394,436.07l-67.955,10.325s-11.028-.838-12.1-2.3" fill="#fff" stroke="#515151" stroke-linecap="round" stroke-linejoin="round" stroke-width="0.985"/><line y1="9.268" x2="22.473" transform="translate(8335.173 459.019)" fill="#fff" stroke="#515151" stroke-linecap="round" stroke-linejoin="round" stroke-width="0.985"/><line y1="7.045" x2="12.777" transform="translate(8353.313 460.92)" fill="#fff" stroke="#515151" stroke-linecap="round" stroke-linejoin="round" stroke-width="0.985"/><line y1="8.276" x2="57.287" transform="translate(8314.945 441.13)" fill="#fff" stroke="#515151" stroke-linecap="round" stroke-linejoin="round" stroke-width="0.985"/><line y1="6.264" x2="42.837" transform="translate(8329.396 446.395)" fill="#fff" stroke="#515151" stroke-linecap="round" stroke-linejoin="round" stroke-width="0.985"/><path d="M8343.589,455.48c.176-.094,28.436-4.157,28.436-4.157" fill="#fff" stroke="#515151" stroke-linecap="round" stroke-linejoin="round" stroke-width="0.985"/><line y1="1.791" x2="11.332" transform="translate(8359.702 457.227)" fill="#fff" stroke="#515151" stroke-linecap="round" stroke-linejoin="round" stroke-width="0.985"/></g></g><rect width="189" height="92" transform="translate(1125 7715)" fill="none"/></g></svg>