<svg xmlns="http://www.w3.org/2000/svg" width="64.232" height="76.625" viewBox="0 0 64.232 76.625"><g transform="translate(-586.64 1216.474)"><rect width="48.945" height="1.512" transform="translate(594.284 -1141.361)" fill="#0ac4bf"/><g transform="translate(0 -5.282)"><path d="M647.66-1200.989h-1.167a6.548,6.548,0,0,0-6.326-5.669v-2.267a1.1,1.1,0,0,0-1.071-1.133,1.1,1.1,0,0,0-1.07,1.133v2.267h-3.212v-1.133a3.311,3.311,0,0,0-3.212-3.4H620.9a3.311,3.311,0,0,0-3.212,3.4v1.133h-18.2a7.733,7.733,0,0,0-7.493,7.936v10.2a5.524,5.524,0,0,0,5.352,5.668h1.071v4.535a2.208,2.208,0,0,0,2.141,2.268v5.668h-.91c-2.2-.128-5.131-.71-5.542-2.532a1.068,1.068,0,0,0-1.291-.838,1.137,1.137,0,0,0-.792,1.366,4.242,4.242,0,0,0,1.078,2h-2.178a4.413,4.413,0,0,0-4.282,4.534v9.07a4.414,4.414,0,0,0,4.282,4.535h53.527a6.627,6.627,0,0,0,6.423-6.8v-5.634a19.216,19.216,0,0,0-2.282-9.1,16.843,16.843,0,0,1-2-7.971v-3.366h1.07a3.311,3.311,0,0,0,3.212-3.4v-9.07A3.31,3.31,0,0,0,647.66-1200.989Zm-27.833-6.8a1.1,1.1,0,0,1,1.07-1.134H631.6a1.1,1.1,0,0,1,1.071,1.134v1.133H619.827Zm-25.693,19.272v-10.2a5.525,5.525,0,0,1,5.352-5.669h1.071v19.272h-3.212A3.31,3.31,0,0,1,594.134-1188.518Zm8.564,5.668v4.535h-2.141v-4.535Zm0,6.8a2.207,2.207,0,0,0,2.141-2.268v-4.535h4.282a2.206,2.206,0,0,0,2.141-2.267,7.733,7.733,0,0,1,7.494-7.935h1.071c4.437,0,6.423,3.985,6.423,7.935v13.6a1.1,1.1,0,0,1-1.071,1.133H602.7ZM613.4-1193.6a9.929,9.929,0,0,0-2.141,2.079v-4.938a1.1,1.1,0,0,1,1.071-1.134,1.1,1.1,0,0,1,1.07,1.134Zm-24.622,36.819v-9.07a2.207,2.207,0,0,1,2.141-2.267h8.549c.408.023.785.033,1.109.033.517,0,.894-.02,1.07-.033h10.683v13.6H590.922A2.207,2.207,0,0,1,588.781-1156.776Zm57.95-15.872a16.842,16.842,0,0,1,2,7.971v5.634a4.414,4.414,0,0,1-4.282,4.535H614.474v-13.6h10.705a3.31,3.31,0,0,0,3.212-3.4v-13.6c0-6.009-3.522-10.2-8.564-10.2h-1.071a9.128,9.128,0,0,0-3.212.6v-1.728a3.31,3.31,0,0,0-3.211-3.4,3.311,3.311,0,0,0-3.212,3.4v10.2a1.177,1.177,0,0,0,.044.227c-.026.3-.044.6-.044.907H602.7v-19.272h2.141v11.337a1.1,1.1,0,0,0,1.071,1.133,1.1,1.1,0,0,0,1.07-1.133v-11.337h33.187a4.413,4.413,0,0,1,4.282,4.534v18.1A19.206,19.206,0,0,0,646.731-1172.648Zm2-15.871a1.1,1.1,0,0,1-1.071,1.133h-1.07v-11.336h1.07a1.1,1.1,0,0,1,1.071,1.133Z" fill="#0ac4bf"/><path d="M636.955-1183.358a6.423,6.423,0,0,0-5.934,3.965,6.424,6.424,0,0,0,1.392,7,6.424,6.424,0,0,0,7,1.392,6.423,6.423,0,0,0,3.965-5.934A6.429,6.429,0,0,0,636.955-1183.358Zm0,10.705a4.282,4.282,0,0,1-4.282-4.282,4.282,4.282,0,0,1,4.282-4.282,4.282,4.282,0,0,1,4.282,4.282A4.282,4.282,0,0,1,636.955-1172.653Z" transform="translate(0 2.134)" fill="#0ac4bf"/><path d="M636.955-1188.711a5.353,5.353,0,0,0,5.353-5.352,5.353,5.353,0,0,0-5.353-5.353,5.353,5.353,0,0,0-5.353,5.353A5.36,5.36,0,0,0,636.955-1188.711Zm0-8.564a3.212,3.212,0,0,1,3.212,3.212,3.212,3.212,0,0,1-3.212,3.211,3.212,3.212,0,0,1-3.212-3.211A3.213,3.213,0,0,1,636.955-1197.275Z" transform="translate(0 0.86)" fill="#0ac4bf"/><path d="M627.32-1202.628h-8.564a1.071,1.071,0,0,0-1.071,1.071,1.071,1.071,0,0,0,1.071,1.07h8.564a1.07,1.07,0,0,0,1.071-1.07A1.07,1.07,0,0,0,627.32-1202.628Z" fill="#0ac4bf"/><path d="M638.026-1176.935a1.071,1.071,0,0,1-1.071,1.071,1.071,1.071,0,0,1-1.07-1.071,1.07,1.07,0,0,1,1.07-1.07A1.07,1.07,0,0,1,638.026-1176.935Z" transform="translate(0 2.035)" fill="#0ac4bf"/></g></g></svg>