<svg xmlns="http://www.w3.org/2000/svg" width="295.042" height="800.38" viewBox="0 0 295.042 800.38"><g transform="translate(-3374.456 -570.786)"><rect width="295" height="800.38" transform="translate(3374.477 570.786)" fill="#fff"/><rect width="294" height="799.295" transform="translate(3374.977 571.328)" fill="none" stroke="#707070" stroke-width="1.041"/><path d="M3422.782,806.771a31.23,31.23,0,0,1-5.094,2.3c1.85,7.246,4.272,16.032,7.024,24.287,1.245,3.733,1.064,6.7-.551,9.085-3.285,4.84-12.076,6.357-15.187,6.533l.152,2.746.148,2.747c.566-.03,13.927-.838,19.429-8.92,2.615-3.843,3.029-8.531,1.229-13.932C3427.108,823.147,3424.633,814.089,3422.782,806.771Z" fill="#fff" stroke="#000" stroke-miterlimit="10" stroke-width="1.375"/><path d="M3478.853,806.685a21.909,21.909,0,0,1-5.1,2.286c1.852,7.26,4.282,16.084,7.049,24.385,2.289,6.865-.64,10.14-6.471,13.479-3.193,1.826-10.868,1.94-13.493,1.3-3.63-.885-8.376-2.7-10.373-6.312-1.258-2.273-1.314-5.042-.172-8.466,2.758-8.276,5.184-17.073,7.033-24.321a23.132,23.132,0,0,1-5.149-2.075c-1.845,7.279-4.3,16.251-7.1,24.655-1.632,4.9-1.437,9.225.576,12.869,2.962,5.359,9.187,7.849,13.887,9,3.394.83,12.658.92,17.53-1.871,3.925-2.247,13.117-7.51,8.956-19.994C3483.189,823.1,3480.706,814.011,3478.853,806.685Z" fill="#fff" stroke="#000" stroke-miterlimit="10" stroke-width="1.375"/><path d="M3535.7,807.046a16.211,16.211,0,0,1-5.1,2.252c1.841,7.2,4.242,15.884,6.967,24.058,1.155,3.464,1.084,6.259-.217,8.548-2.248,3.955-7.913,5.712-11.093,6.407a33.393,33.393,0,0,1-7.531.207c-3.451-.646-9.6-2.35-12.055-6.512-1.356-2.306-1.446-5.136-.275-8.65,2.771-8.315,5.2-17.154,7.057-24.421a34.662,34.662,0,0,1-5.159-2.035c-1.847,7.289-4.309,16.287-7.118,24.715-1.68,5.042-1.427,9.476.754,13.182,3.376,5.736,10.446,8.131,15.783,9.129a36.71,36.71,0,0,0,9.722-.24c4.973-1.088,11.561-3.544,14.7-9.063,2.087-3.671,2.308-8.048.654-13.008C3539.992,823.245,3537.544,814.31,3535.7,807.046Z" fill="#fff" stroke="#000" stroke-miterlimit="10" stroke-width="1.375"/><path d="M3591.729,806.782a27.341,27.341,0,0,1-5.1,2.283c1.848,7.242,4.27,16.026,7.024,24.291,1.142,3.424,1.085,6.192-.171,8.466-2,3.613-6.744,5.427-10.375,6.312-2.622.641-10.3.529-13.493-1.3-5.831-3.339-8.759-6.614-6.47-13.479,2.758-8.274,5.182-17.068,7.031-24.315a17.148,17.148,0,0,1-5.12-2.193c-1.849,7.3-4.315,16.319-7.131,24.767-4.161,12.484,5.031,17.747,8.956,19.994,4.871,2.79,14.134,2.7,17.53,1.871,4.7-1.147,10.926-3.637,13.888-9,2.014-3.643,2.207-7.972.575-12.868C3596.053,823.142,3593.579,814.092,3591.729,806.782Z" fill="#fff" stroke="#000" stroke-miterlimit="10" stroke-width="1.375"/><path d="M3619.794,842.441c-1.616-2.38-1.8-5.352-.552-9.085,2.764-8.294,5.194-17.111,7.045-24.369a25.336,25.336,0,0,1-5.16-2.032c-1.846,7.281-4.3,16.255-7.1,24.66-1.8,5.4-1.386,10.089,1.23,13.932,5.5,8.082,18.862,8.89,19.428,8.92l.3-5.493C3631.87,848.8,3623.078,847.281,3619.794,842.441Z" fill="#fff" stroke="#000" stroke-miterlimit="10" stroke-width="1.375"/><path d="M3634.68,678.791c-.566-.031-13.926-.838-19.428-8.92-2.616-3.843-3.03-8.531-1.23-13.932,3.565-10.691,6.575-22.316,8.472-30.184.752-3.123,2-10.709-2.66-13.673-1.746-1.111-6.994-2.761-13.193-2.945l-.942.02c-5.57.237-10.685,1.685-12.634,2.925-4.661,2.966-3.412,10.55-2.659,13.673,1.9,7.867,4.907,19.49,8.471,30.184,1.632,4.9,1.439,9.225-.575,12.868-2.962,5.359-9.186,7.85-13.888,9-3.4.829-12.659.919-17.53-1.871-3.925-2.247-13.117-7.51-8.956-19.994,3.564-10.694,6.574-22.317,8.471-30.184.753-3.123,2-10.707-2.66-13.673-1.746-1.112-6.994-2.761-13.192-2.945l-.942.02c-5.57.237-10.685,1.685-12.636,2.925-4.659,2.964-3.41,10.55-2.658,13.673,1.9,7.868,4.907,19.493,8.472,30.184,1.654,4.96,1.433,9.337-.654,13.008-3.137,5.519-9.725,7.974-14.7,9.062a36.672,36.672,0,0,1-9.722.241c-5.337-1-12.407-3.393-15.783-9.129-2.181-3.706-2.434-8.14-.754-13.182,3.564-10.694,6.574-22.317,8.471-30.184.753-3.123,2-10.707-2.66-13.673-1.948-1.24-7.063-2.688-12.7-2.927l-1-.016c-6.069.182-11.317,1.832-13.065,2.943-4.659,2.964-3.41,10.55-2.658,13.673,1.9,7.867,4.907,19.49,8.471,30.184,4.161,12.484-5.031,17.747-8.956,19.994-4.872,2.791-14.136,2.7-17.53,1.871-4.7-1.147-10.925-3.638-13.887-9-2.013-3.644-2.208-7.973-.576-12.869,3.565-10.691,6.575-22.316,8.472-30.184.752-3.123,2-10.709-2.66-13.673-1.949-1.24-7.064-2.688-12.7-2.927l-1-.016c-6.068.182-11.316,1.831-13.063,2.943-4.662,2.966-3.412,10.55-2.659,13.673,1.9,7.875,4.91,19.505,8.471,30.184,1.8,5.4,1.386,10.089-1.229,13.932-5.5,8.082-18.863,8.889-19.429,8.92l-.3-5.494.148,2.747-.152-2.747c3.111-.176,11.9-1.692,15.187-6.532,1.615-2.38,1.8-5.353.551-9.086-3.621-10.864-6.676-22.656-8.6-30.635-2.178-9.029-.337-16.175,5.055-19.6,3.229-2.053,9.8-3.617,15.982-3.8l1.2.018c6.047.256,12.39,1.81,15.492,3.783,5.389,3.43,7.231,10.576,5.054,19.6-1.922,7.974-4.975,19.759-8.6,30.635-1.142,3.424-1.086,6.194.172,8.467,2,3.613,6.743,5.427,10.373,6.312,2.625.641,10.3.526,13.493-1.3,5.831-3.339,8.76-6.614,6.471-13.48-3.626-10.877-6.678-22.663-8.6-30.635-2.176-9.029-.334-16.175,5.054-19.6,3.23-2.053,9.8-3.617,15.984-3.8l1.2.018c6.049.256,12.39,1.812,15.491,3.783,5.391,3.431,7.233,10.577,5.054,19.6-1.922,7.972-4.974,19.758-8.6,30.635-1.171,3.514-1.081,6.345.275,8.651,2.45,4.161,8.6,5.866,12.055,6.512a33.451,33.451,0,0,0,7.531-.207c3.18-.7,8.845-2.453,11.093-6.407,1.3-2.289,1.372-5.084.217-8.549-3.625-10.876-6.678-22.661-8.6-30.635-2.176-9.029-.334-16.175,5.054-19.6,3.1-1.973,9.445-3.527,15.424-3.781l1.141-.021c6.31.185,12.883,1.749,16.112,3.8,5.392,3.431,7.233,10.577,5.054,19.6-1.922,7.972-4.974,19.758-8.6,30.635-2.289,6.866.639,10.141,6.47,13.48,3.192,1.828,10.871,1.94,13.493,1.3,3.631-.885,8.378-2.7,10.375-6.312,1.256-2.274,1.313-5.043.171-8.467-3.625-10.877-6.677-22.663-8.6-30.635-2.179-9.028-.338-16.174,5.053-19.6,3.1-1.971,9.443-3.527,15.423-3.781l1.14-.021c6.312.185,12.885,1.749,16.114,3.8,5.389,3.43,7.231,10.576,5.055,19.6-1.923,7.974-4.976,19.759-8.6,30.635-1.244,3.733-1.064,6.706.552,9.086,3.284,4.84,12.076,6.356,15.185,6.532Z" fill="#f9f9f9" stroke="#000" stroke-miterlimit="10" stroke-width="1.375"/><path d="M3464.949,675.963" fill="none" stroke="#000" stroke-miterlimit="10" stroke-width="5.502"/><path d="M3579,675.963" fill="none" stroke="#000" stroke-miterlimit="10" stroke-width="5.502"/><path d="M3422.782,675.014a31.318,31.318,0,0,1-5.094,2.3c1.85,7.246,4.272,16.032,7.024,24.287,1.245,3.732,1.064,6.705-.551,9.085-3.285,4.84-12.076,6.356-15.187,6.532l.152,2.747.148,2.747c.566-.031,13.927-.838,19.429-8.92,2.615-3.843,3.029-8.531,1.229-13.932C3427.108,691.39,3424.633,682.332,3422.782,675.014Z" fill="#fff" stroke="#000" stroke-miterlimit="10" stroke-width="1.375"/><path d="M3453.64,669.274a17.436,17.436,0,0,0,5.043,2.574c.089-.365.13-.534.214-.885,2.177-9.029.335-16.175-5.054-19.6-3.1-1.974-9.445-3.528-15.492-3.784l-1.2-.018c-6.18.184-12.753,1.748-15.982,3.8-5.392,3.429-7.233,10.575-5.055,19.6.067.277.138.569.208.855a23.426,23.426,0,0,0,5.114-2.265c-.756-3.189-1.92-10.621,2.686-13.552,1.747-1.112,6.995-2.761,13.063-2.943l1,.016c5.639.239,10.754,1.687,12.7,2.927C3455.367,658.849,3454.391,665.95,3453.64,669.274Z" fill="#fff" stroke="#000" stroke-miterlimit="10" stroke-width="1.375"/><path d="M3478.853,674.928a21.906,21.906,0,0,1-5.1,2.286c1.852,7.26,4.282,16.084,7.049,24.385,2.289,6.865-.64,10.14-6.471,13.479-3.193,1.825-10.868,1.94-13.493,1.3-3.63-.885-8.376-2.7-10.373-6.312-1.258-2.273-1.314-5.043-.172-8.466,2.758-8.276,5.184-17.073,7.033-24.321a23.132,23.132,0,0,1-5.149-2.075c-1.845,7.279-4.3,16.251-7.1,24.655-1.632,4.9-1.437,9.225.576,12.869,2.962,5.358,9.187,7.849,13.887,9,3.394.83,12.658.92,17.53-1.871,3.925-2.247,13.117-7.51,8.956-19.994C3483.189,691.347,3480.706,682.254,3478.853,674.928Z" fill="#fff" stroke="#000" stroke-miterlimit="10" stroke-width="1.375"/><path d="M3509.71,669.379a22.265,22.265,0,0,0,5.067,2.468c.09-.368.129-.531.214-.884,2.179-9.028.337-16.174-5.054-19.6-3.1-1.972-9.442-3.528-15.491-3.784l-1.2-.018c-6.181.184-12.754,1.748-15.984,3.8-5.388,3.429-7.23,10.575-5.054,19.6l.21.865a18.342,18.342,0,0,0,5.025-2.655c-.747-3.366-1.658-10.354,2.772-13.172,1.748-1.111,7-2.761,13.065-2.943l1,.016c5.639.239,10.754,1.687,12.7,2.927C3511.51,658.881,3510.464,666.1,3509.71,669.379Z" fill="#fff" stroke="#000" stroke-miterlimit="10" stroke-width="1.375"/><path d="M3535.7,675.289a16.211,16.211,0,0,1-5.1,2.252c1.841,7.2,4.242,15.884,6.967,24.058,1.155,3.464,1.084,6.259-.217,8.548-2.248,3.954-7.913,5.711-11.093,6.407a33.451,33.451,0,0,1-7.531.207c-3.451-.646-9.6-2.351-12.055-6.512-1.356-2.306-1.446-5.137-.275-8.65,2.771-8.315,5.2-17.154,7.057-24.421a34.656,34.656,0,0,1-5.159-2.035c-1.847,7.289-4.309,16.287-7.118,24.715-1.68,5.042-1.427,9.476.754,13.182,3.376,5.736,10.446,8.131,15.783,9.129a36.709,36.709,0,0,0,9.722-.24c4.973-1.089,11.561-3.544,14.7-9.063,2.087-3.671,2.308-8.048.654-13.008C3539.992,691.487,3537.544,682.553,3535.7,675.289Z" fill="#fff" stroke="#000" stroke-miterlimit="10" stroke-width="1.375"/><path d="M3566.507,669.2a15.052,15.052,0,0,0,5.007,2.724c.092-.379.146-.6.233-.963,2.179-9.028.338-16.174-5.054-19.6-3.229-2.054-9.8-3.618-16.112-3.8l-1.141.021c-5.979.254-12.321,1.808-15.424,3.782-5.388,3.429-7.23,10.575-5.054,19.6l.213.877a20.854,20.854,0,0,0,5.11-2.281c-.754-3.185-1.923-10.627,2.684-13.558,1.951-1.24,7.066-2.688,12.636-2.924l.942-.021c6.2.184,11.446,1.833,13.192,2.945C3568.185,658.829,3567.256,665.848,3566.507,669.2Z" fill="#fff" stroke="#000" stroke-miterlimit="10" stroke-width="1.375"/><path d="M3591.729,675.025a27.409,27.409,0,0,1-5.1,2.283c1.848,7.242,4.27,16.026,7.024,24.291,1.142,3.423,1.085,6.192-.171,8.466-2,3.613-6.744,5.427-10.375,6.312-2.622.641-10.3.529-13.493-1.3-5.831-3.339-8.759-6.614-6.47-13.479,2.758-8.274,5.182-17.068,7.031-24.315a17.171,17.171,0,0,1-5.12-2.193c-1.849,7.3-4.315,16.319-7.131,24.767-4.161,12.484,5.031,17.747,8.956,19.994,4.871,2.79,14.134,2.7,17.53,1.871,4.7-1.147,10.926-3.638,13.888-9,2.014-3.643,2.207-7.972.575-12.868C3596.053,691.384,3593.579,682.335,3591.729,675.025Z" fill="#fff" stroke="#000" stroke-miterlimit="10" stroke-width="1.375"/><path d="M3622.543,669.459a17.071,17.071,0,0,0,5.087,2.38c.083-.34.133-.548.213-.876,2.176-9.029.334-16.175-5.055-19.6-3.229-2.054-9.8-3.618-16.114-3.8l-1.14.021c-5.98.254-12.322,1.81-15.423,3.782-5.391,3.43-7.232,10.576-5.053,19.6.066.275.137.566.206.85a25.331,25.331,0,0,0,5.062-2.485c-.754-3.17-1.883-10.386,2.739-13.327,1.949-1.24,7.064-2.688,12.634-2.924l.942-.021c6.2.184,11.447,1.834,13.193,2.945C3624.4,658.9,3623.3,666.221,3622.543,669.459Z" fill="#fff" stroke="#000" stroke-miterlimit="10" stroke-width="1.375"/><path d="M3619.794,710.684c-1.616-2.38-1.8-5.353-.552-9.085,2.764-8.294,5.194-17.111,7.045-24.369a25.329,25.329,0,0,1-5.16-2.032c-1.846,7.28-4.3,16.255-7.1,24.66-1.8,5.4-1.386,10.089,1.23,13.932,5.5,8.082,18.862,8.889,19.428,8.92l.3-5.494C3631.87,717.04,3623.078,715.524,3619.794,710.684Z" fill="#fff" stroke="#000" stroke-miterlimit="10" stroke-width="1.375"/><path d="M3464.949,895.558" fill="none" stroke="#000" stroke-miterlimit="10" stroke-width="5.502"/><path d="M3579,895.558" fill="none" stroke="#000" stroke-miterlimit="10" stroke-width="5.502"/><path d="M3422.782,894.609a31.23,31.23,0,0,1-5.094,2.3c1.85,7.246,4.272,16.032,7.024,24.287,1.245,3.733,1.064,6.705-.551,9.085-3.285,4.84-12.076,6.357-15.187,6.533l.152,2.747.148,2.747c.566-.031,13.927-.839,19.429-8.921,2.615-3.843,3.029-8.531,1.229-13.932C3427.108,910.985,3424.633,901.927,3422.782,894.609Z" fill="#fff" stroke="#000" stroke-miterlimit="10" stroke-width="1.375"/><path d="M3478.853,894.523a21.911,21.911,0,0,1-5.1,2.286c1.852,7.26,4.282,16.084,7.049,24.385,2.289,6.865-.64,10.14-6.471,13.479-3.193,1.826-10.868,1.94-13.493,1.3-3.63-.885-8.376-2.7-10.373-6.312-1.258-2.273-1.314-5.042-.172-8.466,2.758-8.275,5.184-17.073,7.033-24.321a23.129,23.129,0,0,1-5.149-2.075c-1.845,7.279-4.3,16.252-7.1,24.655-1.632,4.9-1.437,9.225.576,12.87,2.962,5.358,9.187,7.848,13.887,8.995,3.394.83,12.658.92,17.53-1.871,3.925-2.247,13.117-7.51,8.956-19.994C3483.189,910.942,3480.706,901.849,3478.853,894.523Z" fill="#fff" stroke="#000" stroke-miterlimit="10" stroke-width="1.375"/><path d="M3535.7,894.884a16.21,16.21,0,0,1-5.1,2.252c1.841,7.2,4.242,15.884,6.967,24.058,1.155,3.464,1.084,6.259-.217,8.548-2.248,3.955-7.913,5.712-11.093,6.407a33.393,33.393,0,0,1-7.531.207c-3.451-.646-9.6-2.35-12.055-6.512-1.356-2.306-1.446-5.136-.275-8.65,2.771-8.315,5.2-17.154,7.057-24.421a34.544,34.544,0,0,1-5.159-2.035c-1.847,7.289-4.309,16.287-7.118,24.715-1.68,5.042-1.427,9.477.754,13.183,3.376,5.735,10.446,8.13,15.783,9.128a36.707,36.707,0,0,0,9.722-.24c4.973-1.088,11.561-3.544,14.7-9.063,2.087-3.671,2.308-8.047.654-13.008C3539.992,911.083,3537.544,902.148,3535.7,894.884Z" fill="#fff" stroke="#000" stroke-miterlimit="10" stroke-width="1.375"/><path d="M3591.729,894.62a27.345,27.345,0,0,1-5.1,2.283c1.848,7.242,4.27,16.026,7.024,24.291,1.142,3.424,1.085,6.192-.171,8.466-2,3.614-6.744,5.427-10.375,6.312-2.622.641-10.3.529-13.493-1.3-5.831-3.339-8.759-6.614-6.47-13.479,2.758-8.274,5.182-17.068,7.031-24.315a17.121,17.121,0,0,1-5.12-2.193c-1.849,7.3-4.315,16.319-7.131,24.767-4.161,12.484,5.031,17.747,8.956,19.994,4.871,2.79,14.134,2.7,17.53,1.871,4.7-1.147,10.926-3.637,13.888-9,2.014-3.643,2.207-7.972.575-12.868C3596.053,910.98,3593.579,901.93,3591.729,894.62Z" fill="#fff" stroke="#000" stroke-miterlimit="10" stroke-width="1.375"/><path d="M3619.794,930.279c-1.616-2.38-1.8-5.352-.552-9.085,2.764-8.294,5.194-17.111,7.045-24.369a25.336,25.336,0,0,1-5.16-2.032c-1.846,7.281-4.3,16.255-7.1,24.66-1.8,5.4-1.386,10.089,1.23,13.932,5.5,8.082,18.862,8.89,19.428,8.921l.3-5.494C3631.87,936.636,3623.078,935.119,3619.794,930.279Z" fill="#fff" stroke="#000" stroke-miterlimit="10" stroke-width="1.375"/><path d="M3464.949,851.639" fill="none" stroke="#000" stroke-miterlimit="10" stroke-width="5.502"/><path d="M3579,851.639" fill="none" stroke="#000" stroke-miterlimit="10" stroke-width="5.502"/><path d="M3422.782,850.69a31.23,31.23,0,0,1-5.094,2.3c1.85,7.246,4.272,16.032,7.024,24.287,1.245,3.733,1.064,6.7-.551,9.085-3.285,4.84-12.076,6.357-15.187,6.533l.152,2.747.148,2.746c.566-.03,13.927-.838,19.429-8.92,2.615-3.843,3.029-8.531,1.229-13.932C3427.108,867.066,3424.633,858.008,3422.782,850.69Z" fill="#fff" stroke="#000" stroke-miterlimit="10" stroke-width="1.375"/><path d="M3453.64,844.95a17.411,17.411,0,0,0,5.043,2.574c.089-.365.13-.534.214-.885,2.177-9.029.335-16.175-5.054-19.6-3.1-1.974-9.445-3.528-15.492-3.784l-1.2-.018c-6.18.184-12.753,1.748-15.982,3.8-5.392,3.429-7.233,10.575-5.055,19.6.067.277.138.569.208.855a23.426,23.426,0,0,0,5.114-2.265c-.756-3.189-1.92-10.621,2.686-13.552,1.747-1.112,6.995-2.76,13.063-2.943l1,.016c5.639.239,10.754,1.687,12.7,2.927C3455.367,834.525,3454.391,841.626,3453.64,844.95Z" fill="#fff" stroke="#000" stroke-miterlimit="10" stroke-width="1.375"/><path d="M3478.853,850.6a21.911,21.911,0,0,1-5.1,2.286c1.852,7.26,4.282,16.084,7.049,24.385,2.289,6.865-.64,10.14-6.471,13.479-3.193,1.826-10.868,1.94-13.493,1.3-3.63-.885-8.376-2.7-10.373-6.312-1.258-2.273-1.314-5.042-.172-8.466,2.758-8.276,5.184-17.073,7.033-24.321a23.132,23.132,0,0,1-5.149-2.075c-1.845,7.279-4.3,16.252-7.1,24.655-1.632,4.9-1.437,9.225.576,12.869,2.962,5.359,9.187,7.849,13.887,9,3.394.83,12.658.92,17.53-1.871,3.925-2.247,13.117-7.51,8.956-19.994C3483.189,867.023,3480.706,857.93,3478.853,850.6Z" fill="#fff" stroke="#000" stroke-miterlimit="10" stroke-width="1.375"/><path d="M3509.71,845.056a22.305,22.305,0,0,0,5.067,2.467c.09-.368.129-.53.214-.884,2.179-9.028.337-16.174-5.054-19.6-3.1-1.972-9.442-3.528-15.491-3.784l-1.2-.018c-6.181.184-12.754,1.748-15.984,3.8-5.388,3.429-7.23,10.575-5.054,19.6l.21.865a18.316,18.316,0,0,0,5.025-2.655c-.747-3.366-1.658-10.353,2.772-13.172,1.748-1.111,7-2.76,13.065-2.943l1,.016c5.639.239,10.754,1.687,12.7,2.927C3511.51,834.557,3510.464,841.779,3509.71,845.056Z" fill="#fff" stroke="#000" stroke-miterlimit="10" stroke-width="1.375"/><path d="M3535.7,850.965a16.211,16.211,0,0,1-5.1,2.252c1.841,7.2,4.242,15.884,6.967,24.058,1.155,3.464,1.084,6.259-.217,8.548-2.248,3.955-7.913,5.712-11.093,6.407a33.393,33.393,0,0,1-7.531.207c-3.451-.646-9.6-2.35-12.055-6.512-1.356-2.306-1.446-5.136-.275-8.65,2.771-8.315,5.2-17.154,7.057-24.421a34.656,34.656,0,0,1-5.159-2.035c-1.847,7.289-4.309,16.287-7.118,24.715-1.68,5.042-1.427,9.476.754,13.182,3.376,5.736,10.446,8.131,15.783,9.129a36.707,36.707,0,0,0,9.722-.24c4.973-1.088,11.561-3.544,14.7-9.063,2.087-3.671,2.308-8.048.654-13.008C3539.992,867.164,3537.544,858.229,3535.7,850.965Z" fill="#fff" stroke="#000" stroke-miterlimit="10" stroke-width="1.375"/><path d="M3566.507,844.878a15.051,15.051,0,0,0,5.007,2.724c.092-.379.146-.6.233-.963,2.179-9.028.338-16.174-5.054-19.6-3.229-2.054-9.8-3.618-16.112-3.8l-1.141.021c-5.979.254-12.321,1.808-15.424,3.782-5.388,3.429-7.23,10.575-5.054,19.6l.213.877a20.887,20.887,0,0,0,5.11-2.28c-.754-3.186-1.923-10.628,2.684-13.559,1.951-1.24,7.066-2.688,12.636-2.924l.942-.02c6.2.184,11.446,1.832,13.192,2.944C3568.185,834.505,3567.256,841.524,3566.507,844.878Z" fill="#fff" stroke="#000" stroke-miterlimit="10" stroke-width="1.375"/><path d="M3591.729,850.7a27.345,27.345,0,0,1-5.1,2.283c1.848,7.242,4.27,16.026,7.024,24.291,1.142,3.424,1.085,6.192-.171,8.466-2,3.614-6.744,5.427-10.375,6.312-2.622.641-10.3.529-13.493-1.3-5.831-3.339-8.759-6.614-6.47-13.479,2.758-8.274,5.182-17.068,7.031-24.315a17.148,17.148,0,0,1-5.12-2.193c-1.849,7.3-4.315,16.319-7.131,24.767-4.161,12.484,5.031,17.747,8.956,19.994,4.871,2.79,14.134,2.7,17.53,1.871,4.7-1.147,10.926-3.637,13.888-9,2.014-3.643,2.207-7.972.575-12.868C3596.053,867.061,3593.579,858.011,3591.729,850.7Z" fill="#fff" stroke="#000" stroke-miterlimit="10" stroke-width="1.375"/><path d="M3622.543,845.135a17.074,17.074,0,0,0,5.087,2.38c.083-.34.133-.548.213-.876,2.176-9.029.334-16.175-5.055-19.6-3.229-2.054-9.8-3.618-16.114-3.8l-1.14.021c-5.98.254-12.322,1.81-15.423,3.782-5.391,3.43-7.232,10.576-5.053,19.6.066.275.137.566.206.85a25.331,25.331,0,0,0,5.062-2.485c-.754-3.17-1.883-10.386,2.739-13.327,1.949-1.24,7.064-2.688,12.634-2.924l.942-.02c6.2.184,11.447,1.833,13.193,2.944C3624.4,834.579,3623.3,841.9,3622.543,845.135Z" fill="#fff" stroke="#000" stroke-miterlimit="10" stroke-width="1.375"/><path d="M3619.794,886.36c-1.616-2.38-1.8-5.352-.552-9.085,2.764-8.294,5.194-17.111,7.045-24.369a25.336,25.336,0,0,1-5.16-2.032c-1.846,7.281-4.3,16.255-7.1,24.66-1.8,5.4-1.386,10.089,1.23,13.932,5.5,8.082,18.862,8.89,19.428,8.92l.3-5.493C3631.87,892.717,3623.078,891.2,3619.794,886.36Z" fill="#fff" stroke="#000" stroke-miterlimit="10" stroke-width="1.375"/><path d="M3464.949,807.72" fill="none" stroke="#000" stroke-miterlimit="10" stroke-width="5.502"/><path d="M3579,807.72" fill="none" stroke="#000" stroke-miterlimit="10" stroke-width="5.502"/><path d="M3464.949,763.8" fill="none" stroke="#000" stroke-miterlimit="10" stroke-width="5.502"/><path d="M3579,763.8" fill="none" stroke="#000" stroke-miterlimit="10" stroke-width="5.502"/><path d="M3478.853,762.766a21.909,21.909,0,0,1-5.1,2.286c1.852,7.26,4.282,16.084,7.049,24.385,2.289,6.865-.64,10.14-6.471,13.479-3.193,1.826-10.868,1.94-13.493,1.3-3.63-.885-8.376-2.7-10.373-6.312-1.258-2.273-1.314-5.042-.172-8.466,2.758-8.276,5.184-17.073,7.033-24.321a23.132,23.132,0,0,1-5.149-2.075c-1.845,7.279-4.3,16.251-7.1,24.655-1.632,4.9-1.437,9.225.576,12.869,2.962,5.359,9.187,7.849,13.887,9,3.394.83,12.658.92,17.53-1.871,3.925-2.247,13.117-7.51,8.956-19.994C3483.189,779.185,3480.706,770.092,3478.853,762.766Z" fill="#fff" stroke="#000" stroke-miterlimit="10" stroke-width="1.375"/><path d="M3535.7,763.127a16.213,16.213,0,0,1-5.1,2.252c1.841,7.2,4.242,15.884,6.967,24.058,1.155,3.464,1.084,6.259-.217,8.548-2.248,3.955-7.913,5.711-11.093,6.407a33.4,33.4,0,0,1-7.531.207c-3.451-.646-9.6-2.351-12.055-6.512-1.356-2.306-1.446-5.136-.275-8.65,2.771-8.315,5.2-17.154,7.057-24.421a34.656,34.656,0,0,1-5.159-2.035c-1.847,7.289-4.309,16.287-7.118,24.715-1.68,5.042-1.427,9.476.754,13.182,3.376,5.736,10.446,8.131,15.783,9.129a36.712,36.712,0,0,0,9.722-.24c4.973-1.088,11.561-3.544,14.7-9.063,2.087-3.671,2.308-8.048.654-13.008C3539.992,779.326,3537.544,770.391,3535.7,763.127Z" fill="#fff" stroke="#000" stroke-miterlimit="10" stroke-width="1.375"/><path d="M3591.729,762.863a27.341,27.341,0,0,1-5.1,2.283c1.848,7.242,4.27,16.026,7.024,24.291,1.142,3.424,1.085,6.192-.171,8.466-2,3.613-6.744,5.427-10.375,6.312-2.622.641-10.3.529-13.493-1.3-5.831-3.339-8.759-6.614-6.47-13.479,2.758-8.274,5.182-17.068,7.031-24.315a17.148,17.148,0,0,1-5.12-2.193c-1.849,7.3-4.315,16.319-7.131,24.767-4.161,12.484,5.031,17.747,8.956,19.994,4.871,2.79,14.134,2.7,17.53,1.871,4.7-1.147,10.926-3.637,13.888-9,2.014-3.643,2.207-7.972.575-12.868C3596.053,779.223,3593.579,770.173,3591.729,762.863Z" fill="#fff" stroke="#000" stroke-miterlimit="10" stroke-width="1.375"/><path d="M3464.949,719.882" fill="none" stroke="#000" stroke-miterlimit="10" stroke-width="5.502"/><path d="M3579,719.882" fill="none" stroke="#000" stroke-miterlimit="10" stroke-width="5.502"/><path d="M3422.782,718.933a31.318,31.318,0,0,1-5.094,2.3c1.85,7.246,4.272,16.032,7.024,24.287,1.245,3.732,1.064,6.705-.551,9.085-3.285,4.84-12.076,6.357-15.187,6.532l.152,2.747.148,2.747c.566-.031,13.927-.838,19.429-8.92,2.615-3.843,3.029-8.531,1.229-13.932C3427.108,735.309,3424.633,726.251,3422.782,718.933Z"/><path d="M3453.64,713.193a17.436,17.436,0,0,0,5.043,2.574c.089-.365.13-.534.214-.885,2.177-9.029.335-16.175-5.054-19.6-3.1-1.974-9.445-3.528-15.492-3.784l-1.2-.018c-6.18.184-12.753,1.748-15.982,3.8-5.392,3.429-7.233,10.575-5.055,19.6.067.277.138.569.208.855a23.426,23.426,0,0,0,5.114-2.265c-.756-3.189-1.92-10.621,2.686-13.552,1.747-1.112,6.995-2.761,13.063-2.943l1,.016c5.639.239,10.754,1.687,12.7,2.927C3455.367,702.768,3454.391,709.869,3453.64,713.193Z"/><path d="M3478.853,718.847a21.909,21.909,0,0,1-5.1,2.286c1.852,7.26,4.282,16.084,7.049,24.385,2.289,6.865-.64,10.14-6.471,13.479-3.193,1.825-10.868,1.94-13.493,1.3-3.63-.885-8.376-2.7-10.373-6.312-1.258-2.273-1.314-5.042-.172-8.466,2.758-8.276,5.184-17.073,7.033-24.321a23.132,23.132,0,0,1-5.149-2.075c-1.845,7.279-4.3,16.251-7.1,24.655-1.632,4.9-1.437,9.225.576,12.869,2.962,5.359,9.187,7.849,13.887,9,3.394.83,12.658.92,17.53-1.871,3.925-2.247,13.117-7.51,8.956-19.994C3483.189,735.266,3480.706,726.173,3478.853,718.847Z"/><path d="M3509.71,713.3a22.305,22.305,0,0,0,5.067,2.467c.09-.368.129-.531.214-.884,2.179-9.028.337-16.174-5.054-19.6-3.1-1.972-9.442-3.528-15.491-3.784l-1.2-.018c-6.181.184-12.754,1.748-15.984,3.8-5.388,3.429-7.23,10.575-5.054,19.6l.21.865a18.342,18.342,0,0,0,5.025-2.655c-.747-3.366-1.658-10.354,2.772-13.172,1.748-1.111,7-2.761,13.065-2.943l1,.016c5.639.239,10.754,1.687,12.7,2.927C3511.51,702.8,3510.464,710.022,3509.71,713.3Z"/><path d="M3535.7,719.208a16.211,16.211,0,0,1-5.1,2.252c1.841,7.2,4.242,15.884,6.967,24.058,1.155,3.464,1.084,6.259-.217,8.548-2.248,3.954-7.913,5.711-11.093,6.407a33.451,33.451,0,0,1-7.531.207c-3.451-.646-9.6-2.351-12.055-6.512-1.356-2.306-1.446-5.137-.275-8.65,2.771-8.315,5.2-17.154,7.057-24.421a34.656,34.656,0,0,1-5.159-2.035c-1.847,7.289-4.309,16.287-7.118,24.715-1.68,5.042-1.427,9.476.754,13.182,3.376,5.736,10.446,8.131,15.783,9.129a36.709,36.709,0,0,0,9.722-.24c4.973-1.088,11.561-3.544,14.7-9.063,2.087-3.671,2.308-8.048.654-13.008C3539.992,735.406,3537.544,726.472,3535.7,719.208Z"/><path d="M3566.507,713.121a15.049,15.049,0,0,0,5.007,2.724c.092-.379.146-.6.233-.963,2.179-9.028.338-16.174-5.054-19.6-3.229-2.054-9.8-3.618-16.112-3.8l-1.141.021c-5.979.254-12.321,1.808-15.424,3.782-5.388,3.429-7.23,10.575-5.054,19.6l.213.877a20.887,20.887,0,0,0,5.11-2.28c-.754-3.186-1.923-10.628,2.684-13.559,1.951-1.24,7.066-2.688,12.636-2.924l.942-.021c6.2.184,11.446,1.833,13.192,2.945C3568.185,702.748,3567.256,709.767,3566.507,713.121Z"/><path d="M3591.729,718.944a27.4,27.4,0,0,1-5.1,2.283c1.848,7.242,4.27,16.026,7.024,24.291,1.142,3.424,1.085,6.192-.171,8.466-2,3.613-6.744,5.427-10.375,6.312-2.622.641-10.3.529-13.493-1.3-5.831-3.339-8.759-6.614-6.47-13.479,2.758-8.274,5.182-17.068,7.031-24.315a17.171,17.171,0,0,1-5.12-2.193c-1.849,7.3-4.315,16.319-7.131,24.767-4.161,12.484,5.031,17.747,8.956,19.994,4.871,2.79,14.134,2.7,17.53,1.871,4.7-1.147,10.926-3.637,13.888-9,2.014-3.643,2.207-7.972.575-12.868C3596.053,735.3,3593.579,726.254,3591.729,718.944Z"/><path d="M3622.543,713.378a17.073,17.073,0,0,0,5.087,2.38c.083-.34.133-.548.213-.876,2.176-9.029.334-16.175-5.055-19.6-3.229-2.054-9.8-3.618-16.114-3.8l-1.14.021c-5.98.254-12.322,1.81-15.423,3.782-5.391,3.43-7.232,10.576-5.053,19.6.066.275.137.566.206.85a25.331,25.331,0,0,0,5.062-2.485c-.754-3.17-1.883-10.386,2.739-13.327,1.949-1.24,7.064-2.688,12.634-2.924l.942-.021c6.2.184,11.447,1.834,13.193,2.945C3624.4,702.822,3623.3,710.14,3622.543,713.378Z"/><path d="M3619.794,754.6c-1.616-2.38-1.8-5.353-.552-9.085,2.764-8.294,5.194-17.111,7.045-24.369a25.329,25.329,0,0,1-5.16-2.032c-1.846,7.281-4.3,16.255-7.1,24.66-1.8,5.4-1.386,10.089,1.23,13.932,5.5,8.082,18.862,8.889,19.428,8.92l.3-5.494C3631.87,760.96,3623.078,759.443,3619.794,754.6Z"/><path d="M3422.782,762.852a31.318,31.318,0,0,1-5.094,2.3c1.85,7.246,4.272,16.032,7.024,24.287,1.245,3.732,1.064,6.705-.551,9.085-3.285,4.84-12.076,6.357-15.187,6.533l.152,2.746.148,2.747c.566-.031,13.927-.838,19.429-8.92,2.615-3.843,3.029-8.531,1.229-13.932C3427.108,779.228,3424.633,770.17,3422.782,762.852Z" fill="#fff" stroke="#000" stroke-miterlimit="10" stroke-width="1.375"/><path d="M3453.64,801.031a17.411,17.411,0,0,0,5.043,2.574c.089-.365.13-.534.214-.885,2.177-9.029.335-16.175-5.054-19.6-3.1-1.974-9.445-3.528-15.492-3.784l-1.2-.018c-6.18.184-12.753,1.748-15.982,3.8-5.392,3.429-7.233,10.575-5.055,19.6.067.277.138.569.208.855a23.426,23.426,0,0,0,5.114-2.265c-.756-3.189-1.92-10.621,2.686-13.552,1.747-1.112,6.995-2.76,13.063-2.943l1,.016c5.639.239,10.754,1.687,12.7,2.927C3455.367,790.606,3454.391,797.707,3453.64,801.031Z" fill="#fff" stroke="#000" stroke-miterlimit="10" stroke-width="1.375"/><path d="M3509.71,801.137a22.305,22.305,0,0,0,5.067,2.467c.09-.368.129-.53.214-.884,2.179-9.028.337-16.174-5.054-19.6-3.1-1.972-9.442-3.528-15.491-3.784l-1.2-.018c-6.181.184-12.754,1.748-15.984,3.8-5.388,3.429-7.23,10.575-5.054,19.6l.21.865a18.316,18.316,0,0,0,5.025-2.655c-.747-3.366-1.658-10.353,2.772-13.172,1.748-1.111,7-2.76,13.065-2.943l1,.016c5.639.239,10.754,1.687,12.7,2.927C3511.51,790.638,3510.464,797.86,3509.71,801.137Z" fill="#fff" stroke="#000" stroke-miterlimit="10" stroke-width="1.375"/><path d="M3566.507,800.959a15.051,15.051,0,0,0,5.007,2.724c.092-.379.146-.6.233-.963,2.179-9.028.338-16.174-5.054-19.6-3.229-2.054-9.8-3.618-16.112-3.8l-1.141.021c-5.979.254-12.321,1.808-15.424,3.782-5.388,3.429-7.23,10.575-5.054,19.6l.213.877a20.887,20.887,0,0,0,5.11-2.28c-.754-3.186-1.923-10.628,2.684-13.559,1.951-1.24,7.066-2.688,12.636-2.924l.942-.02c6.2.184,11.446,1.832,13.192,2.944C3568.185,790.586,3567.256,797.6,3566.507,800.959Z" fill="#fff" stroke="#000" stroke-miterlimit="10" stroke-width="1.375"/><path d="M3453.64,757.112a17.409,17.409,0,0,0,5.043,2.574c.089-.365.13-.534.214-.885,2.177-9.029.335-16.175-5.054-19.6-3.1-1.974-9.445-3.528-15.492-3.784l-1.2-.018c-6.18.184-12.753,1.748-15.982,3.8-5.392,3.429-7.233,10.575-5.055,19.6.067.277.138.569.208.855a23.426,23.426,0,0,0,5.114-2.265c-.756-3.189-1.92-10.621,2.686-13.552,1.747-1.112,6.995-2.76,13.063-2.943l1,.016c5.639.239,10.754,1.687,12.7,2.927C3455.367,746.687,3454.391,753.788,3453.64,757.112Z" fill="#fff" stroke="#000" stroke-miterlimit="10" stroke-width="1.375"/><path d="M3509.71,757.218a22.305,22.305,0,0,0,5.067,2.467c.09-.368.129-.53.214-.884,2.179-9.028.337-16.174-5.054-19.6-3.1-1.972-9.442-3.528-15.491-3.784l-1.2-.018c-6.181.184-12.754,1.748-15.984,3.8-5.388,3.429-7.23,10.575-5.054,19.6l.21.865a18.342,18.342,0,0,0,5.025-2.655c-.747-3.366-1.658-10.354,2.772-13.172,1.748-1.111,7-2.76,13.065-2.943l1,.016c5.639.239,10.754,1.687,12.7,2.927C3511.51,746.719,3510.464,753.941,3509.71,757.218Z" fill="#fff" stroke="#000" stroke-miterlimit="10" stroke-width="1.375"/><path d="M3566.507,757.04a15.049,15.049,0,0,0,5.007,2.724c.092-.379.146-.6.233-.963,2.179-9.028.338-16.174-5.054-19.6-3.229-2.054-9.8-3.618-16.112-3.8l-1.141.021c-5.979.254-12.321,1.808-15.424,3.782-5.388,3.429-7.23,10.575-5.054,19.6l.213.877a20.887,20.887,0,0,0,5.11-2.28c-.754-3.186-1.923-10.628,2.684-13.559,1.951-1.24,7.066-2.688,12.636-2.924l.942-.021c6.2.185,11.446,1.833,13.192,2.945C3568.185,746.667,3567.256,753.686,3566.507,757.04Z" fill="#fff" stroke="#000" stroke-miterlimit="10" stroke-width="1.375"/><path d="M3622.543,757.3a17.074,17.074,0,0,0,5.087,2.38c.083-.34.133-.548.213-.876,2.176-9.029.334-16.175-5.055-19.6-3.229-2.054-9.8-3.618-16.114-3.8l-1.14.021c-5.98.254-12.322,1.81-15.423,3.782-5.391,3.43-7.232,10.576-5.053,19.6.066.275.137.566.206.85a25.331,25.331,0,0,0,5.062-2.485c-.754-3.17-1.883-10.386,2.739-13.327,1.949-1.24,7.064-2.688,12.634-2.924l.942-.021c6.2.185,11.447,1.834,13.193,2.945C3624.4,746.741,3623.3,754.059,3622.543,757.3Z" fill="#fff" stroke="#000" stroke-miterlimit="10" stroke-width="1.375"/><path d="M3619.794,798.522c-1.616-2.38-1.8-5.353-.552-9.085,2.764-8.294,5.194-17.111,7.045-24.369a25.333,25.333,0,0,1-5.16-2.032c-1.846,7.281-4.3,16.255-7.1,24.66-1.8,5.4-1.386,10.089,1.23,13.932,5.5,8.082,18.862,8.889,19.428,8.92l.3-5.493C3631.87,804.879,3623.078,803.362,3619.794,798.522Z" fill="#fff" stroke="#000" stroke-miterlimit="10" stroke-width="1.375"/><path d="M3622.543,801.216a17.074,17.074,0,0,0,5.087,2.38c.083-.34.133-.548.213-.876,2.176-9.029.334-16.175-5.055-19.6-3.229-2.054-9.8-3.618-16.114-3.8l-1.14.021c-5.98.254-12.322,1.81-15.423,3.782-5.391,3.43-7.232,10.576-5.053,19.6.066.275.137.566.206.85a25.331,25.331,0,0,0,5.062-2.485c-.754-3.17-1.883-10.386,2.739-13.327,1.949-1.24,7.064-2.688,12.634-2.924l.942-.02c6.2.184,11.447,1.833,13.193,2.944C3624.4,790.66,3623.3,797.978,3622.543,801.216Z" fill="#fff" stroke="#000" stroke-miterlimit="10" stroke-width="1.375"/><path d="M3453.64,888.869a17.411,17.411,0,0,0,5.043,2.574c.089-.365.13-.534.214-.885,2.177-9.029.335-16.175-5.054-19.6-3.1-1.973-9.445-3.528-15.492-3.784l-1.2-.018c-6.18.184-12.753,1.748-15.982,3.8-5.392,3.429-7.233,10.575-5.055,19.6.067.277.138.569.208.855a23.468,23.468,0,0,0,5.114-2.264c-.756-3.19-1.92-10.622,2.686-13.553,1.747-1.112,6.995-2.76,13.063-2.943l1,.016c5.639.239,10.754,1.687,12.7,2.927C3455.367,878.444,3454.391,885.545,3453.64,888.869Z" fill="#fff" stroke="#000" stroke-miterlimit="10" stroke-width="1.375"/><path d="M3509.71,888.975a22.3,22.3,0,0,0,5.067,2.467c.09-.368.129-.53.214-.884,2.179-9.028.337-16.174-5.054-19.6-3.1-1.972-9.442-3.528-15.491-3.784l-1.2-.018c-6.181.184-12.754,1.748-15.984,3.8-5.388,3.429-7.23,10.575-5.054,19.6l.21.865a18.314,18.314,0,0,0,5.025-2.655c-.747-3.366-1.658-10.353,2.772-13.172,1.748-1.111,7-2.76,13.065-2.943l1,.016c5.639.239,10.754,1.687,12.7,2.927C3511.51,878.476,3510.464,885.7,3509.71,888.975Z" fill="#fff" stroke="#000" stroke-miterlimit="10" stroke-width="1.375"/><path d="M3566.507,888.8a15.032,15.032,0,0,0,5.007,2.724c.092-.379.146-.6.233-.963,2.179-9.028.338-16.174-5.054-19.6-3.229-2.054-9.8-3.618-16.112-3.8l-1.141.022c-5.979.253-12.321,1.808-15.424,3.781-5.388,3.429-7.23,10.575-5.054,19.6.069.284.142.584.213.878a20.927,20.927,0,0,0,5.11-2.281c-.754-3.186-1.923-10.628,2.684-13.559,1.951-1.24,7.066-2.688,12.636-2.924l.942-.02c6.2.184,11.446,1.832,13.192,2.944C3568.185,878.424,3567.256,885.443,3566.507,888.8Z" fill="#fff" stroke="#000" stroke-miterlimit="10" stroke-width="1.375"/><path d="M3622.543,889.054a17.074,17.074,0,0,0,5.087,2.38c.083-.34.133-.548.213-.876,2.176-9.029.334-16.175-5.055-19.6-3.229-2.054-9.8-3.618-16.114-3.8l-1.14.022c-5.98.253-12.322,1.809-15.423,3.781-5.391,3.43-7.232,10.576-5.053,19.6.066.275.137.566.206.85a25.223,25.223,0,0,0,5.062-2.485c-.754-3.17-1.883-10.386,2.739-13.327,1.949-1.24,7.064-2.688,12.634-2.924l.942-.02c6.2.184,11.447,1.833,13.193,2.944C3624.4,878.5,3623.3,885.816,3622.543,889.054Z" fill="#fff" stroke="#000" stroke-miterlimit="10" stroke-width="1.375"/><path d="M3464.949,939.479" fill="none" stroke="#000" stroke-miterlimit="10" stroke-width="5.502"/><path d="M3579,939.479" fill="none" stroke="#000" stroke-miterlimit="10" stroke-width="5.502"/><path d="M3422.782,938.53a31.326,31.326,0,0,1-5.094,2.3c1.85,7.247,4.272,16.033,7.024,24.287,1.245,3.733,1.064,6.706-.551,9.086-3.285,4.84-12.076,6.356-15.187,6.532l.152,2.747.148,2.747c.566-.031,13.927-.838,19.429-8.921,2.615-3.843,3.029-8.531,1.229-13.932C3427.108,954.906,3424.633,945.847,3422.782,938.53Z" fill="#fff" stroke="#000" stroke-miterlimit="10" stroke-width="1.375"/><path d="M3453.64,932.789a17.409,17.409,0,0,0,5.043,2.574c.089-.365.13-.534.214-.884,2.177-9.029.335-16.176-5.054-19.6-3.1-1.973-9.445-3.527-15.492-3.784l-1.2-.017c-6.18.184-12.753,1.747-15.982,3.8-5.392,3.429-7.233,10.576-5.055,19.6.067.277.138.569.208.854a23.421,23.421,0,0,0,5.114-2.264c-.756-3.189-1.92-10.622,2.686-13.553,1.747-1.112,6.995-2.76,13.063-2.943l1,.016c5.639.24,10.754,1.688,12.7,2.927C3455.367,922.364,3454.391,929.466,3453.64,932.789Z" fill="#fff" stroke="#000" stroke-miterlimit="10" stroke-width="1.375"/><path d="M3478.853,938.444a21.868,21.868,0,0,1-5.1,2.285c1.852,7.26,4.282,16.085,7.049,24.385,2.289,6.865-.64,10.14-6.471,13.48-3.193,1.825-10.868,1.939-13.493,1.3-3.63-.886-8.376-2.7-10.373-6.312-1.258-2.273-1.314-5.043-.172-8.467,2.758-8.275,5.184-17.072,7.033-24.321a23.036,23.036,0,0,1-5.149-2.075c-1.845,7.28-4.3,16.252-7.1,24.655-1.632,4.9-1.437,9.226.576,12.87,2.962,5.358,9.187,7.849,13.887,9,3.394.83,12.658.92,17.53-1.872,3.925-2.247,13.117-7.51,8.956-19.994C3483.189,954.863,3480.706,945.77,3478.853,938.444Z" fill="#fff" stroke="#000" stroke-miterlimit="10" stroke-width="1.375"/><path d="M3509.71,932.9a22.306,22.306,0,0,0,5.067,2.468c.09-.368.129-.531.214-.884,2.179-9.028.337-16.174-5.054-19.6-3.1-1.972-9.442-3.527-15.491-3.784l-1.2-.017c-6.181.184-12.754,1.747-15.984,3.8-5.388,3.429-7.23,10.576-5.054,19.6.068.28.14.575.21.865a18.341,18.341,0,0,0,5.025-2.655c-.747-3.367-1.658-10.354,2.772-13.173,1.748-1.11,7-2.76,13.065-2.943l1,.016c5.639.24,10.754,1.688,12.7,2.927C3511.51,922.4,3510.464,929.619,3509.71,932.9Z" fill="#fff" stroke="#000" stroke-miterlimit="10" stroke-width="1.375"/><path d="M3535.7,938.8a16.212,16.212,0,0,1-5.1,2.253c1.841,7.2,4.242,15.883,6.967,24.057,1.155,3.464,1.084,6.26-.217,8.549-2.248,3.954-7.913,5.711-11.093,6.407a33.451,33.451,0,0,1-7.531.207c-3.451-.646-9.6-2.351-12.055-6.512-1.356-2.307-1.446-5.137-.275-8.651,2.771-8.314,5.2-17.153,7.057-24.42a34.56,34.56,0,0,1-5.159-2.036c-1.847,7.29-4.309,16.287-7.118,24.715-1.68,5.043-1.427,9.477.754,13.183,3.376,5.736,10.446,8.131,15.783,9.129a36.763,36.763,0,0,0,9.722-.241c4.973-1.088,11.561-3.543,14.7-9.063,2.087-3.671,2.308-8.047.654-13.008C3539.992,955,3537.544,946.069,3535.7,938.8Z" fill="#fff" stroke="#000" stroke-miterlimit="10" stroke-width="1.375"/><path d="M3566.507,932.718a15.049,15.049,0,0,0,5.007,2.723c.092-.378.146-.6.233-.962,2.179-9.028.338-16.174-5.054-19.6-3.229-2.054-9.8-3.617-16.112-3.8l-1.141.022c-5.979.254-12.321,1.808-15.424,3.781-5.388,3.429-7.23,10.576-5.054,19.6.069.284.142.583.213.877a20.893,20.893,0,0,0,5.11-2.281c-.754-3.186-1.923-10.627,2.684-13.559,1.951-1.239,7.066-2.687,12.636-2.924l.942-.02c6.2.184,11.446,1.832,13.192,2.944C3568.185,922.345,3567.256,929.364,3566.507,932.718Z" fill="#fff" stroke="#000" stroke-miterlimit="10" stroke-width="1.375"/><path d="M3591.729,938.541a27.473,27.473,0,0,1-5.1,2.283c1.848,7.242,4.27,16.026,7.024,24.29,1.142,3.424,1.085,6.193-.171,8.467-2,3.613-6.744,5.426-10.375,6.312-2.622.64-10.3.529-13.493-1.3-5.831-3.34-8.759-6.615-6.47-13.48,2.758-8.274,5.182-17.068,7.031-24.315a17.141,17.141,0,0,1-5.12-2.192c-1.849,7.3-4.315,16.318-7.131,24.766-4.161,12.484,5.031,17.747,8.956,19.994,4.871,2.79,14.134,2.7,17.53,1.872,4.7-1.147,10.926-3.638,13.888-9,2.014-3.643,2.207-7.973.575-12.869C3596.053,954.9,3593.579,945.85,3591.729,938.541Z" fill="#fff" stroke="#000" stroke-miterlimit="10" stroke-width="1.375"/><path d="M3622.543,932.974a17.1,17.1,0,0,0,5.087,2.381c.083-.341.133-.548.213-.876,2.176-9.029.334-16.176-5.055-19.6-3.229-2.054-9.8-3.617-16.114-3.8l-1.14.022c-5.98.254-12.322,1.809-15.423,3.781-5.391,3.431-7.232,10.577-5.053,19.6.066.275.137.565.206.849a25.223,25.223,0,0,0,5.062-2.485c-.754-3.17-1.883-10.386,2.739-13.327,1.949-1.239,7.064-2.687,12.634-2.924l.942-.02c6.2.184,11.447,1.834,13.193,2.944C3624.4,922.418,3623.3,929.736,3622.543,932.974Z" fill="#fff" stroke="#000" stroke-miterlimit="10" stroke-width="1.375"/><path d="M3619.794,974.2c-1.616-2.38-1.8-5.353-.552-9.086,2.764-8.293,5.194-17.111,7.045-24.368a25.39,25.39,0,0,1-5.16-2.032c-1.846,7.28-4.3,16.254-7.1,24.659-1.8,5.4-1.386,10.089,1.23,13.932,5.5,8.083,18.862,8.89,19.428,8.921l.3-5.494C3631.87,980.556,3623.078,979.04,3619.794,974.2Z" fill="#fff" stroke="#000" stroke-miterlimit="10" stroke-width="1.375"/><path d="M3464.949,983.4" fill="none" stroke="#000" stroke-miterlimit="10" stroke-width="5.502"/><path d="M3579,983.4" fill="none" stroke="#000" stroke-miterlimit="10" stroke-width="5.502"/><path d="M3422.782,982.45a31.318,31.318,0,0,1-5.094,2.3c1.85,7.246,4.272,16.032,7.024,24.287,1.245,3.732,1.064,6.705-.551,9.085-3.285,4.84-12.076,6.356-15.187,6.532l.152,2.747.148,2.747c.566-.031,13.927-.838,19.429-8.92,2.615-3.843,3.029-8.531,1.229-13.932C3427.108,998.826,3424.633,989.768,3422.782,982.45Z" fill="#fff" stroke="#000" stroke-miterlimit="10" stroke-width="1.375"/><path d="M3453.64,976.71a17.436,17.436,0,0,0,5.043,2.574c.089-.365.13-.534.214-.885,2.177-9.029.335-16.175-5.054-19.6-3.1-1.974-9.445-3.528-15.492-3.784l-1.2-.018c-6.18.184-12.753,1.748-15.982,3.8-5.392,3.429-7.233,10.575-5.055,19.6.067.277.138.569.208.855a23.429,23.429,0,0,0,5.114-2.265c-.756-3.189-1.92-10.621,2.686-13.552,1.747-1.112,6.995-2.761,13.063-2.943l1,.016c5.639.239,10.754,1.687,12.7,2.927C3455.367,966.285,3454.391,973.386,3453.64,976.71Z" fill="#fff" stroke="#000" stroke-miterlimit="10" stroke-width="1.375"/><path d="M3478.853,982.364a21.911,21.911,0,0,1-5.1,2.286c1.852,7.26,4.282,16.084,7.049,24.385,2.289,6.865-.64,10.14-6.471,13.479-3.193,1.825-10.868,1.94-13.493,1.3-3.63-.885-8.376-2.7-10.373-6.312-1.258-2.273-1.314-5.043-.172-8.466,2.758-8.276,5.184-17.073,7.033-24.321a23.129,23.129,0,0,1-5.149-2.075c-1.845,7.279-4.3,16.251-7.1,24.655-1.632,4.9-1.437,9.225.576,12.869,2.962,5.359,9.187,7.849,13.887,9,3.394.83,12.658.92,17.53-1.871,3.925-2.247,13.117-7.51,8.956-19.994C3483.189,998.783,3480.706,989.69,3478.853,982.364Z" fill="#fff" stroke="#000" stroke-miterlimit="10" stroke-width="1.375"/><path d="M3509.71,976.816a22.3,22.3,0,0,0,5.067,2.467c.09-.368.129-.531.214-.884,2.179-9.028.337-16.174-5.054-19.6-3.1-1.972-9.442-3.528-15.491-3.784l-1.2-.018c-6.181.184-12.754,1.748-15.984,3.8-5.388,3.429-7.23,10.575-5.054,19.6l.21.865a18.341,18.341,0,0,0,5.025-2.655c-.747-3.366-1.658-10.354,2.772-13.172,1.748-1.111,7-2.761,13.065-2.943l1,.016c5.639.239,10.754,1.687,12.7,2.927C3511.51,966.317,3510.464,973.539,3509.71,976.816Z" fill="#fff" stroke="#000" stroke-miterlimit="10" stroke-width="1.375"/><path d="M3535.7,982.725a16.21,16.21,0,0,1-5.1,2.252c1.841,7.2,4.242,15.884,6.967,24.058,1.155,3.464,1.084,6.259-.217,8.548-2.248,3.954-7.913,5.711-11.093,6.407a33.448,33.448,0,0,1-7.531.207c-3.451-.646-9.6-2.351-12.055-6.512-1.356-2.306-1.446-5.137-.275-8.65,2.771-8.315,5.2-17.154,7.057-24.421a34.656,34.656,0,0,1-5.159-2.035c-1.847,7.289-4.309,16.287-7.118,24.715-1.68,5.042-1.427,9.476.754,13.182,3.376,5.736,10.446,8.131,15.783,9.129a36.709,36.709,0,0,0,9.722-.24c4.973-1.088,11.561-3.544,14.7-9.063,2.087-3.671,2.308-8.048.654-13.008C3539.992,998.923,3537.544,989.989,3535.7,982.725Z" fill="#fff" stroke="#000" stroke-miterlimit="10" stroke-width="1.375"/><path d="M3566.507,976.638a15.051,15.051,0,0,0,5.007,2.724c.092-.379.146-.6.233-.963,2.179-9.028.338-16.174-5.054-19.6-3.229-2.054-9.8-3.618-16.112-3.8l-1.141.021c-5.979.254-12.321,1.808-15.424,3.782-5.388,3.429-7.23,10.575-5.054,19.6l.213.877a20.851,20.851,0,0,0,5.11-2.281c-.754-3.185-1.923-10.627,2.684-13.558,1.951-1.24,7.066-2.688,12.636-2.924l.942-.021c6.2.184,11.446,1.833,13.192,2.945C3568.185,966.265,3567.256,973.284,3566.507,976.638Z" fill="#fff" stroke="#000" stroke-miterlimit="10" stroke-width="1.375"/><path d="M3591.729,982.461a27.409,27.409,0,0,1-5.1,2.283c1.848,7.242,4.27,16.026,7.024,24.291,1.142,3.423,1.085,6.192-.171,8.466-2,3.613-6.744,5.427-10.375,6.312-2.622.641-10.3.529-13.493-1.3-5.831-3.339-8.759-6.614-6.47-13.479,2.758-8.274,5.182-17.068,7.031-24.315a17.171,17.171,0,0,1-5.12-2.193c-1.849,7.3-4.315,16.319-7.131,24.767-4.161,12.484,5.031,17.747,8.956,19.994,4.871,2.79,14.134,2.7,17.53,1.871,4.7-1.147,10.926-3.637,13.888-9,2.014-3.643,2.207-7.972.575-12.868C3596.053,998.821,3593.579,989.771,3591.729,982.461Z" fill="#fff" stroke="#000" stroke-miterlimit="10" stroke-width="1.375"/><path d="M3622.543,976.9a17.074,17.074,0,0,0,5.087,2.38c.083-.34.133-.548.213-.876,2.176-9.029.334-16.175-5.055-19.6-3.229-2.054-9.8-3.618-16.114-3.8l-1.14.021c-5.98.254-12.322,1.81-15.423,3.782-5.391,3.43-7.232,10.576-5.053,19.6.066.275.137.566.206.85a25.328,25.328,0,0,0,5.062-2.485c-.754-3.17-1.883-10.386,2.739-13.327,1.949-1.24,7.064-2.688,12.634-2.924l.942-.021c6.2.184,11.447,1.834,13.193,2.945C3624.4,966.339,3623.3,973.657,3622.543,976.9Z" fill="#fff" stroke="#000" stroke-miterlimit="10" stroke-width="1.375"/><path d="M3619.794,1018.12c-1.616-2.38-1.8-5.353-.552-9.085,2.764-8.294,5.194-17.111,7.045-24.369a25.333,25.333,0,0,1-5.16-2.032c-1.846,7.28-4.3,16.255-7.1,24.66-1.8,5.4-1.386,10.089,1.23,13.932,5.5,8.082,18.862,8.889,19.428,8.92l.3-5.494C3631.87,1024.476,3623.078,1022.96,3619.794,1018.12Z" fill="#fff" stroke="#000" stroke-miterlimit="10" stroke-width="1.375"/><path d="M3464.949,1027.43" fill="none" stroke="#000" stroke-miterlimit="10" stroke-width="5.502"/><path d="M3579,1027.43" fill="none" stroke="#000" stroke-miterlimit="10" stroke-width="5.502"/><path d="M3422.782,1026.481a31.318,31.318,0,0,1-5.094,2.3c1.85,7.246,4.272,16.032,7.024,24.287,1.245,3.732,1.064,6.7-.551,9.085-3.285,4.84-12.076,6.357-15.187,6.533l.152,2.746.148,2.747c.566-.031,13.927-.838,19.429-8.92,2.615-3.843,3.029-8.531,1.229-13.932C3427.108,1042.857,3424.633,1033.8,3422.782,1026.481Z" fill="#fff" stroke="#000" stroke-miterlimit="10" stroke-width="1.375"/><path d="M3453.64,1020.741a17.412,17.412,0,0,0,5.043,2.574c.089-.365.13-.534.214-.885,2.177-9.029.335-16.175-5.054-19.6-3.1-1.974-9.445-3.528-15.492-3.784l-1.2-.018c-6.18.184-12.753,1.748-15.982,3.8-5.392,3.429-7.233,10.575-5.055,19.6.067.277.138.569.208.855a23.425,23.425,0,0,0,5.114-2.265c-.756-3.189-1.92-10.621,2.686-13.552,1.747-1.112,6.995-2.76,13.063-2.943l1,.016c5.639.239,10.754,1.687,12.7,2.927C3455.367,1010.316,3454.391,1017.417,3453.64,1020.741Z" fill="#fff" stroke="#000" stroke-miterlimit="10" stroke-width="1.375"/><path d="M3478.853,1026.4a21.911,21.911,0,0,1-5.1,2.286c1.852,7.26,4.282,16.084,7.049,24.385,2.289,6.865-.64,10.14-6.471,13.479-3.193,1.826-10.868,1.94-13.493,1.3-3.63-.885-8.376-2.7-10.373-6.312-1.258-2.273-1.314-5.042-.172-8.466,2.758-8.276,5.184-17.073,7.033-24.321a23.132,23.132,0,0,1-5.149-2.075c-1.845,7.279-4.3,16.251-7.1,24.655-1.632,4.9-1.437,9.225.576,12.869,2.962,5.359,9.187,7.849,13.887,9,3.394.83,12.658.92,17.53-1.871,3.925-2.247,13.117-7.51,8.956-19.994C3483.189,1042.814,3480.706,1033.721,3478.853,1026.4Z" fill="#fff" stroke="#000" stroke-miterlimit="10" stroke-width="1.375"/><path d="M3509.71,1020.847a22.308,22.308,0,0,0,5.067,2.467c.09-.368.129-.53.214-.884,2.179-9.028.337-16.174-5.054-19.6-3.1-1.972-9.442-3.528-15.491-3.784l-1.2-.018c-6.181.184-12.754,1.748-15.984,3.8-5.388,3.429-7.23,10.575-5.054,19.6l.21.865a18.341,18.341,0,0,0,5.025-2.655c-.747-3.366-1.658-10.354,2.772-13.172,1.748-1.111,7-2.76,13.065-2.943l1,.016c5.639.239,10.754,1.687,12.7,2.927C3511.51,1010.348,3510.464,1017.57,3509.71,1020.847Z" fill="#fff" stroke="#000" stroke-miterlimit="10" stroke-width="1.375"/><path d="M3535.7,1026.756a16.211,16.211,0,0,1-5.1,2.252c1.841,7.2,4.242,15.884,6.967,24.058,1.155,3.464,1.084,6.259-.217,8.548-2.248,3.955-7.913,5.711-11.093,6.407a33.4,33.4,0,0,1-7.531.207c-3.451-.646-9.6-2.351-12.055-6.512-1.356-2.306-1.446-5.136-.275-8.65,2.771-8.315,5.2-17.154,7.057-24.421a34.65,34.65,0,0,1-5.159-2.035c-1.847,7.289-4.309,16.287-7.118,24.715-1.68,5.042-1.427,9.476.754,13.182,3.376,5.736,10.446,8.131,15.783,9.129a36.709,36.709,0,0,0,9.722-.24c4.973-1.088,11.561-3.544,14.7-9.063,2.087-3.671,2.308-8.048.654-13.008C3539.992,1042.955,3537.544,1034.02,3535.7,1026.756Z" fill="#fff" stroke="#000" stroke-miterlimit="10" stroke-width="1.375"/><path d="M3566.507,1020.669a15.052,15.052,0,0,0,5.007,2.724c.092-.379.146-.6.233-.963,2.179-9.028.338-16.174-5.054-19.6-3.229-2.054-9.8-3.618-16.112-3.8l-1.141.021c-5.979.254-12.321,1.808-15.424,3.782-5.388,3.429-7.23,10.575-5.054,19.6l.213.877a20.885,20.885,0,0,0,5.11-2.28c-.754-3.186-1.923-10.628,2.684-13.559,1.951-1.24,7.066-2.688,12.636-2.924l.942-.021c6.2.185,11.446,1.833,13.192,2.945C3568.185,1010.3,3567.256,1017.315,3566.507,1020.669Z" fill="#fff" stroke="#000" stroke-miterlimit="10" stroke-width="1.375"/><path d="M3591.729,1026.492a27.337,27.337,0,0,1-5.1,2.283c1.848,7.242,4.27,16.026,7.024,24.291,1.142,3.424,1.085,6.192-.171,8.466-2,3.613-6.744,5.427-10.375,6.312-2.622.641-10.3.529-13.493-1.3-5.831-3.339-8.759-6.614-6.47-13.479,2.758-8.274,5.182-17.068,7.031-24.315a17.148,17.148,0,0,1-5.12-2.193c-1.849,7.3-4.315,16.319-7.131,24.767-4.161,12.484,5.031,17.747,8.956,19.994,4.871,2.79,14.134,2.7,17.53,1.871,4.7-1.147,10.926-3.637,13.888-9,2.014-3.643,2.207-7.972.575-12.868C3596.053,1042.852,3593.579,1033.8,3591.729,1026.492Z" fill="#fff" stroke="#000" stroke-miterlimit="10" stroke-width="1.375"/><path d="M3622.543,1020.926a17.074,17.074,0,0,0,5.087,2.38c.083-.34.133-.548.213-.876,2.176-9.029.334-16.175-5.055-19.6-3.229-2.054-9.8-3.618-16.114-3.8l-1.14.021c-5.98.254-12.322,1.81-15.423,3.782-5.391,3.43-7.232,10.576-5.053,19.6.066.275.137.566.206.85a25.331,25.331,0,0,0,5.062-2.485c-.754-3.17-1.883-10.386,2.739-13.327,1.949-1.24,7.064-2.688,12.634-2.924l.942-.021c6.2.185,11.447,1.834,13.193,2.945C3624.4,1010.37,3623.3,1017.688,3622.543,1020.926Z" fill="#fff" stroke="#000" stroke-miterlimit="10" stroke-width="1.375"/><path d="M3619.794,1062.151c-1.616-2.38-1.8-5.353-.552-9.085,2.764-8.294,5.194-17.111,7.045-24.369a25.329,25.329,0,0,1-5.16-2.032c-1.846,7.281-4.3,16.255-7.1,24.66-1.8,5.4-1.386,10.089,1.23,13.932,5.5,8.082,18.862,8.889,19.428,8.92l.3-5.493C3631.87,1068.508,3623.078,1066.991,3619.794,1062.151Z" fill="#fff" stroke="#000" stroke-miterlimit="10" stroke-width="1.375"/><path d="M3464.949,1071.349" fill="none" stroke="#000" stroke-miterlimit="10" stroke-width="5.502"/><path d="M3579,1071.349" fill="none" stroke="#000" stroke-miterlimit="10" stroke-width="5.502"/><path d="M3422.782,1070.4a31.235,31.235,0,0,1-5.094,2.3c1.85,7.246,4.272,16.032,7.024,24.287,1.245,3.733,1.064,6.7-.551,9.085-3.285,4.84-12.076,6.357-15.187,6.533l.152,2.746.148,2.747c.566-.03,13.927-.838,19.429-8.92,2.615-3.843,3.029-8.531,1.229-13.932C3427.108,1086.776,3424.633,1077.718,3422.782,1070.4Z" fill="#fff" stroke="#000" stroke-miterlimit="10" stroke-width="1.375"/><path d="M3453.64,1064.66a17.409,17.409,0,0,0,5.043,2.574c.089-.365.13-.534.214-.885,2.177-9.029.335-16.175-5.054-19.6-3.1-1.974-9.445-3.528-15.492-3.784l-1.2-.018c-6.18.184-12.753,1.748-15.982,3.8-5.392,3.429-7.233,10.575-5.055,19.6.067.277.138.569.208.855a23.423,23.423,0,0,0,5.114-2.265c-.756-3.189-1.92-10.621,2.686-13.552,1.747-1.112,6.995-2.76,13.063-2.943l1,.016c5.639.239,10.754,1.687,12.7,2.927C3455.367,1054.235,3454.391,1061.336,3453.64,1064.66Z" fill="#fff" stroke="#000" stroke-miterlimit="10" stroke-width="1.375"/><path d="M3478.853,1070.314a21.906,21.906,0,0,1-5.1,2.286c1.852,7.26,4.282,16.084,7.049,24.385,2.289,6.865-.64,10.14-6.471,13.479-3.193,1.826-10.868,1.94-13.493,1.3-3.63-.885-8.376-2.7-10.373-6.312-1.258-2.273-1.314-5.042-.172-8.466,2.758-8.276,5.184-17.073,7.033-24.321a23.132,23.132,0,0,1-5.149-2.075c-1.845,7.279-4.3,16.251-7.1,24.655-1.632,4.9-1.437,9.225.576,12.869,2.962,5.359,9.187,7.849,13.887,9,3.394.83,12.658.92,17.53-1.871,3.925-2.247,13.117-7.51,8.956-19.994C3483.189,1086.733,3480.706,1077.64,3478.853,1070.314Z" fill="#fff" stroke="#000" stroke-miterlimit="10" stroke-width="1.375"/><path d="M3509.71,1064.766a22.3,22.3,0,0,0,5.067,2.467c.09-.368.129-.53.214-.884,2.179-9.028.337-16.174-5.054-19.6-3.1-1.972-9.442-3.528-15.491-3.784l-1.2-.018c-6.181.184-12.754,1.748-15.984,3.8-5.388,3.429-7.23,10.575-5.054,19.6l.21.865a18.313,18.313,0,0,0,5.025-2.655c-.747-3.366-1.658-10.353,2.772-13.172,1.748-1.111,7-2.76,13.065-2.943l1,.016c5.639.239,10.754,1.687,12.7,2.927C3511.51,1054.267,3510.464,1061.489,3509.71,1064.766Z" fill="#fff" stroke="#000" stroke-miterlimit="10" stroke-width="1.375"/><path d="M3535.7,1070.675a16.214,16.214,0,0,1-5.1,2.252c1.841,7.2,4.242,15.884,6.967,24.058,1.155,3.464,1.084,6.259-.217,8.548-2.248,3.955-7.913,5.712-11.093,6.407a33.39,33.39,0,0,1-7.531.207c-3.451-.646-9.6-2.35-12.055-6.512-1.356-2.306-1.446-5.136-.275-8.65,2.771-8.315,5.2-17.154,7.057-24.421a34.662,34.662,0,0,1-5.159-2.035c-1.847,7.289-4.309,16.287-7.118,24.715-1.68,5.042-1.427,9.476.754,13.182,3.376,5.736,10.446,8.131,15.783,9.129a36.711,36.711,0,0,0,9.722-.24c4.973-1.088,11.561-3.544,14.7-9.063,2.087-3.671,2.308-8.048.654-13.008C3539.992,1086.874,3537.544,1077.939,3535.7,1070.675Z" fill="#fff" stroke="#000" stroke-miterlimit="10" stroke-width="1.375"/><path d="M3566.507,1064.588a15.051,15.051,0,0,0,5.007,2.724c.092-.379.146-.6.233-.963,2.179-9.028.338-16.174-5.054-19.6-3.229-2.054-9.8-3.618-16.112-3.8l-1.141.021c-5.979.254-12.321,1.808-15.424,3.782-5.388,3.429-7.23,10.575-5.054,19.6l.213.877a20.887,20.887,0,0,0,5.11-2.28c-.754-3.186-1.923-10.628,2.684-13.559,1.951-1.24,7.066-2.688,12.636-2.924l.942-.02c6.2.184,11.446,1.832,13.192,2.944C3568.185,1054.215,3567.256,1061.234,3566.507,1064.588Z" fill="#fff" stroke="#000" stroke-miterlimit="10" stroke-width="1.375"/><path d="M3591.729,1070.411a27.345,27.345,0,0,1-5.1,2.283c1.848,7.242,4.27,16.026,7.024,24.291,1.142,3.424,1.085,6.192-.171,8.466-2,3.613-6.744,5.427-10.375,6.312-2.622.641-10.3.529-13.493-1.3-5.831-3.339-8.759-6.614-6.47-13.479,2.758-8.274,5.182-17.068,7.031-24.315a17.148,17.148,0,0,1-5.12-2.193c-1.849,7.3-4.315,16.319-7.131,24.767-4.161,12.484,5.031,17.747,8.956,19.994,4.871,2.79,14.134,2.7,17.53,1.871,4.7-1.147,10.926-3.637,13.888-9,2.014-3.643,2.207-7.972.575-12.868C3596.053,1086.771,3593.579,1077.721,3591.729,1070.411Z" fill="#fff" stroke="#000" stroke-miterlimit="10" stroke-width="1.375"/><path d="M3622.543,1064.845a17.073,17.073,0,0,0,5.087,2.38c.083-.34.133-.548.213-.876,2.176-9.029.334-16.175-5.055-19.6-3.229-2.054-9.8-3.618-16.114-3.8l-1.14.021c-5.98.254-12.322,1.81-15.423,3.782-5.391,3.43-7.232,10.576-5.053,19.6.066.275.137.566.206.85a25.328,25.328,0,0,0,5.062-2.485c-.754-3.17-1.883-10.386,2.739-13.327,1.949-1.24,7.064-2.688,12.634-2.924l.942-.02c6.2.184,11.447,1.833,13.193,2.944C3624.4,1054.289,3623.3,1061.607,3622.543,1064.845Z" fill="#fff" stroke="#000" stroke-miterlimit="10" stroke-width="1.375"/><path d="M3619.794,1106.07c-1.616-2.38-1.8-5.352-.552-9.085,2.764-8.294,5.194-17.111,7.045-24.369a25.329,25.329,0,0,1-5.16-2.032c-1.846,7.281-4.3,16.255-7.1,24.66-1.8,5.4-1.386,10.089,1.23,13.932,5.5,8.082,18.862,8.89,19.428,8.92l.3-5.493C3631.87,1112.427,3623.078,1110.91,3619.794,1106.07Z" fill="#fff" stroke="#000" stroke-miterlimit="10" stroke-width="1.375"/><path d="M3464.949,1115.38" fill="none" stroke="#000" stroke-miterlimit="10" stroke-width="5.502"/><path d="M3579,1115.38" fill="none" stroke="#000" stroke-miterlimit="10" stroke-width="5.502"/><path d="M3422.782,1114.431a31.235,31.235,0,0,1-5.094,2.3c1.85,7.246,4.272,16.032,7.024,24.287,1.245,3.733,1.064,6.7-.551,9.085-3.285,4.84-12.076,6.357-15.187,6.533l.152,2.747.148,2.747c.566-.031,13.927-.839,19.429-8.921,2.615-3.843,3.029-8.531,1.229-13.932C3427.108,1130.807,3424.633,1121.749,3422.782,1114.431Z" fill="#fff" stroke="#000" stroke-miterlimit="10" stroke-width="1.375"/><path d="M3453.64,1108.691a17.412,17.412,0,0,0,5.043,2.574c.089-.365.13-.534.214-.885,2.177-9.029.335-16.175-5.054-19.6-3.1-1.973-9.445-3.528-15.492-3.784l-1.2-.018c-6.18.184-12.753,1.748-15.982,3.8-5.392,3.429-7.233,10.575-5.055,19.6.067.277.138.569.208.855a23.423,23.423,0,0,0,5.114-2.265c-.756-3.189-1.92-10.621,2.686-13.552,1.747-1.112,6.995-2.76,13.063-2.943l1,.016c5.639.239,10.754,1.687,12.7,2.927C3455.367,1098.266,3454.391,1105.367,3453.64,1108.691Z" fill="#fff" stroke="#000" stroke-miterlimit="10" stroke-width="1.375"/><path d="M3478.853,1114.345a21.906,21.906,0,0,1-5.1,2.286c1.852,7.26,4.282,16.084,7.049,24.385,2.289,6.865-.64,10.14-6.471,13.479-3.193,1.826-10.868,1.94-13.493,1.3-3.63-.885-8.376-2.7-10.373-6.312-1.258-2.273-1.314-5.042-.172-8.466,2.758-8.275,5.184-17.073,7.033-24.321a23.132,23.132,0,0,1-5.149-2.075c-1.845,7.279-4.3,16.252-7.1,24.655-1.632,4.9-1.437,9.225.576,12.87,2.962,5.358,9.187,7.848,13.887,8.995,3.394.83,12.658.92,17.53-1.871,3.925-2.247,13.117-7.51,8.956-19.994C3483.189,1130.764,3480.706,1121.671,3478.853,1114.345Z" fill="#fff" stroke="#000" stroke-miterlimit="10" stroke-width="1.375"/><path d="M3509.71,1108.8a22.3,22.3,0,0,0,5.067,2.467c.09-.368.129-.53.214-.884,2.179-9.028.337-16.174-5.054-19.6-3.1-1.972-9.442-3.528-15.491-3.784l-1.2-.018c-6.181.184-12.754,1.748-15.984,3.8-5.388,3.429-7.23,10.575-5.054,19.6l.21.865a18.313,18.313,0,0,0,5.025-2.655c-.747-3.366-1.658-10.353,2.772-13.172,1.748-1.111,7-2.76,13.065-2.943l1,.016c5.639.239,10.754,1.687,12.7,2.927C3511.51,1098.3,3510.464,1105.521,3509.71,1108.8Z" fill="#fff" stroke="#000" stroke-miterlimit="10" stroke-width="1.375"/><path d="M3535.7,1114.706a16.214,16.214,0,0,1-5.1,2.252c1.841,7.2,4.242,15.884,6.967,24.058,1.155,3.464,1.084,6.259-.217,8.548-2.248,3.955-7.913,5.712-11.093,6.407a33.39,33.39,0,0,1-7.531.207c-3.451-.646-9.6-2.35-12.055-6.512-1.356-2.306-1.446-5.136-.275-8.65,2.771-8.315,5.2-17.154,7.057-24.421a34.556,34.556,0,0,1-5.159-2.035c-1.847,7.289-4.309,16.287-7.118,24.715-1.68,5.042-1.427,9.476.754,13.182,3.376,5.736,10.446,8.131,15.783,9.129a36.711,36.711,0,0,0,9.722-.24c4.973-1.088,11.561-3.544,14.7-9.063,2.087-3.671,2.308-8.047.654-13.008C3539.992,1130.905,3537.544,1121.97,3535.7,1114.706Z" fill="#fff" stroke="#000" stroke-miterlimit="10" stroke-width="1.375"/><path d="M3566.507,1108.619a15.033,15.033,0,0,0,5.007,2.724c.092-.379.146-.6.233-.963,2.179-9.028.338-16.174-5.054-19.6-3.229-2.054-9.8-3.618-16.112-3.8l-1.141.022c-5.979.253-12.321,1.808-15.424,3.781-5.388,3.429-7.23,10.575-5.054,19.6.069.284.142.584.213.878a20.932,20.932,0,0,0,5.11-2.281c-.754-3.186-1.923-10.628,2.684-13.559,1.951-1.24,7.066-2.688,12.636-2.924l.942-.02c6.2.184,11.446,1.832,13.192,2.944C3568.185,1098.246,3567.256,1105.265,3566.507,1108.619Z" fill="#fff" stroke="#000" stroke-miterlimit="10" stroke-width="1.375"/><path d="M3591.729,1114.442a27.345,27.345,0,0,1-5.1,2.283c1.848,7.242,4.27,16.026,7.024,24.291,1.142,3.424,1.085,6.192-.171,8.466-2,3.614-6.744,5.427-10.375,6.312-2.622.641-10.3.529-13.493-1.3-5.831-3.339-8.759-6.614-6.47-13.479,2.758-8.274,5.182-17.068,7.031-24.315a17.122,17.122,0,0,1-5.12-2.193c-1.849,7.3-4.315,16.319-7.131,24.767-4.161,12.484,5.031,17.747,8.956,19.994,4.871,2.79,14.134,2.7,17.53,1.871,4.7-1.147,10.926-3.637,13.888-9,2.014-3.643,2.207-7.972.575-12.868C3596.053,1130.8,3593.579,1121.752,3591.729,1114.442Z" fill="#fff" stroke="#000" stroke-miterlimit="10" stroke-width="1.375"/><path d="M3622.543,1108.876a17.073,17.073,0,0,0,5.087,2.38c.083-.34.133-.548.213-.876,2.176-9.029.334-16.175-5.055-19.6-3.229-2.054-9.8-3.618-16.114-3.8l-1.14.022c-5.98.253-12.322,1.809-15.423,3.781-5.391,3.43-7.232,10.576-5.053,19.6.066.275.137.566.206.85a25.275,25.275,0,0,0,5.062-2.485c-.754-3.17-1.883-10.386,2.739-13.327,1.949-1.24,7.064-2.688,12.634-2.924l.942-.02c6.2.184,11.447,1.833,13.193,2.944C3624.4,1098.32,3623.3,1105.638,3622.543,1108.876Z" fill="#fff" stroke="#000" stroke-miterlimit="10" stroke-width="1.375"/><path d="M3619.794,1150.1c-1.616-2.38-1.8-5.352-.552-9.085,2.764-8.294,5.194-17.111,7.045-24.369a25.329,25.329,0,0,1-5.16-2.032c-1.846,7.281-4.3,16.255-7.1,24.66-1.8,5.4-1.386,10.089,1.23,13.932,5.5,8.082,18.862,8.89,19.428,8.921l.3-5.494C3631.87,1156.458,3623.078,1154.941,3619.794,1150.1Z" fill="#fff" stroke="#000" stroke-miterlimit="10" stroke-width="1.375"/><path d="M3464.949,1159.187" fill="none" stroke="#000" stroke-miterlimit="10" stroke-width="5.502"/><path d="M3579,1159.187" fill="none" stroke="#000" stroke-miterlimit="10" stroke-width="5.502"/><path d="M3422.782,1158.238a31.235,31.235,0,0,1-5.094,2.3c1.85,7.246,4.272,16.032,7.024,24.287,1.245,3.733,1.064,6.7-.551,9.085-3.285,4.84-12.076,6.357-15.187,6.533l.152,2.747.148,2.747c.566-.031,13.927-.839,19.429-8.921,2.615-3.843,3.029-8.531,1.229-13.932C3427.108,1174.614,3424.633,1165.556,3422.782,1158.238Z" fill="#fff" stroke="#000" stroke-miterlimit="10" stroke-width="1.375"/><path d="M3453.64,1152.5a17.412,17.412,0,0,0,5.043,2.574c.089-.365.13-.534.214-.885,2.177-9.029.335-16.175-5.054-19.6-3.1-1.973-9.445-3.528-15.492-3.784l-1.2-.018c-6.18.184-12.753,1.748-15.982,3.8-5.392,3.429-7.233,10.575-5.055,19.6.067.277.138.569.208.855a23.465,23.465,0,0,0,5.114-2.264c-.756-3.19-1.92-10.622,2.686-13.553,1.747-1.112,6.995-2.76,13.063-2.943l1,.016c5.639.239,10.754,1.687,12.7,2.927C3455.367,1142.073,3454.391,1149.174,3453.64,1152.5Z" fill="#fff" stroke="#000" stroke-miterlimit="10" stroke-width="1.375"/><path d="M3478.853,1158.152a21.906,21.906,0,0,1-5.1,2.286c1.852,7.26,4.282,16.084,7.049,24.385,2.289,6.865-.64,10.14-6.471,13.479-3.193,1.826-10.868,1.94-13.493,1.3-3.63-.885-8.376-2.7-10.373-6.312-1.258-2.273-1.314-5.042-.172-8.466,2.758-8.275,5.184-17.073,7.033-24.321a23.132,23.132,0,0,1-5.149-2.075c-1.845,7.279-4.3,16.252-7.1,24.655-1.632,4.9-1.437,9.225.576,12.87,2.962,5.358,9.187,7.848,13.887,8.995,3.394.83,12.658.92,17.53-1.871,3.925-2.247,13.117-7.51,8.956-19.994C3483.189,1174.571,3480.706,1165.478,3478.853,1158.152Z" fill="#fff" stroke="#000" stroke-miterlimit="10" stroke-width="1.375"/><path d="M3509.71,1152.6a22.3,22.3,0,0,0,5.067,2.467c.09-.368.129-.53.214-.884,2.179-9.028.337-16.174-5.054-19.6-3.1-1.972-9.442-3.528-15.491-3.784l-1.2-.018c-6.181.184-12.754,1.748-15.984,3.8-5.388,3.429-7.23,10.575-5.054,19.6l.21.865a18.313,18.313,0,0,0,5.025-2.655c-.747-3.366-1.658-10.353,2.772-13.172,1.748-1.111,7-2.76,13.065-2.943l1,.016c5.639.239,10.754,1.687,12.7,2.927C3511.51,1142.1,3510.464,1149.328,3509.71,1152.6Z" fill="#fff" stroke="#000" stroke-miterlimit="10" stroke-width="1.375"/><path d="M3535.7,1158.513a16.211,16.211,0,0,1-5.1,2.252c1.841,7.2,4.242,15.884,6.967,24.058,1.155,3.464,1.084,6.259-.217,8.548-2.248,3.955-7.913,5.712-11.093,6.407a33.39,33.39,0,0,1-7.531.207c-3.451-.646-9.6-2.35-12.055-6.512-1.356-2.306-1.446-5.136-.275-8.65,2.771-8.315,5.2-17.154,7.057-24.421a34.544,34.544,0,0,1-5.159-2.035c-1.847,7.289-4.309,16.287-7.118,24.715-1.68,5.042-1.427,9.477.754,13.183,3.376,5.735,10.446,8.13,15.783,9.128a36.7,36.7,0,0,0,9.722-.24c4.973-1.088,11.561-3.544,14.7-9.063,2.087-3.671,2.308-8.047.654-13.008C3539.992,1174.712,3537.544,1165.777,3535.7,1158.513Z" fill="#fff" stroke="#000" stroke-miterlimit="10" stroke-width="1.375"/><path d="M3566.507,1152.426a15.033,15.033,0,0,0,5.007,2.724c.092-.379.146-.6.233-.963,2.179-9.028.338-16.174-5.054-19.6-3.229-2.054-9.8-3.618-16.112-3.8l-1.141.022c-5.979.253-12.321,1.808-15.424,3.781-5.388,3.429-7.23,10.575-5.054,19.6.069.285.142.584.213.878a20.927,20.927,0,0,0,5.11-2.281c-.754-3.186-1.923-10.628,2.684-13.559,1.951-1.24,7.066-2.688,12.636-2.924l.942-.02c6.2.184,11.446,1.832,13.192,2.944C3568.185,1142.053,3567.256,1149.072,3566.507,1152.426Z" fill="#fff" stroke="#000" stroke-miterlimit="10" stroke-width="1.375"/><path d="M3591.729,1158.249a27.345,27.345,0,0,1-5.1,2.283c1.848,7.242,4.27,16.026,7.024,24.291,1.142,3.424,1.085,6.192-.171,8.466-2,3.614-6.744,5.427-10.375,6.312-2.622.641-10.3.529-13.493-1.3-5.831-3.339-8.759-6.614-6.47-13.479,2.758-8.274,5.182-17.068,7.031-24.315a17.12,17.12,0,0,1-5.12-2.193c-1.849,7.3-4.315,16.319-7.131,24.767-4.161,12.484,5.031,17.747,8.956,19.994,4.871,2.79,14.134,2.7,17.53,1.871,4.7-1.147,10.926-3.637,13.888-9,2.014-3.643,2.207-7.972.575-12.868C3596.053,1174.609,3593.579,1165.559,3591.729,1158.249Z" fill="#fff" stroke="#000" stroke-miterlimit="10" stroke-width="1.375"/><path d="M3622.543,1152.683a17.073,17.073,0,0,0,5.087,2.38c.083-.34.133-.548.213-.876,2.176-9.029.334-16.175-5.055-19.6-3.229-2.054-9.8-3.618-16.114-3.8l-1.14.022c-5.98.253-12.322,1.809-15.423,3.781-5.391,3.43-7.232,10.576-5.053,19.6.066.275.137.566.206.85a25.223,25.223,0,0,0,5.062-2.485c-.754-3.17-1.883-10.386,2.739-13.327,1.949-1.24,7.064-2.688,12.634-2.924l.942-.02c6.2.184,11.447,1.833,13.193,2.944C3624.4,1142.127,3623.3,1149.445,3622.543,1152.683Z" fill="#fff" stroke="#000" stroke-miterlimit="10" stroke-width="1.375"/><path d="M3619.794,1193.908c-1.616-2.38-1.8-5.352-.552-9.085,2.764-8.294,5.194-17.111,7.045-24.369a25.329,25.329,0,0,1-5.16-2.032c-1.846,7.281-4.3,16.255-7.1,24.66-1.8,5.4-1.386,10.089,1.23,13.932,5.5,8.082,18.862,8.89,19.428,8.921l.3-5.494C3631.87,1200.265,3623.078,1198.748,3619.794,1193.908Z" fill="#fff" stroke="#000" stroke-miterlimit="10" stroke-width="1.375"/><path d="M3464.949,1202.484" fill="none" stroke="#000" stroke-miterlimit="10" stroke-width="5.502"/><path d="M3579,1202.484" fill="none" stroke="#000" stroke-miterlimit="10" stroke-width="5.502"/><path d="M3422.782,1201.535a31.237,31.237,0,0,1-5.094,2.3c1.85,7.247,4.272,16.033,7.024,24.287,1.245,3.733,1.064,6.706-.551,9.086-3.285,4.84-12.076,6.356-15.187,6.532l.152,2.747.148,2.747c.566-.031,13.927-.838,19.429-8.921,2.615-3.843,3.029-8.53,1.229-13.932C3427.108,1217.911,3424.633,1208.852,3422.782,1201.535Z" fill="#fff" stroke="#000" stroke-miterlimit="10" stroke-width="1.375"/><path d="M3453.64,1195.8a17.437,17.437,0,0,0,5.043,2.573c.089-.365.13-.534.214-.884,2.177-9.029.335-16.176-5.054-19.6-3.1-1.973-9.445-3.527-15.492-3.784l-1.2-.017c-6.18.184-12.753,1.747-15.982,3.8-5.392,3.429-7.233,10.576-5.055,19.6.067.277.138.569.208.854a23.424,23.424,0,0,0,5.114-2.264c-.756-3.189-1.92-10.622,2.686-13.553,1.747-1.112,6.995-2.76,13.063-2.943l1,.017c5.639.239,10.754,1.687,12.7,2.926C3455.367,1185.369,3454.391,1192.471,3453.64,1195.8Z" fill="#fff" stroke="#000" stroke-miterlimit="10" stroke-width="1.375"/><path d="M3478.853,1201.449a21.868,21.868,0,0,1-5.1,2.285c1.852,7.261,4.282,16.085,7.049,24.385,2.289,6.866-.64,10.14-6.471,13.48-3.193,1.825-10.868,1.939-13.493,1.3-3.63-.886-8.376-2.7-10.373-6.312-1.258-2.273-1.314-5.043-.172-8.467,2.758-8.275,5.184-17.072,7.033-24.321a23.038,23.038,0,0,1-5.149-2.075c-1.845,7.28-4.3,16.252-7.1,24.655-1.632,4.9-1.437,9.226.576,12.87,2.962,5.358,9.187,7.849,13.887,9,3.394.83,12.658.92,17.53-1.871,3.925-2.248,13.117-7.511,8.956-19.995C3483.189,1217.868,3480.706,1208.775,3478.853,1201.449Z" fill="#fff" stroke="#000" stroke-miterlimit="10" stroke-width="1.375"/><path d="M3509.71,1195.9a22.308,22.308,0,0,0,5.067,2.468c.09-.368.129-.531.214-.884,2.179-9.028.337-16.174-5.054-19.6-3.1-1.972-9.442-3.527-15.491-3.784l-1.2-.017c-6.181.184-12.754,1.747-15.984,3.8-5.388,3.429-7.23,10.576-5.054,19.6.068.28.14.575.21.865a18.34,18.34,0,0,0,5.025-2.655c-.747-3.367-1.658-10.354,2.772-13.173,1.748-1.11,7-2.76,13.065-2.943l1,.017c5.639.239,10.754,1.687,12.7,2.926C3511.51,1185.4,3510.464,1192.624,3509.71,1195.9Z" fill="#fff" stroke="#000" stroke-miterlimit="10" stroke-width="1.375"/><path d="M3535.7,1201.809a16.21,16.21,0,0,1-5.1,2.253c1.841,7.2,4.242,15.883,6.967,24.057,1.155,3.464,1.084,6.26-.217,8.549-2.248,3.954-7.913,5.711-11.093,6.407a33.448,33.448,0,0,1-7.531.207c-3.451-.646-9.6-2.351-12.055-6.512-1.356-2.307-1.446-5.137-.275-8.651,2.771-8.314,5.2-17.153,7.057-24.42a34.65,34.65,0,0,1-5.159-2.035c-1.847,7.289-4.309,16.286-7.118,24.714-1.68,5.043-1.427,9.477.754,13.183,3.376,5.736,10.446,8.131,15.783,9.129a36.757,36.757,0,0,0,9.722-.241c4.973-1.088,11.561-3.543,14.7-9.063,2.087-3.671,2.308-8.047.654-13.008C3539.992,1218.008,3537.544,1209.074,3535.7,1201.809Z" fill="#fff" stroke="#000" stroke-miterlimit="10" stroke-width="1.375"/><path d="M3566.507,1195.723a15.051,15.051,0,0,0,5.007,2.723c.092-.378.146-.6.233-.962,2.179-9.028.338-16.174-5.054-19.6-3.229-2.054-9.8-3.617-16.112-3.8l-1.141.022c-5.979.254-12.321,1.808-15.424,3.781-5.388,3.429-7.23,10.576-5.054,19.6.069.284.142.583.213.877a20.849,20.849,0,0,0,5.11-2.281c-.754-3.186-1.923-10.627,2.684-13.559,1.951-1.239,7.066-2.687,12.636-2.924l.942-.02c6.2.184,11.446,1.832,13.192,2.944C3568.185,1185.35,3567.256,1192.369,3566.507,1195.723Z" fill="#fff" stroke="#000" stroke-miterlimit="10" stroke-width="1.375"/><path d="M3591.729,1201.546a27.473,27.473,0,0,1-5.1,2.283c1.848,7.242,4.27,16.026,7.024,24.29,1.142,3.424,1.085,6.193-.171,8.467-2,3.613-6.744,5.426-10.375,6.312-2.622.64-10.3.529-13.493-1.3-5.831-3.34-8.759-6.614-6.47-13.48,2.758-8.274,5.182-17.068,7.031-24.315a17.139,17.139,0,0,1-5.12-2.192c-1.849,7.3-4.315,16.318-7.131,24.766-4.161,12.484,5.031,17.747,8.956,19.995,4.871,2.789,14.134,2.7,17.53,1.871,4.7-1.147,10.926-3.638,13.888-9,2.014-3.643,2.207-7.973.575-12.869C3596.053,1217.905,3593.579,1208.855,3591.729,1201.546Z" fill="#fff" stroke="#000" stroke-miterlimit="10" stroke-width="1.375"/><path d="M3622.543,1195.979a17.1,17.1,0,0,0,5.087,2.381c.083-.341.133-.548.213-.876,2.176-9.029.334-16.176-5.055-19.6-3.229-2.054-9.8-3.617-16.114-3.8l-1.14.022c-5.98.254-12.322,1.809-15.423,3.781-5.391,3.431-7.232,10.577-5.053,19.6.066.275.137.565.206.849a25.223,25.223,0,0,0,5.062-2.485c-.754-3.17-1.883-10.386,2.739-13.327,1.949-1.239,7.064-2.687,12.634-2.924l.942-.02c6.2.184,11.447,1.834,13.193,2.944C3624.4,1185.423,3623.3,1192.742,3622.543,1195.979Z" fill="#fff" stroke="#000" stroke-miterlimit="10" stroke-width="1.375"/><path d="M3619.794,1237.2c-1.616-2.38-1.8-5.353-.552-9.086,2.764-8.293,5.194-17.111,7.045-24.368a25.329,25.329,0,0,1-5.16-2.032c-1.846,7.28-4.3,16.254-7.1,24.659-1.8,5.4-1.386,10.089,1.23,13.932,5.5,8.083,18.862,8.89,19.428,8.921l.3-5.494C3631.87,1243.561,3623.078,1242.045,3619.794,1237.2Z" fill="#fff" stroke="#000" stroke-miterlimit="10" stroke-width="1.375"/><path d="M3464.949,1247.025" fill="none" stroke="#000" stroke-miterlimit="10" stroke-width="5.502"/><path d="M3579,1247.025" fill="none" stroke="#000" stroke-miterlimit="10" stroke-width="5.502"/><path d="M3422.782,1246.076a31.235,31.235,0,0,1-5.094,2.3c1.85,7.246,4.272,16.032,7.024,24.287,1.245,3.733,1.064,6.7-.551,9.086-3.285,4.839-12.076,6.356-15.187,6.532l.152,2.747.148,2.747c.566-.031,13.927-.839,19.429-8.921,2.615-3.843,3.029-8.531,1.229-13.932C3427.108,1262.453,3424.633,1253.394,3422.782,1246.076Z" fill="#fff" stroke="#000" stroke-miterlimit="10" stroke-width="1.375"/><path d="M3453.64,1240.336a17.415,17.415,0,0,0,5.043,2.574c.089-.365.13-.534.214-.884,2.177-9.03.335-16.176-5.054-19.6-3.1-1.973-9.445-3.528-15.492-3.784l-1.2-.018c-6.18.185-12.753,1.748-15.982,3.8-5.392,3.429-7.233,10.575-5.055,19.6.067.276.138.568.208.854a23.471,23.471,0,0,0,5.114-2.264c-.756-3.19-1.92-10.622,2.686-13.553,1.747-1.112,6.995-2.76,13.063-2.943l1,.016c5.639.239,10.754,1.687,12.7,2.927C3455.367,1229.911,3454.391,1237.012,3453.64,1240.336Z" fill="#fff" stroke="#000" stroke-miterlimit="10" stroke-width="1.375"/><path d="M3478.853,1245.99a21.906,21.906,0,0,1-5.1,2.286c1.852,7.26,4.282,16.084,7.049,24.385,2.289,6.865-.64,10.14-6.471,13.479-3.193,1.826-10.868,1.94-13.493,1.3-3.63-.885-8.376-2.7-10.373-6.312-1.258-2.272-1.314-5.042-.172-8.466,2.758-8.275,5.184-17.072,7.033-24.321a23.132,23.132,0,0,1-5.149-2.075c-1.845,7.279-4.3,16.252-7.1,24.655-1.632,4.9-1.437,9.225.576,12.87,2.962,5.358,9.187,7.848,13.887,8.995,3.394.83,12.658.92,17.53-1.871,3.925-2.247,13.117-7.51,8.956-19.994C3483.189,1262.41,3480.706,1253.316,3478.853,1245.99Z" fill="#fff" stroke="#000" stroke-miterlimit="10" stroke-width="1.375"/><path d="M3509.71,1240.442a22.313,22.313,0,0,0,5.067,2.467c.09-.368.129-.53.214-.883,2.179-9.028.337-16.174-5.054-19.6-3.1-1.972-9.442-3.528-15.491-3.784l-1.2-.018c-6.181.185-12.754,1.748-15.984,3.8-5.388,3.429-7.23,10.575-5.054,19.6l.21.864a18.313,18.313,0,0,0,5.025-2.655c-.747-3.366-1.658-10.353,2.772-13.172,1.748-1.111,7-2.76,13.065-2.943l1,.016c5.639.239,10.754,1.687,12.7,2.927C3511.51,1229.943,3510.464,1237.166,3509.71,1240.442Z" fill="#fff" stroke="#000" stroke-miterlimit="10" stroke-width="1.375"/><path d="M3535.7,1246.351a16.211,16.211,0,0,1-5.1,2.252c1.841,7.2,4.242,15.884,6.967,24.058,1.155,3.464,1.084,6.259-.217,8.548-2.248,3.955-7.913,5.712-11.093,6.408a33.437,33.437,0,0,1-7.531.206c-3.451-.646-9.6-2.35-12.055-6.512-1.356-2.306-1.446-5.136-.275-8.65,2.771-8.314,5.2-17.154,7.057-24.42a34.66,34.66,0,0,1-5.159-2.036c-1.847,7.289-4.309,16.287-7.118,24.715-1.68,5.043-1.427,9.477.754,13.183,3.376,5.735,10.446,8.13,15.783,9.128a36.7,36.7,0,0,0,9.722-.24c4.973-1.088,11.561-3.544,14.7-9.063,2.087-3.671,2.308-8.047.654-13.008C3539.992,1262.55,3537.544,1253.615,3535.7,1246.351Z" fill="#fff" stroke="#000" stroke-miterlimit="10" stroke-width="1.375"/><path d="M3566.507,1240.265a15.051,15.051,0,0,0,5.007,2.723c.092-.379.146-.6.233-.962,2.179-9.028.338-16.174-5.054-19.6-3.229-2.054-9.8-3.617-16.112-3.8l-1.141.022c-5.979.253-12.321,1.808-15.424,3.781-5.388,3.429-7.23,10.575-5.054,19.6.069.284.142.583.213.877a20.923,20.923,0,0,0,5.11-2.281c-.754-3.186-1.923-10.628,2.684-13.559,1.951-1.24,7.066-2.688,12.636-2.924l.942-.02c6.2.184,11.446,1.832,13.192,2.944C3568.185,1229.891,3567.256,1236.91,3566.507,1240.265Z" fill="#fff" stroke="#000" stroke-miterlimit="10" stroke-width="1.375"/><path d="M3591.729,1246.087a27.345,27.345,0,0,1-5.1,2.283c1.848,7.242,4.27,16.027,7.024,24.291,1.142,3.424,1.085,6.192-.171,8.466-2,3.614-6.744,5.427-10.375,6.312-2.622.641-10.3.529-13.493-1.3-5.831-3.339-8.759-6.614-6.47-13.479,2.758-8.274,5.182-17.068,7.031-24.315a17.116,17.116,0,0,1-5.12-2.193c-1.849,7.3-4.315,16.319-7.131,24.767-4.161,12.484,5.031,17.747,8.956,19.994,4.871,2.79,14.134,2.7,17.53,1.871,4.7-1.147,10.926-3.637,13.888-9,2.014-3.643,2.207-7.972.575-12.868C3596.053,1262.447,3593.579,1253.4,3591.729,1246.087Z" fill="#fff" stroke="#000" stroke-miterlimit="10" stroke-width="1.375"/><path d="M3622.543,1240.521a17.073,17.073,0,0,0,5.087,2.38l.213-.875c2.176-9.03.334-16.176-5.055-19.6-3.229-2.054-9.8-3.617-16.114-3.8l-1.14.022c-5.98.253-12.322,1.809-15.423,3.781-5.391,3.431-7.232,10.577-5.053,19.6.066.275.137.565.206.849a25.223,25.223,0,0,0,5.062-2.485c-.754-3.17-1.883-10.386,2.739-13.327,1.949-1.24,7.064-2.688,12.634-2.924l.942-.02c6.2.184,11.447,1.833,13.193,2.944C3624.4,1229.965,3623.3,1237.283,3622.543,1240.521Z" fill="#fff" stroke="#000" stroke-miterlimit="10" stroke-width="1.375"/><path d="M3619.794,1281.747c-1.616-2.381-1.8-5.353-.552-9.086,2.764-8.294,5.194-17.111,7.045-24.369a25.379,25.379,0,0,1-5.16-2.031c-1.846,7.28-4.3,16.254-7.1,24.659-1.8,5.4-1.386,10.089,1.23,13.932,5.5,8.082,18.862,8.89,19.428,8.921l.3-5.494C3631.87,1288.1,3623.078,1286.586,3619.794,1281.747Z" fill="#fff" stroke="#000" stroke-miterlimit="10" stroke-width="1.375"/><path d="M3464.949,1291.567" fill="none" stroke="#000" stroke-miterlimit="10" stroke-width="5.502"/><path d="M3579,1291.567" fill="none" stroke="#000" stroke-miterlimit="10" stroke-width="5.502"/><path d="M3422.782,1290.618a31.318,31.318,0,0,1-5.094,2.3c1.85,7.246,4.272,16.032,7.024,24.287,1.245,3.732,1.064,6.7-.551,9.085-3.285,4.84-12.076,6.356-15.187,6.532l.152,2.747.148,2.747c.566-.031,13.927-.838,19.429-8.92,2.615-3.843,3.029-8.531,1.229-13.932C3427.108,1306.994,3424.633,1297.936,3422.782,1290.618Z" fill="#fff" stroke="#000" stroke-miterlimit="10" stroke-width="1.375"/><path d="M3453.64,1284.134a17.436,17.436,0,0,0,5.043,2.574c.089-.365.13-.534.214-.885,2.177-9.029.335-16.175-5.054-19.6-3.1-1.973-9.445-3.527-15.492-3.783l-1.2-.018c-6.18.184-12.753,1.748-15.982,3.8-5.392,3.43-7.233,10.576-5.055,19.6.067.277.138.569.208.855a23.423,23.423,0,0,0,5.114-2.265c-.756-3.189-1.92-10.622,2.686-13.552,1.747-1.113,6.995-2.761,13.063-2.943l1,.016c5.639.239,10.754,1.687,12.7,2.927C3455.367,1273.709,3454.391,1280.81,3453.64,1284.134Z" fill="#fff" stroke="#000" stroke-miterlimit="10" stroke-width="1.375"/><path d="M3478.853,1290.532a21.906,21.906,0,0,1-5.1,2.286c1.852,7.26,4.282,16.084,7.049,24.385,2.289,6.865-.64,10.14-6.471,13.479-3.193,1.825-10.868,1.94-13.493,1.3-3.63-.885-8.376-2.7-10.373-6.312-1.258-2.273-1.314-5.043-.172-8.466,2.758-8.276,5.184-17.073,7.033-24.321a23.132,23.132,0,0,1-5.149-2.075c-1.845,7.279-4.3,16.251-7.1,24.655-1.632,4.9-1.437,9.225.576,12.869,2.962,5.359,9.187,7.849,13.887,9,3.394.83,12.658.92,17.53-1.871,3.925-2.247,13.117-7.51,8.956-19.994C3483.189,1306.951,3480.706,1297.858,3478.853,1290.532Z" fill="#fff" stroke="#000" stroke-miterlimit="10" stroke-width="1.375"/><path d="M3509.71,1284.369a22.308,22.308,0,0,0,5.067,2.468c.09-.368.129-.531.214-.884,2.179-9.028.337-16.174-5.054-19.6-3.1-1.972-9.442-3.527-15.491-3.784l-1.2-.017c-6.181.184-12.754,1.748-15.984,3.8-5.388,3.43-7.23,10.576-5.054,19.6l.21.865a18.34,18.34,0,0,0,5.025-2.655c-.747-3.366-1.658-10.354,2.772-13.172,1.748-1.111,7-2.761,13.065-2.943l1,.016c5.639.239,10.754,1.687,12.7,2.927C3511.51,1273.871,3510.464,1281.093,3509.71,1284.369Z" fill="#fff" stroke="#000" stroke-miterlimit="10" stroke-width="1.375"/><path d="M3535.7,1290.893a16.211,16.211,0,0,1-5.1,2.252c1.841,7.2,4.242,15.884,6.967,24.058,1.155,3.464,1.084,6.259-.217,8.548-2.248,3.954-7.913,5.711-11.093,6.407a33.448,33.448,0,0,1-7.531.207c-3.451-.646-9.6-2.351-12.055-6.512-1.356-2.306-1.446-5.137-.275-8.65,2.771-8.315,5.2-17.154,7.057-24.421a34.65,34.65,0,0,1-5.159-2.035c-1.847,7.289-4.309,16.287-7.118,24.715-1.68,5.042-1.427,9.476.754,13.182,3.376,5.736,10.446,8.131,15.783,9.129a36.7,36.7,0,0,0,9.722-.24c4.973-1.089,11.561-3.544,14.7-9.063,2.087-3.671,2.308-8.048.654-13.008C3539.992,1307.091,3537.544,1298.157,3535.7,1290.893Z" fill="#fff" stroke="#000" stroke-miterlimit="10" stroke-width="1.375"/><path d="M3566.507,1284.192a15.051,15.051,0,0,0,5.007,2.723c.092-.378.146-.6.233-.962,2.179-9.028.338-16.174-5.054-19.6-3.229-2.053-9.8-3.617-16.112-3.8l-1.141.021c-5.979.254-12.321,1.808-15.424,3.781-5.388,3.43-7.23,10.576-5.054,19.6.069.284.142.583.213.877a20.849,20.849,0,0,0,5.11-2.281c-.754-3.186-1.923-10.627,2.684-13.558,1.951-1.24,7.066-2.688,12.636-2.925l.942-.02c6.2.184,11.446,1.832,13.192,2.945C3568.185,1273.819,3567.256,1280.838,3566.507,1284.192Z" fill="#fff" stroke="#000" stroke-miterlimit="10" stroke-width="1.375"/><path d="M3591.729,1290.629a27.409,27.409,0,0,1-5.1,2.283c1.848,7.242,4.27,16.026,7.024,24.291,1.142,3.423,1.085,6.192-.171,8.466-2,3.613-6.744,5.427-10.375,6.312-2.622.641-10.3.529-13.493-1.3-5.831-3.339-8.759-6.614-6.47-13.479,2.758-8.274,5.182-17.068,7.031-24.315a17.17,17.17,0,0,1-5.12-2.193c-1.849,7.3-4.315,16.319-7.131,24.767-4.161,12.484,5.031,17.747,8.956,19.994,4.871,2.79,14.134,2.7,17.53,1.871,4.7-1.147,10.926-3.637,13.888-9,2.014-3.643,2.207-7.972.575-12.868C3596.053,1306.989,3593.579,1297.939,3591.729,1290.629Z" fill="#fff" stroke="#000" stroke-miterlimit="10" stroke-width="1.375"/><path d="M3622.543,1284.449a17.1,17.1,0,0,0,5.087,2.38c.083-.341.133-.548.213-.876,2.176-9.029.334-16.175-5.055-19.6-3.229-2.053-9.8-3.617-16.114-3.8l-1.14.021c-5.98.254-12.322,1.809-15.423,3.781-5.391,3.431-7.232,10.577-5.053,19.6.066.275.137.566.206.85a25.328,25.328,0,0,0,5.062-2.485c-.754-3.171-1.883-10.386,2.739-13.327,1.949-1.24,7.064-2.688,12.634-2.925l.942-.02c6.2.184,11.447,1.834,13.193,2.945C3624.4,1273.893,3623.3,1281.211,3622.543,1284.449Z" fill="#fff" stroke="#000" stroke-miterlimit="10" stroke-width="1.375"/><path d="M3619.794,1326.288c-1.616-2.38-1.8-5.353-.552-9.085,2.764-8.294,5.194-17.111,7.045-24.369a25.329,25.329,0,0,1-5.16-2.032c-1.846,7.28-4.3,16.255-7.1,24.66-1.8,5.4-1.386,10.089,1.23,13.932,5.5,8.082,18.862,8.889,19.428,8.92l.3-5.494C3631.87,1332.644,3623.078,1331.128,3619.794,1326.288Z" fill="#fff" stroke="#000" stroke-miterlimit="10" stroke-width="1.375"/></g></svg>