<svg xmlns="http://www.w3.org/2000/svg" width="64.232" height="67.343" viewBox="0 0 64.232 67.343"><g transform="translate(-586.64 1212.192)"><rect width="48.945" height="1.512" transform="translate(594.284 -1146.361)" fill="#0ac4bf"/><g transform="translate(0 -1)"><path d="M647.66-1201.557h-1.167a6.428,6.428,0,0,0-6.326-5.353v-2.141a1.07,1.07,0,0,0-1.071-1.07,1.07,1.07,0,0,0-1.07,1.07v2.141h-3.212v-1.07a3.212,3.212,0,0,0-3.212-3.212H620.9a3.213,3.213,0,0,0-3.212,3.212v1.07h-18.2a7.5,7.5,0,0,0-7.493,7.494v9.635a5.359,5.359,0,0,0,5.352,5.352h1.071v4.282a2.142,2.142,0,0,0,2.141,2.142v5.352h-.91c-2.2-.121-5.131-.67-5.542-2.391a1.069,1.069,0,0,0-1.291-.791,1.07,1.07,0,0,0-.792,1.29,3.943,3.943,0,0,0,1.078,1.892h-2.178a4.282,4.282,0,0,0-4.282,4.282v8.565a4.282,4.282,0,0,0,4.282,4.282h53.527a6.43,6.43,0,0,0,6.423-6.423v-5.32a17.348,17.348,0,0,0-2.282-8.6,15.207,15.207,0,0,1-2-7.527v-3.179h1.07a3.212,3.212,0,0,0,3.212-3.211v-8.565A3.212,3.212,0,0,0,647.66-1201.557Zm-27.833-6.423a1.07,1.07,0,0,1,1.07-1.071H631.6a1.07,1.07,0,0,1,1.071,1.071v1.07H619.827Zm-25.693,18.2v-9.635a5.36,5.36,0,0,1,5.352-5.353h1.071v18.2h-3.212A3.212,3.212,0,0,1,594.134-1189.781Zm8.564,5.352v4.282h-2.141v-4.282Zm0,6.424a2.141,2.141,0,0,0,2.141-2.142v-4.282h4.282a2.14,2.14,0,0,0,2.141-2.141,7.5,7.5,0,0,1,7.494-7.493h1.071c4.437,0,6.423,3.763,6.423,7.493v12.847a1.07,1.07,0,0,1-1.071,1.07H602.7Zm10.705-16.57a9.7,9.7,0,0,0-2.141,1.963v-4.663a1.071,1.071,0,0,1,1.071-1.071,1.07,1.07,0,0,1,1.07,1.071Zm-24.622,34.769v-8.565a2.141,2.141,0,0,1,2.141-2.141h8.549c.408.022.785.031,1.109.031.517,0,.894-.019,1.07-.031h10.683v12.847H590.922A2.142,2.142,0,0,1,588.781-1159.806Zm57.95-14.988a15.205,15.205,0,0,1,2,7.527v5.32a4.282,4.282,0,0,1-4.282,4.282H614.474v-12.847h10.705a3.212,3.212,0,0,0,3.212-3.211v-12.847c0-5.674-3.522-9.635-8.564-9.635h-1.071a9.606,9.606,0,0,0-3.212.562v-1.632a3.211,3.211,0,0,0-3.211-3.212,3.212,3.212,0,0,0-3.212,3.212v9.635a1.059,1.059,0,0,0,.044.214c-.026.282-.044.566-.044.856H602.7v-18.2h2.141v10.706a1.071,1.071,0,0,0,1.071,1.07,1.07,1.07,0,0,0,1.07-1.07v-10.706h33.187a4.282,4.282,0,0,1,4.282,4.282v17.1A17.34,17.34,0,0,0,646.731-1174.794Zm2-14.987a1.07,1.07,0,0,1-1.071,1.07h-1.07v-10.7h1.07a1.07,1.07,0,0,1,1.071,1.07Z" fill="#0ac4bf"/><path d="M636.955-1183.358a6.423,6.423,0,0,0-5.934,3.965,6.424,6.424,0,0,0,1.392,7,6.424,6.424,0,0,0,7,1.392,6.423,6.423,0,0,0,3.965-5.934A6.429,6.429,0,0,0,636.955-1183.358Zm0,10.705a4.282,4.282,0,0,1-4.282-4.282,4.282,4.282,0,0,1,4.282-4.282,4.282,4.282,0,0,1,4.282,4.282A4.282,4.282,0,0,1,636.955-1172.653Z" fill="#0ac4bf"/><path d="M636.955-1188.711a5.353,5.353,0,0,0,5.353-5.352,5.353,5.353,0,0,0-5.353-5.353,5.353,5.353,0,0,0-5.353,5.353A5.36,5.36,0,0,0,636.955-1188.711Zm0-8.564a3.212,3.212,0,0,1,3.212,3.212,3.212,3.212,0,0,1-3.212,3.211,3.212,3.212,0,0,1-3.212-3.211A3.213,3.213,0,0,1,636.955-1197.275Z" fill="#0ac4bf"/><path d="M627.32-1202.628h-8.564a1.071,1.071,0,0,0-1.071,1.071,1.071,1.071,0,0,0,1.071,1.07h8.564a1.07,1.07,0,0,0,1.071-1.07A1.07,1.07,0,0,0,627.32-1202.628Z" fill="#0ac4bf"/><path d="M638.026-1176.935a1.071,1.071,0,0,1-1.071,1.071,1.071,1.071,0,0,1-1.07-1.071,1.07,1.07,0,0,1,1.07-1.07A1.07,1.07,0,0,1,638.026-1176.935Z" fill="#0ac4bf"/></g></g></svg>