<svg xmlns="http://www.w3.org/2000/svg" xmlns:xlink="http://www.w3.org/1999/xlink" width="295" height="319.112" viewBox="0 0 295 319.112"><defs><linearGradient id="a" x1="0.5" y1="0.985" x2="0.5" y2="0.136" gradientUnits="objectBoundingBox"><stop offset="0" stop-color="#ffb7a7"/><stop offset="1" stop-color="#ff9595"/></linearGradient><linearGradient id="b" x1="-11.669" y1="1.563" x2="-11.669" y2="0.306" xlink:href="#a"/><linearGradient id="c" x1="0.639" y1="0.385" x2="1.335" y2="-0.23" xlink:href="#a"/><linearGradient id="d" x1="0.72" y1="0.548" x2="-1.669" y2="0.206" xlink:href="#a"/></defs><g transform="translate(-1828.638 -1917.248)"><g transform="translate(2031.291 1917.248)"><rect width="6.613" height="100.086" transform="translate(42.867 164.46)" fill="#664e54"/><path d="M2164.981,2105.28c-3.307-13.889-14.5-31.856-13.322-37.147s8.583-21.109,9.023-29.488-.656-34.775-2.862-37.42-13.227-5.291-17.635-8.819-3.747-13.227-3.747-13.227h-27.01s.662,9.7-3.748,13.227-15.432,6.173-17.637,8.819-7.936,29.042-7.5,37.42,10.8,24.2,11.977,29.488-10.213,24.36-12.417,36.706-5.172,25.573-1.945,32.627c6.111,13.364,83.345,13.546,89.539,0C2170.927,2130.411,2167.886,2117.479,2164.981,2105.28Z" transform="translate(-2076.739 -1979.179)" fill="#ffeed7"/><path d="M2164.9,2096.333c-3.307-13.888-14.5-31.855-13.322-37.146s8.583-21.109,9.023-29.488c.015-.272.022-.572.024-.892-39.929,13.24-71.146,3.373-80.175.437,0,.157.008.312.017.456.442,8.379,10.8,24.2,11.977,29.488s-10.213,24.36-12.417,36.706c-.995,5.572-2.145,11.321-2.81,16.6,4.624-12.138,22.2-46.522,45.681-44.106,22.69,2.334,39.861,30.235,44.9,41.134C2167.01,2105.238,2165.945,2100.739,2164.9,2096.333Z" transform="translate(-2076.653 -1970.233)" fill="#f0ddc1"/><path d="M2132.606,1992.406c-4.409-3.528-3.747-13.227-3.747-13.227h-10.081a46.589,46.589,0,0,0,6.88,14.881c4.959,6.614,24.583,7.165,24.583,7.165C2148.038,1998.579,2137.014,1995.934,2132.606,1992.406Z" transform="translate(-2069.161 -1979.179)" fill="#f0ddc1"/></g><g transform="translate(1828.638 1993.288)"><g transform="translate(113.591)"><path d="M1956.963,2051.486c3.153,7.132-2.139,15.166-2.6,22.494-.221,3.5-.119,8.9,4.13,9.779.618.128,1.06-.738.449-1.067-11.008-5.925,4.91-23.227-1.268-31.623A.413.413,0,0,0,1956.963,2051.486Z" transform="translate(-1954.298 -2000.175)" fill="#664e54"/><path d="M1962.2,2008.779c4.475-5.333,8.49-9.568,15.986-10.043,7.308-.463,17.049,1.631,18.22,10.345.119.888,1.466.617,1.5-.2.33-7.584-8.831-11.688-15.223-11.743-8.739-.074-17.061,2.9-20.857,11.358C1961.726,2008.716,1962.009,2009,1962.2,2008.779Z" transform="translate(-1955.019 -1995.013)" fill="#664e54"/><path d="M1992.545,1995.374c3.346.677,5.906,4.2,6.712,7.385.768,3.036-1.49,4.408-2.258,7.036a.711.711,0,0,0,1.177.685,7.647,7.647,0,0,0,2.535-8.8c-1.276-3.3-4.239-7-8.086-6.9C1992.3,1994.8,1992.2,1995.3,1992.545,1995.374Z" transform="translate(-1957.951 -1994.788)" fill="#664e54"/><path d="M2027.245,2035.391c1.178,13.667,26.435,35.742,9.581,47.758a.754.754,0,0,0,.76,1.3c18.257-10.273-6.792-37.757-9.585-49.163C2027.9,2034.876,2027.207,2034.951,2027.245,2035.391Z" transform="translate(-1961.304 -1998.651)" fill="#664e54"/></g><path d="M1996.509,2004.58s-21.86-13.32-39.617,7.356c-15.159,17.653,1,35.593,3.093,43.066,2.568,9.15-9.356,16.286.285,30.837,5.187,7.83,10.228,17.219,39.229,16.272,21.311-.7,32.6-13.06,34.225-26.107,1.162-9.364-2.416-14.79-6.894-24-4.408-9.065-6.53-27-11.355-35.59C2011.017,2008.474,2001.534,2003.846,1996.509,2004.58Z" transform="translate(-1840.339 -1995.323)" fill="#664e54"/><path d="M1955.931,2094.832c-10.3,3.028-20.767,21.507-29.223,39.9s-13.823,34.243-3.212,38.961c14.871,6.614,29.331-25.864,34.176-36.766S1955.931,2094.832,1955.931,2094.832Z" transform="translate(-1837.183 -2004.396)" fill="#cc6191"/><path d="M1907.852,2139.206c-1.026-1.625-1.877-4.067-3.078-3.933-1.539.171-1.2,3.591-.428,4.788S1907.852,2139.206,1907.852,2139.206Z" transform="translate(-1835.846 -2008.28)" fill="#f29193"/><path d="M1925.155,2179c-17.472.468-32.093-19.656-33.726-27.822-1.931-9.652,8.419-13.847,16.482-8.53,5.738,3.784,17.666,12.013,22.675,15.779C1935.247,2161.93,1934.591,2178.743,1925.155,2179Z" transform="translate(-1834.646 -2008.765)" fill="#ff717a"/><path d="M1947.876,2156.315c-.883-2.928-4.655-14.894-6.992-13.725-2.659,1.33,1.331,27.4-12.767,26.6s-19.683-23.673-19.683-23.673l.282-2.339-.806-.534c-8.062-5.317-18.412-1.123-16.481,8.53,1.633,8.167,16.254,28.29,33.726,27.822a7.224,7.224,0,0,0,1.55-.207C1934.766,2177.406,1942.338,2166.517,1947.876,2156.315Z" transform="translate(-1834.646 -2008.765)" fill="#af3f77"/><path d="M1904.106,2149.408c-1.458,4.018-8.359,6.168-10.9,1.15-1.318-2.605-1.907-7.7.229-10.385s7.279-2.477,9.552-.978S1905.243,2146.277,1904.106,2149.408Z" transform="translate(-1834.726 -2008.552)" fill="#f29193"/><path d="M2015.488,2163.792c-1.107-14.426,16.178-57.824,6.936-65.861-5.224-4.542-10.455-6.233-17.115-8.668,0,0-25.841,1.683-33.791.351-3.9,1.257-8.254,2.933-12.991,4.684-5.671,13.394-11.824,32.361-11.1,39.5,1.108,10.913,8.424,20.25,8.138,29.383-.247,7.873-8.488,22.758-10.926,40.515,0,0,19.194,6.088,39.609,5.263,26.213-1.06,42.605-6.143,42.605-6.143C2025.941,2193.963,2016.458,2176.41,2015.488,2163.792Z" transform="translate(-1839.779 -2003.861)" fill="#cc6191"/><path d="M2006.78,2166.9c1.862,5.585,1.6,13.3,1.6,13.3l13.662-2a50.015,50.015,0,0,1-1.911-9.661c-.353-4.607,1.17-12.171,3.1-20.592-2.146-3.988-6.614-9.766-7.408-9.237s-2.925,6.117-8.777,10.639c-5.748,4.443-13.566,4.523-14.1,6.384S2004.917,2161.318,2006.78,2166.9Z" transform="translate(-1844.417 -2008.607)" fill="#af3f77"/><g transform="translate(0 173.408)"><path d="M1844.313,2190.205c-2.551,1.6-5.648,12.363-9.074,27.313-3.454,15.076-7.693,31.235-6.344,34.1s27.714,4.468,60.566,4.148,107.789,1.143,131.81.185,93.917-1.276,97.764-4.782-2.913-24.246-5.812-34.9c-2.882-10.594-7.5-28.217-10.16-29.139s-35.973-.307-54.849-.307-89.814,2.153-120.051,2.46S1849.216,2187.128,1844.313,2190.205Z" transform="translate(-1828.638 -2186.62)" fill="#b7a391"/><g transform="translate(1.206 13.202)"><path d="M1900.509,2248.726q3.912.032,8.325.029c23.564,0,57.175-.6,89.794-1.19,24.812-.448,48.25-.866,65.66-1,15.857-.113,36.1-.4,55.3-.705-.087-.483-.182-.973-.282-1.472-19.12.309-39.242.59-55.024.706-17.421.122-40.862.541-65.678.988-36.681.664-74.621,1.306-98.08,1.169-20.444-.166-46.047-1.089-68.636-1.9l-1.617-.059c-.1.5-.2.985-.3,1.462l1.86.068C1854.434,2247.644,1880.047,2248.567,1900.509,2248.726Z" transform="translate(-1829.972 -2205.371)" fill="#a38c7b"/><path d="M1969.294,2225.551c32.676.3,63.542.57,79.761.079,15.2-.455,41.251-.758,66.122-.949q-.214-.751-.419-1.472c-24.759.191-50.624.493-65.747.949-16.191.477-47.042.216-79.707-.087-28.434-.252-57.832-.513-76.356-.216-16.436.258-38.254.516-57.955.729q-.172.74-.346,1.478c19.8-.214,41.785-.476,58.323-.736C1911.473,2225.047,1940.867,2225.306,1969.294,2225.551Z" transform="translate(-1830.421 -2203.337)" fill="#a38c7b"/><path d="M1865.734,2205.648c35.815-.3,144.736-1.9,180.089-2.46,16.332-.256,41.077-.405,64.275-.492-.147-.495-.295-.986-.443-1.471-23.076.088-47.621.237-63.854.491-35.353.549-144.27,2.15-180.081,2.46-10.136.085-18.387.072-25.745.016-.135.479-.272.972-.409,1.473,3.712.029,7.642.048,11.929.048C1855.834,2205.713,1860.539,2205.7,1865.734,2205.648Z" transform="translate(-1830.894 -2201.225)" fill="#a38c7b"/><g transform="translate(8.538 5.646)"><path d="M2050.895,2232.6a.68.68,0,0,1-.051-1.359c8.029-.617,16.181-.617,24.064-.617a.681.681,0,0,1,0,1.362c-7.857,0-15.984,0-23.963.611C2050.929,2232.6,2050.91,2232.6,2050.895,2232.6Z" transform="translate(-1859.663 -2209.695)" fill="#a38c7b"/><path d="M2041.677,2240.13c-2.882,0-5.455-.114-7.874-.345a.686.686,0,0,1-.611-.744.709.709,0,0,1,.744-.611c2.372.228,4.9.339,7.741.339,3.454,0,6.975-.165,10.378-.323,3.419-.158,6.955-.326,10.441-.326a.681.681,0,0,1,0,1.361c-3.454,0-6.975.165-10.378.323C2048.7,2239.962,2045.163,2240.13,2041.677,2240.13Z" transform="translate(-1858.028 -2210.415)" fill="#a38c7b"/><path d="M1953.142,2256.56c-2.589,0-4.929-.038-7.158-.118a.679.679,0,0,1,.022-1.358.066.066,0,0,1,.023,0c2.213.076,4.54.111,7.113.111,5.373,0,10.821-.171,16.087-.339s10.711-.342,16.083-.342c5.518,0,10.4.187,14.933.569a.681.681,0,0,1,.621.735.718.718,0,0,1-.734.62c-4.493-.38-9.341-.563-14.82-.563-5.351,0-10.783.171-16.039.339C1964,2256.385,1958.538,2256.56,1953.142,2256.56Z" transform="translate(-1849.589 -2211.99)" fill="#a38c7b"/><path d="M2056.684,2209.139a.681.681,0,0,1-.007-1.361c.317,0,32.056-.307,66.191-.307a.681.681,0,1,1,0,1.362c-34.129,0-65.862.3-66.178.306Z" transform="translate(-1860.219 -2207.471)" fill="#a38c7b"/><path d="M1861.339,2231.957c-3.549,0-7.136-.079-10.606-.155s-7.07-.155-10.635-.155a.681.681,0,0,1,0-1.362c3.582,0,7.184.079,10.667.158,3.46.076,7.038.152,10.574.152a.681.681,0,0,1,0,1.362Z" transform="translate(-1839.417 -2209.662)" fill="#a38c7b"/></g></g></g><path d="M2004.293,2188.89c.419,1.346-.222,18.042-.293,23.726-.108,8.855-2.839,3.5-4.771,8.02-1.842,4.31-1.147,10.317-2.119,13.643-.654,3.566-2.322,9.081-5.867,10.918-4.738,1.83-11.717.281-16.166,0-5.277-.334-9.658.516-19.127,1s-14.948-2.507-14.948-2.507a24.549,24.549,0,0,0,5.356-10.85c.616-6.465,1.672-9.895,2.932-12.207,2.457-4.511,4.588-1.407,4.871-6.182.267-4.513.029-22.773,1.965-25.205s31.875-2.017,36.391-1.862C1997.4,2187.554,2003.839,2187.431,2004.293,2188.89Z" transform="translate(-1839.43 -2013.274)" fill="#a38c7b"/><g transform="translate(92.316 99.4)"><path d="M1948.112,2110.248c1.143.075,1.579.723,2.5,2.9.678,1.612,1.526,3.624,3.591,4.43,3.906,1.5,7.027-.391,9.533-1.912,1.921-1.164,3.575-2.187,5.444-1.945,2.179.274,2.96,1.4,4.044,2.942,1.168,1.671,2.768,3.965,6.375,4.156h.253c2.211,0,4.156-1.464,6.035-2.885,1.7-1.28,3.445-2.6,5.125-2.7,1.459-.134,2.406.706,3.911,2.136,1.995,1.895,5,4.787,10.436,2.178a10.489,10.489,0,0,0,4.438-4.613c1.118-1.862,1.784-2.86,3.558-3.2,1.264-.15,2.76.839,4.326,1.978,1.945,1.4,4.147,3,6.79,2.56s3.75-3.093,4.833-5.66c.3-.72.659-1.56,1.043-2.289-.936-1.29-1.865-2.487-2.778-3.576a19.84,19.84,0,0,0-2.188,4.211,11.986,11.986,0,0,1-1.6,3.109c-.96.274-2.277-.848-3.608-1.8-2.027-1.463-4.538-3.342-7.618-2.7-3.732.715-5.216,3.192-6.413,5.187a6.637,6.637,0,0,1-2.614,2.959c-2.785,1.322-3.744.407-5.673-1.422-1.65-1.562-3.624-3.458-7.11-3.308-2.955.183-5.329,1.979-7.423,3.566-1.288.965-2.888,2.037-3.5,2.021-1.467-.075-2.012-.773-3.11-2.336-1.242-1.787-2.95-4.222-7.007-4.73-3.329-.44-5.915,1.147-8.183,2.535-2.44,1.472-3.915,2.294-5.777,1.571-.387-.149-.864-1.28-1.209-2.111-.877-2.086-2.2-5.228-6.142-5.486a8.687,8.687,0,0,0-2.857.267c-1.563,2.034-3.106,4.283-4.626,6.695l.732.352C1942.106,2112.393,1945.593,2110.34,1948.112,2110.248Z" transform="translate(-1931.736 -2104.749)" fill="#af3f77"/><path d="M1938.331,2140.925c1.766.324,3.4-.864,5.082-2.16,1.172-.9,2.76-2.02,3.724-2.078,1.143.075,1.579.723,2.5,2.9.678,1.613,1.526,3.625,3.591,4.43,3.914,1.513,7.032-.381,9.533-1.911,1.921-1.172,3.575-2.17,5.444-1.945,2.179.274,2.96,1.4,4.044,2.942,1.168,1.67,2.768,3.965,6.375,4.156h.253c2.211,0,4.156-1.463,6.035-2.884,1.7-1.28,3.445-2.6,5.125-2.7,1.459-.116,2.406.707,3.911,2.136,1.995,1.9,5,4.788,10.436,2.178a10.485,10.485,0,0,0,4.438-4.614c1.118-1.862,1.784-2.859,3.558-3.2,1.264-.166,2.76.84,4.326,1.979,1.945,1.4,4.147,2.992,6.79,2.56,2.872-.474,4.111-3.109,5.1-5.228,1.018-2.161,1.733-3.5,3.083-3.865,1.463-.333,4.048,1.313,6.13,2.7s4.206,2.768,6.239,2.885c-.609-1.754-1.268-3.5-1.969-5.237-.681-.4-1.382-.841-1.922-1.2-2.938-1.945-6.267-4.165-9.584-3.259-3.354.9-4.726,3.815-5.831,6.159-.627,1.347-1.28,2.726-1.941,2.835-.96.266-2.277-.84-3.608-1.8-2.027-1.464-4.538-3.318-7.618-2.7-3.732.715-5.216,3.192-6.413,5.187a6.633,6.633,0,0,1-2.614,2.958c-2.785,1.322-3.744.408-5.673-1.421-1.65-1.563-3.624-3.483-7.11-3.308-2.955.183-5.329,1.979-7.423,3.566-1.288.964-2.888,2.045-3.5,2.019-1.467-.074-2.012-.773-3.11-2.335-1.242-1.787-2.95-4.223-7.007-4.73-3.329-.466-5.915,1.148-8.183,2.535-2.44,1.471-3.915,2.286-5.777,1.571-.387-.149-.864-1.28-1.209-2.111-.877-2.086-2.2-5.229-6.142-5.487-2.51-.166-4.8,1.563-6.6,2.952a15.928,15.928,0,0,0-1.645,1.354c-1.255-.249-2-1.637-3.076-3.881a12.941,12.941,0,0,0-3.336-4.868q-1.01,1.985-1.992,4.006a16.616,16.616,0,0,1,1.488,2.7C1933.43,2137.176,1934.9,2140.235,1938.331,2140.925Z" transform="translate(-1930.762 -2106.982)" fill="#af3f77"/></g><g transform="translate(67.091 121.47)"><rect width="2.725" height="13.173" transform="translate(88.51 38.617)" fill="#664e54"/><path d="M1910.652,2138.551s-5.246.57-6.6,1.359-1.542,10.376-.626,12.552,5.914,2.352,5.914,2.352Z" transform="translate(-1902.857 -2130.065)" fill="#664e54"/><path d="M1984.554,2167.477c3.348,2.093,13.022,1.817,15.444.3s6.057-4.24,6.057-16.958-1.211-17.565-4.846-19.684-81.157-3.332-87.214.6-5.754,27.558-6.057,37.854-1.211,27.86,2.121,30.888,25.134,3.634,42.4,3.331,47.544-.3,50.269-2.12.908-19.381-1.211-20.592-19.078-.908-30.585-.3-25.437,1.514-27.557-.3-1.514-22.106.606-23.62,31.8-1.817,34.522-.605S1982.131,2165.963,1984.554,2167.477Z" transform="translate(-1903.312 -2129.163)" fill="#ffeed7"/><path d="M2005.518,2207.81c.189-7.225.52-17.857.188-18.92-.455-1.459-6.9-1.337-11.776-1.5-4.514-.155-34.454-.569-36.391,1.862-1.484,1.864-1.69,13.024-1.826,20.168.457-.007.911-.013,1.362-.021C1972.453,2209.127,1998.161,2209.1,2005.518,2207.81Z" transform="translate(-1907.934 -2134.743)" fill="#dbc3ab"/><path d="M2005.767,2130.739c3.634,2.12,4.844,7.489,4.844,20.208s-3.634,15.444-6.056,16.958a13.155,13.155,0,0,1-5.2,1.129c3.8.257,7.979-.2,9.458-1.129,2.423-1.514,6.057-4.239,6.057-16.958s-1.211-17.565-4.845-19.684a20.372,20.372,0,0,0-5.179-.8A3.428,3.428,0,0,1,2005.767,2130.739Z" transform="translate(-1912.125 -2129.288)" fill="#dbc3ab"/><path d="M1953.528,2184.35c-3.309-.078-5.722-.377-6.509-1.051-2.12-1.817-1.514-22.106.606-23.62,1.14-.814,10.245-1.277,18.843-1.344-9.567-.079-21.767.393-23.1,1.344-2.12,1.514-2.725,21.8-.6,23.62C1943.858,2184.237,1948.1,2184.449,1953.528,2184.35Z" transform="translate(-1906.563 -2131.964)" fill="#dbc3ab"/></g><g transform="translate(100.776 171.326)"><path d="M2001.819,2185.948c.409,1.345-.217,18.042-.286,23.726-.106,8.855-2.768,3.5-4.651,8.02-1.8,4.31-1.118,10.317-2.067,13.644-.637,3.566-2.263,9.079-5.718,10.918-4.618,1.83-11.422.281-15.76,0-5.145-.334-9.415.515-18.646,1s-14.571-2.507-14.571-2.507a24.758,24.758,0,0,0,5.22-10.85c.6-6.466,1.631-9.9,2.858-12.207,2.395-4.511,4.472-1.408,4.749-6.182.261-4.514.028-22.773,1.915-25.206s31.073-2.017,35.475-1.862C1995.1,2184.611,2001.375,2184.489,2001.819,2185.948Z" transform="translate(-1940.121 -2184.317)" fill="#9fd1c4"/><path d="M2005.6,2200.931c.062-2.452.124-4.97.16-7.189l-16.972.262-8.644,4.655c-.532,1.6,1.33,1.995,5.585-.8,0,0-3.458,3.059-3.723,4.921s2.926,1.861,8.512-2.66c0,0-4.013,3.508-3.325,4.655,1.2,1.994,5.851-1.729,7.315-2.261S2001.392,2201.982,2005.6,2200.931Z" transform="translate(-1943.956 -2185.222)" fill="#87baaf"/><path d="M1954.529,2211.816l-.281.333c-.019.748-.042,1.378-.069,1.855-.12,2.06-.574,2.652-1.245,3.024,4.17.232,12.533.64,19.948.64,9.2,0,19.018-.208,27.616.3,1.2-.289,2.2-.438,2.266-5.8.007-.541.019-1.183.033-1.9C1991.642,2211.59,1965.171,2212.042,1954.529,2211.816Z" transform="translate(-1941.352 -2186.809)" fill="#87baaf"/><path d="M1995.264,2233.21c-5.4.573-15.658,2.35-25.741,1.707-9.858-.629-20.045-2.25-23.913-2.908-.1.772-.187,1.593-.268,2.472a24.758,24.758,0,0,1-5.22,10.85s5.34,2.992,14.571,2.506,13.5-1.337,18.646-1c4.337.282,11.14,1.831,15.76,0,3.455-1.838,5.081-7.351,5.719-10.917A15.63,15.63,0,0,0,1995.264,2233.21Z" transform="translate(-1940.121 -2188.897)" fill="#87baaf"/></g><path d="M2001.056,2061.6s-18.1,6.222-21.6,12.722c4.47,5.422,1.3,10.811-5.086,12.638,0,0,2.453,9.983,15.854,9.756,15.4-.26,17.937-10.106,17.937-10.106s-7.9-3.1-9.348-9.583C1997.258,2070.042,1998.448,2066.393,2001.056,2061.6Z" transform="translate(-1842.635 -2001.204)" fill="url(#a)"/><path d="M1999.446,2077.023c-1.56-6.981-.37-10.63,2.238-15.427,0,0-.694.24-1.833.67l-18.934,13.2a6.606,6.606,0,0,1,.591,6.744c1.109,2.188,3.949,6.033,10.711,7.919,7.379,2.06,16.574-3.52,16.574-3.52S2000.894,2083.505,1999.446,2077.023Z" transform="translate(-1843.263 -2001.204)" fill="#d37a85"/><path d="M2005.819,2045.8c-2.65-.243-4.263,3.26-4.263,3.26-3.984-3.334-1.886-8.607-1.886-8.607s-18.415-5.73-25.5-22.153c-9.625,1.222-12.118,15.016-12.118,15.016-4.611,29.653,10,42.246,15.026,42.91,3.333.566,16.645-3.737,23.136-16.624a8.489,8.489,0,0,0,9.618-5.367C2011.3,2050.633,2010.446,2046.029,2005.819,2045.8Z" transform="translate(-1841.367 -1997.046)" fill="url(#b)"/><path d="M1982.265,2037.033c-.235,1.783,2.852-.782,8.027.849,3.125.984,5.344,4.262,5.835,3.858s-.621-3.526-5.167-5.565C1987.29,2034.53,1982.436,2035.725,1982.265,2037.033Z" transform="translate(-1843.392 -1998.686)" fill="#664e54"/><path d="M1970.208,2037.481c.356,1.62-3.157.759-6.254,2.186-2.22,1.022-2.739,2.833-3.245,2.607s-.8-2.474,2.266-4.4C1965.5,2036.291,1969.985,2036.472,1970.208,2037.481Z" transform="translate(-1841.292 -1998.813)" fill="#664e54"/><path d="M1975.354,2048.162c.925-2.945.027-5.437-2.448-7.823,3.05,1.844,4.833,5.234,4.04,8.171-.8,3.2-3.38,8-3.426,8.913-.061,1.2,1.235,3.207,3.258,3.938-3.6-.364-5.433-2.674-5.225-4.4C1971.688,2055.839,1974.353,2051.6,1975.354,2048.162Z" transform="translate(-1842.363 -1999.163)" fill="#d37a85"/><path d="M2011.89,2057c-.838,1.843-2.48,2.9-3.67,2.36s-1.473-2.472-.635-4.316,2.48-2.9,3.668-2.36S2012.727,2055.152,2011.89,2057Z" transform="translate(-1845.779 -2000.334)" fill="#d37a85"/><path d="M2011.75,2183.956a54.916,54.916,0,0,1-8.648,3.769c-4.437,1.18-11.027,2.293-14.148,3.23-3.9,1.169-9.3,4.887-8.816,6.227.692,1.9,5.071-2.326,9.435-2.833-3.271,1.755-8.146,5.395-7.535,6.985.857,2.234,7.541-4.137,10.772-4.279-1.828.922-6.559,5.294-5.913,6.256.986,1.468,5.8-3.2,7.05-3.617s9.52-2.052,12.608-3.695a87.793,87.793,0,0,0,11.874-2.97Z" transform="translate(-1843.186 -2012.956)" fill="url(#c)"/><path d="M1994.673,2199.692c1.25-.413,9.52-2.052,12.608-3.695a87.793,87.793,0,0,0,11.874-2.97l-6.679-9.071a58.38,58.38,0,0,1-8.17,3.627,4.5,4.5,0,0,1,1.436,2.555c.93,4.655-10.374,8.379-12.1,8.91-1.674.515-5.343,4.772-5.965,4.321C1988.761,2204.629,1993.443,2200.1,1994.673,2199.692Z" transform="translate(-1843.912 -2012.956)" fill="#f29193"/><path d="M2007.816,2177.313l6.814,12.037s39.754-4.8,41.117-28.72c1.214-21.316-16.58-54.282-27.255-61.777l-9.388,36.643s11.734,16.58,11.507,21.8S2007.816,2177.313,2007.816,2177.313Z" transform="translate(-1845.847 -2004.782)" fill="#cc6191"/><g transform="translate(129.556 63.946)"><path d="M1986.189,2065.528a47.253,47.253,0,0,1-7.268,2.154,27.55,27.55,0,0,1-6.962.45s3.318,5.1,8.224,4.133C1984.943,2071.324,1986.189,2065.528,1986.189,2065.528Z" transform="translate(-1971.959 -2065.528)" fill="#b25b6c"/><path d="M1979.248,2069.526a11.051,11.051,0,0,1-7.263-1.363l-.026-.031a25.313,25.313,0,0,0,6.962-.45,52.705,52.705,0,0,0,7.269-2.154A11.333,11.333,0,0,1,1979.248,2069.526Z" transform="translate(-1971.959 -2065.528)" fill="#944756"/></g><g transform="translate(120.454 45.785)"><path d="M1983.762,2048.252s2.92,3.01,6.409,1.6c3.332-1.344,3.7-3.64,5.373-4.005,0,0-.786-1.3-4.351.721C1986.928,2049,1983.762,2048.252,1983.762,2048.252Z" transform="translate(-1963.991 -2045.437)" fill="#664e54"/><path d="M1971.1,2050.438a6.71,6.71,0,0,1-5.352,1.9c-2.9-.389-2.921-3.062-3.861-2.629,0,0,.4-.931,1.634-.45a12.808,12.808,0,0,0,2.55.813A29.812,29.812,0,0,0,1971.1,2050.438Z" transform="translate(-1961.89 -2045.79)" fill="#664e54"/></g><path d="M1897.793,2136.975a9.621,9.621,0,0,1,3.975.941c1.689.733,6.406,3.139,5.643,4.447-.626,1.074-3.166.016-6.071-.855-1.71-.513-5.13-.941-5.387-.171-.191.571,2.784.292,5.473,1.111,2.907.887,6.009,2.316,5.643,3.25-.77,1.966-3.8.556-6.755.085-2.687-.429-5.106-.429-5.216.172-.079.433,2.155.363,4.276.769,2.479.476,4.9,1.464,4.728,2.576-.165,1.072-2.585.4-5.155.331-1.952-.052-3.835.441-5.186-.613C1890.206,2146.242,1892.192,2137.146,1897.793,2136.975Z" transform="translate(-1834.721 -2008.444)" fill="url(#d)"/><path d="M2028.929,2098.852c11.239,10.781,26.655,51.37,23.339,62.365-5.054,16.758-33.849,21.506-39.9,23.357l2.7,4.776s39.754-4.8,41.117-28.72C2057.4,2139.313,2039.6,2106.348,2028.929,2098.852Z" transform="translate(-1846.284 -2004.782)" fill="#af3f77"/><g transform="translate(173.001 99.4)"><path d="M2032.661,2116.274c2.631-.432,3.75-3.093,4.833-5.66.3-.72.659-1.56,1.043-2.289-2.371-3.27-1.473-1.836-2.778-3.576a19.84,19.84,0,0,0-2.188,4.211,11.986,11.986,0,0,1-1.6,3.109c-1.092.313-3.393-1.659-4.356-2.341a3.657,3.657,0,0,0-1.134,4.425C2028.275,2115.426,2030.291,2116.669,2032.661,2116.274Z" transform="translate(-2020.613 -2104.749)" fill="#af3f77"/><path d="M2025.278,2140.291c1.945,1.4,4.147,2.992,6.79,2.56,2.872-.474,4.111-3.109,5.1-5.228,1.018-2.161,1.733-3.5,3.083-3.865,1.463-.333,4.048,1.313,6.13,2.7s4.206,2.768,6.239,2.885c-.609-1.754-1.268-3.5-1.969-5.236-.681-.4-1.382-.842-1.922-1.2-2.938-1.945-6.267-4.165-9.583-3.259-3.354.9-4.726,3.815-5.831,6.159-.627,1.347-1.28,2.726-1.941,2.835-.96.266-2.277-.84-3.608-1.8-1.746-1.26-3.849-2.8-6.366-2.819a3.766,3.766,0,0,0-1.129,4.409l.034.049a4.965,4.965,0,0,1,.641-.168C2022.216,2138.146,2023.712,2139.152,2025.278,2140.291Z" transform="translate(-2020.02 -2107.121)" fill="#af3f77"/></g><g transform="translate(143.705 13.914)"><path d="M2018.736,2036.8c-10.9-.307-19.172-3.516-27.025-11.061a.52.52,0,0,0-.813.626c5.036,8.645,18.5,12.932,27.94,11.2C2019.286,2037.482,2019.161,2036.808,2018.736,2036.8Z" transform="translate(-1987.92 -2011.66)" fill="#59444a"/><path d="M1987.618,2010.711c1.033,6.231,9.271,14.153,15.81,13.8a.464.464,0,0,0,.123-.908c-7.107-1.991-11.59-7.026-15.169-13.216C1988.131,2009.954,1987.543,2010.264,1987.618,2010.711Z" transform="translate(-1987.612 -2010.179)" fill="#59444a"/><path d="M2035.47,2078.162c.683,4.329-.4,9.672-4.211,12.176-.758.5-.3,1.9.653,1.549,4.956-1.83,5.479-9.655,4.248-13.915A.358.358,0,0,0,2035.47,2078.162Z" transform="translate(-1991.767 -2016.666)" fill="#59444a"/><path d="M2020.341,2050.562c-.3,11.243,13.055,17.044,9.444,28.863a.58.58,0,0,0,1.056.445c5.244-10.173-8.587-19.9-9.959-29.38C2020.837,2050.174,2020.349,2050.265,2020.341,2050.562Z" transform="translate(-1990.755 -2014.032)" fill="#59444a"/></g></g><g transform="translate(1859.909 2202.867)"><path d="M1864.749,2234.222c.371-4.207,9.393-5.588,17.546-5.413s14.532,2.445,14.532,6.112-9.039,6.285-17.013,6.112S1864.394,2238.239,1864.749,2234.222Z" transform="translate(-1863.377 -2226.842)" fill="#a38c7b"/><path d="M1882.449,2228.157a1.575,1.575,0,1,1-1.575-1.523A1.549,1.549,0,0,1,1882.449,2228.157Z" transform="translate(-1864.775 -2226.634)" fill="#f4be67"/><path d="M1892,2229.394a1.576,1.576,0,1,1-1.575-1.524A1.549,1.549,0,0,1,1892,2229.394Z" transform="translate(-1865.693 -2226.753)" fill="#9fd1c4"/><path d="M1873.74,2229.506a1.575,1.575,0,1,1-1.574-1.523A1.549,1.549,0,0,1,1873.74,2229.506Z" transform="translate(-1863.939 -2226.764)" fill="#ff717a"/><path d="M1893.578,2233.125c0-3.172-10.618-4.861-17.785-3.949s-9.489,3.2-9.291,5.164c.259,2.583,9.025,4.861,14.865,4.558S1893.578,2236.163,1893.578,2233.125Z" transform="translate(-1863.545 -2226.854)" fill="#fff7ee"/><path d="M1889.7,2233.636c0-1.955-7.22-3-12.094-2.435s-6.452,1.97-6.317,3.185c.176,1.592,6.137,3,10.108,2.809S1889.7,2235.509,1889.7,2233.636Z" transform="translate(-1864.005 -2227.058)" fill="#f0ddc1"/><path d="M1874.859,2234c0-1.093,4.687-1.675,7.851-1.361s4.189,1.1,4.1,1.78c-.115.89-3.985,1.675-6.563,1.57S1874.859,2235.045,1874.859,2234Z" transform="translate(-1864.349 -2227.203)" fill="#fff7ee"/><path d="M1866.38,2234.217a1.575,1.575,0,1,1-1.574-1.524A1.549,1.549,0,0,1,1866.38,2234.217Z" transform="translate(-1863.232 -2227.216)" fill="#f4be67"/><path d="M1882.562,2240.734a1.576,1.576,0,1,1-1.575-1.523A1.55,1.55,0,0,1,1882.562,2240.734Z" transform="translate(-1864.786 -2227.842)" fill="#f4be67"/><path d="M1892.675,2238.824a1.575,1.575,0,1,1-1.575-1.524A1.549,1.549,0,0,1,1892.675,2238.824Z" transform="translate(-1865.757 -2227.658)" fill="#ff717a"/><path d="M1872.392,2238.824a1.576,1.576,0,1,1-1.575-1.524A1.549,1.549,0,0,1,1872.392,2238.824Z" transform="translate(-1863.809 -2227.658)" fill="#9fd1c4"/><path d="M1898.855,2234.217a1.575,1.575,0,1,1-1.574-1.524A1.549,1.549,0,0,1,1898.855,2234.217Z" transform="translate(-1866.351 -2227.216)" fill="#f4be67"/></g><g transform="translate(2058.833 2207.646)"><path d="M2083.578,2251.512c.261-2.419,6.616-3.213,12.358-3.113s10.236,1.406,10.236,3.514-6.367,3.614-11.983,3.514S2083.329,2253.821,2083.578,2251.512Z" transform="translate(-2083.318 -2233.503)" fill="#a38c7b"/><path d="M2083.859,2248.153c.341-.588,16.6-.707,16.6-.707.372.615.556,3.057-.117,3.781-1.023,1.383-4.69,1.567-8.332,1.715-3.731.153-6.8-.528-7.778-1.444C2083.718,2251.242,2083.285,2249.142,2083.859,2248.153Z" transform="translate(-2083.32 -2233.412)" fill="#f0ddc1"/><path d="M2100.478,2247.288c.68,2.632-3.957,2.873-8.548,3.061s-8.183-.886-8.1-2.11,3.465-2.039,7.656-2.346S2100.166,2246.082,2100.478,2247.288Z" transform="translate(-2083.343 -2233.254)" fill="#ffeed7"/><path d="M2096.386,2238.347h-7.821a30,30,0,0,0,.09,8.668c.228,1.031,2.19,1.147,4.122,1.147,2.051,0,3.656-.692,3.783-1.325A34.258,34.258,0,0,0,2096.386,2238.347Z" transform="translate(-2083.772 -2232.538)" fill="#ff717a"/><path d="M2096.868,2238.346h-2.924a44.581,44.581,0,0,1,.095,9,1.388,1.388,0,0,1-.753.819c2.038-.006,3.627-.694,3.754-1.324A34.312,34.312,0,0,0,2096.868,2238.346Z" transform="translate(-2084.252 -2232.538)" fill="#d15c6c"/><path d="M2100.7,2233.891c-.376-.573-17.135-.029-17.135-.029-.359.63-.445,3.077.279,3.774,1.113,1.34,4.9,1.373,8.66,1.373,3.852,0,6.989-.806,7.956-1.761C2100.972,2236.971,2101.33,2234.856,2100.7,2233.891Z" transform="translate(-2083.292 -2232.085)" fill="#f0ddc1"/><path d="M2083.585,2233.7c-.591,2.657,4.2,2.709,8.939,2.709s8.4-1.22,8.261-2.438-3.656-1.9-7.991-2.031S2083.856,2232.48,2083.585,2233.7Z" transform="translate(-2083.315 -2231.921)" fill="#ffeed7"/><path d="M2089.939,2234.03c-.2.926,1.388.944,2.956.944s2.776-.425,2.732-.85-1.208-.66-2.642-.708S2090.03,2233.605,2089.939,2234.03Z" transform="translate(-2083.929 -2232.064)" fill="#b7a391"/></g><g transform="translate(2068.932 2175.82)"><path d="M2094.473,2222.3c.3-2.736,7.484-3.634,13.979-3.52s11.579,1.59,11.579,3.974-7.2,4.089-13.556,3.975S2094.19,2224.907,2094.473,2222.3Z" transform="translate(-2094.463 -2198.831)" fill="#a38c7b"/><path d="M2112.567,2198.828l-16.432.162c-.5.652-.819,7.592-.774,12.131a43.506,43.506,0,0,0,.623,8.223c.269,2.209,4.458,2.733,8.663,2.864,4.36.136,7.7-1.122,8.076-2.506a.159.159,0,0,0,.021-.025c.456-.857.729-4.143.775-8.68S2113.068,2199.5,2112.567,2198.828Z" transform="translate(-2094.549 -2196.916)" fill="#a0b95a"/><path d="M2113.68,2198.828l-5.5.054a108.908,108.908,0,0,1,.607,12.177c-.046,5.134-.318,8.853-.774,9.823,0,.01-.016.019-.021.029a2.388,2.388,0,0,1-1.042,1.3c3.768-.1,6.55-1.252,6.889-2.508a.2.2,0,0,0,.021-.025c.456-.857.729-4.143.775-8.68S2114.181,2199.5,2113.68,2198.828Z" transform="translate(-2095.662 -2196.916)" fill="#89a34e"/><path d="M2112.783,2199.749c.548-2.893-4.114-2.992-8.728-3.035s-8.16,1.254-8.016,2.584,3.579,2.1,7.8,2.288S2112.532,2201.075,2112.783,2199.749Z" transform="translate(-2094.614 -2196.713)" fill="#b7cc78"/><path d="M2101.179,2198.947c-.245,1.159,1.84,1.159,3.9,1.137s3.649-.57,3.585-1.1-1.6-.809-3.488-.848S2101.291,2198.414,2101.179,2198.947Z" transform="translate(-2095.106 -2196.849)" fill="#664e54"/></g><g transform="translate(2083.016 2192.096)"><path d="M2110.053,2243.75c.3-2.735,7.484-3.633,13.979-3.52s11.579,1.59,11.579,3.975-7.2,4.088-13.556,3.975S2109.77,2246.361,2110.053,2243.75Z" transform="translate(-2110.043 -2217.168)" fill="#a38c7b"/><path d="M2127.962,2216.834l-16.432.161c-.5.653-.819,8.242-.774,12.782a79.374,79.374,0,0,0,.623,10.591c.268,2.209,4.458,2.733,8.663,2.863,4.36.136,7.7-1.121,8.076-2.5a.2.2,0,0,0,.023-.025c.455-.857.728-6.51.774-11.048S2128.463,2217.508,2127.962,2216.834Z" transform="translate(-2110.111 -2214.922)" fill="#f4be67"/><path d="M2129.148,2216.834l-5.176.051c.349,2.995.62,8.839.587,12.715-.046,5.16-.319,11.589-.774,12.564,0,.01-.016.019-.021.029a2.053,2.053,0,0,1-.667,1.01c3.419-.213,5.889-1.3,6.207-2.478.007-.009.017-.016.022-.025.456-.857.729-6.511.775-11.048S2129.649,2217.508,2129.148,2216.834Z" transform="translate(-2111.297 -2214.922)" fill="#e8a94d"/><path d="M2128.178,2217.754c.548-2.893-4.114-2.991-8.728-3.035s-8.16,1.253-8.016,2.583,3.579,2.1,7.8,2.288S2127.928,2219.081,2128.178,2217.754Z" transform="translate(-2110.177 -2214.719)" fill="#ffdd7a"/><path d="M2116.574,2216.952c-.245,1.159,1.84,1.159,3.9,1.137s3.649-.57,3.585-1.1-1.6-.808-3.487-.847S2116.686,2216.42,2116.574,2216.952Z" transform="translate(-2110.668 -2214.855)" fill="#664e54"/></g></g></svg>