<svg xmlns="http://www.w3.org/2000/svg" xmlns:xlink="http://www.w3.org/1999/xlink" width="1030" height="1029.982" viewBox="0 0 1030 1029.982">
  <defs>
    <linearGradient id="linear-gradient" x1="0.098" y1="0.163" x2="0.911" y2="0.845" gradientUnits="objectBoundingBox">
      <stop offset="0" stop-color="#fff"/>
      <stop offset="0.368" stop-color="#fbfbfb"/>
      <stop offset="0.695" stop-color="#f0f0f0"/>
      <stop offset="1" stop-color="#dfdfdf"/>
    </linearGradient>
  </defs>
  <g id="Grupo_57173" data-name="Grupo 57173" transform="translate(-285 -887.863)">
    <g id="Grupo_53925" data-name="Grupo 53925" transform="translate(408.663 1010.903)">
      <g id="Grupo_53923" data-name="Grupo 53923" transform="translate(3.184 3.182)" opacity="0.3" style="mix-blend-mode: multiply;isolation: isolate">
        <path id="Trazado_100799" data-name="Trazado 100799" d="M4961.358,1847.072a51.849,51.849,0,1,1,16.108-2.585A51.637,51.637,0,0,1,4961.358,1847.072Z" transform="translate(-4909.599 -1743.541)"/>
      </g>
      <path id="Trazado_100800" data-name="Trazado 100800" d="M4960.845,1849.742a55.033,55.033,0,1,1,17.1-2.743A54.81,54.81,0,0,1,4960.845,1849.742Z" transform="translate(-4905.901 -1739.846)" fill="url(#linear-gradient)"/>
      <path id="Trazado_100801" data-name="Trazado 100801" d="M4961.358,1847.072a51.849,51.849,0,1,1,16.108-2.585A51.637,51.637,0,0,1,4961.358,1847.072Z" transform="translate(-4906.415 -1740.359)" fill="#bf3976"/>
      <g id="Grupo_53924" data-name="Grupo 53924" transform="translate(33.71 35.742)">
        <path id="Trazado_100802" data-name="Trazado 100802" d="M4947.658,1815.425q-2.61-2.695-2.609-7.517v-16.343q0-4.846,2.621-7.53t7.641-2.682q5.043,0,7.652,2.67t2.609,7.542v16.343q0,4.846-2.621,7.53t-7.64,2.682Q4950.265,1818.12,4947.658,1815.425Zm11.6-3.5a5.76,5.76,0,0,0,1.273-4.018v-16.343a5.8,5.8,0,0,0-1.261-4.018,6.3,6.3,0,0,0-7.912,0,5.792,5.792,0,0,0-1.261,4.018v16.343a5.756,5.756,0,0,0,1.273,4.018,6.265,6.265,0,0,0,7.887,0Z" transform="translate(-4945.049 -1781.353)" fill="#fcfcfc"/>
        <path id="Trazado_100803" data-name="Trazado 100803" d="M4985.935,1817.821h-5.044v-30.462l-5.119,3.14v-5.217l5.119-3.412h5.044Z" transform="translate(-4949.316 -1781.425)" fill="#fcfcfc"/>
      </g>
    </g>
    <g id="Grupo_53927" data-name="Grupo 53927" transform="translate(1082.046 1011.526)">
      <path id="Trazado_100804" data-name="Trazado 100804" d="M5742.833,1850.465a55.033,55.033,0,1,1,17.1-2.743A54.81,54.81,0,0,1,5742.833,1850.465Z" transform="translate(-5687.89 -1740.57)" fill="url(#linear-gradient)"/>
      <path id="Trazado_100805" data-name="Trazado 100805" d="M5743.347,1847.8a51.854,51.854,0,1,1,16.109-2.586A51.635,51.635,0,0,1,5743.347,1847.8Z" transform="translate(-5688.403 -1741.083)" fill="#bf3976"/>
      <g id="Grupo_53926" data-name="Grupo 53926" transform="translate(30.388 35.119)">
        <path id="Trazado_100806" data-name="Trazado 100806" d="M5725.789,1815.425q-2.61-2.695-2.608-7.517v-16.343q0-4.846,2.621-7.53t7.641-2.682q5.043,0,7.652,2.67t2.609,7.542v16.343q0,4.846-2.621,7.53t-7.64,2.682Q5728.4,1818.12,5725.789,1815.425Zm11.6-3.5a5.76,5.76,0,0,0,1.272-4.018v-16.343a5.792,5.792,0,0,0-1.261-4.018,6.3,6.3,0,0,0-7.912,0,5.8,5.8,0,0,0-1.261,4.018v16.343a5.76,5.76,0,0,0,1.273,4.018,6.266,6.266,0,0,0,7.888,0Z" transform="translate(-5723.18 -1781.353)" fill="#fcfcfc"/>
        <path id="Trazado_100807" data-name="Trazado 100807" d="M5755.052,1807.935l12.066-26.037h5.193l-11.77,25.74h17.629v4.673h-23.118Zm15.5-11.25h4.919v21.165h-4.919Z" transform="translate(-5727.607 -1781.429)" fill="#fcfcfc"/>
      </g>
    </g>
    <g id="Grupo_53930" data-name="Grupo 53930" transform="translate(1205.086 1225.095)">
      <g id="Grupo_53928" data-name="Grupo 53928" transform="translate(3.184 3.182)" opacity="0.3" style="mix-blend-mode: multiply;isolation: isolate">
        <path id="Trazado_100808" data-name="Trazado 100808" d="M5886.231,2095.809a51.854,51.854,0,1,1,16.109-2.586A51.636,51.636,0,0,1,5886.231,2095.809Z" transform="translate(-5834.473 -1992.278)"/>
      </g>
      <path id="Trazado_100809" data-name="Trazado 100809" d="M5885.718,2098.478a55.032,55.032,0,1,1,17.1-2.743A54.812,54.812,0,0,1,5885.718,2098.478Z" transform="translate(-5830.775 -1988.583)" fill="url(#linear-gradient)"/>
      <path id="Trazado_100810" data-name="Trazado 100810" d="M5886.231,2095.809a51.854,51.854,0,1,1,16.109-2.586A51.636,51.636,0,0,1,5886.231,2095.809Z" transform="translate(-5831.289 -1989.096)" fill="#0ac4bf"/>
      <g id="Grupo_53929" data-name="Grupo 53929" transform="translate(32.732 37.342)">
        <path id="Trazado_100811" data-name="Trazado 100811" d="M5871.395,2066.021q-2.608-2.695-2.608-7.517v-16.343q0-4.846,2.621-7.531t7.641-2.682q5.043,0,7.653,2.671t2.608,7.542V2058.5q0,4.846-2.621,7.529t-7.64,2.683Q5874,2068.716,5871.395,2066.021Zm11.6-3.5a5.765,5.765,0,0,0,1.273-4.018v-16.343a5.8,5.8,0,0,0-1.261-4.018,6.3,6.3,0,0,0-7.913,0,5.8,5.8,0,0,0-1.26,4.018V2058.5a5.762,5.762,0,0,0,1.273,4.018,6.266,6.266,0,0,0,7.887,0Z" transform="translate(-5868.786 -2031.948)" fill="#fcfcfc"/>
        <path id="Trazado_100812" data-name="Trazado 100812" d="M5906.438,2067.724a8.714,8.714,0,0,1-3.437-3.091,12.3,12.3,0,0,1-1.77-4.871v-.024h5.046v.024a4.67,4.67,0,0,0,1.582,3.078,5.124,5.124,0,0,0,3.412,1.1,4.56,4.56,0,0,0,3.745-1.62,7.023,7.023,0,0,0,1.322-4.562v-3.017a6.984,6.984,0,0,0-1.322-4.537,4.561,4.561,0,0,0-3.745-1.619,4.766,4.766,0,0,0-2.522.741,7.038,7.038,0,0,0-2.126,2.077h-4.6v-18.939h18.322v4.8h-13.278v8.085a7.161,7.161,0,0,1,2.1-1.187,6.935,6.935,0,0,1,2.373-.42,10.433,10.433,0,0,1,5.328,1.286,8.22,8.22,0,0,1,3.362,3.758,14.05,14.05,0,0,1,1.151,5.959v3.017a13.671,13.671,0,0,1-1.187,5.959,8.41,8.41,0,0,1-3.462,3.771,10.852,10.852,0,0,1-5.464,1.3A10.621,10.621,0,0,1,5906.438,2067.724Z" transform="translate(-5873.292 -2032.02)" fill="#fcfcfc"/>
      </g>
    </g>
    <g id="Grupo_53932" data-name="Grupo 53932" transform="translate(285.229 1224.243)">
      <path id="Trazado_100813" data-name="Trazado 100813" d="M4817.5,2097.49a55.032,55.032,0,1,1,17.1-2.743A54.809,54.809,0,0,1,4817.5,2097.49Z" transform="translate(-4762.559 -1987.594)" fill="url(#linear-gradient)"/>
      <path id="Trazado_100814" data-name="Trazado 100814" d="M4818.014,2094.82a51.849,51.849,0,1,1,16.109-2.585A51.636,51.636,0,0,1,4818.014,2094.82Z" transform="translate(-4763.072 -1988.107)" fill="#339ce9"/>
      <g id="Grupo_53931" data-name="Grupo 53931" transform="translate(35.356 36.546)">
        <path id="Trazado_100815" data-name="Trazado 100815" d="M4813.78,2066.417h-5.045v-30.462l-5.118,3.14v-5.216l5.118-3.412h5.045Z" transform="translate(-4803.617 -2030.094)" fill="#fcfcfc"/>
        <path id="Trazado_100816" data-name="Trazado 100816" d="M4824.191,2061.98l12.535-16.714a12.5,12.5,0,0,0,1.694-2.98,7.923,7.923,0,0,0,.605-2.88v-.05a4.361,4.361,0,0,0-1.261-3.338,5.032,5.032,0,0,0-3.585-1.187,4.943,4.943,0,0,0-3.561,1.3,5.9,5.9,0,0,0-1.656,3.673v.024h-5.217v-.024a13.434,13.434,0,0,1,1.817-5.28,9.249,9.249,0,0,1,3.549-3.338,10.571,10.571,0,0,1,5.02-1.151,12.514,12.514,0,0,1,5.489,1.1,7.726,7.726,0,0,1,3.461,3.2,10.153,10.153,0,0,1,1.188,5.069v.024a11.178,11.178,0,0,1-.791,3.981,17.13,17.13,0,0,1-2.2,4.007l-10.409,14.143h13.6v4.8h-20.275Z" transform="translate(-4806.413 -2030.034)" fill="#fcfcfc"/>
      </g>
    </g>
    <g id="Grupo_53935" data-name="Grupo 53935" transform="translate(1204.858 1471.57)">
      <g id="Grupo_53933" data-name="Grupo 53933" transform="translate(3.184 3.182)" opacity="0.3" style="mix-blend-mode: multiply;isolation: isolate">
        <path id="Trazado_100817" data-name="Trazado 100817" d="M5885.966,2382.037a51.849,51.849,0,1,1,16.109-2.585A51.637,51.637,0,0,1,5885.966,2382.037Z" transform="translate(-5834.208 -2278.506)"/>
      </g>
      <path id="Trazado_100818" data-name="Trazado 100818" d="M5885.453,2384.706a55.027,55.027,0,1,1,17.1-2.742A54.811,54.811,0,0,1,5885.453,2384.706Z" transform="translate(-5830.511 -2274.811)" fill="url(#linear-gradient)"/>
      <path id="Trazado_100819" data-name="Trazado 100819" d="M5885.966,2382.037a51.849,51.849,0,1,1,16.109-2.585A51.637,51.637,0,0,1,5885.966,2382.037Z" transform="translate(-5831.023 -2275.324)" fill="#339ce9"/>
      <g id="Grupo_53934" data-name="Grupo 53934" transform="translate(32.889 38.377)">
        <path id="Trazado_100820" data-name="Trazado 100820" d="M5871.312,2353.45q-2.607-2.695-2.607-7.516V2329.59q0-4.846,2.621-7.53t7.641-2.682q5.042,0,7.652,2.67t2.608,7.542v16.344q0,4.846-2.621,7.529t-7.64,2.682Q5873.922,2356.145,5871.312,2353.45Zm11.6-3.5a5.764,5.764,0,0,0,1.273-4.018V2329.59a5.8,5.8,0,0,0-1.261-4.018,6.3,6.3,0,0,0-7.913,0,5.8,5.8,0,0,0-1.261,4.018v16.344a5.764,5.764,0,0,0,1.273,4.018,6.266,6.266,0,0,0,7.888,0Z" transform="translate(-5868.704 -2319.378)" fill="#fcfcfc"/>
        <path id="Trazado_100821" data-name="Trazado 100821" d="M5904.888,2354.944a8.273,8.273,0,0,1-3.425-3.709,13.428,13.428,0,0,1-1.174-5.872v-.025a20.124,20.124,0,0,1,.47-4.2,24.443,24.443,0,0,1,1.359-4.327c.1-.247.206-.49.321-.729s.232-.474.347-.7l7.813-15.478h5.44l-9.174,17.925.025-.889a4.325,4.325,0,0,1,1.8-1.8,5.726,5.726,0,0,1,2.77-.643,8.811,8.811,0,0,1,4.8,1.261,7.875,7.875,0,0,1,3.042,3.671,14.635,14.635,0,0,1,1.038,5.8v.024a13.728,13.728,0,0,1-1.175,5.935,8.278,8.278,0,0,1-3.437,3.758,12.129,12.129,0,0,1-10.843.013Zm9.112-5.056a6.232,6.232,0,0,0,1.3-4.229v-.024a7.133,7.133,0,0,0-1.359-4.661,4.759,4.759,0,0,0-3.883-1.644,4.094,4.094,0,0,0-3.485,1.656,7.679,7.679,0,0,0-1.238,4.673v.026a6.173,6.173,0,0,0,1.3,4.215,5.335,5.335,0,0,0,7.369-.012Z" transform="translate(-5873.091 -2319.45)" fill="#fcfcfc"/>
      </g>
    </g>
    <g id="Grupo_53938" data-name="Grupo 53938" transform="translate(285 1470.719)">
      <g id="Grupo_53936" data-name="Grupo 53936" transform="translate(3.183 3.183)" opacity="0.3" style="mix-blend-mode: multiply;isolation: isolate">
        <path id="Trazado_100822" data-name="Trazado 100822" d="M4817.75,2381.049a51.855,51.855,0,1,1,16.109-2.586A51.637,51.637,0,0,1,4817.75,2381.049Z" transform="translate(-4765.991 -2277.518)"/>
      </g>
      <path id="Trazado_100823" data-name="Trazado 100823" d="M4817.235,2383.718a55.034,55.034,0,1,1,17.1-2.743A54.81,54.81,0,0,1,4817.235,2383.718Z" transform="translate(-4762.293 -2273.822)" fill="url(#linear-gradient)"/>
      <path id="Trazado_100824" data-name="Trazado 100824" d="M4817.75,2381.049a51.855,51.855,0,1,1,16.109-2.586A51.637,51.637,0,0,1,4817.75,2381.049Z" transform="translate(-4762.807 -2274.335)" fill="#0ac4bf"/>
      <g id="Grupo_53937" data-name="Grupo 53937" transform="translate(38.85 37.953)">
        <path id="Trazado_100825" data-name="Trazado 100825" d="M4817.572,2353.847h-5.044v-30.462l-5.119,3.139v-5.217l5.119-3.411h5.044Z" transform="translate(-4807.409 -2317.896)" fill="#fcfcfc"/>
        <path id="Trazado_100826" data-name="Trazado 100826" d="M4837.126,2353.847h-5.044v-30.462l-5.119,3.139v-5.217l5.119-3.411h5.044Z" transform="translate(-4810.125 -2317.896)" fill="#fcfcfc"/>
      </g>
    </g>
    <g id="Grupo_53941" data-name="Grupo 53941" transform="translate(1081.423 1684.91)">
      <g id="Grupo_53939" data-name="Grupo 53939" transform="translate(3.184 3.182)" opacity="0.3" style="mix-blend-mode: multiply;isolation: isolate">
        <path id="Trazado_100827" data-name="Trazado 100827" d="M5742.624,2629.785a51.851,51.851,0,1,1,16.109-2.586A51.636,51.636,0,0,1,5742.624,2629.785Z" transform="translate(-5690.864 -2526.254)"/>
      </g>
      <path id="Trazado_100828" data-name="Trazado 100828" d="M5742.11,2632.454a55.027,55.027,0,1,1,17.1-2.743A54.812,54.812,0,0,1,5742.11,2632.454Z" transform="translate(-5687.167 -2522.559)" fill="url(#linear-gradient)"/>
      <path id="Trazado_100829" data-name="Trazado 100829" d="M5742.624,2629.785a51.851,51.851,0,1,1,16.109-2.586A51.636,51.636,0,0,1,5742.624,2629.785Z" transform="translate(-5687.68 -2523.072)" fill="#bf3976"/>
      <g id="Grupo_53940" data-name="Grupo 53940" transform="translate(32.667 38.218)">
        <path id="Trazado_100830" data-name="Trazado 100830" d="M5727.712,2601.014q-2.61-2.694-2.608-7.517v-16.343q0-4.846,2.621-7.53t7.641-2.683q5.043,0,7.653,2.671t2.608,7.542V2593.5q0,4.846-2.622,7.529t-7.64,2.683Q5730.321,2603.709,5727.712,2601.014Zm11.6-3.5a5.761,5.761,0,0,0,1.273-4.018v-16.343a5.793,5.793,0,0,0-1.261-4.018,6.3,6.3,0,0,0-7.912,0,5.793,5.793,0,0,0-1.261,4.018V2593.5a5.763,5.763,0,0,0,1.273,4.018,6.267,6.267,0,0,0,7.888,0Z" transform="translate(-5725.104 -2566.941)" fill="#fcfcfc"/>
        <path id="Trazado_100831" data-name="Trazado 100831" d="M5775.959,2571.959l-9.3,31.45H5761.3l9.3-31.154h-9.148v5.167H5756.4v-9.964h19.559Z" transform="translate(-5729.449 -2567.013)" fill="#fcfcfc"/>
      </g>
    </g>
    <g id="Grupo_53943" data-name="Grupo 53943" transform="translate(408.04 1684.286)">
      <path id="Trazado_100832" data-name="Trazado 100832" d="M4960.12,2631.731a55.035,55.035,0,1,1,17.1-2.744A54.811,54.811,0,0,1,4960.12,2631.731Z" transform="translate(-4905.178 -2521.835)" fill="url(#linear-gradient)"/>
      <path id="Trazado_100833" data-name="Trazado 100833" d="M4960.634,2629.062a51.852,51.852,0,1,1,16.11-2.586A51.636,51.636,0,0,1,4960.634,2629.062Z" transform="translate(-4905.691 -2522.348)" fill="#bf3976"/>
      <g id="Grupo_53942" data-name="Grupo 53942" transform="translate(33.71 38.841)">
        <path id="Trazado_100834" data-name="Trazado 100834" d="M4954.488,2603.41h-5.044v-30.462l-5.119,3.14v-5.217l5.119-3.412h5.044Z" transform="translate(-4944.325 -2567.013)" fill="#fcfcfc"/>
        <path id="Trazado_100835" data-name="Trazado 100835" d="M4968.21,2601.014q-2.61-2.694-2.609-7.517v-16.343q0-4.846,2.621-7.53t7.641-2.683q5.043,0,7.652,2.671t2.609,7.542V2593.5q0,4.846-2.621,7.529t-7.64,2.683Q4970.818,2603.709,4968.21,2601.014Zm11.6-3.5a5.763,5.763,0,0,0,1.272-4.018v-16.343a5.793,5.793,0,0,0-1.261-4.018,6.3,6.3,0,0,0-7.912,0,5.793,5.793,0,0,0-1.26,4.018V2593.5a5.763,5.763,0,0,0,1.272,4.018,6.268,6.268,0,0,0,7.888,0Z" transform="translate(-4947.28 -2566.941)" fill="#fcfcfc"/>
      </g>
    </g>
    <g id="Grupo_53946" data-name="Grupo 53946" transform="translate(867.855 1807.949)">
      <g id="Grupo_53944" data-name="Grupo 53944" transform="translate(3.184 3.183)" opacity="0.3" style="mix-blend-mode: multiply;isolation: isolate">
        <path id="Trazado_100836" data-name="Trazado 100836" d="M5494.61,2772.67a51.852,51.852,0,1,1,16.11-2.586A51.636,51.636,0,0,1,5494.61,2772.67Z" transform="translate(-5442.851 -2669.139)"/>
      </g>
      <path id="Trazado_100837" data-name="Trazado 100837" d="M5494.1,2775.339a55.035,55.035,0,1,1,17.1-2.744A54.812,54.812,0,0,1,5494.1,2775.339Z" transform="translate(-5439.154 -2665.443)" fill="url(#linear-gradient)"/>
      <path id="Trazado_100838" data-name="Trazado 100838" d="M5494.61,2772.67a51.852,51.852,0,1,1,16.11-2.586A51.636,51.636,0,0,1,5494.61,2772.67Z" transform="translate(-5439.667 -2665.957)" fill="#0ac4bf"/>
      <g id="Grupo_53945" data-name="Grupo 53945" transform="translate(30.453 36.088)">
        <path id="Trazado_100839" data-name="Trazado 100839" d="M5477.128,2741.424q-2.61-2.694-2.609-7.517v-16.343q0-4.846,2.621-7.53t7.641-2.682q5.044,0,7.653,2.67t2.608,7.542v16.343q0,4.846-2.621,7.53t-7.64,2.682Q5479.737,2744.119,5477.128,2741.424Zm11.6-3.5a5.76,5.76,0,0,0,1.273-4.018v-16.343a5.792,5.792,0,0,0-1.261-4.018,6.3,6.3,0,0,0-7.912,0,5.8,5.8,0,0,0-1.261,4.018v16.343a5.76,5.76,0,0,0,1.273,4.018,6.263,6.263,0,0,0,7.888,0Z" transform="translate(-5474.519 -2707.352)" fill="#fcfcfc"/>
        <path id="Trazado_100840" data-name="Trazado 100840" d="M5511.7,2742.895a9.028,9.028,0,0,1-3.82-3.5,10.068,10.068,0,0,1-1.348-5.254v-.593a10.1,10.1,0,0,1,1.348-5.069,9,9,0,0,1,3.6-3.585,7.864,7.864,0,0,1-3.054-3,8.078,8.078,0,0,1-1.15-4.142v-.865a9.587,9.587,0,0,1,1.261-4.958,8.551,8.551,0,0,1,3.561-3.312,12.729,12.729,0,0,1,10.681,0,8.545,8.545,0,0,1,3.561,3.313,9.577,9.577,0,0,1,1.26,4.958v.865a7.972,7.972,0,0,1-1.173,4.179,7.84,7.84,0,0,1-3.1,2.967,9.324,9.324,0,0,1,3.646,3.6,9.891,9.891,0,0,1,1.373,5.056v.593A10.068,10.068,0,0,1,5527,2739.4a9.038,9.038,0,0,1-3.821,3.5,13.921,13.921,0,0,1-11.472,0Zm8.827-4.3a4.984,4.984,0,0,0,2.064-1.941,5.6,5.6,0,0,0,.73-2.88v-.346a5.652,5.652,0,0,0-.73-2.905,4.986,4.986,0,0,0-2.064-1.941,7.244,7.244,0,0,0-6.181,0,4.965,4.965,0,0,0-2.065,1.954,5.712,5.712,0,0,0-.729,2.917v.37a5.532,5.532,0,0,0,.729,2.868,4.941,4.941,0,0,0,2.065,1.917,6.727,6.727,0,0,0,3.091.679A6.612,6.612,0,0,0,5520.53,2738.592Zm-.42-16.208a4.527,4.527,0,0,0,1.805-1.867,5.88,5.88,0,0,0,.643-2.793v-.347a5.43,5.43,0,0,0-.643-2.669,4.44,4.44,0,0,0-1.805-1.793,5.962,5.962,0,0,0-5.34,0,4.443,4.443,0,0,0-1.805,1.793,5.474,5.474,0,0,0-.643,2.7v.37a5.745,5.745,0,0,0,.643,2.758,4.549,4.549,0,0,0,1.805,1.854,5.76,5.76,0,0,0,5.34,0Z" transform="translate(-5478.966 -2707.364)" fill="#fcfcfc"/>
      </g>
    </g>
    <g id="Grupo_53949" data-name="Grupo 53949" transform="translate(621.38 1807.721)">
      <g id="Grupo_53947" data-name="Grupo 53947" transform="translate(3.184 3.183)" opacity="0.3" style="mix-blend-mode: multiply;isolation: isolate">
        <path id="Trazado_100841" data-name="Trazado 100841" d="M5208.382,2772.405a51.852,51.852,0,1,1,16.11-2.586A51.636,51.636,0,0,1,5208.382,2772.405Z" transform="translate(-5156.624 -2668.874)"/>
      </g>
      <path id="Trazado_100842" data-name="Trazado 100842" d="M5207.869,2775.074a55.035,55.035,0,1,1,17.1-2.744A54.81,54.81,0,0,1,5207.869,2775.074Z" transform="translate(-5152.926 -2665.178)" fill="url(#linear-gradient)"/>
      <path id="Trazado_100843" data-name="Trazado 100843" d="M5208.382,2772.405a51.852,51.852,0,1,1,16.11-2.586A51.636,51.636,0,0,1,5208.382,2772.405Z" transform="translate(-5153.439 -2665.691)" fill="#339ce9"/>
      <g id="Grupo_53948" data-name="Grupo 53948" transform="translate(31.701 36.317)">
        <path id="Trazado_100844" data-name="Trazado 100844" d="M5192.349,2741.424q-2.609-2.694-2.608-7.517v-16.343q0-4.846,2.621-7.53t7.641-2.682q5.043,0,7.652,2.67t2.609,7.542v16.343q0,4.846-2.622,7.53t-7.64,2.682Q5194.958,2744.119,5192.349,2741.424Zm11.6-3.5a5.758,5.758,0,0,0,1.273-4.018v-16.343a5.8,5.8,0,0,0-1.261-4.018,6.3,6.3,0,0,0-7.913,0,5.8,5.8,0,0,0-1.259,4.018v16.343a5.757,5.757,0,0,0,1.272,4.018,6.262,6.262,0,0,0,7.887,0Z" transform="translate(-5189.74 -2707.352)" fill="#fcfcfc"/>
        <path id="Trazado_100845" data-name="Trazado 100845" d="M5234.8,2725.908l-.026.89a3.693,3.693,0,0,1-1.867,1.668,7.485,7.485,0,0,1-2.954.533,7.925,7.925,0,0,1-4.525-1.311,8.556,8.556,0,0,1-3.029-3.7,13.344,13.344,0,0,1-1.076-5.527v-.024a13.792,13.792,0,0,1,1.175-5.959,8.3,8.3,0,0,1,3.438-3.759,10.811,10.811,0,0,1,5.426-1.285,10.577,10.577,0,0,1,5.415,1.311,8.426,8.426,0,0,1,3.425,3.808,14.023,14.023,0,0,1,1.174,6.008v.025a18.748,18.748,0,0,1-.494,4.117,25.521,25.521,0,0,1-1.41,4.339c-.1.215-.2.432-.3.656s-.207.441-.322.654l-7.665,15.4h-5.44Zm.234-3.115a7.031,7.031,0,0,0,1.3-4.525v-.026a6.691,6.691,0,0,0-1.3-4.4,5.134,5.134,0,0,0-7.369,0,6.733,6.733,0,0,0-1.3,4.426v.024a6.973,6.973,0,0,0,1.3,4.512,5.039,5.039,0,0,0,7.369-.011Z" transform="translate(-5194.126 -2707.364)" fill="#fcfcfc"/>
      </g>
    </g>
    <g id="Grupo_53951" data-name="Grupo 53951" transform="translate(622.231 887.863)">
      <path id="Trazado_100846" data-name="Trazado 100846" d="M5208.856,1706.857a55.032,55.032,0,1,1,17.1-2.743A54.81,54.81,0,0,1,5208.856,1706.857Z" transform="translate(-5153.915 -1596.962)" fill="url(#linear-gradient)"/>
      <path id="Trazado_100847" data-name="Trazado 100847" d="M5209.371,1704.188a51.855,51.855,0,1,1,16.108-2.586A51.637,51.637,0,0,1,5209.371,1704.188Z" transform="translate(-5154.428 -1597.475)" fill="#0ac4bf"/>
      <g id="Grupo_53950" data-name="Grupo 53950" transform="translate(31.615 37.107)">
        <path id="Trazado_100848" data-name="Trazado 100848" d="M5193.238,1674.126q-2.608-2.694-2.609-7.516v-16.344q0-4.846,2.622-7.53t7.64-2.682q5.043,0,7.653,2.67t2.608,7.542v16.344q0,4.847-2.622,7.529t-7.64,2.682Q5195.847,1676.821,5193.238,1674.126Zm11.6-3.5a5.764,5.764,0,0,0,1.272-4.018v-16.344a5.8,5.8,0,0,0-1.259-4.018,6.3,6.3,0,0,0-7.913,0,5.8,5.8,0,0,0-1.261,4.018v16.344a5.76,5.76,0,0,0,1.273,4.018,6.266,6.266,0,0,0,7.887,0Z" transform="translate(-5190.629 -1640.054)" fill="#fcfcfc"/>
        <path id="Trazado_100849" data-name="Trazado 100849" d="M5222.372,1672.086l12.536-16.714a12.488,12.488,0,0,0,1.694-2.98,7.936,7.936,0,0,0,.6-2.88v-.049a4.366,4.366,0,0,0-1.26-3.338,5.037,5.037,0,0,0-3.586-1.187,4.941,4.941,0,0,0-3.561,1.3,5.9,5.9,0,0,0-1.657,3.672v.025h-5.217v-.025a13.425,13.425,0,0,1,1.817-5.279,9.237,9.237,0,0,1,3.549-3.338,10.572,10.572,0,0,1,5.018-1.15,12.511,12.511,0,0,1,5.49,1.1,7.727,7.727,0,0,1,3.461,3.2,10.151,10.151,0,0,1,1.188,5.068v.025a11.173,11.173,0,0,1-.791,3.981,17.174,17.174,0,0,1-2.2,4.006l-10.411,14.143h13.6v4.8h-20.275Z" transform="translate(-5194.976 -1640.066)" fill="#fcfcfc"/>
      </g>
    </g>
    <g id="Grupo_53953" data-name="Grupo 53953" transform="translate(868.707 888.092)">
      <path id="Trazado_100850" data-name="Trazado 100850" d="M5495.085,1707.122a55.034,55.034,0,1,1,17.1-2.744A54.811,54.811,0,0,1,5495.085,1707.122Z" transform="translate(-5440.143 -1597.227)" fill="url(#linear-gradient)"/>
      <path id="Trazado_100851" data-name="Trazado 100851" d="M5495.6,1704.453a51.855,51.855,0,1,1,16.108-2.586A51.635,51.635,0,0,1,5495.6,1704.453Z" transform="translate(-5440.655 -1597.74)" fill="#339ce9"/>
      <g id="Grupo_53952" data-name="Grupo 53952" transform="translate(33.004 36.879)">
        <path id="Trazado_100852" data-name="Trazado 100852" d="M5481.077,1674.126q-2.61-2.694-2.608-7.516v-16.344q0-4.846,2.621-7.53t7.641-2.682q5.042,0,7.652,2.67t2.609,7.542v16.344q0,4.847-2.622,7.529t-7.639,2.682Q5483.686,1676.821,5481.077,1674.126Zm11.6-3.5a5.762,5.762,0,0,0,1.272-4.018v-16.344a5.8,5.8,0,0,0-1.26-4.018,6.3,6.3,0,0,0-7.912,0,5.8,5.8,0,0,0-1.26,4.018v16.344a5.757,5.757,0,0,0,1.273,4.018,6.265,6.265,0,0,0,7.887,0Z" transform="translate(-5478.469 -1640.054)" fill="#fcfcfc"/>
        <path id="Trazado_100853" data-name="Trazado 100853" d="M5514.37,1675.733a9.073,9.073,0,0,1-3.7-3.189,11.5,11.5,0,0,1-1.769-5.032h5.144a5.423,5.423,0,0,0,.964,2.521,4.452,4.452,0,0,0,1.916,1.472,7.215,7.215,0,0,0,2.757.482,5.367,5.367,0,0,0,3.882-1.336,4.976,4.976,0,0,0,1.384-3.758V1665.8a6.056,6.056,0,0,0-1.312-4.166,4.708,4.708,0,0,0-3.708-1.471h-2.547v-4.8h2.547a4.216,4.216,0,0,0,3.264-1.261,5.061,5.061,0,0,0,1.162-3.56v-1.113a4.321,4.321,0,0,0-1.223-3.289,4.853,4.853,0,0,0-3.475-1.162,5.292,5.292,0,0,0-2.3.482,4.4,4.4,0,0,0-1.719,1.484,6.771,6.771,0,0,0-1.025,2.509H5509.5a13.071,13.071,0,0,1,1.867-5.044,9.123,9.123,0,0,1,3.474-3.19,10.351,10.351,0,0,1,4.821-1.087q4.649,0,7.2,2.447a9.122,9.122,0,0,1,2.547,6.9v.593a7.769,7.769,0,0,1-1.459,4.7,8.245,8.245,0,0,1-4.129,2.917,7.318,7.318,0,0,1,4.561,2.893,9.584,9.584,0,0,1,1.62,5.737v.593a11.083,11.083,0,0,1-1.211,5.365,8.005,8.005,0,0,1-3.524,3.387,13.675,13.675,0,0,1-10.891.063Z" transform="translate(-5482.696 -1640.066)" fill="#fcfcfc"/>
      </g>
    </g>
    <g id="Grupo_53959" data-name="Grupo 53959" transform="translate(0 20)">
      <g id="Grupo_53889" data-name="Grupo 53889" transform="translate(810.418 909.62)">
        <path id="Trazado_100740" data-name="Trazado 100740" d="M5491.036,1876.08l-1.493-.782a272.077,272.077,0,0,0-115.4-30.993l-1.687-.072.062-40.456.226-154.422,1.8.048c8.777.233,17.613.709,26.265,1.416l-.287,3.509c-7.994-.654-16.149-1.108-24.266-1.354l-.221,150.809-.057,37.084a275.449,275.449,0,0,1,113.7,30.537l94.435-162.474c-7.247-3.93-14.686-7.71-22.136-11.25l1.512-3.18c8.055,3.828,16.095,7.934,23.9,12.206l1.584.867Z" transform="translate(-5372.453 -1645.995)" fill="#339ce9"/>
        <g id="Grupo_53887" data-name="Grupo 53887" transform="translate(21.259)">
          <path id="Trazado_100741" data-name="Trazado 100741" d="M5404.272,1645.474a6.618,6.618,0,1,1-7.112,6.085A6.618,6.618,0,0,1,5404.272,1645.474Z" transform="translate(-5397.14 -1645.453)" fill="#339ce9"/>
        </g>
        <g id="Grupo_53888" data-name="Grupo 53888" transform="translate(183.933 43.677)">
          <path id="Trazado_100742" data-name="Trazado 100742" d="M5595.537,1696.829a6.618,6.618,0,1,0,3.1,8.832A6.62,6.62,0,0,0,5595.537,1696.829Z" transform="translate(-5586.052 -1696.175)" fill="#339ce9"/>
        </g>
      </g>
      <path id="Trazado_100743" data-name="Trazado 100743" d="M5510.125,1865.129l-19.48,33.516a275.278,275.278,0,0,0-116.144-31.192l.059-38.767A313.957,313.957,0,0,1,5510.125,1865.129Z" transform="translate(-4562.319 -761.281)" fill="#339ce9"/>
      <g id="Grupo_53892" data-name="Grupo 53892" transform="translate(574.334 909.476)">
        <path id="Trazado_100744" data-name="Trazado 100744" d="M5314.1,1844.138l-1.685.07a272.071,272.071,0,0,0-115.437,30.86l-1.5.78-20.174-35.066-77.016-133.847,1.586-.86c7.717-4.187,15.607-8.193,23.454-11.906l1.507,3.183c-7.25,3.432-14.54,7.115-21.693,10.96l75.214,130.714,18.492,32.144a275.459,275.459,0,0,1,113.739-30.406l.545-187.925c-8.241.221-16.573.666-24.795,1.324l-.28-3.509c8.888-.712,17.906-1.176,26.8-1.379l1.806-.042Z" transform="translate(-5098.292 -1645.834)" fill="#0ac4bf"/>
        <g id="Grupo_53890" data-name="Grupo 53890" transform="translate(18.903 43.51)">
          <path id="Trazado_100745" data-name="Trazado 100745" d="M5124.01,1696.461a6.618,6.618,0,1,1-3.117,8.825A6.62,6.62,0,0,1,5124.01,1696.461Z" transform="translate(-5120.245 -1695.813)" fill="#0ac4bf"/>
        </g>
        <g id="Grupo_53891" data-name="Grupo 53891" transform="translate(181.625)">
          <path id="Trazado_100746" data-name="Trazado 100746" d="M5315.328,1645.3a6.618,6.618,0,1,0,7.1,6.1A6.62,6.62,0,0,0,5315.328,1645.3Z" transform="translate(-5309.21 -1645.286)" fill="#0ac4bf"/>
        </g>
      </g>
      <path id="Trazado_100747" data-name="Trazado 100747" d="M5325.127,1828.593l-.113,38.766a275.284,275.284,0,0,0-116.18,31.059l-19.333-33.6A313.96,313.96,0,0,1,5325.127,1828.593Z" transform="translate(-4536.626 -761.269)" fill="#0ac4bf"/>
      <g id="Grupo_53895" data-name="Grupo 53895" transform="translate(398.429 980.486)">
        <path id="Trazado_100748" data-name="Trazado 100748" d="M5149.515,1896.824l-1.424.9a272.071,272.071,0,0,0-84.542,84.445l-.907,1.425-35-20.281-133.621-77.407.942-1.538c4.59-7.484,9.421-14.9,14.359-22.037l2.9,2c-4.563,6.6-9.034,13.432-13.307,20.339l130.494,75.595,32.087,18.591a275.454,275.454,0,0,1,83.3-83.2l-93.49-163.02c-7.027,4.312-14.02,8.863-20.811,13.545l-2-2.9c7.342-5.061,14.919-9.972,22.521-14.595l1.543-.939Z" transform="translate(-4894.017 -1727.749)" fill="#bf3976"/>
        <g id="Grupo_53893" data-name="Grupo 53893" transform="translate(9.999 129.277)">
          <path id="Trazado_100749" data-name="Trazado 100749" d="M4906.79,1880.751a6.618,6.618,0,1,1,1.713,9.2A6.619,6.619,0,0,1,4906.79,1880.751Z" transform="translate(-4905.628 -1877.876)" fill="#bf3976"/>
        </g>
        <g id="Grupo_53894" data-name="Grupo 53894" transform="translate(129.163 10.235)">
          <path id="Trazado_100750" data-name="Trazado 100750" d="M5046.9,1740.789a6.618,6.618,0,1,0,9.2,1.731A6.618,6.618,0,0,0,5046.9,1740.789Z" transform="translate(-5044.012 -1739.634)" fill="#bf3976"/>
        </g>
      </g>
      <path id="Trazado_100751" data-name="Trazado 100751" d="M5149.557,1884.361l19.286,33.628a275.271,275.271,0,0,0-85.085,84.988l-33.545-19.435A313.968,313.968,0,0,1,5149.557,1884.361Z" transform="translate(-4517.281 -769.014)" fill="#bf3976"/>
      <g id="Grupo_53898" data-name="Grupo 53898" transform="translate(326.766 1155.911)">
        <path id="Trazado_100752" data-name="Trazado 100752" d="M5041.423,2029.41l-.782,1.492a272.053,272.053,0,0,0-30.993,115.4l-.074,1.688-40.455-.062L4814.7,2147.7l.048-1.8c.232-8.776.709-17.612,1.416-26.264l3.509.287c-.654,7.995-1.109,16.149-1.354,24.266l150.809.22,37.085.057a275.454,275.454,0,0,1,30.536-113.7l-162.474-94.434c-3.93,7.247-7.711,14.685-11.251,22.135l-3.179-1.511c3.827-8.054,7.934-16.1,12.206-23.9l.868-1.584Z" transform="translate(-4811.337 -1931.467)" fill="#339ce9"/>
        <g id="Grupo_53896" data-name="Grupo 53896" transform="translate(0 182.029)">
          <path id="Trazado_100753" data-name="Trazado 100753" d="M4810.815,2148.959a6.618,6.618,0,1,1,6.085,7.112A6.621,6.621,0,0,1,4810.815,2148.959Z" transform="translate(-4810.795 -2142.854)" fill="#339ce9"/>
        </g>
        <g id="Grupo_53897" data-name="Grupo 53897" transform="translate(43.279 18.954)">
          <circle id="Elipse_4114" data-name="Elipse 4114" cx="6.618" cy="6.618" r="6.618" transform="translate(0 0.825) rotate(-3.575)" fill="#339ce9"/>
        </g>
      </g>
      <path id="Trazado_100754" data-name="Trazado 100754" d="M5030.472,2023.368l33.516,19.48a275.272,275.272,0,0,0-31.192,116.144l-38.768-.059A313.956,313.956,0,0,1,5030.472,2023.368Z" transform="translate(-4509.478 -788.319)" fill="#339ce9"/>
      <g id="Grupo_53901" data-name="Grupo 53901" transform="translate(326.622 1392.145)">
        <path id="Trazado_100755" data-name="Trazado 100755" d="M5009.481,2206.367l.069,1.685a272.07,272.07,0,0,0,30.86,115.438l.781,1.5-35.066,20.174-133.847,77.016-.86-1.586c-4.187-7.716-8.193-15.608-11.906-23.453l3.182-1.507c3.431,7.25,7.114,14.541,10.961,21.693l130.714-75.214,32.144-18.492a275.463,275.463,0,0,1-30.407-113.739l-187.924-.546c.22,8.241.665,16.574,1.324,24.795l-3.51.281c-.712-8.889-1.176-17.906-1.378-26.8l-.041-1.806Z" transform="translate(-4811.177 -2205.801)" fill="#0ac4bf"/>
        <g id="Grupo_53899" data-name="Grupo 53899" transform="translate(43.51 184.233)">
          <path id="Trazado_100756" data-name="Trazado 100756" d="M4861.8,2429.222a6.618,6.618,0,1,1,8.826,3.117A6.62,6.62,0,0,1,4861.8,2429.222Z" transform="translate(-4861.156 -2419.748)" fill="#0ac4bf"/>
        </g>
        <g id="Grupo_53900" data-name="Grupo 53900" transform="translate(0 21.514)">
          <path id="Trazado_100757" data-name="Trazado 100757" d="M4810.648,2237.9a6.618,6.618,0,1,0,6.1-7.1A6.618,6.618,0,0,0,4810.648,2237.9Z" transform="translate(-4810.628 -2230.784)" fill="#0ac4bf"/>
        </g>
      </g>
      <path id="Trazado_100758" data-name="Trazado 100758" d="M4993.936,2208.366l38.766.113a275.262,275.262,0,0,0,31.059,116.18l-33.6,19.333A313.947,313.947,0,0,1,4993.936,2208.366Z" transform="translate(-4509.465 -814.013)" fill="#0ac4bf"/>
      <g id="Grupo_53904" data-name="Grupo 53904" transform="translate(397.632 1528.927)">
        <path id="Trazado_100759" data-name="Trazado 100759" d="M5062.167,2364.644l.9,1.423a272.085,272.085,0,0,0,84.446,84.543l1.425.907-20.282,35-77.407,133.621-1.538-.943c-7.484-4.59-14.9-9.421-22.038-14.359l2-2.9c6.6,4.563,13.431,9.035,20.338,13.306l75.6-130.494,18.591-32.087a275.451,275.451,0,0,1-83.2-83.3l-163.02,93.49c4.312,7.027,8.863,14.02,13.544,20.811l-2.9,2c-5.062-7.341-9.972-14.919-14.595-22.521l-.939-1.543Z" transform="translate(-4893.092 -2364.644)" fill="#bf3976"/>
        <g id="Grupo_53902" data-name="Grupo 53902" transform="translate(129.276 232.262)">
          <path id="Trazado_100760" data-name="Trazado 100760" d="M5046.093,2646.442a6.618,6.618,0,1,1,9.2-1.714A6.618,6.618,0,0,1,5046.093,2646.442Z" transform="translate(-5043.218 -2634.366)" fill="#bf3976"/>
        </g>
        <g id="Grupo_53903" data-name="Grupo 53903" transform="translate(10.235 113.098)">
          <path id="Trazado_100761" data-name="Trazado 100761" d="M4906.131,2506.334a6.618,6.618,0,1,0,1.732-9.2A6.619,6.619,0,0,0,4906.131,2506.334Z" transform="translate(-4904.977 -2495.983)" fill="#bf3976"/>
        </g>
      </g>
      <path id="Trazado_100762" data-name="Trazado 100762" d="M5050.41,2387.194l33.628-19.285a275.277,275.277,0,0,0,84.988,85.085l-19.435,33.544A313.946,313.946,0,0,1,5050.41,2387.194Z" transform="translate(-4517.308 -836.171)" fill="#bf3976"/>
      <g id="Grupo_53907" data-name="Grupo 53907" transform="translate(573.058 1626.003)">
        <path id="Trazado_100763" data-name="Trazado 100763" d="M5194.751,2477.377l1.494.782a272.049,272.049,0,0,0,115.4,30.993l1.688.073-.062,40.455-.226,154.423-1.8-.048c-8.777-.232-17.613-.709-26.265-1.417l.287-3.509c7.995.654,16.148,1.109,24.266,1.354l.22-150.809.057-37.084a275.451,275.451,0,0,1-113.7-30.536L5101.67,2644.53c7.248,3.929,14.686,7.71,22.136,11.25l-1.512,3.179c-8.055-3.827-16.1-7.934-23.9-12.206l-1.584-.867Z" transform="translate(-5096.81 -2477.377)" fill="#339ce9"/>
        <g id="Grupo_53905" data-name="Grupo 53905" transform="translate(182.029 216.848)">
          <path id="Trazado_100764" data-name="Trazado 100764" d="M5314.3,2742.417a6.618,6.618,0,1,1,7.112-6.085A6.621,6.621,0,0,1,5314.3,2742.417Z" transform="translate(-5308.197 -2729.199)" fill="#339ce9"/>
        </g>
        <g id="Grupo_53906" data-name="Grupo 53906" transform="translate(19.352 173.169)">
          <path id="Trazado_100765" data-name="Trazado 100765" d="M5123.038,2691.06a6.618,6.618,0,1,0-3.1-8.832A6.618,6.618,0,0,0,5123.038,2691.06Z" transform="translate(-5119.283 -2678.475)" fill="#339ce9"/>
        </g>
      </g>
      <path id="Trazado_100766" data-name="Trazado 100766" d="M5188.71,2513.612l19.481-33.516a275.265,275.265,0,0,0,116.144,31.192l-.058,38.767A313.959,313.959,0,0,1,5188.71,2513.612Z" transform="translate(-4536.516 -851.752)" fill="#339ce9"/>
      <g id="Grupo_53910" data-name="Grupo 53910" transform="translate(809.291 1626.217)">
        <path id="Trazado_100767" data-name="Trazado 100767" d="M5371.709,2509.336l1.684-.069a272.079,272.079,0,0,0,115.439-30.861l1.5-.781,20.174,35.066,77.016,133.847-1.585.861c-7.718,4.186-15.608,8.192-23.454,11.905l-1.506-3.182c7.25-3.432,14.54-7.115,21.692-10.96l-75.213-130.715-18.494-32.144a275.439,275.439,0,0,1-113.739,30.407l-.544,187.924c8.241-.22,16.573-.665,24.795-1.324l.281,3.51c-8.89.712-17.907,1.176-26.8,1.378l-1.806.042Z" transform="translate(-5371.144 -2477.626)" fill="#0ac4bf"/>
        <g id="Grupo_53908" data-name="Grupo 53908" transform="translate(184.233 173.266)">
          <path id="Trazado_100768" data-name="Trazado 100768" d="M5594.564,2691.427a6.618,6.618,0,1,1,3.116-8.826A6.619,6.619,0,0,1,5594.564,2691.427Z" transform="translate(-5585.091 -2678.836)" fill="#0ac4bf"/>
        </g>
        <g id="Grupo_53909" data-name="Grupo 53909" transform="translate(21.514 216.778)">
          <path id="Trazado_100769" data-name="Trazado 100769" d="M5403.247,2742.584a6.618,6.618,0,1,0-7.1-6.1A6.619,6.619,0,0,0,5403.247,2742.584Z" transform="translate(-5396.127 -2729.366)" fill="#0ac4bf"/>
        </g>
      </g>
      <path id="Trazado_100770" data-name="Trazado 100770" d="M5373.709,2550.17l.113-38.766A275.277,275.277,0,0,0,5490,2480.345l19.333,33.6A313.957,313.957,0,0,1,5373.709,2550.17Z" transform="translate(-4562.209 -851.787)" fill="#0ac4bf"/>
      <g id="Grupo_53913" data-name="Grupo 53913" transform="translate(946.073 1529.374)">
        <path id="Trazado_100771" data-name="Trazado 100771" d="M5529.987,2451.936l1.423-.9a272.081,272.081,0,0,0,84.542-84.445l.907-1.425,35,20.282,133.621,77.407-.944,1.538c-4.589,7.484-9.42,14.9-14.358,22.038l-2.9-2c4.563-6.6,9.035-13.431,13.307-20.338L5650.1,2388.492l-32.088-18.591a275.432,275.432,0,0,1-83.3,83.2l93.49,163.021c7.027-4.312,14.021-8.863,20.812-13.544l2,2.9c-7.342,5.062-14.919,9.972-22.521,14.595l-1.543.938Z" transform="translate(-5529.987 -2365.164)" fill="#bf3976"/>
        <g id="Grupo_53911" data-name="Grupo 53911" transform="translate(232.262 113.333)">
          <path id="Trazado_100772" data-name="Trazado 100772" d="M5811.785,2507.139a6.618,6.618,0,1,1-1.713-9.2A6.62,6.62,0,0,1,5811.785,2507.139Z" transform="translate(-5799.708 -2496.776)" fill="#bf3976"/>
        </g>
        <g id="Grupo_53912" data-name="Grupo 53912" transform="translate(113.097 232.375)">
          <path id="Trazado_100773" data-name="Trazado 100773" d="M5671.678,2647.1a6.619,6.619,0,1,0-9.2-1.731A6.619,6.619,0,0,0,5671.678,2647.1Z" transform="translate(-5661.325 -2635.018)" fill="#bf3976"/>
        </g>
      </g>
      <path id="Trazado_100774" data-name="Trazado 100774" d="M5552.02,2486.533l-19.286-33.629a275.272,275.272,0,0,0,85.085-84.987l33.544,19.435A313.97,313.97,0,0,1,5552.02,2486.533Z" transform="translate(-4584.295 -836.172)" fill="#bf3976"/>
      <g id="Grupo_53916" data-name="Grupo 53916" transform="translate(1043.149 1393.271)">
        <path id="Trazado_100775" data-name="Trazado 100775" d="M5642.72,2325.693l.782-1.492a272.079,272.079,0,0,0,30.993-115.4l.072-1.688,40.456.062,154.422.226-.047,1.8c-.234,8.776-.71,17.613-1.417,26.264l-3.509-.287c.654-7.995,1.108-16.149,1.354-24.267l-150.809-.22-37.084-.057a275.43,275.43,0,0,1-30.537,113.7l162.475,94.435c3.93-7.248,7.711-14.687,11.251-22.136l3.18,1.512c-3.828,8.054-7.934,16.1-12.206,23.9l-.867,1.585Z" transform="translate(-5642.72 -2207.11)" fill="#339ce9"/>
        <g id="Grupo_53914" data-name="Grupo 53914" transform="translate(216.847 21.259)">
          <path id="Trazado_100776" data-name="Trazado 100776" d="M5907.758,2238.93a6.618,6.618,0,1,1-6.084-7.112A6.618,6.618,0,0,1,5907.758,2238.93Z" transform="translate(-5894.542 -2231.798)" fill="#339ce9"/>
        </g>
        <g id="Grupo_53915" data-name="Grupo 53915" transform="translate(173.168 183.934)">
          <path id="Trazado_100777" data-name="Trazado 100777" d="M5856.4,2430.194a6.618,6.618,0,1,0-8.832,3.1A6.619,6.619,0,0,0,5856.4,2430.194Z" transform="translate(-5843.817 -2420.709)" fill="#339ce9"/>
        </g>
      </g>
      <path id="Trazado_100778" data-name="Trazado 100778" d="M5678.954,2344.783l-33.516-19.481a275.269,275.269,0,0,0,31.192-116.144l38.768.059A313.953,313.953,0,0,1,5678.954,2344.783Z" transform="translate(-4599.948 -814.123)" fill="#339ce9"/>
      <g id="Grupo_53919" data-name="Grupo 53919" transform="translate(1043.364 1157.188)">
        <path id="Trazado_100779" data-name="Trazado 100779" d="M5674.68,2148.759l-.07-1.683a272.065,272.065,0,0,0-30.861-115.439l-.78-1.5,35.066-20.174,133.847-77.016.86,1.586c4.186,7.717,8.192,15.607,11.905,23.453l-3.183,1.506c-3.431-7.251-7.113-14.54-10.959-21.692l-130.714,75.213-32.144,18.493a275.43,275.43,0,0,1,30.406,113.739l187.925.545c-.22-8.241-.666-16.573-1.324-24.8l3.509-.281c.713,8.889,1.176,17.906,1.379,26.8l.041,1.806Z" transform="translate(-5642.969 -1932.95)" fill="#0ac4bf"/>
        <g id="Grupo_53917" data-name="Grupo 53917" transform="translate(173.265 18.903)">
          <path id="Trazado_100780" data-name="Trazado 100780" d="M5856.77,1958.667a6.618,6.618,0,1,1-8.826-3.116A6.619,6.619,0,0,1,5856.77,1958.667Z" transform="translate(-5844.179 -1954.901)" fill="#0ac4bf"/>
        </g>
        <g id="Grupo_53918" data-name="Grupo 53918" transform="translate(216.777 181.624)">
          <path id="Trazado_100781" data-name="Trazado 100781" d="M5907.927,2149.985a6.618,6.618,0,1,0-6.1,7.1A6.62,6.62,0,0,0,5907.927,2149.985Z" transform="translate(-5894.709 -2143.868)" fill="#0ac4bf"/>
        </g>
      </g>
      <path id="Trazado_100782" data-name="Trazado 100782" d="M5715.513,2159.784l-38.766-.113a275.277,275.277,0,0,0-31.059-116.18l33.6-19.333A313.964,313.964,0,0,1,5715.513,2159.784Z" transform="translate(-4599.982 -788.43)" fill="#0ac4bf"/>
      <g id="Grupo_53922" data-name="Grupo 53922" transform="translate(946.521 981.283)">
        <path id="Trazado_100783" data-name="Trazado 100783" d="M5617.279,1984.172l-.9-1.423a272.074,272.074,0,0,0-84.446-84.542l-1.425-.907,20.282-35.005,77.407-133.621,1.538.944c7.484,4.59,14.9,9.421,22.037,14.358l-2,2.9c-6.6-4.563-13.432-9.035-20.339-13.306l-75.594,130.494-18.591,32.088a275.461,275.461,0,0,1,83.2,83.3l163.02-93.49c-4.312-7.027-8.863-14.021-13.545-20.811l2.9-2c5.062,7.342,9.972,14.919,14.595,22.522l.939,1.543Z" transform="translate(-5530.507 -1728.674)" fill="#bf3976"/>
        <g id="Grupo_53920" data-name="Grupo 53920" transform="translate(113.333 9.999)">
          <path id="Trazado_100784" data-name="Trazado 100784" d="M5672.481,1741.447a6.619,6.619,0,1,1-9.2,1.714A6.62,6.62,0,0,1,5672.481,1741.447Z" transform="translate(-5662.118 -1740.286)" fill="#bf3976"/>
        </g>
        <g id="Grupo_53921" data-name="Grupo 53921" transform="translate(232.375 129.164)">
          <path id="Trazado_100785" data-name="Trazado 100785" d="M5812.443,1881.555a6.618,6.618,0,1,0-1.731,9.2A6.619,6.619,0,0,0,5812.443,1881.555Z" transform="translate(-5800.36 -1878.67)" fill="#bf3976"/>
        </g>
      </g>
      <path id="Trazado_100786" data-name="Trazado 100786" d="M5651.875,1984.215l-33.627,19.285a275.3,275.3,0,0,0-84.988-85.085l19.435-33.544A313.935,313.935,0,0,1,5651.875,1984.215Z" transform="translate(-4584.369 -769.085)" fill="#bf3976"/>
      <path id="Trazado_100787" data-name="Trazado 100787" d="M4860.41,2410.686l-1.962,27.5,24.793-12.049Z" transform="translate(-4490.648 -842.112)" fill="#0ac4bf"/>
      <path id="Trazado_100788" data-name="Trazado 100788" d="M5034.647,2631.91,5046.7,2656.7l15.447-22.831Z" transform="translate(-4515.119 -872.837)" fill="#bf3976"/>
      <path id="Trazado_100789" data-name="Trazado 100789" d="M5296.466,2733.265l22.831,15.447,1.962-27.5Z" transform="translate(-4551.481 -885.239)" fill="#339ce9"/>
      <path id="Trazado_100790" data-name="Trazado 100790" d="M5574.857,2690.931l27.5,1.962L5590.3,2668.1Z" transform="translate(-4590.146 -877.863)" fill="#0ac4bf"/>
      <path id="Trazado_100791" data-name="Trazado 100791" d="M5796.082,2516.256l24.793-12.049-22.831-15.446Z" transform="translate(-4620.87 -852.955)" fill="#bf3976"/>
      <path id="Trazado_100792" data-name="Trazado 100792" d="M5898.607,2254.874l15.447-22.831-27.5-1.962Z" transform="translate(-4633.436 -817.029)" fill="#339ce9"/>
      <path id="Trazado_100793" data-name="Trazado 100793" d="M5856.274,1974.877l1.962-27.5-24.793,12.049Z" transform="translate(-4626.059 -777.767)" fill="#0ac4bf"/>
      <path id="Trazado_100794" data-name="Trazado 100794" d="M5681.6,1754.088,5669.55,1729.3l-15.446,22.831Z" transform="translate(-4601.152 -747.478)" fill="#bf3976"/>
      <path id="Trazado_100795" data-name="Trazado 100795" d="M5420.216,1653.468l-22.831-15.447-1.962,27.5Z" transform="translate(-4565.225 -734.801)" fill="#339ce9"/>
      <path id="Trazado_100796" data-name="Trazado 100796" d="M5141.389,1695.067l-27.5-1.962,12.049,24.793Z" transform="translate(-4526.125 -742.451)" fill="#0ac4bf"/>
      <path id="Trazado_100797" data-name="Trazado 100797" d="M4921.771,1870.476l-24.792,12.049,22.831,15.447Z" transform="translate(-4495.999 -767.085)" fill="#bf3976"/>
      <path id="Trazado_100798" data-name="Trazado 100798" d="M4817.64,2131.125l-15.447,22.831,27.5,1.962Z" transform="translate(-4482.835 -803.285)" fill="#339ce9"/>
      <text id="Máquinas_familiares_o_domésticas" data-name="Máquinas
familiares o
domésticas" transform="translate(525.46 1114.268)" font-size="16" font-family="Roboto-Regular, Roboto"><tspan x="-35.125" y="0">Máquinas</tspan><tspan x="-41.93" y="18">familiares o</tspan><tspan x="-41.668" y="36">domésticas</tspan></text>
      <text id="Cama_tipo_zócalo" data-name="Cama tipo
 zócalo" transform="translate(441 1287.476)" font-size="16" font-family="Roboto-Regular, Roboto"><tspan x="-36.508" y="0">Cama tipo</tspan><tspan x="-25.551" y="18" xml:space="preserve"> zócalo</tspan></text>
      <text id="Máquinas_de_ciclo" data-name="Máquinas
de ciclo" transform="translate(1071.645 1123.268)" font-size="16" font-family="Roboto-Regular, Roboto"><tspan x="-35.125" y="0">Máquinas</tspan><tspan x="-27.551" y="18">de ciclo</tspan></text>
      <text id="Máquinas_semindustriales" data-name="Máquinas
semindustriales" transform="translate(704.874 1018.482)" font-size="16" font-family="Roboto-Regular, Roboto"><tspan x="-35.125" y="0">Máquinas</tspan><tspan x="-56.695" y="18">semindustriales</tspan></text>
      <text id="Máquinas_industriales" data-name="Máquinas
industriales" transform="translate(900.921 1021.482)" font-size="16" font-family="Roboto-Regular, Roboto"><tspan x="-35.125" y="0">Máquinas</tspan><tspan x="-41.32" y="18">industriales</tspan></text>
      <text id="Máquina_sumergida" data-name="Máquina
sumergida" transform="translate(1158.79 1286.983)" font-size="16" font-family="Roboto-Regular, Roboto"><tspan x="-31" y="0">Máquina</tspan><tspan x="-37.785" y="18">sumergida</tspan></text>
      <text id="Máquina_no_sumergida" data-name="Máquina no
sumergida" transform="translate(1062.622 1651.485)" font-size="16" font-family="Roboto-Regular, Roboto"><tspan x="-41.957" y="0">Máquina no</tspan><tspan x="-37.785" y="18">sumergida</tspan></text>
      <text id="Cama_cilíndrica_o_de_brazo" data-name="Cama cilíndrica
o de brazo" transform="translate(701.112 1736.894)" font-size="16" font-family="Roboto-Regular, Roboto"><tspan x="-55.063" y="0">Cama cilíndrica</tspan><tspan x="-37.129" y="18">o de brazo</tspan></text>
      <text id="Cama_poste" data-name="Cama poste" transform="translate(440.632 1483.56)" font-size="16" font-family="Roboto-Regular, Roboto"><tspan x="-42.93" y="0">Cama poste</tspan></text>
      <text id="Cama_cilíndrica_transversal_o_de_codo" data-name="Cama cilíndrica, 
transversal o de codo" transform="translate(520.464 1639.771)" font-size="16" font-family="Roboto-Regular, Roboto"><tspan x="-58.613" y="0">Cama cilíndrica, </tspan><tspan x="-76.371" y="18">transversal o de codo</tspan></text>
      <text id="Cama_plana" data-name="Cama plana" transform="translate(896.5 1748.227)" font-size="16" font-family="Roboto-Regular, Roboto"><tspan x="-42.449" y="0">Cama plana</tspan></text>
      <text id="Máquina_semisumergida" data-name="Máquina
semisumergida" transform="translate(1150.845 1488.139)" font-size="16" font-family="Roboto-Regular, Roboto"><tspan x="-31" y="0">Máquina</tspan><tspan x="-55.102" y="18">semisumergida</tspan></text>
      <text id="TIPOS_DE_MÁQUINAS" data-name="TIPOS DE MÁQUINAS" transform="translate(798.292 1416.701)" font-size="28" font-family="Roboto-Regular, Roboto"><tspan x="-134.278" y="0">TIPOS DE MÁQUINAS</tspan></text>
      <rect id="Rectángulo_5272" data-name="Rectángulo 5272" width="263.092" height="2.604" transform="translate(667.457 1372.435)" fill="#bf3976"/>
      <rect id="Rectángulo_6404" data-name="Rectángulo 6404" width="263.092" height="2.604" transform="translate(667.457 1435.435)" fill="#bf3976"/>
      <rect id="Rectángulo_5273" data-name="Rectángulo 5273" width="175.014" height="2.604" transform="translate(755.535 1372.435)" fill="#0ac4bf"/>
      <rect id="Rectángulo_6403" data-name="Rectángulo 6403" width="175.014" height="2.604" transform="translate(755.535 1435.435)" fill="#0ac4bf"/>
      <rect id="Rectángulo_5274" data-name="Rectángulo 5274" width="88.078" height="2.604" transform="translate(842.47 1372.435)" fill="#339ce9"/>
      <rect id="Rectángulo_6402" data-name="Rectángulo 6402" width="88.078" height="2.604" transform="translate(842.47 1435.435)" fill="#339ce9"/>
    </g>
    <g id="Grupo_53958" data-name="Grupo 53958" transform="translate(-16.207 -24.349)">
      <path id="Trazado_100738" data-name="Trazado 100738" d="M5370.4,2202.325a54.4,54.4,0,1,1,16.905-2.711A54.186,54.186,0,0,1,5370.4,2202.325Z" transform="translate(-4554.206 -798.084)" fill="url(#linear-gradient)"/>
      <path id="Trazado_100739" data-name="Trazado 100739" d="M5369.814,2198.6a51.259,51.259,0,1,1,15.927-2.556A51.052,51.052,0,0,1,5369.814,2198.6Z" transform="translate(-4553.621 -797.501)" fill="#bf3976"/>
      <path id="Trazado_100854" data-name="Trazado 100854" d="M5394.216,2162.4a5.306,5.306,0,0,1-4.644,2.681h-47.654a5.362,5.362,0,0,1-4.642-8.043l23.827-41.27a5.361,5.361,0,0,1,9.286,0l23.828,41.27A5.308,5.308,0,0,1,5394.216,2162.4Z" transform="translate(-4549.54 -793.659)" fill="#ffda2d"/>
      <path id="Trazado_100855" data-name="Trazado 100855" d="M5388.8,2162.4a5.3,5.3,0,0,1-4.643,2.681h-23.827v-51.994a5.3,5.3,0,0,1,4.643,2.681l23.827,41.27A5.306,5.306,0,0,1,5388.8,2162.4Z" transform="translate(-4544.119 -793.659)" fill="#fdbf00"/>
      <g id="Grupo_53955" data-name="Grupo 53955" transform="translate(811.403 1331.906)">
        <g id="Grupo_53954" data-name="Grupo 53954">
          <path id="Trazado_100856" data-name="Trazado 100856" d="M5366.021,2128.053v12.482a4.8,4.8,0,1,1-9.607,0v-12.482a4.8,4.8,0,1,1,9.607,0Z" transform="translate(-5356.414 -2123.249)" fill="#4c4c4c"/>
          <path id="Trazado_100857" data-name="Trazado 100857" d="M5366.021,2147.249a4.8,4.8,0,1,1-4.8-4.8A4.809,4.809,0,0,1,5366.021,2147.249Z" transform="translate(-5356.414 -2118.873)" fill="#4c4c4c"/>
        </g>
      </g>
      <g id="Grupo_53957" data-name="Grupo 53957" transform="translate(816.206 1331.906)">
        <g id="Grupo_53956" data-name="Grupo 53956">
          <path id="Trazado_100858" data-name="Trazado 100858" d="M5365.129,2147.249a4.809,4.809,0,0,1-4.8,4.8v-9.609A4.808,4.808,0,0,1,5365.129,2147.249Z" transform="translate(-5360.326 -2118.873)"/>
          <path id="Trazado_100859" data-name="Trazado 100859" d="M5365.129,2128.053v12.482a4.809,4.809,0,0,1-4.8,4.805v-22.091A4.809,4.809,0,0,1,5365.129,2128.053Z" transform="translate(-5360.326 -2123.249)"/>
        </g>
      </g>
    </g>
  </g>
</svg>
