<svg xmlns="http://www.w3.org/2000/svg" width="78.047" height="72.246" viewBox="0 0 78.047 72.246"><g transform="translate(-656 -3034.657)"><rect width="48.945" height="1.512" transform="translate(670.438 3105.392)" fill="#0ac4bf"/><g transform="translate(167.201 4370.421)"><g transform="translate(488.799 -1335.764)"><path d="M562.667-1322.6a4.14,4.14,0,0,0-4.18,4.09v5.193h-2.234a9.768,9.768,0,0,0-3.312-6.758,10.2,10.2,0,0,0-7.677-2.476v-1.3h.035a2.22,2.22,0,0,0,2.242-2.193v-7.529a2.221,2.221,0,0,0-2.242-2.194h-2.292a2.22,2.22,0,0,0-2.241,2.194v7.529a2.22,2.22,0,0,0,2.241,2.193h.035v1.5l-3.6.321a1.094,1.094,0,0,0-1.006,1.181,1.1,1.1,0,0,0,1.207.984l4.618-.411h.005l1.111-.1h.016a7.955,7.955,0,0,1,6.059,1.922,7.6,7.6,0,0,1,2.592,5.693v28.482H537.58l1.981-10.892a8.266,8.266,0,0,0-1.574-6.52,8.634,8.634,0,0,0-5.953-3.308l-.023,0-29.155-2.422.49-9.207,29.429-2.622a1.094,1.094,0,0,0,1.006-1.181,1.1,1.1,0,0,0-1.207-.984l-29.111,2.594.012-.207a2.241,2.241,0,0,0-.631-1.67,2.337,2.337,0,0,0-1.671-.7h-.012v-.734a2.651,2.651,0,0,0-2.677-2.619,2.652,2.652,0,0,0-2.677,2.619v.734h-.3a2.34,2.34,0,0,0-1.672.7,2.24,2.24,0,0,0-.63,1.67l.448,8.433a1.1,1.1,0,0,0,1.167,1.029,1.1,1.1,0,0,0,1.051-1.142l-.448-8.433a.074.074,0,0,1,.022-.06.082.082,0,0,1,.061-.025h5.662a.08.08,0,0,1,.061.025.081.081,0,0,1,.023.06l-.9,16.987a.082.082,0,0,1-.083.077h-3.857a.084.084,0,0,1-.083-.077l-.093-1.761a1.105,1.105,0,0,0-1.167-1.029,1.1,1.1,0,0,0-1.051,1.142l.094,1.76a2.237,2.237,0,0,0,.953,1.71v2.632a3.217,3.217,0,0,0,2.166,3.016v5.675a1.1,1.1,0,0,0,1.111,1.087,1.1,1.1,0,0,0,1.111-1.087v-5.675a3.217,3.217,0,0,0,2.166-3.016v-2.632a2.237,2.237,0,0,0,.953-1.71l.17-3.207,29.072,2.415a6.311,6.311,0,0,1,4.4,2.449,6.044,6.044,0,0,1,1.164,4.832l-2.051,11.275H492.253a3.423,3.423,0,0,0-3.454,3.38v.98a3.421,3.421,0,0,0,3.454,3.379h66.965a3.421,3.421,0,0,0,3.454-3.379v-.98a3.421,3.421,0,0,0-3.454-3.379h-2.949v-22.788h2.218v5.193a4.139,4.139,0,0,0,4.179,4.089,4.14,4.14,0,0,0,4.18-4.089v-16.63A4.14,4.14,0,0,0,562.667-1322.6Zm-19.659-3.423a.021.021,0,0,1-.02-.02v-7.529a.02.02,0,0,1,.02-.02H545.3a.019.019,0,0,1,.02.02v7.529a.02.02,0,0,1-.02.02Zm-44.069,4.615h-.912v-.733a.451.451,0,0,1,.455-.447.452.452,0,0,1,.457.447Zm.456,23.7a1.046,1.046,0,0,1-1.056,1.033,1.046,1.046,0,0,1-1.056-1.033v-2.2H499.4Zm59.822,15.6a1.222,1.222,0,0,1,1.233,1.206v.98a1.222,1.222,0,0,1-1.233,1.206H492.253a1.221,1.221,0,0,1-1.232-1.206v-.98a1.221,1.221,0,0,1,1.232-1.206Zm-.731-27.134h-2.218v-1.9h2.218Zm6.138,7.366a1.94,1.94,0,0,1-1.958,1.916,1.94,1.94,0,0,1-1.959-1.916v-16.63a1.94,1.94,0,0,1,1.959-1.916,1.94,1.94,0,0,1,1.958,1.916Z" transform="translate(-488.799 1335.764)" fill="#0ac4bf"/></g></g></g></svg>