<svg xmlns="http://www.w3.org/2000/svg" width="715" height="202" viewBox="0 0 715 202"><g transform="translate(-443 -5733)"><g transform="translate(-2092.336 6268.504)"><rect width="715" height="202" transform="translate(2535.336 -535.504)" fill="#fff"/><rect width="547.843" height="19.843" transform="translate(2618.915 -458.315)" fill="none" stroke="#333" stroke-linecap="round" stroke-linejoin="round" stroke-width="2.23"/><path d="M2650.625-460.394v37.8h76.346v-15.874l-11.15-19.087v19.087l-12.472-18.52v18.52l-12.661-18.709v17.575l-15.118-18.709v18.709l-12.85-17.953v18.142l-11.339-17.953" fill="none" stroke="#333" stroke-linecap="round" stroke-linejoin="round" stroke-width="2"/><path d="M2688.8-475.358a1,1,0,0,1-1-1v-36.949a1,1,0,0,1,1-1,1,1,0,0,1,1,1v36.949A1,1,0,0,1,2688.8-475.358Z" fill="#0ac4bf"/><path d="M2680.619-482.985l1.465-1.364,6.713,7.224,6.715-7.224,1.465,1.364-8.18,8.8Z" fill="#0ac4bf"/><path d="M3092.584-375.583a1,1,0,0,1-1-1v-36.949a1,1,0,0,1,1-1,1,1,0,0,1,1,1v36.949A1,1,0,0,1,3092.584-375.583Z" fill="#0ac4bf"/><path d="M3100.763-406.9l-1.465,1.364-6.713-7.224-6.715,7.224-1.465-1.364,8.18-8.8Z" fill="#0ac4bf"/><path d="M3057.056-458.315v36.095h71.055v-16.819l-11.906-19.276v19.843l-14.74-19.843v19.843L3088.9-458.315v19.843l-10.96-19.843v19.843l-11.811-19.843v19.843Z" fill="none" stroke="#333" stroke-linecap="round" stroke-linejoin="round" stroke-width="2"/><path d="M3134.921-421.74h2.32q2.1.006,2.1,2.326v1.787a2.084,2.084,0,0,1-1.518,2.2,3.651,3.651,0,0,1-1.09.123h-.463v5.1h-1.353Zm1.353,1.33v3.773h.575a1.908,1.908,0,0,0,.562-.058.914.914,0,0,0,.58-.932v-1.787q0-1-.926-1Z" fill="#077771"/><path d="M3144.993-413.73l.539,3.533h-1.377l-.334-2.221h-2.068l-.34,2.221h-1.365l.527-3.522,1.19-6.638h2.044Zm-1.348.134-.861-5.742-.861,5.742Z" fill="#077771"/><path d="M3146.411-418.459q0-2.038,2.285-2.039t2.285,2.039v1.254h-1.353v-1.254q0-.867-.926-.867h-.012q-.925,0-.925.867v.949q0,.786,1.687,1.846a2.731,2.731,0,0,1,1.529,2.291v1.324q0,2.045-2.279,2.045t-2.291-2.045V-413.3h1.354v1.248q0,.873.937.873t.926-.873v-1.195q0-.839-1.688-1.9a2.754,2.754,0,0,1-1.529-2.327Z" fill="#077771"/><path d="M3156.841-412.049q0,2.04-2.285,2.045t-2.286-2.045v-6.41q0-2.038,2.286-2.039t2.285,2.039Zm-1.354-6.41q0-.867-.926-.867h-.011q-.925,0-.926.867v6.41q0,.873.932.873t.931-.873Z" fill="#077771"/><path d="M3164.188-421.74v10.213h1.606v1.33h-4.57v-1.33h1.611v-8.883h-1.611v-1.33Z" fill="#077771"/><path d="M2933.878-502.189h-36.949a1,1,0,0,1-1-1,1,1,0,0,1,1-1h36.949a1,1,0,0,1,1,1A1,1,0,0,1,2933.878-502.189Z" fill="#0ac4bf"/><path d="M2903.555-511.369l1.364,1.465-7.224,6.713,7.224,6.715-1.364,1.465-8.8-8.18Z" fill="#0ac4bf"/><path d="M2931.708-361.126h-36.949a1,1,0,0,1-1-1,1,1,0,0,1,1-1h36.949a1,1,0,0,1,1,1A1,1,0,0,1,2931.708-361.126Z" fill="#0ac4bf"/><path d="M2925.082-353.946l-1.364-1.465,7.224-6.713-7.224-6.715,1.364-1.465,8.8,8.18Z" fill="#0ac4bf"/><path d="M2853.374-481.559v43.087h71.575v-25.512l-12.189-23.1v22.252l-12.047-18.85V-463.7l-11.551-17.717v18l-9.85-17.008v18.283l-13.89-18.283v18.85Z" fill="none" stroke="#333" stroke-linecap="round" stroke-linejoin="round" stroke-width="2"/><path d="M2853.374-418.208v43.087H2929.2v-25.512l-12.913-23.1v22.252l-12.763-18.85v19.984l-12.237-17.717v18l-10.436-17.008v18.283l-14.715-18.283v18.85Z" fill="none" stroke="#333" stroke-linecap="round" stroke-linejoin="round" stroke-width="2"/><path d="M2852.556-508.345h2.32q2.1.006,2.1,2.326v1.788a2.084,2.084,0,0,1-1.517,2.2,3.656,3.656,0,0,1-1.09.123h-.463v5.1h-1.353Zm1.353,1.33v3.774h.574a1.9,1.9,0,0,0,.563-.059.914.914,0,0,0,.58-.931v-1.788q0-1-.926-1Z" fill="#077771"/><path d="M2862.628-500.335l.539,3.533h-1.377l-.334-2.22h-2.068l-.34,2.22h-1.365l.527-3.521,1.189-6.639h2.045Zm-1.348.135-.861-5.742-.861,5.742Z" fill="#077771"/><path d="M2864.046-505.063q0-2.04,2.285-2.04t2.285,2.04v1.253h-1.353v-1.253q0-.869-.926-.868h-.012q-.925,0-.926.868v.949q0,.785,1.688,1.845a2.734,2.734,0,0,1,1.529,2.291v1.325q0,2.045-2.279,2.045t-2.291-2.045V-499.9h1.353v1.248q0,.873.938.873t.926-.873v-1.2q0-.837-1.688-1.9a2.754,2.754,0,0,1-1.529-2.326Z" fill="#077771"/><path d="M2874.475-498.653q0,2.039-2.285,2.045t-2.285-2.045v-6.41q0-2.04,2.285-2.04t2.285,2.04Zm-1.353-6.41q0-.869-.926-.868h-.012q-.926,0-.925.868v6.41q0,.873.931.873t.932-.873Z" fill="#077771"/><path d="M2878.858-499.169a3.171,3.171,0,0,1,1.524-2.613q1.688-1.2,1.693-2.092v-2.338q0-.99-.92-.99h-.012q-.932,0-.931.99v1.412h-1.354v-1.412a2.038,2.038,0,0,1,2.285-2.326,2.038,2.038,0,0,1,2.286,2.326v2.379a3.2,3.2,0,0,1-1.53,2.648q-1.687,1.2-1.687,2.163v.9h3.217v1.33h-4.571Z" fill="#077771"/><path d="M2852.556-367.282h2.32q2.1.006,2.1,2.326v1.787a2.084,2.084,0,0,1-1.517,2.2,3.656,3.656,0,0,1-1.09.123h-.463v5.1h-1.353Zm1.353,1.33v3.773h.574a1.912,1.912,0,0,0,.563-.058.914.914,0,0,0,.58-.932v-1.787q0-1-.926-1Z" fill="#077771"/><path d="M2862.628-359.272l.539,3.533h-1.377l-.334-2.221h-2.068l-.34,2.221h-1.365l.527-3.522,1.189-6.638h2.045Zm-1.348.134-.861-5.742-.861,5.742Z" fill="#077771"/><path d="M2864.046-364q0-2.038,2.285-2.039t2.285,2.039v1.254h-1.353V-364q0-.867-.926-.867h-.012q-.925,0-.926.867v.949q0,.786,1.688,1.846a2.733,2.733,0,0,1,1.529,2.291v1.324q0,2.045-2.279,2.045t-2.291-2.045v-1.248h1.353v1.248q0,.873.938.873t.926-.873v-1.2q0-.838-1.688-1.9a2.754,2.754,0,0,1-1.529-2.327Z" fill="#077771"/><path d="M2874.475-357.591q0,2.04-2.285,2.045t-2.285-2.045V-364q0-2.038,2.285-2.039t2.285,2.039Zm-1.353-6.41q0-.867-.926-.867h-.012q-.926,0-.925.867v6.41q0,.873.931.873t.932-.873Z" fill="#077771"/><path d="M2883.241-367.282v7.3h.662v1.33h-.662v2.918h-1.353v-2.918H2878.4v-1.289l2.948-7.336Zm-3.6,7.3h2.245v-5.69Z" fill="#077771"/></g></g></svg>