<svg xmlns="http://www.w3.org/2000/svg" xmlns:xlink="http://www.w3.org/1999/xlink" width="190" height="150" viewBox="0 0 190 150"><defs><linearGradient id="a" x1="-1009.115" y1="0.893" x2="-1008.489" y2="0.007" gradientUnits="objectBoundingBox"><stop offset="0" stop-color="#292623"/><stop offset="0.257" stop-color="#31302c"/><stop offset="0.295" stop-color="#403f3d"/><stop offset="0.657" stop-color="#403f3d"/><stop offset="0.684" stop-color="#4d4d4d"/></linearGradient><linearGradient id="b" y1="0.501" x2="0.999" y2="0.501" gradientUnits="objectBoundingBox"><stop offset="0.161" stop-color="#707070"/><stop offset="0.163" stop-color="#939393"/><stop offset="0.559" stop-color="#939393"/><stop offset="0.562" stop-color="#a0a0a0"/><stop offset="0.873" stop-color="#a0a0a0"/><stop offset="0.874" stop-color="#919191"/></linearGradient><linearGradient id="c" x1="-1008.41" y1="0.893" x2="-1007.784" y2="0.007" xlink:href="#a"/><linearGradient id="d" x1="-1007.384" y1="0.893" x2="-1006.757" y2="0.007" xlink:href="#a"/><linearGradient id="e" x1="-226.97" y1="295.08" x2="-225.513" y2="295.08" gradientUnits="objectBoundingBox"><stop offset="0.316" stop-color="#f0916c"/><stop offset="0.343" stop-color="#e38258"/><stop offset="0.705" stop-color="#e38258"/><stop offset="0.743" stop-color="#c45e33"/><stop offset="1" stop-color="#8f2f17"/></linearGradient><linearGradient id="f" x1="-130.311" y1="246.988" x2="-129.664" y2="246.988" gradientUnits="objectBoundingBox"><stop offset="0" stop-color="#f22421"/><stop offset="0.018" stop-color="#f32522"/><stop offset="0.152" stop-color="#fc2d2c"/><stop offset="0.322" stop-color="#ff3030"/><stop offset="0.488" stop-color="#f62826"/><stop offset="0.559" stop-color="#f22421"/><stop offset="0.819" stop-color="#e31510"/><stop offset="1" stop-color="#c40700"/></linearGradient><linearGradient id="g" x1="-390.26" y1="264.108" x2="-388.329" y2="264.108" gradientUnits="objectBoundingBox"><stop offset="0" stop-color="#e51a17"/><stop offset="0.142" stop-color="#ee201f"/><stop offset="0.322" stop-color="#f22222"/><stop offset="0.507" stop-color="#e81c1a"/><stop offset="0.559" stop-color="#e51a17"/><stop offset="0.819" stop-color="#d6100b"/><stop offset="1" stop-color="#b70700"/></linearGradient><linearGradient id="h" x1="-151.353" y1="497.444" x2="-150.602" y2="497.444" gradientUnits="objectBoundingBox"><stop offset="0" stop-color="#f2302e"/><stop offset="0.018" stop-color="#f3312f"/><stop offset="0.152" stop-color="#fc3a39"/><stop offset="0.322" stop-color="#ff3d3d"/><stop offset="0.488" stop-color="#f63433"/><stop offset="0.559" stop-color="#f2302e"/><stop offset="0.819" stop-color="#e3201c"/><stop offset="1" stop-color="#c00a03"/></linearGradient><linearGradient id="i" x1="-225.776" y1="293.53" x2="-224.319" y2="293.53" xlink:href="#e"/><linearGradient id="j" x1="-497.865" y1="688.168" x2="-496.465" y2="688.168" gradientUnits="objectBoundingBox"><stop offset="0" stop-color="#8f2f17"/><stop offset="0.257" stop-color="#c45e33"/><stop offset="0.295" stop-color="#e38258"/><stop offset="0.657" stop-color="#e38258"/><stop offset="0.684" stop-color="#f0916c"/></linearGradient><linearGradient id="k" y1="0.5" x2="1" y2="0.5" gradientUnits="objectBoundingBox"><stop offset="0" stop-color="#6b2200"/><stop offset="0.257" stop-color="#8a250b"/><stop offset="0.295" stop-color="#993117"/><stop offset="0.657" stop-color="#993117"/><stop offset="0.684" stop-color="#a63b23"/></linearGradient><linearGradient id="l" y1="0.5" x2="1" y2="0.5" gradientUnits="objectBoundingBox"><stop offset="0" stop-color="#c40700"/><stop offset="0.181" stop-color="#e31510"/><stop offset="0.441" stop-color="#f22421"/><stop offset="0.512" stop-color="#f62826"/><stop offset="0.678" stop-color="#ff3030"/><stop offset="0.848" stop-color="#fc2d2c"/><stop offset="0.982" stop-color="#f32522"/><stop offset="1" stop-color="#f22421"/></linearGradient><linearGradient id="m" y1="0.5" x2="1" y2="0.5" gradientUnits="objectBoundingBox"><stop offset="0" stop-color="#b70700"/><stop offset="0.181" stop-color="#d6100b"/><stop offset="0.441" stop-color="#e51a17"/><stop offset="0.493" stop-color="#e81c1a"/><stop offset="0.678" stop-color="#f22222"/><stop offset="0.858" stop-color="#ee201f"/><stop offset="1" stop-color="#e51a17"/></linearGradient><linearGradient id="n" y1="0.5" x2="1" y2="0.5" gradientUnits="objectBoundingBox"><stop offset="0" stop-color="#c00a03"/><stop offset="0.181" stop-color="#e3201c"/><stop offset="0.441" stop-color="#f2302e"/><stop offset="0.512" stop-color="#f63433"/><stop offset="0.678" stop-color="#ff3d3d"/><stop offset="0.848" stop-color="#fc3a39"/><stop offset="0.982" stop-color="#f3312f"/><stop offset="1" stop-color="#f2302e"/></linearGradient><linearGradient id="o" x1="0" y1="0.5" x2="1" y2="0.5" xlink:href="#k"/><linearGradient id="p" y1="0.5" x2="1" y2="0.5" gradientUnits="objectBoundingBox"><stop offset="0.316" stop-color="#a63b23"/><stop offset="0.343" stop-color="#993117"/><stop offset="0.705" stop-color="#993117"/><stop offset="0.743" stop-color="#8a250b"/><stop offset="1" stop-color="#6b2200"/></linearGradient></defs><g transform="translate(-2529.189 -104.423)"><path d="M0,0H190V150H0Z" transform="translate(2529.19 104.423)" fill="#f2d6e3"/><g transform="translate(-6.14)"><g transform="translate(2596.092 121.464)"><path d="M2597.874,124.469a4,4,0,0,0-1.817-3.134,1.266,1.266,0,0,0-1.309-.115h0l-.963.578,2.764,4.3.685-.407a.845.845,0,0,0,.239-.143l0,0h0A1.36,1.36,0,0,0,2597.874,124.469Z" transform="translate(-2593.298 -121.086)" fill="url(#a)"/><path d="M2593.344,122.882a4,4,0,0,0,1.818,3.134c1,.579,1.816.116,1.816-1.036a4.009,4.009,0,0,0-1.816-3.136C2594.158,121.265,2593.344,121.73,2593.344,122.882Z" transform="translate(-2593.344 -121.032)" fill="#212022"/></g><path d="M2606,198.627l34.694,19.919a4.858,4.858,0,0,0,4.873,0l18-10.289c1.029-.583,11.262-5.5,10.291-6.2-1.768-1.281-34.072-20.483-34.072-20.483Z" transform="translate(4.084 6.768)" fill="#b0b4b5"/><path d="M2660.723,198.073l21.327,1.048-1.027,1.69-23.6-1.124Z" transform="translate(9.516 8.511)" fill="#b0b4b5"/><path d="M2567.33,210.54l60.116,34.688,37.362-21.822-60.116-34.689Z" transform="translate(0 7.522)" fill="#b0b4b5"/><g transform="translate(2627.41 139.435)"><path d="M2672.44,161.3l-6.521,15.869,2.853.928,5.95-16.5Z" transform="translate(-2616.996 -134.809)" fill="#616569"/><path d="M2653.639,151.2l-6.52,15.869,2.853.928,5.95-16.5Z" transform="translate(-2618.982 -135.876)" fill="#616569"/><g transform="translate(0 26.491)"><path d="M2624.621,206.074l5.538-34.35a4.107,4.107,0,0,1,2-2.9l6.873-3.968a4.265,4.265,0,0,1,2.907-.552,4.085,4.085,0,0,1,2.976,2.29l9.7,20.547a1.581,1.581,0,0,0,2.1.755h0a1.358,1.358,0,0,0,.648-1.807l-9.758-20.671a7.031,7.031,0,0,0-9.93-3.173l-6.99,4.037a7.041,7.041,0,0,0-3.431,4.978l-5.571,34.561a1.36,1.36,0,0,0,1.128,1.561h0A1.574,1.574,0,0,0,2624.621,206.074Z" transform="translate(-2621.67 -161.3)" fill="#777778"/><g transform="translate(0 0.012)"><path d="M2644.383,167.068l9.7,20.547c.006.011.013.02.02.032a1.577,1.577,0,0,1-1.611-.889l-9.7-20.547a4.081,4.081,0,0,0-1.013-1.317A4.052,4.052,0,0,1,2644.383,167.068Z" transform="translate(-2619.546 -160.932)" fill="#616569"/><path d="M2621.688,205.816l5.571-34.561a7.041,7.041,0,0,1,3.431-4.978l6.99-4.037a7.034,7.034,0,0,1,7.568.369,7.051,7.051,0,0,0-5.977.488l-6.99,4.036a7.043,7.043,0,0,0-3.431,4.979l-5.572,34.561a1.342,1.342,0,0,0,.074.692,1.533,1.533,0,0,1-.537.012A1.36,1.36,0,0,1,2621.688,205.816Z" transform="translate(-2621.67 -161.311)" fill="#a8a8a9"/></g></g><path d="M2672.227,140.71s13.193,8.48,12.462,13.54c-.705,4.879-4.3,20.768-6.585,21.729-.084.035-1.667.575-1.746.569-2.245-.176-29.385-15.608-29.957-18.46-.505-2.513,1.647-16.272,3.394-19.867.237-.486,1.239-.454,1.42-.531C2652.736,137.056,2663.019,136.889,2672.227,140.71Z" transform="translate(-2619.066 -137.34)" fill="#454545"/><path d="M2670.941,141.189s13.193,8.481,12.461,13.54-4.885,21.942-7.129,21.767-30.586-15.076-31.159-17.928,3.294-19.762,4.814-20.4S2661.735,137.368,2670.941,141.189Z" transform="translate(-2619.199 -137.289)" fill="#fe7600"/><path d="M2669.665,141.667s12.475,8.016,11.779,12.825-4.645,20.861-6.778,20.694-29.01-14.287-29.556-17,3.131-18.787,4.577-19.391S2660.912,138.033,2669.665,141.667Z" transform="translate(-2619.2 -137.221)" fill="#ff8e1f"/><path d="M2663.425,139.073s2.412,2.788,2.769,4.195,0,20.812,0,20.812l-1.358,7.024a50.907,50.907,0,0,1-9.88-5c-4.053-2.851-1.112-28.275-1.112-28.275A55.465,55.465,0,0,1,2663.425,139.073Z" transform="translate(-2618.38 -137.288)" fill="#e55b00"/><path d="M2646.821,161.573s-13.836,5.6-17.311,10.606-3.926,8.774-3.926,10.2,21.794,14.676,24.349,14.778,5.52-1.226,8.279-5.007,18.681-11.509,19.7-12.121-.07-2.551-.07-2.551C2664.23,167.738,2646.821,161.573,2646.821,161.573Z" transform="translate(-2621.257 -134.78)" fill="#313131"/><path d="M2650.193,161.311a8.008,8.008,0,0,0-6.653.028c-4.322,1.991-11.6,5.711-13.985,9.15-3.475,5.009-4.4,8.586-4.4,10.017s21.793,14.676,24.348,14.778,5.52-1.226,8.28-5.008,18.681-11.507,19.7-12.12.549-.407-3.169-3.067A145.922,145.922,0,0,0,2650.193,161.311Z" transform="translate(-2621.302 -134.883)" fill="#ffba0c"/><path d="M2659.377,168.126s6.457,5.4,5.4,8.375-10.382,10.454-12.032,11.187-8.665,4.672-8.665,4.672L2630.7,184.4s4.838-12.91,12.255-13.583A153.634,153.634,0,0,0,2659.377,168.126Z" transform="translate(-2620.717 -134.088)" fill="#e55b00"/><g transform="translate(29.003 43.288)"><path d="M2650.854,221.266l5.537-34.35a4.106,4.106,0,0,1,2-2.9l6.873-3.969a4.267,4.267,0,0,1,2.908-.552,4.082,4.082,0,0,1,2.975,2.29l9.7,20.547a1.58,1.58,0,0,0,2.1.754h0a1.354,1.354,0,0,0,.648-1.805l-9.758-20.672a7.029,7.029,0,0,0-9.929-3.172l-6.99,4.036a7.047,7.047,0,0,0-3.431,4.979l-5.571,34.561a1.361,1.361,0,0,0,1.128,1.561h0A1.575,1.575,0,0,0,2650.854,221.266Z" transform="translate(-2647.902 -176.492)" fill="#777778"/><g transform="translate(0 0.012)"><path d="M2670.616,182.26l9.7,20.547c.006.011.013.02.019.032a1.578,1.578,0,0,1-1.611-.889l-9.7-20.547a4.063,4.063,0,0,0-1.013-1.317A4.053,4.053,0,0,1,2670.616,182.26Z" transform="translate(-2645.778 -176.124)" fill="#616569"/><path d="M2652.373,204.106l-2.863,17.759a1.363,1.363,0,0,0,.074.692,1.56,1.56,0,0,1-.537.012,1.361,1.361,0,0,1-1.128-1.561l5.571-34.561a7.047,7.047,0,0,1,3.431-4.979l6.99-4.036a7.035,7.035,0,0,1,7.569.369,7.053,7.053,0,0,0-5.978.488l-6.989,4.036a7.046,7.046,0,0,0-3.432,4.979l-2.709,16.8Z" transform="translate(-2647.902 -176.503)" fill="#a8a8a9"/></g></g></g><path d="M2653.848,221.459l7.2-.529-2.567,1.907-11,.266Z" transform="translate(8.466 10.925)" fill="#b0b4b5"/><path d="M2625.87,236.862l9.461-.166-4.712,1.755-8.859.419Z" transform="translate(5.75 12.59)" fill="#b0b4b5"/><g transform="translate(2632.72 230.74)"><path d="M2626.473,242.116l2.021,1.188,5.135.3,35.348-23.677-4.555-.007Z" transform="translate(-2626.473 -219.921)" fill="#bcbcbc"/></g><g transform="translate(2574.332 117.504)"><g transform="translate(0 19.993)"><path d="M2633.07,140.55s-6.28,4.2-7.594,5-3.138,1.484-3.6,1.738,1.017,6.15,2.375,5.979,5.493-2.671,6.626-3.18,6.731-2.8,7.367-4.707S2633.07,140.55,2633.07,140.55Z" transform="translate(-2568.58 -135.062)" fill="#f6b486"/><path d="M2639.985,136.347a53.31,53.31,0,0,0-6.329,2.755,32.373,32.373,0,0,0-2.7,2.206,36.058,36.058,0,0,1,2.927,4.325,19.081,19.081,0,0,1,.848,2.586l3.138-1.357S2644.9,134.65,2639.985,136.347Z" transform="translate(-2567.612 -135.523)" fill="#3d7dc0"/><path d="M2626.523,201.5s-.892,2.883-1.187,3.519a13.53,13.53,0,0,1-2.8,3.392,4.434,4.434,0,0,0-1.824,2.5c-.085.763.721,3.011,1.358,3.392a3.885,3.885,0,0,0,3.434-.551c.594-.721,2.714-3.308,2.714-3.308l1.569-2.671s3.053-1.187,3.307-1.993.594-1.767.594-1.767.212-2.134-.678-2.728-2.883-1.908-2.883-1.908Z" transform="translate(-2568.694 -128.848)" fill="#6b2912"/><path d="M2635.116,203.577a2.654,2.654,0,0,0-1.485,1.937,13.474,13.474,0,0,1-1.145,3.9c-.425.679-3.647,5.428-4.071,6.276s-.594,1.908.339,2.248,3.053,1.1,4.453.509,3.052-1.187,3.35-1.823a17.781,17.781,0,0,0,1.442-3.6,19.772,19.772,0,0,1,1.569-4.282,16.3,16.3,0,0,0,.34-3.52Z" transform="translate(-2567.916 -128.405)" fill="#6b2912"/><path d="M2630.294,184.868s.617,6.954.817,9.159,1.812,6.954,1.812,7.8a5.681,5.681,0,0,1-2.629,3.647c-1.272.509-3.986,0-3.986,0s-3.308-8.227-4.5-10.856a33.092,33.092,0,0,1-2.29-10.092C2619.456,181.932,2630.294,184.868,2630.294,184.868Z" transform="translate(-2568.819 -130.53)" fill="#323232"/><path d="M2641.11,189.259s.763,6.106.678,7.972-1.95,9.753-1.95,9.753a6.958,6.958,0,0,1-3.308,1.442c-1.781.17-2.883-2.035-2.883-2.035s-.659-6.69-1.262-7.543-2.045-9.334-2.045-9.334Z" transform="translate(-2567.677 -129.917)" fill="#4d4d4d"/><path d="M2636.161,162.718s-5.259,3.987-11.28,12.637-5.682,8.226-5.344,11.364,3.393,5.089,7.379,3.647,6.445-4.325,7.632-5.173,10.686-7.633,12.892-11.28S2637.178,162.634,2636.161,162.718Z" transform="translate(-2568.834 -132.721)" fill="#404040"/><path d="M2641.454,169.615v5.344c0,.423-8.565,10.176-9.667,12.128s-1.7,3.392-1.442,4.834,1.806,5,5.526,3.817a21.019,21.019,0,0,0,7.111-3.477c1.357-1.1,11.788-7.973,13.315-8.9s4.41-4.919,4.325-7.8a77.583,77.583,0,0,0-1.356-9.075Z" transform="translate(-2567.682 -132.324)" fill="#555"/><path d="M2663.685,143.28s-5-6.446-13.061-7.379-10.176.425-11.195,1.273-4.58,9.5-4.58,14.417,1.533,7.038.894,8.9-2.335,7.04-2.335,7.04-.763,6.361,10.94,8.4,15.947-3.393,15.947-3.393-3.056-3.646-1.7-9.922,2.629-11.873,2.629-12.3S2663.685,143.28,2663.685,143.28Z" transform="translate(-2567.354 -135.587)" fill="#589fed"/><g transform="translate(0 10.264)"><g transform="translate(39.788 45.275)"><g transform="translate(0 0.492)"><path d="M2609.65,188.665l2.149.876v-2.011l-2.149-1.265Z" transform="translate(-2609.65 -186.264)" fill="#50535a"/></g><g transform="translate(2.149 1.265)"><path d="M2611.594,189.467l.773-.479v-2.024l-.773.492Z" transform="translate(-2611.594 -186.963)" fill="#232323"/></g><path d="M2609.65,186.312l2.149,1.265.773-.492-2.149-1.265Z" transform="translate(-2609.65 -185.819)" fill="#686a73"/></g><g transform="translate(1.899 45.91)"><g transform="translate(0 22.195)"><path d="M2575.381,208.268l2.021,1.176v-1.788l-2.021-1.188Z" transform="translate(-2575.381 -206.468)" fill="#5f5f5f"/></g><g transform="translate(2.021 1.188)"><path d="M2577.208,211.452l37.948-22.183v-1.8l-37.948,22.2Z" transform="translate(-2577.208 -187.469)" fill="#939394"/></g><path d="M2575.381,208.589l2.021,1.188,37.948-22.2-2.021-1.188Z" transform="translate(-2575.381 -186.394)" fill="#d9d9d9"/></g><path d="M2578.391,211.127l1.705-.973v-44.2l-1.705.974Z" transform="translate(-2573.164 -142.643)" fill="#939394"/><path d="M2576.722,210.015l1.844,1.112v-44.2l-1.844-.974Z" transform="translate(-2573.341 -142.643)" fill="#5f5f5f"/><path d="M2609.179,193.065l1.7-.973V147.9l-1.7.974Z" transform="translate(-2569.912 -144.551)" fill="#8d919c"/><path d="M2607.511,191.952l1.844,1.112v-44.2l-1.844-.974Z" transform="translate(-2570.088 -144.551)" fill="#b6b8d1"/><g transform="translate(63.522 81.49)"><g transform="translate(0 22.195)"><path d="M2631.117,240.45l2.021,1.177v-1.788l-2.021-1.189Z" transform="translate(-2631.117 -238.65)" fill="#5f5f5f"/></g><g transform="translate(2.02 1.188)"><path d="M2632.944,243.633l37.948-22.183v-1.8l-37.948,22.2Z" transform="translate(-2632.944 -219.65)" fill="#939394"/></g><path d="M2631.117,240.77l2.021,1.189,37.948-22.2-2.021-1.188Z" transform="translate(-2631.117 -218.575)" fill="#d9d9d9"/></g><path d="M2634.126,243.308l1.705-.973v-44.2l-1.705.974Z" transform="translate(-2567.277 -139.244)" fill="#939394"/><path d="M2632.458,242.2l1.844,1.112v-44.2l-1.844-.974Z" transform="translate(-2567.453 -139.244)" fill="#5f5f5f"/><path d="M2664.915,225.246l1.7-.973v-44.2l-1.7.974Z" transform="translate(-2564.025 -141.152)" fill="#939394"/><path d="M2663.247,224.134l1.844,1.112v-44.2l-1.844-.974Z" transform="translate(-2564.201 -141.152)" fill="#5f5f5f"/><path d="M2573.669,169.86l66.554,38.4v-3.133l-66.554-38.4Z" transform="translate(-2573.663 -142.562)" fill="#78301d"/><path d="M2573.667,169.037l66.555,38.4,41.364-24.16-66.555-38.4Z" transform="translate(-2573.663 -144.87)" fill="#ea9854"/><path d="M2678.981,183.465l-38.75,22.163-66.567-36.6,15.825-9.253,1.467-.841.548-.332,1.565-.9,21.967-12.832Z" transform="translate(-2573.663 -144.87)" fill="#d16d45"/><path d="M2605.617,164.286h-1.99l-11.594-6.363.448-1.381,6.344-3.461Z" transform="translate(-2571.723 -144.003)" fill="#78301d"/><path d="M2626.406,155.252,2602.265,170.4l19.854,10.27,22.02-15.832Z" transform="translate(-2570.642 -143.774)" fill="#fff"/><path d="M2627.425,166.124a2.8,2.8,0,0,0,1.572-.992,1.11,1.11,0,0,0,.212-.431.61.61,0,0,0,.011-.158.758.758,0,0,0-.339-.544,2.175,2.175,0,0,0-.6-.269q-1.022-.338-2.054-.645a11.735,11.735,0,0,0-3.927-.662c-.344.019-.445.2-.751.389a4.923,4.923,0,0,0-.847.957,8.851,8.851,0,0,1-2.428,1.426,10.342,10.342,0,0,1-1.958.773c-.372.109-1.72.448-1.832.876a6.489,6.489,0,0,1-.865,1.941c-.15.228-1.854,1.2-1.917,1.043.218.534,1.95.216,2.4.284a3.338,3.338,0,0,1,1.7.726,1.21,1.21,0,0,1,.452.746.2.2,0,0,0,.033.112.174.174,0,0,0,.1.046,5.065,5.065,0,0,0,.877.206c.363.011.7-.268,1.036-.268a1.315,1.315,0,0,0,.894-.664,3.3,3.3,0,0,1,.985-.921c.541-.339,1.184-.512,1.706-.869.481-.329.827-.8,1.285-1.131A13.081,13.081,0,0,1,2627.425,166.124Z" transform="translate(-2569.646 -143.017)" fill="#fb4d60"/><path d="M2623.458,164.908a4.3,4.3,0,0,1,1.159.7,1.683,1.683,0,0,1,.544.715c.056.22-.064.43-.024.651a5.094,5.094,0,0,0,1.011.149,11.493,11.493,0,0,0,2.926-.26,29.994,29.994,0,0,0,7.3-2.613.886.886,0,0,0,.4-.3.633.633,0,0,0-.185-.763,2.346,2.346,0,0,0-.76-.376c-1.937-.735-3.34-2.45-5.188-3.387-2.341-1.184-5.157-1.008-7.588-1.995a.99.99,0,0,0-.447-.108c-.384.031-.564.479-.669.849a27.008,27.008,0,0,1-.9,2.649c-.211.533-.531,1.016-.784,1.529a3.027,3.027,0,0,0-.17,1.708,9.6,9.6,0,0,1,1.268.268c.335.065.681.117,1.01.21A9.275,9.275,0,0,1,2623.458,164.908Z" transform="translate(-2568.766 -143.555)" fill="#fb3940"/><path d="M2633.865,206.9l41.361-24.16v-3.133l-41.361,24.16Z" transform="translate(-2567.304 -141.201)" fill="#b04833"/></g><path d="M2656.679,152.678a35.67,35.67,0,0,0,.122,5.167,33.526,33.526,0,0,1,.331,4.105s2.94,8.255,4.523,7.859,2.94-5.032,2.827-7.18-.4-5.032-.566-6.615a32.412,32.412,0,0,1-.057-3.958Z" transform="translate(-2564.899 -133.847)" fill="#fcd1b3"/><path d="M2665.332,163.143s-2.2-2.124-3.9-2.12a29.2,29.2,0,0,1-6.3-.4c-2.148-.481-4.494-1.668-6.926-1.81a23.736,23.736,0,0,0-3.648,0,22.551,22.551,0,0,0-3.731-.062,7.513,7.513,0,0,0-2.092.684s-3.759,1.143-4.523,1.476-1.386.333-1.469.531l-.085.2s-.848.537-.623.9,1.1.368,1.1.368-.084.515.565.565,2-.032,2-.032a1.865,1.865,0,0,0,1.125.6c.666.059,5.33.084,7.677,0s2.686-.932,3.619-.9,3.25,2.743,7.067,3.845,7.8,2.147,9.357,2.134S2666.427,164.049,2665.332,163.143Z" transform="translate(-2567.502 -133.146)" fill="#ffdec7"/><path d="M2625.1,149.246s-.127-2.233-1.908-2.4-2.333.636-3.223,1.7a6.349,6.349,0,0,0-1.484,3.647,7.925,7.925,0,0,0,.381,2.615c0,.381-.227,2.021-.254,2.5a2.52,2.52,0,0,0,.65,1.469,19.48,19.48,0,0,0,2.063,1.173h1.894l1.131-.353.75-.368.41-.678.622-1.866s.509-.876.226-1.1a13.4,13.4,0,0,1-1.16-1.979l-.9-.217A8.867,8.867,0,0,0,2625.1,149.246Z" transform="translate(-2568.93 -134.4)" fill="#fcd1b3"/><path d="M2624.51,157.351a6.084,6.084,0,0,0-.537-1.64c-.367-.65-2.855-6.332-2.855-6.332s-.65-.17-.82,0,0,.763,0,.763l2.94,6.192S2624.057,157.464,2624.51,157.351Z" transform="translate(-2568.746 -134.138)" fill="#6a3120"/><path d="M2622.619,154.758l.543,1.141,1.348,1.489s.688.84.549,1.07-.413.529-.549.513-1.667-1.046-1.667-1.046-1.725-.933-1.839-1.5-.8-3.262-.782-3.37a14.246,14.246,0,0,1,1.035-1.168Z" transform="translate(-2568.745 -133.865)" fill="#fcd1b3"/><path d="M2623.876,152.769s1.019.132,1.216.387,1.046,2.219,1.046,2.2a9.648,9.648,0,0,0-.583,1.189c-.113.339-.142,1.26-.463,1.391a.343.343,0,0,1-.457-.115,1.526,1.526,0,0,1-.415-1.068,7.747,7.747,0,0,0,.051-1.221l-.4-.792-.624-.381-.782-1.729Z" transform="translate(-2568.508 -133.787)" fill="#fcd1b3"/><path d="M2664.57,154.905s-.339-4.523-.848-7.379a9.006,9.006,0,0,0-2.827-4.777,5.388,5.388,0,0,0-4.3,3.392c-1.413,3.223-.509,10.46-.509,10.46S2659.2,153.944,2664.57,154.905Z" transform="translate(-2564.987 -134.83)" fill="#3d7dc0"/></g><path d="M2644.757,136.689a12.693,12.693,0,0,1,.866,3.141c0,1,.045,2.641.682,3.142s2.109.219,3.476-.19,4.174-4.636,4.127-4.773a6.983,6.983,0,0,1-1-4.187c.01-2.948-1.96-2.505-2.1-2.46S2644.757,136.689,2644.757,136.689Z" transform="translate(-2566.154 -116.045)" fill="#f6b486"/><path d="M2644.505,119.767s-2.551,2.5-2.869,5.191a61.726,61.726,0,0,0-.819,7.922c.091,2.049,2.732,7.6,3.688,7.6a7.844,7.844,0,0,0,5.964-1.776,9.51,9.51,0,0,0,3.551-5.555s1.548-1.776.957-5.19-3.187-6.648-4.918-6.693A25.843,25.843,0,0,1,2644.505,119.767Z" transform="translate(-2566.571 -117.265)" fill="#fcd1b3"/><path d="M2649,125.971a21.035,21.035,0,0,1-3.688.228c-1.229-.137-1.365-.956-2.139-.911a2.829,2.829,0,0,0-1.541.927l-.63,4.994-.06,1.911a12.21,12.21,0,0,1-1.275-3.642c-.091-1.412,2.139-7.877,3.051-9.471s5.782-3.642,9.151-1.73c4.189-.227,5.645,3.645,5.554,7.036s2.459,13,2.732,13.635,1.183,2.914,1.183,2.914-4.143-1.685-5.555-2.276-1.2-.454-1.977-1.456-.208-2-.481-4.509S2652.594,125.879,2649,125.971Z" transform="translate(-2566.692 -117.504)" fill="#6a3120"/></g><g transform="translate(2630.697 176.923)"><path d="M2644.749,173.955a5.338,5.338,0,0,0-1.76.287c.533-.72.882-2.218-1.935-2.478-3.978-.364-3.577,1.857-3.843,2.711s-2.075,2.1-2.075,2.1l.4.157-8.676,6.407-2.22,1.3.056.189.4-.184-.389.287.262.018,3.961-2.069,9.424-4.336.177.127a33.809,33.809,0,0,1,3.33-.9c1.6-.322,3.921.22,5.058-1.117S2646.208,174.025,2644.749,173.955Zm-4.251,1.611a16.475,16.475,0,0,1-3.319,1.935l.283.2-.764.275-.731.053,1.053-.724.125.048s2.145-1.333,2.482-1.477c.14-.06.584-.255,1.088-.475C2640.649,175.458,2640.553,175.512,2640.5,175.566Zm.24-.861c-1.234.091-2.374-.418-2.536-1.131s.708-1.372,1.942-1.462,2.373.419,2.537,1.135S2641.978,174.615,2640.738,174.7Zm3.791,2.289c-1.234.091-2.372-.414-2.536-1.13s.71-1.368,1.943-1.458,2.374.419,2.537,1.131S2645.771,176.9,2644.529,176.993Z" transform="translate(-2624.643 -171.195)" fill="#78301d"/><g transform="translate(0.469)"><path d="M2641.381,177.583c1.6-.322,3.921.219,5.057-1.117s-.794-2.966-2.253-3.037-3.351,1.333-4.171,2.146c-.587.578-2.544.841-3.319,1.216-.307.149,0,.718,0,.718l1.357.972A33.487,33.487,0,0,1,2641.381,177.583Zm.128-1.712c-.164-.713.71-1.368,1.943-1.457s2.373.418,2.536,1.131-.7.74-1.941.83S2641.673,176.589,2641.509,175.872Z" transform="translate(-2623.854 -171.016)" fill="#e53b00"/><path d="M2639.339,176.09c.338-.144,2.427-1.072,2.946-1.258s2.01-2.97-1.572-3.3c-3.977-.363-3.524,2.3-3.79,3.157-.178.561-1.521.949-2.076,1.384-.3.232,0,.718,0,.718l2.01.778S2639,176.235,2639.339,176.09Zm-1.427-2.3c-.165-.718.709-1.372,1.943-1.462s2.373.418,2.537,1.135-.7,1.367-1.944,1.457S2638.075,174.5,2637.912,173.787Z" transform="translate(-2624.048 -171.219)" fill="#e53b00"/><path d="M2639.145,177.837l-14.021,6.451-.056-.19v-.276l10.914-6.1,1.141-.083,2.023-.077Z" transform="translate(-2625.067 -170.579)" fill="#61594d"/><path d="M2625.128,184.5v-.276l12.679-7.677v.276l-1.854,1.275-.186,1-10.377,5.421Z" transform="translate(-2625.061 -170.686)" fill="#69645d"/><path d="M2639.145,177.621l-14.021,6.451-.056-.19,10.914-6.377,1.141-.083,1.205-.435Z" transform="translate(-2625.067 -170.639)" fill="#958976"/><path d="M2625.128,184.28,2636.339,176l1.468.6-1.854,1.275-.186,1L2625.39,184.3Z" transform="translate(-2625.061 -170.744)" fill="#b8b0a3"/><path d="M2641.368,176.882c1.6-.322,3.921.22,5.057-1.117s-.713-2.431-2.174-2.5a6.7,6.7,0,0,0-4.251,1.611,16.489,16.489,0,0,1-3.319,1.934l1.357.971A33.827,33.827,0,0,1,2641.368,176.882Zm.128-1.71c-.164-.713.71-1.368,1.943-1.457s2.373.418,2.536,1.131-.7,1.367-1.942,1.457S2641.66,175.888,2641.5,175.172Z" transform="translate(-2623.841 -171.033)" fill="#f18018"/><path d="M2639.326,175.4c.338-.144,2.427-1.072,2.946-1.258s2.062-2.524-1.52-2.855c-3.977-.364-3.576,1.857-3.842,2.711s-2.076,2.1-2.076,2.1l2.01.778S2638.988,175.543,2639.326,175.4Zm-1.427-2.3c-.165-.718.709-1.372,1.943-1.463s2.373.419,2.537,1.137-.7,1.367-1.944,1.457S2638.063,173.808,2637.9,173.1Z" transform="translate(-2624.036 -171.246)" fill="#f18018"/><path d="M2634.07,178.71c-.273.02-.524-.092-.56-.249s.156-.3.429-.323.524.093.56.25S2634.343,178.69,2634.07,178.71Z" transform="translate(-2624.176 -170.518)" fill="#9d978b"/></g></g><g transform="translate(2589.418 168.978)"><path d="M2606.559,167.6l-.259.3-3.173,3.664-.132.151-11.352-2.1-.045-.009-1.981-.366-1.206-.223-.307-.056-.53-.1-.265-.05.519-.6.893-1.033,0,0,.357-.41.681-.787.661-.765,0-.006.447-.513,3,.555.025.006,11.372,2.1.307.056Z" transform="translate(-2587.308 -163.993)" fill="#c1ccd1" style="mix-blend-mode:multiply;isolation:isolate"/><path d="M2605.744,165.119l-.841,4.205-16.5-.371,1.082-4.2Z" transform="translate(-2587.192 -163.988)" fill="#c1ccd1"/><path d="M2604.719,171.954l-4.71,2.731-12.633-7.254v-.179l4.71-2.552,12.633,7.074Z" transform="translate(-2587.301 -163.993)" fill="#79a2b1"/><path d="M2604.718,171.792l-4.711,2.732-9.058-5.2-.742-.427h0l-.595-.343-1.3-.748-.265-.154-.22-.125-.446-.257,1.339-.776,0,0,.234-.134.558-.324,2.3-1.334.26-.151h-.014l.014.008.528.279,7.459,4.284h0l3.059,1.755.3.173Z" transform="translate(-2587.301 -164.009)" fill="#d6d6d6"/><g transform="translate(2.202 1.868)"><path d="M2602.654,171.245l-3.444,2.112-2.406-1.366,3.444-2.112Z" transform="translate(-2588.507 -165.313)" fill="#003b7e"/><path d="M2599.782,170.009l-3.127,1.915-2.406-1.366,3.127-1.915Z" transform="translate(-2588.777 -165.444)" fill="#0071a9"/><path d="M2597.279,168.526l-3.127,1.915-2.406-1.366,3.127-1.915Z" transform="translate(-2589.042 -165.601)" fill="#29bcf2"/><path d="M2594.833,167.115l-3.127,1.915-2.406-1.366,3.127-1.915Z" transform="translate(-2589.3 -165.75)" fill="#457eea"/></g><path d="M2603.126,170.875l.3.173-.436.5-12.038-2.227-2.531-.469-.494-.092-.622-.114v-.179l.265-.293.474-.525.653-.72.815-.9,1.356-1.5.946.165.787.137,12.524,2.171,1.17.2Z" transform="translate(-2587.308 -164.01)" fill="#949494" style="mix-blend-mode:multiply;isolation:isolate"/><path d="M2606.56,167.122,2603,171.238l-15.687-2.9v-.179l3.565-3.937,15.687,2.721Z" transform="translate(-2587.308 -164.043)" fill="#79a2b1"/><path d="M2606.559,166.96l-.259.3-3.173,3.664-.132.151-11.352-2.1-.045-.009-1.981-.366-1.206-.223-.307-.056-.53-.1-.265-.05.519-.6.893-1.033,0,0,.357-.41.681-.787.661-.765,0-.006.447-.513,3,.555.025.006,11.372,2.1.307.056Z" transform="translate(-2587.308 -164.06)" fill="#e1e1e1"/><g transform="translate(3.523 1.162)"><path d="M2603.767,167.131l-2.316,2.843-2.723-.491,2.316-2.843Z" transform="translate(-2589.625 -164.95)" fill="#9c1100"/><path d="M2600.844,166.615l-2.316,2.843-2.723-.491,2.316-2.843Z" transform="translate(-2589.934 -165.004)" fill="#b61100"/><path d="M2597.991,166.044l-2.316,2.843-2.722-.491,2.316-2.843Z" transform="translate(-2590.235 -165.065)" fill="#ff1b0a"/><path d="M2595.533,165.6l-2.316,2.843-2.723-.491,2.316-2.843Z" transform="translate(-2590.495 -165.111)" fill="#78ea45"/></g><path d="M2605.5,166.674l-.025.056-.117.279-.938,2.2-4.127-.092-8.422-.193-.377-.009-1.981-.366-1.206-.223.025-.056.209-.469.388-.873.257-.575.123-.276.349-.787.343-.773.321,0,.329.006.449.006,1.205.014h.028l1.437.017.357.006Z" transform="translate(-2587.202 -164.012)" fill="#949494" style="mix-blend-mode:multiply;isolation:isolate"/><path d="M2605.639,164.7l-.841,4.205-16.5-.371v-.179l1.081-4.026,16.26.191Z" transform="translate(-2587.204 -164.032)" fill="#79a2b1"/><path d="M2605.639,164.541l-.841,4.205-16.5-.371,1.081-4.2Z" transform="translate(-2587.204 -164.049)" fill="#f0f0f0"/><path d="M2589.241,165.85c0,.142.2.257.455.257s.454-.115.454-.257-.2-.258-.454-.258S2589.241,165.707,2589.241,165.85Z" transform="translate(-2587.104 -163.899)" fill="#a9c4cd"/><g transform="translate(4.121 0.703)"><path d="M2603.583,164.887l-.649,3.249-2.686-.034.649-3.249Z" transform="translate(-2590.062 -164.68)" fill="#d45c00"/><path d="M2600.512,164.835l-.649,3.249-2.686-.034.65-3.249Z" transform="translate(-2590.386 -164.685)" fill="#e69100"/><path d="M2597.441,164.782l-.649,3.249-2.686-.034.649-3.249Z" transform="translate(-2590.71 -164.691)" fill="#f2bf29"/><path d="M2594.37,164.73l-.649,3.249-2.686-.034.649-3.249Z" transform="translate(-2591.035 -164.696)" fill="#f5cc63"/></g><g transform="translate(2.283 1.674)"><path d="M2589.826,166.158c.251,0,.457-.114.457-.257v-.112c-.3.019-.607.024-.911.02v.092C2589.373,166.044,2589.576,166.158,2589.826,166.158Z" transform="translate(-2589.373 -165.552)" fill="url(#b)"/><ellipse cx="0.455" cy="0.257" rx="0.455" ry="0.257" transform="translate(0)" fill="#a9a9a9"/></g></g><g transform="translate(2590.157 156.337)"><path d="M2593.465,156.137l6.08-3.51,11.787,6.806-6.08,3.51Z" transform="translate(-2587.396 -152.627)" fill="#737274"/><path d="M2593.465,156.137l6.08-3.51,10.763,6.705-5.056,2.9Z" transform="translate(-2587.396 -152.627)" fill="#3d3c3f"/><path d="M2599.655,158.457l-1.967-.217-2.545-1.469,4.84.577Z" transform="translate(-2587.219 -152.189)" fill="#222123"/><path d="M2602.491,156.936l-8.632-.843-.395-.228,1.151-.665,8.2.626Z" transform="translate(-2587.396 -152.355)" fill="#222123"/><path d="M2595.256,156.77l-.332,1.115-5.125-.509,1.565-.9Z" transform="translate(-2587.784 -152.22)" fill="#78301d"/><path d="M2596.466,158.119l-.333,1.115-8.157-.8,1.467-.841Z" transform="translate(-2587.977 -152.102)" fill="#78301d"/><path d="M2593.177,156.884,2605.5,164l-.214-1.391L2593.5,155.8Z" transform="translate(-2587.427 -152.291)" fill="#2e2d2f"/><path d="M2604.125,162.292l.215,1.392,6.08-3.51-.214-1.391Z" transform="translate(-2586.271 -151.977)" fill="#49484a"/></g><g transform="translate(2596.774 122.836)"><path d="M2601.8,160.05l-7.8-35.737a1.641,1.641,0,0,1,2.266-1.846l26.362,11.622-.789,1.79-25.794-11.373,7.668,35.128-1.271.774Z" transform="translate(-2593.961 -122.326)" fill="#343336"/></g><g transform="translate(2594.105 122.554)"><path d="M2596.077,125.455a4,4,0,0,0-1.818-3.134,1.266,1.266,0,0,0-1.309-.115h0l-.962.578,2.764,4.3.683-.407a.876.876,0,0,0,.24-.143l0,0h0A1.361,1.361,0,0,0,2596.077,125.455Z" transform="translate(-2591.501 -122.072)" fill="url(#c)"/><path d="M2591.547,123.867a4,4,0,0,0,1.817,3.136c1,.579,1.818.115,1.818-1.036a4,4,0,0,0-1.818-3.136C2592.361,122.251,2591.547,122.716,2591.547,123.867Z" transform="translate(-2591.547 -122.018)" fill="#212022"/></g><g transform="translate(2593.65 123.742)"><path d="M2599.328,161.681l-8.146-36.466a1.685,1.685,0,0,1,2.323-1.923l26.232,11.564-.789,1.79L2593.2,125.3l8.032,35.957-1.159.755Zm-6.241-36.908v0Z" transform="translate(-2591.135 -123.146)" fill="#474649"/></g><g transform="translate(2611.363 125.304)"><path d="M2630.941,129.585c.136,1.057-1.741,2.133-3.013,3.15-2.464,2-14.338,9.272-17.194,9.057a1.163,1.163,0,0,1-.294-.04c-1.526-.567-3.09-1.447-3.247-2.5a8.305,8.305,0,0,1,.216-2.563.211.211,0,0,1,.02-.1s1.094-.743,2.8-1.839c5.3-3.442,16.528-10.445,18.836-9.546a2.567,2.567,0,0,1,1.33,1.624A14.464,14.464,0,0,1,2630.941,129.585Z" transform="translate(-2607.156 -124.499)" fill="#252426"/><path d="M2630.371,126.87a2.874,2.874,0,0,1-1.351,2.484c-1.994,1.584-14.513,9.663-18.308,10.015a1.636,1.636,0,0,1-.725-.059c-1.721-.665-2.777-1.545-2.6-2.582a.211.211,0,0,1,.02-.1,2.8,2.8,0,0,1,1.076-1.447c.117-.1.293-.234.508-.391,3.384-2.425,16.882-10.915,19.249-9.995a4.763,4.763,0,0,1,1.213.689l.052.039A2.16,2.16,0,0,1,2630.371,126.87Z" transform="translate(-2607.133 -124.541)" fill="#3f3e41"/><path d="M2610.988,135.026a12.662,12.662,0,0,0-.253,3.384c.019.861.039,1.721,0,2.466a1.163,1.163,0,0,1-.294-.04c-1.526-.567-3.09-1.447-3.247-2.5a8.305,8.305,0,0,1,.216-2.563.211.211,0,0,1,.02-.1,2.8,2.8,0,0,1,1.076-1.447c.117-.1.293-.234.508-.391a6.361,6.361,0,0,1,1.214,0C2610.852,133.893,2611.282,134.186,2610.988,135.026Z" transform="translate(-2607.156 -123.583)" fill="#aeaeae" style="mix-blend-mode:multiply;isolation:isolate"/><path d="M2608.941,134.472c1.61-1.292,16.852-10.614,18.763-9.871s1.535,2.047-.074,3.339-15.454,10.222-17.366,9.479S2607.333,135.765,2608.941,134.472Z" transform="translate(-2607.052 -124.559)" fill="#6c6b6e"/></g><g transform="translate(2592.007 123.759)"><path d="M2594.179,126.544a4.006,4.006,0,0,0-1.816-3.134,1.267,1.267,0,0,0-1.31-.115h0l-.963.578,2.764,4.3.684-.407a.864.864,0,0,0,.239-.143l0,0h0A1.363,1.363,0,0,0,2594.179,126.544Z" transform="translate(-2589.603 -123.161)" fill="url(#d)"/><path d="M2589.649,124.957a4,4,0,0,0,1.818,3.134c1,.579,1.818.116,1.818-1.036a4.007,4.007,0,0,0-1.818-3.136C2590.463,123.34,2589.649,123.8,2589.649,124.957Z" transform="translate(-2589.649 -123.107)" fill="#212022"/><path d="M2590.328,125.3a2.354,2.354,0,0,0,1.067,1.842c.59.341,1.068.067,1.068-.609a2.35,2.35,0,0,0-1.068-1.841C2590.806,124.349,2590.328,124.62,2590.328,125.3Z" transform="translate(-2589.577 -123.015)" fill="#bdbdbe"/></g><path d="M2655.2,181.928c-.73-1.357-3.583-2.66-5.132-2.707-.116,0-4.969,2.226-5.077,2.236h0c-1.309.106-1.825,1.109-1.151,2.365a5.356,5.356,0,0,0,4.128,2.541,2.577,2.577,0,0,0,.375-.013h0C2649.614,186.225,2655.863,183.168,2655.2,181.928Z" transform="translate(8.05 6.519)" fill="#78301d"/><g transform="translate(2653.62 183.355)"><path d="M2653.9,182.953l-3.238-5.46.47-.279h0a1.594,1.594,0,0,1,1.587.147,4.96,4.96,0,0,1,2.3,3.856,1.562,1.562,0,0,1-.648,1.456h0Z" transform="translate(-2644.817 -177.064)" fill="url(#e)"/><path d="M2654.61,181.47a4.953,4.953,0,0,0-2.3-3.856,2.028,2.028,0,0,0-.276-.135h0a1.785,1.785,0,0,0-.754-.161c-.726.015-1.216.6-1.2,1.608a3.523,3.523,0,0,0,.1.795,5.039,5.039,0,0,0,2.192,3.06,2.493,2.493,0,0,0,.313.149v0C2653.79,183.377,2654.628,182.773,2654.61,181.47Z" transform="translate(-2644.879 -177.037)" fill="#a1462f"/><g transform="translate(1.01 1.036)"><path d="M2649.229,185.018l4.558-2.7a.854.854,0,0,0,.149-.111,1.321,1.321,0,0,0,.349-1.011,3.813,3.813,0,0,0-1.767-2.966,1.53,1.53,0,0,0-.817-.227.728.728,0,0,0-.13.015.974.974,0,0,0-.13.034.7.7,0,0,0-.144.065h0l-4.557,2.7Z" transform="translate(-2646.242 -178.001)" fill="url(#f)"/><path d="M2649.678,184.567l1.793-1.064a3.783,3.783,0,0,0,.733-2.572,4.436,4.436,0,0,0-.944-2.916.974.974,0,0,0-.13.034.7.7,0,0,0-.144.065h0l-.717.426a4.664,4.664,0,0,1,.785,2.592A5.407,5.407,0,0,1,2649.678,184.567Z" transform="translate(-2645.931 -177.999)" fill="#d36572" style="mix-blend-mode:multiply;isolation:isolate"/><path d="M2649.619,184.6a5.4,5.4,0,0,0,1.375-3.434,4.656,4.656,0,0,0-.785-2.59l.952-.537a4.087,4.087,0,0,1,.985,2.929,3.776,3.776,0,0,1-.733,2.569Z" transform="translate(-2645.937 -177.997)" fill="url(#g)"/><path d="M2653,182.62l.783-.464a.872.872,0,0,0,.149-.111,4.237,4.237,0,0,0-2.1-2.272,3.773,3.773,0,0,0-2.606-.589l-1.794,1.065a5.4,5.4,0,0,1,3.673.441A4.664,4.664,0,0,1,2653,182.62Z" transform="translate(-2646.169 -177.881)" fill="#d36572" style="mix-blend-mode:multiply;isolation:isolate"/><path d="M2652.936,182.657l.784-.464a.854.854,0,0,0,.149-.111,4.23,4.23,0,0,0-2.1-2.272,3.773,3.773,0,0,0-2.606-.589l-1.794,1.064a6.648,6.648,0,0,1,3.673.442A3.308,3.308,0,0,1,2652.936,182.657Z" transform="translate(-2646.175 -177.877)" fill="url(#h)"/><path d="M2649.774,183.64a3.815,3.815,0,0,0-1.765-2.966,1.7,1.7,0,0,0-.212-.1h0c-.861-.366-1.518.1-1.506,1.112a3.811,3.811,0,0,0,1.766,2.965,1.75,1.75,0,0,0,.241.115v0C2649.142,185.106,2649.786,184.643,2649.774,183.64Z" transform="translate(-2646.289 -177.743)" fill="#e4e5e5"/></g><path d="M2649.2,185.742l-3.238-5.46.47-.279h0a1.6,1.6,0,0,1,1.589.147,4.958,4.958,0,0,1,2.3,3.856,1.559,1.559,0,0,1-.648,1.456h0Z" transform="translate(-2645.314 -176.769)" fill="url(#i)"/><path d="M2649.908,184.259a4.957,4.957,0,0,0-2.3-3.856,2.179,2.179,0,0,0-.276-.135v0c-1.119-.475-1.973.126-1.959,1.446a4.955,4.955,0,0,0,2.3,3.855,2.3,2.3,0,0,0,.313.151h0C2649.087,186.165,2649.924,185.563,2649.908,184.259Z" transform="translate(-2645.376 -176.743)" fill="#a1462f"/><path d="M2648.4,183.384a2.163,2.163,0,0,0-1-1.678,1.01,1.01,0,0,0-.121-.059h0c-.487-.207-.859.055-.852.63a2.156,2.156,0,0,0,1,1.677,1.081,1.081,0,0,0,.136.065h0C2648.044,184.213,2648.409,183.951,2648.4,183.384Z" transform="translate(-2645.265 -176.587)" fill="url(#j)"/><path d="M2647.371,181.7a.94.94,0,0,0-.121-.059h0a.336.336,0,0,0-.512.427,2.156,2.156,0,0,0,1,1.677,1.111,1.111,0,0,0,.136.066h0a.332.332,0,0,0,.5-.432A2.162,2.162,0,0,0,2647.371,181.7Z" transform="translate(-2645.232 -176.587)" fill="#824730" style="mix-blend-mode:multiply;isolation:isolate"/></g><g transform="translate(2644.102 184.955)"><path d="M2643.568,187.748c-1.334.771-4.446.379-5.788-.4a2.6,2.6,0,0,1-.277-.182h0c-1.058-.778-.971-1.9.264-2.617a5.353,5.353,0,0,1,4.847.01,2.551,2.551,0,0,1,.312.208h0C2643.945,185.547,2644.787,187.044,2643.568,187.748Z" transform="translate(-2636.767 -177.933)" fill="#78301d"/><g transform="translate(2.348)"><path d="M2645.24,185.635h-6.347v.546h0a1.6,1.6,0,0,0,.937,1.291,4.961,4.961,0,0,0,4.488.008,1.559,1.559,0,0,0,.922-1.3h0Z" transform="translate(-2638.891 -177.758)" fill="url(#k)"/><path d="M2644.317,187.108a4.954,4.954,0,0,1-4.488-.007,1.923,1.923,0,0,1-.257-.169h0a1.806,1.806,0,0,1-.523-.565c-.357-.634-.1-1.356.769-1.857a3.475,3.475,0,0,1,.736-.315,5.039,5.039,0,0,1,3.751.324,2.461,2.461,0,0,1,.287.193h0C2645.538,185.43,2645.447,186.458,2644.317,187.108Z" transform="translate(-2638.891 -177.933)" fill="#ea9061"/><path d="M2644.12,187a4.713,4.713,0,0,1-4.263-.007,2.206,2.206,0,0,1-.244-.16h0c-.931-.686-.854-1.675.233-2.3a4.706,4.706,0,0,1,4.263.008,2.493,2.493,0,0,1,.275.182h0C2645.281,185.4,2645.194,186.377,2644.12,187Z" transform="translate(-2638.884 -177.928)" fill="#d16d45"/><path d="M2641.084,186.895s-1.067-.261-2.037-.548c-.357-.634-.1-1.356.769-1.857a3.475,3.475,0,0,1,.736-.315,13.7,13.7,0,0,1,1.738.2A24.883,24.883,0,0,1,2641.084,186.895Z" transform="translate(-2638.891 -177.912)" fill="#832409"/><g transform="translate(0.733 0.987)"><path d="M2644.437,180.678v5.3a.872.872,0,0,1-.019.186,1.322,1.322,0,0,1-.69.816,3.815,3.815,0,0,1-3.453-.008,1.517,1.517,0,0,1-.613-.586.9.9,0,0,1-.054-.121.8.8,0,0,1-.035-.129.7.7,0,0,1-.018-.158h0v-5.3Z" transform="translate(-2639.554 -179.269)" fill="url(#l)"/><path d="M2644.437,181.477v2.084s-.212.922-1.837,1.943a4.431,4.431,0,0,1-2.991.676.8.8,0,0,1-.035-.129.7.7,0,0,1-.018-.158h0v-.835a4.66,4.66,0,0,0,2.629-.647A5.4,5.4,0,0,0,2644.437,181.477Z" transform="translate(-2639.554 -179.184)" fill="#d36572" style="mix-blend-mode:multiply;isolation:isolate"/><path d="M2644.436,181.409a5.4,5.4,0,0,1-2.253,2.933,4.655,4.655,0,0,1-2.628.647l.023,1.092a4.086,4.086,0,0,0,3.022-.647c1.625-1.021,1.836-1.94,1.836-1.94Z" transform="translate(-2639.554 -179.192)" fill="url(#m)"/><path d="M2644.436,185.061v.911a.862.862,0,0,1-.019.185,4.238,4.238,0,0,1-3.026-.649c-1.626-1.022-1.837-1.941-1.837-1.941v-2.085a5.4,5.4,0,0,0,2.253,2.933A4.655,4.655,0,0,0,2644.436,185.061Z" transform="translate(-2639.554 -179.184)" fill="#d36572" style="mix-blend-mode:multiply;isolation:isolate"/><path d="M2644.436,184.989v.91a.872.872,0,0,1-.019.186,4.238,4.238,0,0,1-3.026-.649c-1.626-1.022-1.837-1.941-1.837-1.941v-2.086a6.637,6.637,0,0,0,2.253,2.933A3.315,3.315,0,0,0,2644.436,184.989Z" transform="translate(-2639.554 -179.192)" fill="url(#n)"/><path d="M2639.554,182.538c.064.044.132.088.2.13a4.961,4.961,0,0,0,4.488.008c.067-.039.129-.08.19-.122v-1.724h-4.882Z" transform="translate(-2639.554 -179.253)" fill="#d36572" style="mix-blend-mode:multiply;isolation:isolate"/><path d="M2643.727,181.812a3.816,3.816,0,0,1-3.452-.006,1.758,1.758,0,0,1-.2-.13h0c-.753-.554-.691-1.354.188-1.863a3.813,3.813,0,0,1,3.452.007,1.813,1.813,0,0,1,.222.148h0C2644.666,180.521,2644.6,181.31,2643.727,181.812Z" transform="translate(-2639.554 -179.404)" fill="#e4e5e5"/></g><path d="M2645.24,180.168h-6.347v.545h0a1.594,1.594,0,0,0,.937,1.291,4.957,4.957,0,0,0,4.488.009,1.559,1.559,0,0,0,.922-1.3h0Z" transform="translate(-2638.891 -178.335)" fill="url(#o)"/><path d="M2644.316,181.642a4.964,4.964,0,0,1-4.488-.007,2.17,2.17,0,0,1-.256-.17h0c-.979-.72-.9-1.761.246-2.422a4.957,4.957,0,0,1,4.488.009,2.4,2.4,0,0,1,.289.192h0C2645.538,179.963,2645.446,180.99,2644.316,181.642Z" transform="translate(-2638.891 -178.51)" fill="#f1b393"/><path d="M2644.189,181.57a4.8,4.8,0,0,1-4.337-.008,2.315,2.315,0,0,1-.248-.163h0c-.946-.7-.868-1.7.237-2.342a4.784,4.784,0,0,1,4.336.009,2.146,2.146,0,0,1,.28.186h0C2645.369,179.947,2645.28,180.94,2644.189,181.57Z" transform="translate(-2638.885 -178.507)" fill="#ea9061"/><path d="M2642.954,180.806a2.346,2.346,0,0,1-2.121,0,1.039,1.039,0,0,1-.123-.081h0c-.463-.341-.426-.833.115-1.145a2.344,2.344,0,0,1,2.122,0,1.2,1.2,0,0,1,.137.091h0C2643.531,180.012,2643.488,180.5,2642.954,180.806Z" transform="translate(-2638.733 -178.424)" fill="#f1b393"/><path d="M2642.874,180.773a2.158,2.158,0,0,1-1.952,0,1.229,1.229,0,0,1-.113-.073h0c-.427-.314-.391-.767.106-1.055a2.155,2.155,0,0,1,1.953,0,1.018,1.018,0,0,1,.126.083h0C2643.4,180.042,2643.365,180.489,2642.874,180.773Z" transform="translate(-2638.72 -178.415)" fill="url(#p)"/><path d="M2642.845,180.743a2.158,2.158,0,0,1-1.952,0,1.229,1.229,0,0,1-.113-.073c1.792.123,2.185-.967,2.185-.967h0C2643.376,180.012,2643.336,180.459,2642.845,180.743Z" transform="translate(-2638.692 -178.385)" fill="#d36572" style="mix-blend-mode:multiply;isolation:isolate"/></g></g></g></g></svg>