<svg xmlns="http://www.w3.org/2000/svg" width="52.913" height="72.484" viewBox="0 0 52.913 72.484"><g transform="translate(84.932 1217.141)"><rect width="48.945" height="1.512" transform="translate(-83.887 -1146.169)" fill="#0ac4bf"/><g transform="translate(3.607)"><path d="M-35.633-1208.057a6.8,6.8,0,0,0-1.978-5.1,6.8,6.8,0,0,0-5.1-1.979,6.793,6.793,0,0,0-4.9,2.43l-1.843,2.21a25.856,25.856,0,0,0-13.16-3.584,25.752,25.752,0,0,0-18.331,7.593,25.752,25.752,0,0,0-7.593,18.332,1.033,1.033,0,0,0,1.033,1.034,1.033,1.033,0,0,0,1.034-1.034,23.885,23.885,0,0,1,23.858-23.858,23.8,23.8,0,0,1,11.816,3.128l-37.5,44.961a1.034,1.034,0,0,0,.063,1.393,1.03,1.03,0,0,0,.73.3,1.029,1.029,0,0,0,.662-.24l44.966-37.506a23.718,23.718,0,0,1,3.123,11.82,23.753,23.753,0,0,1-19.985,23.546,1.034,1.034,0,0,0-.854,1.186,1.033,1.033,0,0,0,1.018.868,1.049,1.049,0,0,0,.168-.014,25.935,25.935,0,0,0,15.478-8.714,25.926,25.926,0,0,0,6.241-16.872,25.762,25.762,0,0,0-3.58-13.163l2.206-1.84A6.8,6.8,0,0,0-35.633-1208.057Zm-3.754,3.313-2.011,1.678a26.189,26.189,0,0,0-2.168-2.672l.56-.56a1.034,1.034,0,0,0,0-1.462,1.034,1.034,0,0,0-1.462,0l-3.015,3.015a1.032,1.032,0,0,0,0,1.462,1.03,1.03,0,0,0,.73.3,1.033,1.033,0,0,0,.731-.3l.993-.994a24.049,24.049,0,0,1,2.037,2.541l-36.4,30.362,33.37-40.006a4.658,4.658,0,0,1,3.406-1.689c.074,0,.148-.005.222-.005a4.657,4.657,0,0,1,3.323,1.381,4.662,4.662,0,0,1,1.375,3.545A4.659,4.659,0,0,1-39.387-1204.745Z" transform="translate(0 -2)" fill="#0ac4bf"/><path d="M-60.055-1159.168H-60.1a1.033,1.033,0,0,0-1.034,1.033A1.033,1.033,0,0,0-60.1-1157.1h.052a1.034,1.034,0,0,0,1.03-1.037A1.034,1.034,0,0,0-60.055-1159.168Z" transform="translate(-2.51 -5.127)" fill="#0ac4bf"/></g></g></svg>