<svg xmlns="http://www.w3.org/2000/svg" width="315" height="338.13" viewBox="0 0 315 338.13"><g transform="translate(-2944.949 -138.165)" fill="none" stroke-miterlimit="10"><path d="M3259.95,476.294h-315V226.47l89.552-88.3H3259.95Z" stroke="none"/><path d="M 3255.94970703125 472.2943725585938 L 3255.94970703125 142.1651611328125 L 3036.142333984375 142.1651611328125 L 2948.949462890625 228.1430206298828 L 2948.949462890625 472.2943725585938 L 3255.94970703125 472.2943725585938 M 3259.94970703125 476.2943725585938 L 2944.949462890625 476.2943725585938 L 2944.949462890625 226.4696807861328 L 3034.501953125 138.1651611328125 L 3259.94970703125 138.1651611328125 L 3259.94970703125 476.2943725585938 Z" stroke="none" fill="#bf3976"/></g><path d="M3344.949,372.225h-79.737l79.737-79.737Z" transform="translate(-3029.949 -34.096)" fill="#bf3976"/><g transform="translate(0.474 0)"><path d="M3414.743,169.455a9.452,9.452,0,0,1-2.382-6.863V147.669a9.421,9.421,0,0,1,2.393-6.874q2.393-2.448,6.975-2.449,4.607,0,6.988,2.438a9.441,9.441,0,0,1,2.382,6.885v14.923a9.424,9.424,0,0,1-2.393,6.874q-2.394,2.451-6.977,2.45Q3417.124,171.916,3414.743,169.455Zm10.588-3.194a5.266,5.266,0,0,0,1.162-3.669V147.669a5.3,5.3,0,0,0-1.151-3.668,5.754,5.754,0,0,0-7.224,0,5.293,5.293,0,0,0-1.151,3.668v14.923a5.257,5.257,0,0,0,1.162,3.669,5.723,5.723,0,0,0,7.2,0Z" transform="translate(-3412.361 -138.346)" fill="#bf3976"/><path d="M3437.375,167.581l11.446-15.261a11.366,11.366,0,0,0,1.546-2.72,7.236,7.236,0,0,0,.554-2.63v-.046a3.979,3.979,0,0,0-1.152-3.047,4.591,4.591,0,0,0-3.273-1.084,4.508,4.508,0,0,0-3.251,1.186,5.386,5.386,0,0,0-1.513,3.352v.023h-4.763v-.023a12.255,12.255,0,0,1,1.659-4.82,8.438,8.438,0,0,1,3.239-3.048,9.664,9.664,0,0,1,4.583-1.049,11.436,11.436,0,0,1,5.012,1,7.061,7.061,0,0,1,3.161,2.924,9.267,9.267,0,0,1,1.083,4.628v.022a10.187,10.187,0,0,1-.722,3.635,15.628,15.628,0,0,1-2.009,3.657l-9.5,12.913h12.416v4.38h-18.512Z" transform="translate(-3412.361 -138.346)" fill="#bf3976"/></g></svg>