<svg xmlns="http://www.w3.org/2000/svg" width="189" height="92.042" viewBox="0 0 189 92.042"><g transform="translate(-319.303 -4835.528)"><g transform="translate(-402.697 -2926.472)"><g transform="translate(-7668.653 7378.215)"><circle cx="46.021" cy="46.021" r="46.021" transform="translate(8443.074 383.785)" fill="#bf3976"/><path d="M8461.382,466.544a46.028,46.028,0,0,0,71.644-22.989Z" fill="#931454"/><path d="M8534.752,431.512a45.433,45.433,0,0,0-1.605-13.2c-.949-3.455-2.093-4.91-3.784-7.991l-113.543,2.116s-10.524.007-10.036,20.434c.409,17.081,31.194,19.246,31.194,19.246l12-1.91,28.987.229,50.912,1.648C8532.963,445.464,8534.544,439.852,8534.752,431.512Z" fill="#fff" stroke="#515151" stroke-miterlimit="10" stroke-width="1.555"/><path d="M8428.669,447.642l1.412.807,2.151,2.148,26.7-18.842" fill="none" stroke="#515151" stroke-linecap="round" stroke-linejoin="round" stroke-width="1.555" stroke-dasharray="3.11"/><path d="M8528.489,409.722s-13.43-2.395-23,.015-56.957,14.469-56.957,14.469l1.456,6.51,1.011.761Z" fill="#fff" stroke="#515151" stroke-linecap="round" stroke-linejoin="round" stroke-width="1.63"/><path d="M8532.188,415.236l-82.863,24.291-2.272-5.059,3.944-2.991,78.646-22.078Z" fill="#fff" stroke="#515151" stroke-linecap="round" stroke-linejoin="round" stroke-width="1.63"/><path d="M8504.572,409.968s-13.449-2.41-20.519-2.118a72.439,72.439,0,0,0-8.48,1.249c-11.586,2.178-29.181,6.422-29.181,6.422l-.1,4.215,2.242,4.47Z" fill="#fff" stroke="#515151" stroke-linecap="round" stroke-linejoin="round" stroke-width="1.63"/><path d="M8456.9,407.173c-3,.88-16.775,3.066-16.775,3.066l2.128,6.086,4.14-.8,29.649-6.509S8460.68,406.062,8456.9,407.173Z" fill="#fff" stroke="#515151" stroke-linecap="round" stroke-linejoin="round" stroke-width="1.63"/><ellipse cx="4.442" cy="4.155" rx="4.442" ry="4.155" transform="translate(8435.937 418.875) rotate(-88.57)" fill="#fff" stroke="#515151" stroke-linecap="round" stroke-linejoin="round" stroke-width="1.63"/><ellipse cx="4.155" cy="3.861" rx="4.155" ry="3.861" transform="translate(8442.34 424.639) rotate(-88.57)" fill="#fff" stroke="#515151" stroke-linecap="round" stroke-linejoin="round" stroke-width="1.63"/><ellipse cx="3.795" cy="3.526" rx="3.795" ry="3.526" transform="translate(8443.727 439.844) rotate(-88.57)" fill="#fff" stroke="#515151" stroke-linecap="round" stroke-linejoin="round" stroke-width="1.63"/><ellipse cx="4.248" cy="3.526" rx="4.248" ry="3.526" transform="translate(8438.569 445.634) rotate(-88.57)" fill="#fff" stroke="#515151" stroke-linecap="round" stroke-linejoin="round" stroke-width="1.63"/><ellipse cx="4.248" cy="3.526" rx="4.248" ry="3.526" transform="translate(8431.36 451.551) rotate(-88.57)" fill="#fff" stroke="#515151" stroke-linecap="round" stroke-linejoin="round" stroke-width="1.63"/><ellipse cx="3.995" cy="3.127" rx="3.995" ry="3.127" transform="translate(8424.998 450.887) rotate(-88.57)" fill="#fff" stroke="#515151" stroke-linecap="round" stroke-linejoin="round" stroke-width="1.63"/><ellipse cx="3.995" cy="3.127" rx="3.995" ry="3.127" transform="translate(8418.178 450.716) rotate(-88.57)" fill="#fff" stroke="#515151" stroke-linecap="round" stroke-linejoin="round" stroke-width="1.63"/><circle cx="3.493" cy="3.493" r="3.493" transform="translate(8445.21 424.8)" fill="#fff" stroke="#515151" stroke-linecap="round" stroke-linejoin="round" stroke-width="1.63"/><ellipse cx="3.947" cy="3.64" rx="3.947" ry="3.64" transform="translate(8428.749 415.057) rotate(-88.57)" fill="#fff" stroke="#515151" stroke-linecap="round" stroke-linejoin="round" stroke-width="1.63"/><ellipse cx="3.518" cy="3.64" rx="3.518" ry="3.64" transform="translate(8420.099 414.841) rotate(-88.57)" fill="#fff" stroke="#515151" stroke-linecap="round" stroke-linejoin="round" stroke-width="1.63"/><ellipse cx="3.748" cy="3.358" rx="3.748" ry="3.358" transform="translate(8406.642 420.877) rotate(-88.57)" fill="#fff" stroke="#515151" stroke-linecap="round" stroke-linejoin="round" stroke-width="1.63"/><ellipse cx="3.748" cy="3.358" rx="3.748" ry="3.358" transform="translate(8412.34 417.27) rotate(-88.57)" fill="#fff" stroke="#515151" stroke-linecap="round" stroke-linejoin="round" stroke-width="1.63"/><ellipse cx="3.44" cy="3.082" rx="3.44" ry="3.082" transform="translate(8418.287 421.569) rotate(-88.57)" fill="#fff" stroke="#515151" stroke-linecap="round" stroke-linejoin="round" stroke-width="1.63"/><ellipse cx="3.44" cy="3.082" rx="3.44" ry="3.082" transform="translate(8412.701 424.87) rotate(-88.57)" fill="#fff" stroke="#515151" stroke-linecap="round" stroke-linejoin="round" stroke-width="1.63"/><ellipse cx="3.44" cy="3.082" rx="3.44" ry="3.082" transform="translate(8408.892 431.873) rotate(-88.57)" fill="#fff" stroke="#515151" stroke-linecap="round" stroke-linejoin="round" stroke-width="1.63"/><ellipse cx="3.44" cy="3.082" rx="3.44" ry="3.082" transform="translate(8402.653 434.74) rotate(-88.57)" fill="#fff" stroke="#515151" stroke-linecap="round" stroke-linejoin="round" stroke-width="1.63"/><ellipse cx="3.44" cy="2.786" rx="3.44" ry="2.786" transform="translate(8411.503 439.901) rotate(-88.57)" fill="#fff" stroke="#515151" stroke-linecap="round" stroke-linejoin="round" stroke-width="1.63"/><ellipse cx="3.44" cy="2.786" rx="3.44" ry="2.786" transform="translate(8405.547 442.333) rotate(-88.57)" fill="#fff" stroke="#515151" stroke-linecap="round" stroke-linejoin="round" stroke-width="1.63"/><ellipse cx="3.711" cy="3.478" rx="3.711" ry="3.478" transform="translate(8410.434 447.629) rotate(-88.57)" fill="#fff" stroke="#515151" stroke-linecap="round" stroke-linejoin="round" stroke-width="1.63"/><ellipse cx="3.44" cy="3.082" rx="3.44" ry="3.082" transform="translate(8403.691 426.571) rotate(-88.57)" fill="#fff" stroke="#515151" stroke-linecap="round" stroke-linejoin="round" stroke-width="1.63"/><ellipse cx="3.44" cy="3.082" rx="3.44" ry="3.082" transform="translate(8414.888 434.238) rotate(-88.57)" fill="#fff" stroke="#515151" stroke-linecap="round" stroke-linejoin="round" stroke-width="1.63"/><ellipse cx="3.44" cy="3.082" rx="3.44" ry="3.082" transform="translate(8421.051 434.391) rotate(-88.57)" fill="#fff" stroke="#515151" stroke-linecap="round" stroke-linejoin="round" stroke-width="1.63"/><ellipse cx="3.23" cy="2.894" rx="3.23" ry="2.894" transform="translate(8426.345 435.539) rotate(-88.57)" fill="#fff" stroke="#515151" stroke-linecap="round" stroke-linejoin="round" stroke-width="1.63"/><ellipse cx="3.44" cy="3.082" rx="3.44" ry="3.082" transform="translate(8418.778 428.464) rotate(-88.57)" fill="#fff" stroke="#515151" stroke-linecap="round" stroke-linejoin="round" stroke-width="1.63"/><ellipse cx="3.44" cy="3.082" rx="3.44" ry="3.082" transform="translate(8425.199 428.624) rotate(-88.57)" fill="#fff" stroke="#515151" stroke-linecap="round" stroke-linejoin="round" stroke-width="1.63"/><ellipse cx="3.44" cy="3.082" rx="3.44" ry="3.082" transform="translate(8431.339 430.986) rotate(-88.57)" fill="#fff" stroke="#515151" stroke-linecap="round" stroke-linejoin="round" stroke-width="1.63"/><circle cx="4.192" cy="4.192" r="4.192" transform="translate(8437.095 427.263)" fill="#fff" stroke="#515151" stroke-linecap="round" stroke-linejoin="round" stroke-width="1.63"/><circle cx="4.192" cy="4.192" r="4.192" transform="translate(8431.044 433.412)" fill="#fff" stroke="#515151" stroke-linecap="round" stroke-linejoin="round" stroke-width="1.63"/><circle cx="3.149" cy="3.149" r="3.149" transform="translate(8423.973 435.296)" fill="#fff" stroke="#515151" stroke-linecap="round" stroke-linejoin="round" stroke-width="1.63"/><ellipse cx="3.383" cy="3.149" rx="3.383" ry="3.149" transform="translate(8417.309 441.818) rotate(-88.57)" fill="#fff" stroke="#515151" stroke-linecap="round" stroke-linejoin="round" stroke-width="1.63"/><ellipse cx="3.456" cy="2.856" rx="3.456" ry="2.856" transform="translate(8437.218 426.473) rotate(-88.57)" fill="#fff" stroke="#515151" stroke-linecap="round" stroke-linejoin="round" stroke-width="1.63"/><ellipse cx="3.751" cy="2.856" rx="3.751" ry="2.856" transform="translate(8431.769 422.817) rotate(-88.57)" fill="#fff" stroke="#515151" stroke-linecap="round" stroke-linejoin="round" stroke-width="1.63"/><ellipse cx="3.751" cy="2.856" rx="3.751" ry="2.856" transform="translate(8425.727 421.68) rotate(-88.57)" fill="#fff" stroke="#515151" stroke-linecap="round" stroke-linejoin="round" stroke-width="1.63"/><path d="M8432.157,407.272l8.063-.837,12.938,1.334-12.239,2.343-4.793,1.18A4.167,4.167,0,0,0,8432.157,407.272Z" fill="#fff" stroke="#515151" stroke-linecap="round" stroke-linejoin="round" stroke-width="1.63"/><path d="M8423.668,407.891l8.489-.619s-2.982,1.039-3.3,3.275-1.2.816-1.2.816S8426.685,407.868,8423.668,407.891Z" fill="#fff" stroke="#515151" stroke-linecap="round" stroke-linejoin="round" stroke-width="1.63"/><path d="M8415.2,409.843l5.688-1s-.9,2.125-.669,3-1.04.672-1.04.672S8418.652,409.9,8415.2,409.843Z" fill="#fff" stroke="#515151" stroke-linecap="round" stroke-linejoin="round" stroke-width="1.63"/><line y1="23.807" x2="89.559" transform="translate(8443.187 421.942)" fill="#fff" stroke="#515151" stroke-linecap="round" stroke-linejoin="round" stroke-width="1.63"/><path d="M8532.622,426.893,8441.945,451.7l-5.368.455" fill="#fff" stroke="#515151" stroke-linecap="round" stroke-linejoin="round" stroke-width="1.63"/><path d="M8533.6,434.318,8472.71,451.66s-16.776.8-23.273-1.9" fill="#fff" stroke="#515151" stroke-linecap="round" stroke-linejoin="round" stroke-width="1.63"/><path d="M8531.529,441.659l-33.214,9.826s-18.263,1.116-20.347-1.044" fill="#fff" stroke="#515151" stroke-linecap="round" stroke-linejoin="round" stroke-width="1.63"/></g></g><rect width="189" height="92" transform="translate(319.303 4835.528)" fill="none"/></g></svg>