<svg xmlns="http://www.w3.org/2000/svg" width="715" height="202" viewBox="0 0 715 202"><g transform="translate(-4368.005 324.713)"><rect width="715" height="202" transform="translate(4368.005 -324.713)" fill="#fff"/><rect width="211.812" height="26.543" transform="translate(4368.005 -149.255)" fill="#0ac4bf"/><path d="M4561.676-262.517a9.122,9.122,0,0,0,.069,1.126,9.072,9.072,0,0,0,9,7.945,9.071,9.071,0,0,0,9.071-9.071,9.07,9.07,0,0,0-9.071-9.07A9.071,9.071,0,0,0,4561.676-262.517Z" fill="none" stroke="#0ac4bf" stroke-miterlimit="10" stroke-width="1"/><line x2="65.112" transform="translate(4496.633 -262.517)" fill="none" stroke="#0ac4bf" stroke-miterlimit="10" stroke-width="1"/><path d="M4565.928-262.517a4.736,4.736,0,0,0,.037.6,4.819,4.819,0,0,0,4.782,4.221,4.819,4.819,0,0,0,4.819-4.819,4.819,4.819,0,0,0-4.819-4.818A4.818,4.818,0,0,0,4565.928-262.517Z" fill="#0ac4bf"/><path d="M4561.676-218.806a9.094,9.094,0,0,0,.069,1.125,9.072,9.072,0,0,0,9,7.946,9.071,9.071,0,0,0,9.071-9.071,9.071,9.071,0,0,0-9.071-9.071A9.071,9.071,0,0,0,4561.676-218.806Z" fill="none" stroke="#0ac4bf" stroke-miterlimit="10" stroke-width="1"/><line x2="65.112" transform="translate(4496.633 -218.806)" fill="none" stroke="#0ac4bf" stroke-miterlimit="10" stroke-width="1"/><path d="M4565.928-218.806a4.749,4.749,0,0,0,.037.6,4.82,4.82,0,0,0,4.782,4.221,4.819,4.819,0,0,0,4.819-4.819,4.819,4.819,0,0,0-4.819-4.819A4.819,4.819,0,0,0,4565.928-218.806Z" fill="#0ac4bf"/><path d="M4561.676-178.743a9.11,9.11,0,0,0,.069,1.126,9.072,9.072,0,0,0,9,7.945,9.071,9.071,0,0,0,9.071-9.071,9.07,9.07,0,0,0-9.071-9.07A9.071,9.071,0,0,0,4561.676-178.743Z" fill="none" stroke="#0ac4bf" stroke-miterlimit="10" stroke-width="1"/><line x2="65.112" transform="translate(4496.633 -178.743)" fill="none" stroke="#0ac4bf" stroke-miterlimit="10" stroke-width="1"/><path d="M4565.928-178.743a4.737,4.737,0,0,0,.037.6,4.819,4.819,0,0,0,4.782,4.221,4.819,4.819,0,0,0,4.819-4.819,4.819,4.819,0,0,0-4.819-4.818A4.818,4.818,0,0,0,4565.928-178.743Z" fill="#0ac4bf"/><text transform="translate(4391.005 -272.35)" font-size="16" font-family="Roboto-Regular, Roboto"><tspan x="0" y="0">Alimentación principal</tspan></text><text transform="translate(4492.31 -228.774)" font-size="16" font-family="Roboto-Regular, Roboto"><tspan x="0" y="0">10 P.P.P.</tspan></text><text transform="translate(4381.084 -131.333)" fill="#fff" font-size="15" font-family="Roboto-Regular, Roboto"><tspan x="0" y="0">P.P.P.: puntadas por pulgada</tspan></text><text transform="translate(4689.549 -218.253)" fill="#0ac4bf" font-size="16" font-family="Roboto-Regular, Roboto"><tspan x="0" y="0">Fruncion</tspan></text><text transform="translate(4691.303 -167.255)" fill="#0ac4bf" font-size="16" font-family="Roboto-Regular, Roboto"><tspan x="0" y="0">Estirado</tspan></text><text transform="translate(4501.294 -185.198)" font-size="16" font-family="Roboto-Regular, Roboto"><tspan x="0" y="0">6 P.P.P.</tspan></text><path d="M4888.718-179.255a9.317,9.317,0,0,0-.069-1.126,9.074,9.074,0,0,0-9-7.945,9.071,9.071,0,0,0-9.071,9.071,9.071,9.071,0,0,0,9.071,9.071A9.072,9.072,0,0,0,4888.718-179.255Z" fill="none" stroke="#0ac4bf" stroke-miterlimit="10" stroke-width="1"/><line x1="65.112" transform="translate(4888.648 -179.255)" fill="none" stroke="#0ac4bf" stroke-miterlimit="10" stroke-width="1"/><path d="M4884.466-179.255a4.926,4.926,0,0,0-.037-.6,4.82,4.82,0,0,0-4.782-4.221,4.818,4.818,0,0,0-4.819,4.819,4.819,4.819,0,0,0,4.819,4.819A4.819,4.819,0,0,0,4884.466-179.255Z" fill="#0ac4bf"/><path d="M4888.718-218.991a9.317,9.317,0,0,0-.069-1.126,9.074,9.074,0,0,0-9-7.945,9.071,9.071,0,0,0-9.071,9.071,9.07,9.07,0,0,0,9.071,9.07A9.071,9.071,0,0,0,4888.718-218.991Z" fill="none" stroke="#0ac4bf" stroke-miterlimit="10" stroke-width="1"/><line x1="65.112" transform="translate(4888.648 -218.991)" fill="none" stroke="#0ac4bf" stroke-miterlimit="10" stroke-width="1"/><path d="M4884.466-218.991a4.926,4.926,0,0,0-.037-.6,4.819,4.819,0,0,0-4.782-4.221,4.818,4.818,0,0,0-4.819,4.819,4.819,4.819,0,0,0,4.819,4.819A4.819,4.819,0,0,0,4884.466-218.991Z" fill="#0ac4bf"/><path d="M4888.718-262.517a9.3,9.3,0,0,0-.069-1.125,9.073,9.073,0,0,0-9-7.945,9.07,9.07,0,0,0-9.071,9.07,9.071,9.071,0,0,0,9.071,9.071A9.071,9.071,0,0,0,4888.718-262.517Z" fill="none" stroke="#0ac4bf" stroke-miterlimit="10" stroke-width="1"/><line x1="65.112" transform="translate(4888.648 -262.517)" fill="none" stroke="#0ac4bf" stroke-miterlimit="10" stroke-width="1"/><path d="M4884.466-262.517a4.91,4.91,0,0,0-.037-.6,4.819,4.819,0,0,0-4.782-4.221,4.818,4.818,0,0,0-4.819,4.818,4.818,4.818,0,0,0,4.819,4.819A4.819,4.819,0,0,0,4884.466-262.517Z" fill="#0ac4bf"/><text transform="translate(4898.41 -272.35)" font-size="16" font-family="Roboto-Regular, Roboto"><tspan x="0" y="0">Alimentación principal</tspan></text><text transform="translate(4898.793 -228.774)" font-size="16" font-family="Roboto-Regular, Roboto"><tspan x="0" y="0">10 P.P.P.</tspan></text><text transform="translate(4903.285 -185.198)" font-size="16" font-family="Roboto-Regular, Roboto"><tspan x="0" y="0">6 P.P.P.</tspan></text><path d="M4606.546-292.354l-.756-5.864,7.843-4.719,5.858,4.252,7.937-5.1,6.331,5.007,5.48-4.44,6.142,4.535,7.275-5.1,5.1,4.441,7.842-3.969,4.914,3.874,6.8-3.779,10.724,6.377-6.189,7.8s-50.173,5.008-50.835,5.2S4606.546-292.354,4606.546-292.354Z" fill="#fff" stroke="#333" stroke-linecap="round" stroke-linejoin="round" stroke-width="2"/><path d="M4603.853-270.906l-7.937,13.89s.142,2.126,7.937.851,8.646-.992,14.74.992,21.26,0,21.26,0l8.646-6.378s2.551-20.126,16.866-21.827,17.716-.709,21.26-6.236,1.417-7.229,1.417-7.229-4.677,5.245-9.921,5.1-7.795-5.1-7.795-5.1-2.977,3.4-2.552,5.386-9.637-2.267-10.63-4.677-1.842,5.1-1.842,5.1-10.772-3.686-11.48-5.812-2.977,4.678-2.552,5.528-10.063-4.362-10.063-5.937-3.968,5.654-2.551,6.646-9.921-3.969-10.2-5.67-2.268,4.252-2.268,4.252-8.788-1.549-9.921-5.451-3.4,8.853-3.4,8.853Z" fill="#fff" stroke="#333" stroke-linecap="round" stroke-linejoin="round" stroke-width="2"/><path d="M4669.645-283.847s-18.312.091-23.036,7.178-6.29,21.152-6.29,21.152" fill="none" stroke="#333" stroke-linecap="round" stroke-linejoin="round" stroke-width="2"/><line y1="7.244" x2="9.249" transform="translate(4618.179 -303.787)" fill="#fff" stroke="#333" stroke-linecap="round" stroke-linejoin="round" stroke-width="2"/><line y1="5.747" x2="8.136" transform="translate(4631.103 -303.22)" fill="#fff" stroke="#333" stroke-linecap="round" stroke-linejoin="round" stroke-width="2"/><line y1="6.535" x2="9.26" transform="translate(4643.396 -303.787)" fill="#fff" stroke="#333" stroke-linecap="round" stroke-linejoin="round" stroke-width="2"/><line y1="7.039" x2="9.205" transform="translate(4656.396 -303.315)" fill="#fff" stroke="#333" stroke-linecap="round" stroke-linejoin="round" stroke-width="2"/><path d="M1.834,0H71.986A1.834,1.834,0,0,1,73.82,1.834v0A24.171,24.171,0,0,1,49.649,26.006H24.171A24.171,24.171,0,0,1,0,1.834v0A1.834,1.834,0,0,1,1.834,0Z" transform="translate(4597.271 -187.958)" fill="#fff" stroke="#333" stroke-linecap="round" stroke-linejoin="round" stroke-width="1.5" stroke-dasharray="8"/><path d="M4646.174-189.988l-.762-.73-2.81,2.931,3.128,2.589.673-.812-2.255-1.866Z"/><path d="M4662.331-189.988l-.761-.73-2.81,2.931,3.128,2.589.672-.812-2.254-1.866Z"/><path d="M4630.512-189.988l-.761-.73-2.81,2.931,3.128,2.589.672-.812-2.254-1.866Z"/><path d="M4614.426-189.988l-.761-.73-2.811,2.931,3.128,2.589.673-.812-2.255-1.866Z"/><path d="M4596.96-189.367l-1.044.15.576,4.019,3.967-.868-.225-1.03-2.859.626Z"/><path d="M4599.352-171.323l.022,1.055,4.06-.085-.381-4.043-1.05.1.275,2.913Z"/><path d="M4612.8-161.3l.465.947,3.644-1.791-2.052-3.5-.91.533,1.479,2.525Z"/><path d="M4629.146-159.953l.718.772,2.974-2.765-2.974-2.765-.718.772,2.144,1.992Z"/><path d="M4646.4-159.953l.718.772,2.974-2.765-2.974-2.765-.718.772,2.144,1.992Z"/><path d="M4662.827-165.277l1.054.05.191-4.056-4.059.105.027,1.054,2.925-.076Z"/><path d="M4672.116-179.393l.933-.492-1.9-3.591-3.443,2.152.559.894,2.481-1.552Z"/><path d="M0,0H47.93a0,0,0,0,1,0,0V2.6A22.328,22.328,0,0,1,25.6,24.932H22.328A22.328,22.328,0,0,1,0,2.6V0A0,0,0,0,1,0,0Z" transform="translate(4610.496 -233.163)" fill="#fff" stroke="#333" stroke-linecap="round" stroke-linejoin="round" stroke-width="1.5" stroke-dasharray="8"/><path d="M4619.261-235.193l-.761-.73-2.81,2.931,3.128,2.589.672-.812-2.254-1.866Z"/><path d="M4609-225.587l-.615.857,3.3,2.368,2.122-3.462-.9-.551-1.529,2.5Z"/><path d="M4617.844-210.986l.257,1.023,3.938-.988-1.272-3.856-1,.331.917,2.779Z"/><path d="M4634.25-206.239l.718.772,2.974-2.765L4634.968-211l-.718.772,2.144,1.992Z"/><path d="M4649.4-209.874l1.051.091.35-4.045-4.06-.054-.014,1.055,2.926.038Z"/><path d="M4659.768-224.259l.813-.671L4658-228.062l-2.936,2.8.729.763,2.116-2.022Z"/><path d="M4635.229-235.193l-.762-.73-2.81,2.931,3.128,2.589.673-.812-2.255-1.866Z"/><path d="M4651.1-235.193l-.762-.73-2.81,2.931,3.128,2.589.673-.812-2.255-1.866Z"/><path d="M1.834,0H71.986A1.834,1.834,0,0,1,73.82,1.834v0A24.171,24.171,0,0,1,49.649,26.006H24.171A24.171,24.171,0,0,1,0,1.834v0A1.834,1.834,0,0,1,1.834,0Z" transform="translate(4769.137 -231.815)" fill="#fff" stroke="#333" stroke-linecap="round" stroke-linejoin="round" stroke-width="1.5" stroke-dasharray="8"/><path d="M4818.04-233.845l-.761-.73-2.81,2.931,3.128,2.589.672-.812-2.254-1.866Z"/><path d="M4834.2-233.845l-.761-.73-2.811,2.931,3.128,2.589.673-.812-2.255-1.866Z"/><path d="M4802.378-233.845l-.762-.73-2.81,2.931,3.128,2.589.673-.812-2.255-1.866Z"/><path d="M4786.292-233.845l-.761-.73-2.81,2.931,3.128,2.589.672-.812-2.254-1.866Z"/><path d="M4768.826-233.224l-1.044.15.576,4.019,3.967-.868-.226-1.03-2.858.626Z"/><path d="M4771.218-215.18l.022,1.055,4.06-.085-.381-4.043-1.05.1.275,2.913Z"/><path d="M4784.667-205.158l.465.947,3.644-1.791-2.052-3.5-.91.533,1.479,2.525Z"/><path d="M4801.012-203.809l.718.772,2.974-2.765-2.974-2.765-.718.772,2.144,1.992Z"/><path d="M4818.268-203.809l.718.772,2.974-2.765-2.974-2.765-.718.772,2.144,1.992Z"/><path d="M4834.693-209.134l1.053.05.191-4.056-4.06.105.027,1.054,2.925-.076Z"/><path d="M4843.982-223.25l.933-.492-1.9-3.591-3.443,2.152.559.894,2.481-1.552Z"/><path d="M0,0H47.93a0,0,0,0,1,0,0V2.6A22.328,22.328,0,0,1,25.6,24.932H22.328A22.328,22.328,0,0,1,0,2.6V0A0,0,0,0,1,0,0Z" transform="translate(4779.377 -184.801)" fill="#fff" stroke="#333" stroke-linecap="round" stroke-linejoin="round" stroke-width="1.5" stroke-dasharray="8"/><path d="M4788.142-186.831l-.761-.73-2.81,2.931,3.128,2.589.672-.812-2.254-1.866Z"/><path d="M4777.879-177.226l-.615.857,3.3,2.368,2.122-3.462-.9-.551-1.529,2.5Z"/><path d="M4786.726-162.624l.256,1.023,3.938-.988-1.272-3.856-1,.331.917,2.779Z"/><path d="M4803.131-157.877l.718.772,2.974-2.765-2.974-2.765-.718.772,2.144,1.992Z"/><path d="M4818.282-161.512l1.051.091.35-4.045-4.06-.054-.014,1.055,2.926.038Z"/><path d="M4828.649-175.9l.813-.671-2.583-3.133-2.936,2.805.729.763,2.116-2.022Z"/><path d="M4804.111-186.831l-.761-.73-2.811,2.931,3.128,2.589.673-.812-2.255-1.866Z"/><path d="M4819.985-186.831l-.761-.73-2.811,2.931,3.128,2.589.673-.812-2.255-1.866Z"/><path d="M4857.164-300.989l-6.8,3.779-4.914-3.874-7.842,3.969-5.1-4.441-7.276,5.1-6.141-4.535-5.48,4.441-6.331-5.008-7.937,5.1-5.858-4.252-3.453,2.078-4.39-3.18-6.486,4.174-6.339-4.812-10.7,7.425s3.9,7.528,4.11,7.883,8.575,1.417,8.575,1.417l2.627-4.723.137.329s2.551,1.488,3.118,1.418c.26-.033,2.783-1.733,5.439-3.565l.276,2.139s23.811,8.693,24.472,8.5,50.835-5.2,50.835-5.2l6.189-7.795Z" fill="#fff" stroke="#333" stroke-linecap="round" stroke-linejoin="round" stroke-width="2"/><path d="M4867.889-294.611s-4.677,5.244-9.921,5.1-7.8-5.1-7.8-5.1-2.976,3.4-2.551,5.386-9.637-2.268-10.63-4.678-1.842,5.1-1.842,5.1-10.772-3.685-11.481-5.811-2.976,4.677-2.551,5.527-10.063-4.362-10.063-5.937-3.968,5.654-2.551,6.646-9.921-3.969-10.205-5.669-2.268,4.252-2.268,4.252-8.787-1.55-9.92-5.452c-.653-2.247-1.682,1.027-2.437,4.211l-8.239-4.209-2.457,5.671-10.866-5.45c-2.268,1.354-1.606,12.82-1.606,12.82,23.905,4.441,22.2,28.916,22.2,28.916s9.13,1.165,15.318,1.509c6.4.355,21.674-1.166,21.674-1.166l8.645-6.378s2.552-20.126,16.867-21.827,17.716-.708,21.259-6.236S4867.889-294.611,4867.889-294.611Z" fill="#fff" stroke="#333" stroke-linecap="round" stroke-linejoin="round" stroke-width="2"/><path d="M4849.492-281.616s-18.312.091-23.036,7.178-6.291,21.153-6.291,21.153" fill="none" stroke="#333" stroke-linecap="round" stroke-linejoin="round" stroke-width="2"/><line y1="7.244" x2="9.249" transform="translate(4798.025 -301.556)" fill="#fff" stroke="#333" stroke-linecap="round" stroke-linejoin="round" stroke-width="2"/><line y1="5.747" x2="8.136" transform="translate(4810.95 -300.989)" fill="#fff" stroke="#333" stroke-linecap="round" stroke-linejoin="round" stroke-width="2"/><line y1="6.535" x2="9.26" transform="translate(4823.243 -301.556)" fill="#fff" stroke="#333" stroke-linecap="round" stroke-linejoin="round" stroke-width="2"/><line y1="7.039" x2="9.205" transform="translate(4836.243 -301.084)" fill="#fff" stroke="#333" stroke-linecap="round" stroke-linejoin="round" stroke-width="2"/><line y1="4.366" x2="7.218" transform="translate(4785.242 -300.092)" fill="#fff" stroke="#333" stroke-linecap="round" stroke-linejoin="round" stroke-width="2"/><line y1="5.747" x2="8.931" transform="translate(4775.434 -300.989)" fill="#fff" stroke="#333" stroke-linecap="round" stroke-linejoin="round" stroke-width="2"/></g></svg>