<svg xmlns="http://www.w3.org/2000/svg" width="715" height="202" viewBox="0 0 715 202"><g transform="translate(-4368.218 661.362)"><rect width="715" height="202" transform="translate(4368.218 -661.362)" fill="#fff"/><path d="M4860.3-502.472h-42.381a1.15,1.15,0,0,1-1.15-1.15,22.367,22.367,0,0,1,22.341-22.341,22.367,22.367,0,0,1,22.341,22.341A1.151,1.151,0,0,1,4860.3-502.472Zm-41.2-2.3h40.016a20.066,20.066,0,0,0-20.008-18.891A20.065,20.065,0,0,0,4819.1-504.772Z"/><path d="M4859.944-491.523h-41.675a6.633,6.633,0,0,1-6.625-6.625,6.632,6.632,0,0,1,6.625-6.624h41.675a6.632,6.632,0,0,1,6.624,6.624A6.632,6.632,0,0,1,4859.944-491.523Zm-41.675-10.949a4.329,4.329,0,0,0-4.324,4.324,4.329,4.329,0,0,0,4.324,4.324h41.675a4.329,4.329,0,0,0,4.324-4.324,4.329,4.329,0,0,0-4.324-4.324Z"/><path d="M4842.965-544.1a3.859,3.859,0,0,1-3.858,3.859,3.859,3.859,0,0,1-3.859-3.859,3.858,3.858,0,0,1,3.859-3.858A3.858,3.858,0,0,1,4842.965-544.1Z"/><path d="M4839.107-523.663a1.15,1.15,0,0,1-1.15-1.15v-16.8a1.15,1.15,0,0,1,1.15-1.15,1.149,1.149,0,0,1,1.15,1.15v16.8A1.149,1.149,0,0,1,4839.107-523.663Z"/><circle cx="3.859" cy="3.859" r="3.859" transform="translate(4812.971 -532.857)"/><path d="M4825.754-518.923a1.15,1.15,0,0,1-.813-.337l-7.165-7.165a1.151,1.151,0,0,1,0-1.627,1.15,1.15,0,0,1,1.626,0l7.165,7.165a1.149,1.149,0,0,1,0,1.627A1.148,1.148,0,0,1,4825.754-518.923Z"/><path d="M4871.2-529.169a3.859,3.859,0,0,1-5.457,0,3.859,3.859,0,0,1,0-5.457,3.859,3.859,0,0,1,5.457,0A3.859,3.859,0,0,1,4871.2-529.169Z"/><path d="M4854.834-517.107a1.146,1.146,0,0,1-.813-.337,1.149,1.149,0,0,1,0-1.626l11.881-11.881a1.151,1.151,0,0,1,1.627,0,1.149,1.149,0,0,1,0,1.626l-11.882,11.881A1.144,1.144,0,0,1,4854.834-517.107Z"/><path d="M4613.014-502.472h-42.381a1.15,1.15,0,0,1-1.15-1.15,22.366,22.366,0,0,1,22.34-22.341,22.366,22.366,0,0,1,22.341,22.341A1.15,1.15,0,0,1,4613.014-502.472Zm-41.2-2.3h40.015a20.065,20.065,0,0,0-20.008-18.891A20.065,20.065,0,0,0,4571.816-504.772Z"/><path d="M4612.66-491.523h-41.674a6.633,6.633,0,0,1-6.625-6.625,6.632,6.632,0,0,1,6.625-6.624h41.674a6.632,6.632,0,0,1,6.625,6.624A6.633,6.633,0,0,1,4612.66-491.523Zm-41.674-10.949a4.329,4.329,0,0,0-4.325,4.324,4.329,4.329,0,0,0,4.325,4.324h41.674a4.329,4.329,0,0,0,4.325-4.324,4.329,4.329,0,0,0-4.325-4.324Z"/><path d="M4595.682-544.1a3.859,3.859,0,0,1-3.859,3.859,3.859,3.859,0,0,1-3.859-3.859,3.859,3.859,0,0,1,3.859-3.858A3.858,3.858,0,0,1,4595.682-544.1Z"/><path d="M4591.823-523.663a1.15,1.15,0,0,1-1.15-1.15v-16.8a1.15,1.15,0,0,1,1.15-1.15,1.15,1.15,0,0,1,1.151,1.15v16.8A1.15,1.15,0,0,1,4591.823-523.663Z"/><circle cx="3.859" cy="3.859" r="3.859" transform="translate(4565.687 -532.857)"/><path d="M4578.471-518.923a1.149,1.149,0,0,1-.814-.337l-7.164-7.165a1.149,1.149,0,0,1,0-1.627,1.15,1.15,0,0,1,1.626,0l7.165,7.165a1.151,1.151,0,0,1,0,1.627A1.15,1.15,0,0,1,4578.471-518.923Z"/><path d="M4623.92-529.169a3.859,3.859,0,0,1-5.457,0,3.859,3.859,0,0,1,0-5.457,3.859,3.859,0,0,1,5.457,0A3.859,3.859,0,0,1,4623.92-529.169Z"/><path d="M4607.551-517.107a1.146,1.146,0,0,1-.814-.337,1.15,1.15,0,0,1,0-1.626l11.882-11.881a1.15,1.15,0,0,1,1.626,0,1.148,1.148,0,0,1,0,1.626l-11.881,11.881A1.144,1.144,0,0,1,4607.551-517.107Z"/><path d="M4867.907-563.426a.978.978,0,0,1,0-1.385L4893.4-590.3a.979.979,0,0,1,1.384,0,.979.979,0,0,1,0,1.385l-25.491,25.491A.979.979,0,0,1,4867.907-563.426Z"/><path d="M4891.4-539.932a.98.98,0,0,1,0-1.385l23.646-23.645a.978.978,0,0,1,1.384,0,.979.979,0,0,1,0,1.385l-23.645,23.645A.98.98,0,0,1,4891.4-539.932Z"/><path d="M4879.654-551.679a.979.979,0,0,1,0-1.385l26.875-26.875a.979.979,0,0,1,1.385,0,.979.979,0,0,1,0,1.384l-26.876,26.876A.979.979,0,0,1,4879.654-551.679Z"/><path d="M4893.4-588.917a4.124,4.124,0,0,1,0-5.827,4.124,4.124,0,0,1,5.827,0,4.126,4.126,0,0,1,0,5.827A4.126,4.126,0,0,1,4893.4-588.917Zm4.442-4.443a2.164,2.164,0,0,0-3.058,0,2.164,2.164,0,0,0,0,3.058,2.164,2.164,0,0,0,3.058,0A2.164,2.164,0,0,0,4897.84-593.36Z"/><path d="M4909.205-575.88l-5.351-5.351a2.45,2.45,0,0,1,0-3.461,2.452,2.452,0,0,1,3.462,0l5.351,5.351a2.451,2.451,0,0,1,0,3.462A2.451,2.451,0,0,1,4909.205-575.88Zm-3.274-7.427a.49.49,0,0,0-.692,0,.49.49,0,0,0,0,.692l5.351,5.351a.49.49,0,0,0,.692,0,.49.49,0,0,0,0-.692Z"/><path d="M4915.046-563.577a.981.981,0,0,1-.268-.879l.869-4.474a4.288,4.288,0,0,1,2.689-3.192,3.973,3.973,0,0,1,3.836.506,4.628,4.628,0,0,1,.913.912,3.975,3.975,0,0,1,.506,3.837,4.288,4.288,0,0,1-3.192,2.689l-4.473.87A.981.981,0,0,1,4915.046-563.577Zm6.231-6.23a2.616,2.616,0,0,0-.28-.243,2,2,0,0,0-1.958-.244,2.372,2.372,0,0,0-1.47,1.738l-.592,3.049,3.048-.593a2.37,2.37,0,0,0,1.738-1.471,2,2,0,0,0-.244-1.958A2.722,2.722,0,0,0,4921.277-569.807Z"/><path d="M4566.375-563.426a.98.98,0,0,0,0-1.385L4540.883-590.3a.979.979,0,0,0-1.384,0,.98.98,0,0,0,0,1.385l25.491,25.491A.98.98,0,0,0,4566.375-563.426Z"/><path d="M4542.881-539.932a.98.98,0,0,0,0-1.385l-23.645-23.645a.979.979,0,0,0-1.385,0,.979.979,0,0,0,0,1.385l23.645,23.645A.98.98,0,0,0,4542.881-539.932Z"/><path d="M4554.627-551.679a.979.979,0,0,0,0-1.385l-26.875-26.875a.978.978,0,0,0-1.385,0,.978.978,0,0,0,0,1.384l26.876,26.876A.979.979,0,0,0,4554.627-551.679Z"/><path d="M4535.057-588.917a4.125,4.125,0,0,1,0-5.827,4.124,4.124,0,0,1,5.827,0,4.123,4.123,0,0,1,0,5.827A4.124,4.124,0,0,1,4535.057-588.917Zm1.384-1.385a2.165,2.165,0,0,0,3.058,0,2.165,2.165,0,0,0,0-3.058,2.165,2.165,0,0,0-3.058,0A2.165,2.165,0,0,0,4536.441-590.3Z"/><path d="M4521.615-575.879a2.45,2.45,0,0,1,0-3.462l5.351-5.351a2.45,2.45,0,0,1,3.461,0,2.45,2.45,0,0,1,0,3.461l-5.351,5.351A2.449,2.449,0,0,1,4521.615-575.879Zm1.384-2.077a.49.49,0,0,0,0,.692.489.489,0,0,0,.692,0l5.351-5.351a.49.49,0,0,0,0-.692.489.489,0,0,0-.692,0Z"/><path d="M4518.356-563.308l-4.473-.87a4.284,4.284,0,0,1-3.192-2.689,3.976,3.976,0,0,1,.5-3.837,4.655,4.655,0,0,1,.913-.912,3.976,3.976,0,0,1,3.837-.506,4.29,4.29,0,0,1,2.689,3.192l.869,4.474a.982.982,0,0,1-.269.879A.98.98,0,0,1,4518.356-563.308Zm-5.594-6.221a2,2,0,0,0-.244,1.958,2.37,2.37,0,0,0,1.738,1.471l3.049.593-.592-3.049a2.372,2.372,0,0,0-1.471-1.738,2,2,0,0,0-1.957.244,2.679,2.679,0,0,0-.281.243A2.717,2.717,0,0,0,4512.762-569.529Z"/><rect width="123.591" height="34.439" rx="6.044" transform="translate(4658.004 -525.963)" fill="none" stroke="#333" stroke-linecap="square" stroke-linejoin="round" stroke-width="3"/><line x2="62.929" transform="translate(4660.012 -508.743)" fill="none" stroke="#333" stroke-linecap="square" stroke-linejoin="round" stroke-width="3"/><line x2="39.648" transform="translate(4726.862 -508.652)" fill="none" stroke="#333" stroke-linecap="square" stroke-linejoin="round" stroke-width="3"/><path d="M4781.6-526.913v-65.7s.685-16.126-19.913-19.717-83.717,0-83.717,0-17.318-1.134-19.961,18.9v28.724h22.607s-3.024-16.252,8.5-16.252H4728.8s7.723.378,7.168,10.394,0,44.6,0,44.6" fill="none" stroke="#333" stroke-linecap="square" stroke-linejoin="round" stroke-width="3"/><line y2="18.142" transform="translate(4747.061 -628.772)" fill="none" stroke="#333" stroke-linecap="square" stroke-linejoin="round" stroke-width="3"/><line y2="11.117" transform="translate(4700.751 -601.794)" fill="none" stroke="#333" stroke-linecap="square" stroke-linejoin="round" stroke-width="3"/><line y2="11.117" transform="translate(4673.653 -594.906)" fill="none" stroke="#333" stroke-linecap="square" stroke-linejoin="round" stroke-width="3"/><circle cx="10.205" cy="10.205" r="10.205" transform="translate(4748.351 -590.409)" fill="none" stroke="#333" stroke-linecap="square" stroke-linejoin="round" stroke-width="3"/><circle cx="10.205" cy="10.205" r="10.205" transform="translate(4748.351 -558.186)" fill="none" stroke="#333" stroke-linecap="square" stroke-linejoin="round" stroke-width="3"/><path d="M4781.6-585.874h11.834V-552h-11.2" fill="none" stroke="#333" stroke-linecap="square" stroke-linejoin="round" stroke-width="3"/><path d="M4663.414-564.709v9.162s.256,5.332,6.568,5.474,6.471-5.474,6.471-5.474v-9.54" fill="none" stroke="#333" stroke-linecap="square" stroke-linejoin="round" stroke-width="3"/><line y1="22.094" transform="translate(4669.934 -550.073)" fill="none" stroke="#333" stroke-linecap="square" stroke-linejoin="round" stroke-width="3"/></g></svg>