<svg xmlns="http://www.w3.org/2000/svg" width="189" height="92.042" viewBox="0 0 189 92.042"><g transform="translate(-285 -7715)"><g transform="translate(-7942.477 7460.049)"><circle cx="46.021" cy="46.021" r="46.021" transform="translate(8280.425 254.951)" fill="#bf3976"/><path d="M8298.733,337.71a46.027,46.027,0,0,0,71.643-22.989Z" fill="#931454"/><path d="M8372.467,300.972a45.8,45.8,0,0,0-6.23-23.112H8263.589v46.224h102.647A45.786,45.786,0,0,0,8372.467,300.972Z" fill="#fff" stroke="#515151" stroke-miterlimit="10" stroke-width="1.571"/><path d="M8281.47,319.935l1.447.779,2.226,2.115,26.492-19.7" fill="none" stroke="#515151" stroke-linecap="round" stroke-linejoin="round" stroke-width="1.571" stroke-dasharray="3.141"/><path d="M8274.31,319.935l1.447.779,2.226,2.115,26.492-19.7" fill="none" stroke="#515151" stroke-linecap="round" stroke-linejoin="round" stroke-width="1.571" stroke-dasharray="3.141"/><path d="M8265.737,319.935l1.447.779,2.227,2.115,26.492-19.7" fill="none" stroke="#515151" stroke-linecap="round" stroke-linejoin="round" stroke-width="1.571" stroke-dasharray="3.141"/><path d="M8298.565,319.935l1.447.779,2.226,2.115,26.492-19.7" fill="none" stroke="#515151" stroke-linecap="round" stroke-linejoin="round" stroke-width="1.571" stroke-dasharray="3.141"/><path d="M8289.392,319.935l1.447.779,2.227,2.115,26.492-19.7" fill="none" stroke="#515151" stroke-linecap="round" stroke-linejoin="round" stroke-width="1.571" stroke-dasharray="3.141"/><path d="M8314.922,319.935l1.447.779,2.226,2.115,26.492-19.7" fill="none" stroke="#515151" stroke-linecap="round" stroke-linejoin="round" stroke-width="1.571" stroke-dasharray="3.141"/><path d="M8307.762,319.935l1.447.779,2.226,2.115,26.492-19.7" fill="none" stroke="#515151" stroke-linecap="round" stroke-linejoin="round" stroke-width="1.571" stroke-dasharray="3.141"/><path d="M8332.018,319.935l1.447.779,2.226,2.115,26.492-19.7" fill="none" stroke="#515151" stroke-linecap="round" stroke-linejoin="round" stroke-width="1.571" stroke-dasharray="3.141"/><path d="M8322.844,319.935l1.447.779,2.227,2.115,26.492-19.7" fill="none" stroke="#515151" stroke-linecap="round" stroke-linejoin="round" stroke-width="1.571" stroke-dasharray="3.141"/><path d="M8347.507,319.935l1.447.779,2.227,2.115,18.286-14.14" fill="none" stroke="#515151" stroke-linecap="round" stroke-linejoin="round" stroke-width="1.571" stroke-dasharray="3.141"/><path d="M8340.347,319.935l1.447.779,2.226,2.115,26.492-19.7" fill="none" stroke="#515151" stroke-linecap="round" stroke-linejoin="round" stroke-width="1.571" stroke-dasharray="3.141"/><path d="M8355.43,319.935l1.446.779,2.227,2.115,9.23-7.846" fill="none" stroke="#515151" stroke-linecap="round" stroke-linejoin="round" stroke-width="1.571" stroke-dasharray="3.141"/><circle cx="23.112" cy="23.112" r="23.112" transform="translate(8240.477 277.86)" fill="#fff" stroke="#515151" stroke-miterlimit="10" stroke-width="1.571"/></g><rect width="189" height="92" transform="translate(285 7715)" fill="none"/></g></svg>