<svg xmlns="http://www.w3.org/2000/svg" width="190" height="150" viewBox="0 0 190 150"><g transform="translate(8662.999 2765)"><g transform="translate(-10886.047 -3468.158)"><path d="M0,0H190V150H0Z" transform="translate(2223.048 703.157)" fill="#f1f1ef"/><g transform="translate(0 -10)"><rect width="160.983" height="30.13" transform="translate(2238.855 788.996)" fill="#bf3976"/><path d="M2247.791,800.252v-34.41l41.771,34.41Z" fill="#bf3976"/><path d="M2287.442,800.252v-34.41l41.771,34.41Z" fill="#bf3976"/><path d="M2325.764,800.252v-34.41l41.771,34.41Z" fill="#bf3976"/><path d="M2364.617,800.252v-34.41l30.862,25.424-11.8,8.986Z" fill="#bf3976"/><path d="M2317.712,786.555c-1.781,0-3.512-1.577-4.735-2.868-1.034-1.091-2.2-2.506-3.559-4.146-2.071-2.507-4.65-5.627-8.129-9.3-9.124-9.635-12.544-10.548-13.764-10.232-1.079.275-1.653,2.137-2.149,4.019-.364,1.386-.789,3.656-1.24,6.059-.7,3.726-1.488,7.949-2.419,11.011a4.48,4.48,0,0,1-3.256,3.017,5.572,5.572,0,0,1-5.172-1.2c-3.542-3.346-9.025-9.253-13.863-14.464-4.433-4.774-8.619-9.283-10.49-10.947-4.251-3.777-9.409-1.461-9.462-1.438l-1.238-2.679c.282-.133,6.982-3.138,12.66,1.911,1.978,1.757,6.017,6.108,10.694,11.145,4.807,5.178,10.255,11.046,13.727,14.327a2.669,2.669,0,0,0,2.387.493,1.577,1.577,0,0,0,1.188-1.02c.883-2.908,1.659-7.046,2.343-10.7.479-2.564.895-4.778,1.287-6.268.566-2.15,1.421-5.4,4.271-6.128,3.482-.889,8.453,2.419,16.639,11.063,3.549,3.746,6.162,6.909,8.262,9.45,1.321,1.6,2.461,2.978,3.426,4,1.9,2.007,2.6,1.943,2.6,1.944,1.094-.691,1.081-7.455,1.074-11.089-.015-6.953-.027-12.958,2.713-14.918a3.555,3.555,0,0,1,3.373-.374c4.287,1.474,10.3,7.161,16.66,13.182,3.757,3.556,7.3,6.914,10.271,9.16,3.875,2.934,4.785,2.4,4.794,2.394,1.42-1.29,1.53-6.73,1.618-11.1.125-6.185.233-11.528,3-13.273a4.041,4.041,0,0,1,4.007-.032c3.34,1.506,8.264,5.63,13.476,9.995,6.213,5.2,15.6,13.076,18.127,11.8l1.321,2.641c-3.966,1.984-10.711-3.278-21.343-12.183-4.83-4.045-9.825-8.227-12.794-9.567-.393-.177-.921-.351-1.217-.163-1.42.9-1.536,6.642-1.621,10.837-.115,5.7-.224,11.083-2.584,13.228-3.324,3.019-9.119-2.169-19.08-11.6-5.581-5.281-11.907-11.268-15.589-12.534-.484-.166-.633-.062-.7-.016-1.5,1.074-1.487,7.956-1.478,12.51.016,7.845-.119,12.71-2.951,13.843A2.9,2.9,0,0,1,2317.712,786.555Z" fill="#0ac4bf"/><path d="M2352.058,770.684c-3.659,0-9.7-5.25-18.9-13.53-6.106-5.5-12.42-11.186-15.806-12.417-.186-.067-.432-.13-.548-.047-1.365.991-1.13,8.035-.99,12.242.259,7.748.278,12.182-2.338,13.234-1.986.795-3.992-1.049-5.514-2.747-.914-1.019-2.148-2.241-3.576-3.655-2.277-2.253-5.109-5.058-8.47-8.807-8.568-9.557-11.767-10.508-12.922-10.225-1.017.252-1.586,2.218-2.04,4.04-.346,1.391-.749,3.662-1.175,6.069-.661,3.722-1.409,7.941-2.288,11a4.342,4.342,0,0,1-3.194,3.031,5.158,5.158,0,0,1-4.88-1.24c-3.353-3.348-8.546-9.257-13.127-14.471-4.192-4.771-8.152-9.277-9.922-10.94a8.161,8.161,0,0,0-8.861-1.427l-1.253-2.584c.268-.132,6.667-3.167,12.08,1.918,1.871,1.757,5.69,6.1,10.113,11.137,4.553,5.181,9.713,11.053,13,14.335a2.317,2.317,0,0,0,2.132.492,1.52,1.52,0,0,0,1.153-1.045c.837-2.911,1.572-7.052,2.219-10.705.455-2.562.847-4.775,1.217-6.261.539-2.167,1.355-5.443,4.135-6.133,3.33-.834,8.041,2.492,15.753,11.1,3.3,3.685,6.1,6.455,8.351,8.682,1.46,1.446,2.722,2.7,3.693,3.778a6.7,6.7,0,0,0,2.314,1.956c.842-1.1.648-6.915.531-10.429-.266-7.949-.251-12.9,2.174-14.662a3.287,3.287,0,0,1,3.214-.327c3.912,1.42,10.147,7.036,16.749,12.981,5.334,4.8,15.238,13.756,17.123,12.748,1.366-1.313,1.015-7.454.759-11.938-.417-7.29-.551-11.839,1.851-13.453a3.537,3.537,0,0,1,3.678-.007c3.168,1.51,7.83,5.636,12.766,10,5.507,4.873,14.728,13.028,17.053,11.8l1.342,2.539c-3.813,2.012-10.211-3.26-20.3-12.186-4.571-4.044-9.3-8.226-12.1-9.562-.486-.232-.775-.247-.84-.2-1.165.783-.8,7.119-.585,10.905.366,6.411.683,11.946-1.64,14.175A2.962,2.962,0,0,1,2352.058,770.684Z" fill="#0ac4bf"/></g></g><text transform="translate(-8656 -2628)" font-size="14" font-family="Roboto-Regular, Roboto"><tspan x="0" y="0">Arrastre de material pesado </tspan></text></g></svg>