<svg xmlns="http://www.w3.org/2000/svg" width="400" height="181" viewBox="0 0 400 181">
  <g id="Grupo_56972" data-name="Grupo 56972" transform="translate(-180 -9372)">
    <g id="Grupo_57108" data-name="Grupo 57108" transform="translate(0 -6)">
      <rect id="Rectángulo_6295" data-name="Rectángulo 6295" width="400" height="181" transform="translate(180 9378)" fill="none"/>
      <g id="Grupo_56971" data-name="Grupo 56971" transform="translate(191.5 9387)">
        <path id="Trazado_102096" data-name="Trazado 102096" d="M7279.133-274.456l14.219-22.1h-8.183l14.218,22.1h-7.467" transform="translate(-7254.072 296.552)" fill="none" stroke="#bf3976" stroke-linecap="round" stroke-linejoin="round" stroke-width="2"/>
        <path id="Trazado_102097" data-name="Trazado 102097" d="M7291.688-274.456l14.219-22.1h-8.184l14.219,22.1h-7.467" transform="translate(-7254.072 296.552)" fill="none" stroke="#bf3976" stroke-linecap="round" stroke-linejoin="round" stroke-width="2"/>
        <path id="Trazado_102098" data-name="Trazado 102098" d="M7304.315-274.456l14.219-22.1h-8.184l14.219,22.1H7317.1" transform="translate(-7254.072 296.552)" fill="none" stroke="#bf3976" stroke-linecap="round" stroke-linejoin="round" stroke-width="2"/>
        <path id="Trazado_102099" data-name="Trazado 102099" d="M7316.87-274.456l14.219-22.1h-8.184l14.219,22.1h-7.467" transform="translate(-7254.072 296.552)" fill="none" stroke="#bf3976" stroke-linecap="round" stroke-linejoin="round" stroke-width="2"/>
        <path id="Trazado_102100" data-name="Trazado 102100" d="M7329.377-274.456l14.218-22.1h-8.183l14.219,22.1h-7.468" transform="translate(-7254.072 296.552)" fill="none" stroke="#bf3976" stroke-linecap="round" stroke-linejoin="round" stroke-width="2"/>
        <path id="Trazado_102101" data-name="Trazado 102101" d="M7341.932-274.456l14.219-22.1h-8.184l14.219,22.1h-7.467" transform="translate(-7254.072 296.552)" fill="none" stroke="#bf3976" stroke-linecap="round" stroke-linejoin="round" stroke-width="2"/>
        <path id="Trazado_102102" data-name="Trazado 102102" d="M7354.756-274.456l14.218-22.1h-8.183l14.219,22.1h-7.468" transform="translate(-7254.072 296.552)" fill="none" stroke="#bf3976" stroke-linecap="round" stroke-linejoin="round" stroke-width="2"/>
        <path id="Trazado_102103" data-name="Trazado 102103" d="M7367.311-274.456l14.219-22.1h-8.184l14.219,22.1H7380.1" transform="translate(-7254.072 296.552)" fill="none" stroke="#bf3976" stroke-linecap="round" stroke-linejoin="round" stroke-width="2"/>
        <path id="Trazado_102104" data-name="Trazado 102104" d="M7379.818-274.456l14.219-22.1h-8.184l14.219,22.1H7392.6" transform="translate(-7254.072 296.552)" fill="none" stroke="#bf3976" stroke-linecap="round" stroke-linejoin="round" stroke-width="2"/>
        <path id="Trazado_102105" data-name="Trazado 102105" d="M7392.372-274.456l14.219-22.1h-8.183l14.218,22.1h-7.467" transform="translate(-7254.072 296.552)" fill="none" stroke="#bf3976" stroke-linecap="round" stroke-linejoin="round" stroke-width="2"/>
        <path id="Trazado_102106" data-name="Trazado 102106" d="M7405.556-274.456l14.219-22.1h-8.184l14.219,22.1h-7.467" transform="translate(-7254.072 296.552)" fill="none" stroke="#bf3976" stroke-linecap="round" stroke-linejoin="round" stroke-width="2"/>
        <path id="Trazado_102107" data-name="Trazado 102107" d="M7418.111-274.456l14.218-22.1h-8.183l14.218,22.1H7430.9" transform="translate(-7254.072 296.552)" fill="none" stroke="#bf3976" stroke-linecap="round" stroke-linejoin="round" stroke-width="2"/>
        <path id="Trazado_102108" data-name="Trazado 102108" d="M7430.618-274.456l14.219-22.1h-8.184l14.219,22.1H7443.4" transform="translate(-7254.072 296.552)" fill="none" stroke="#bf3976" stroke-linecap="round" stroke-linejoin="round" stroke-width="2"/>
        <path id="Trazado_102109" data-name="Trazado 102109" d="M7443.172-274.456l14.219-22.1h-8.184l14.219,22.1h-7.467" transform="translate(-7254.072 296.552)" fill="none" stroke="#bf3976" stroke-linecap="round" stroke-linejoin="round" stroke-width="2"/>
        <path id="Trazado_102110" data-name="Trazado 102110" d="M7456.273-274.456l14.219-22.1h-8.184l14.219,22.1h-7.467" transform="translate(-7254.072 296.552)" fill="none" stroke="#bf3976" stroke-linecap="round" stroke-linejoin="round" stroke-width="2"/>
        <path id="Trazado_102111" data-name="Trazado 102111" d="M7468.828-274.456l14.219-22.1h-8.183l14.218,22.1h-7.467" transform="translate(-7254.072 296.552)" fill="none" stroke="#bf3976" stroke-linecap="round" stroke-linejoin="round" stroke-width="2"/>
        <path id="Trazado_102112" data-name="Trazado 102112" d="M7481.335-274.456l14.219-22.1h-8.184l14.219,22.1h-7.467" transform="translate(-7254.072 296.552)" fill="none" stroke="#bf3976" stroke-linecap="round" stroke-linejoin="round" stroke-width="2"/>
        <path id="Trazado_102113" data-name="Trazado 102113" d="M7493.89-274.456l14.219-22.1h-8.184l14.219,22.1h-7.467" transform="translate(-7254.072 296.552)" fill="none" stroke="#bf3976" stroke-linecap="round" stroke-linejoin="round" stroke-width="2"/>
        <path id="Trazado_102114" data-name="Trazado 102114" d="M7506.517-274.456l14.219-22.1h-8.184l14.219,22.1H7519.3" transform="translate(-7254.072 296.552)" fill="none" stroke="#bf3976" stroke-linecap="round" stroke-linejoin="round" stroke-width="2"/>
        <path id="Trazado_102115" data-name="Trazado 102115" d="M7519.072-274.456l14.218-22.1h-8.183l14.219,22.1h-7.467" transform="translate(-7254.072 296.552)" fill="none" stroke="#bf3976" stroke-linecap="round" stroke-linejoin="round" stroke-width="2"/>
        <path id="Trazado_102116" data-name="Trazado 102116" d="M7531.579-274.456l14.219-22.1h-8.184l14.219,22.1h-7.467" transform="translate(-7254.072 296.552)" fill="none" stroke="#bf3976" stroke-linecap="round" stroke-linejoin="round" stroke-width="2"/>
        <path id="Trazado_102117" data-name="Trazado 102117" d="M7544.133-274.456l14.219-22.1h-8.184l14.219,22.1h-7.467" transform="translate(-7254.072 296.552)" fill="none" stroke="#bf3976" stroke-linecap="round" stroke-linejoin="round" stroke-width="2"/>
        <path id="Trazado_102118" data-name="Trazado 102118" d="M7556.958-274.456l14.219-22.1h-8.183l14.218,22.1h-7.467" transform="translate(-7254.072 296.552)" fill="none" stroke="#bf3976" stroke-linecap="round" stroke-linejoin="round" stroke-width="2"/>
        <path id="Trazado_102119" data-name="Trazado 102119" d="M7569.512-274.456l14.219-22.1h-8.184l14.219,22.1H7582.3" transform="translate(-7254.072 296.552)" fill="none" stroke="#bf3976" stroke-linecap="round" stroke-linejoin="round" stroke-width="2"/>
        <path id="Trazado_102120" data-name="Trazado 102120" d="M7582.02-274.456l14.218-22.1h-8.183l14.219,22.1h-7.468" transform="translate(-7254.072 296.552)" fill="none" stroke="#bf3976" stroke-linecap="round" stroke-linejoin="round" stroke-width="2"/>
        <path id="Trazado_102121" data-name="Trazado 102121" d="M7594.574-274.456l14.219-22.1h-8.184l14.219,22.1h-7.467" transform="translate(-7254.072 296.552)" fill="none" stroke="#bf3976" stroke-linecap="round" stroke-linejoin="round" stroke-width="2"/>
        <path id="Trazado_102123" data-name="Trazado 102123" d="M7271.5-237.044a18.116,18.116,0,0,1-.806-5.372c0-9.027,6.528-16.345,14.58-16.345a14.149,14.149,0,0,1,11.841,6.806" transform="translate(-7254.072 300.532)" fill="none" stroke="#0ac4bf" stroke-linecap="round" stroke-linejoin="round" stroke-width="2"/>
        <path id="Trazado_102124" data-name="Trazado 102124" d="M7283.931-237.044a18.116,18.116,0,0,1-.805-5.372c0-9.027,6.527-16.345,14.58-16.345a14.149,14.149,0,0,1,11.84,6.806" transform="translate(-7254.072 300.532)" fill="none" stroke="#0ac4bf" stroke-linecap="round" stroke-linejoin="round" stroke-width="2"/>
        <path id="Trazado_102125" data-name="Trazado 102125" d="M7299.423-237.044a18.116,18.116,0,0,1-.806-5.372c0-9.027,6.528-16.345,14.58-16.345a14.149,14.149,0,0,1,11.841,6.806" transform="translate(-7254.072 300.532)" fill="none" stroke="#0ac4bf" stroke-linecap="round" stroke-linejoin="round" stroke-width="2"/>
        <path id="Trazado_102126" data-name="Trazado 102126" d="M7314.466-237.044a18.085,18.085,0,0,1-.806-5.372c0-9.027,6.527-16.345,14.58-16.345a14.149,14.149,0,0,1,11.84,6.806" transform="translate(-7254.072 300.532)" fill="none" stroke="#0ac4bf" stroke-linecap="round" stroke-linejoin="round" stroke-width="2"/>
        <path id="Trazado_102127" data-name="Trazado 102127" d="M7329.957-237.044a18.116,18.116,0,0,1-.806-5.372c0-9.027,6.528-16.345,14.58-16.345a14.149,14.149,0,0,1,11.841,6.806" transform="translate(-7254.072 300.532)" fill="none" stroke="#0ac4bf" stroke-linecap="round" stroke-linejoin="round" stroke-width="2"/>
        <path id="Trazado_102128" data-name="Trazado 102128" d="M7344.511-237.044a18.069,18.069,0,0,1-.806-5.372c0-9.027,6.527-16.345,14.58-16.345a14.149,14.149,0,0,1,11.84,6.806" transform="translate(-7254.072 300.532)" fill="none" stroke="#0ac4bf" stroke-linecap="round" stroke-linejoin="round" stroke-width="2"/>
        <path id="Trazado_102129" data-name="Trazado 102129" d="M7360-237.044a18.116,18.116,0,0,1-.806-5.372c0-9.027,6.528-16.345,14.58-16.345a14.15,14.15,0,0,1,11.841,6.806" transform="translate(-7254.072 300.532)" fill="none" stroke="#0ac4bf" stroke-linecap="round" stroke-linejoin="round" stroke-width="2"/>
        <path id="Trazado_102130" data-name="Trazado 102130" d="M7370.931-237.044a18.116,18.116,0,0,1-.806-5.372c0-9.027,6.528-16.345,14.58-16.345a14.149,14.149,0,0,1,11.841,6.806" transform="translate(-7254.072 300.532)" fill="none" stroke="#0ac4bf" stroke-linecap="round" stroke-linejoin="round" stroke-width="2"/>
        <path id="Trazado_102131" data-name="Trazado 102131" d="M7386.423-237.044a18.116,18.116,0,0,1-.806-5.372c0-9.027,6.528-16.345,14.58-16.345a14.151,14.151,0,0,1,11.841,6.806" transform="translate(-7254.072 300.532)" fill="none" stroke="#0ac4bf" stroke-linecap="round" stroke-linejoin="round" stroke-width="2"/>
        <path id="Trazado_102132" data-name="Trazado 102132" d="M7399.633-237.044a18.116,18.116,0,0,1-.806-5.372c0-9.027,6.528-16.345,14.58-16.345a14.149,14.149,0,0,1,11.841,6.806" transform="translate(-7254.072 300.532)" fill="none" stroke="#0ac4bf" stroke-linecap="round" stroke-linejoin="round" stroke-width="2"/>
        <path id="Trazado_102133" data-name="Trazado 102133" d="M7415.125-237.044a18.116,18.116,0,0,1-.806-5.372c0-9.027,6.528-16.345,14.58-16.345a14.152,14.152,0,0,1,11.841,6.806" transform="translate(-7254.072 300.532)" fill="none" stroke="#0ac4bf" stroke-linecap="round" stroke-linejoin="round" stroke-width="2"/>
        <path id="Trazado_102134" data-name="Trazado 102134" d="M7430.211-237.044a18.116,18.116,0,0,1-.805-5.372c0-9.027,6.527-16.345,14.579-16.345a14.15,14.15,0,0,1,11.841,6.806" transform="translate(-7254.072 300.532)" fill="none" stroke="#0ac4bf" stroke-linecap="round" stroke-linejoin="round" stroke-width="2"/>
        <path id="Trazado_102135" data-name="Trazado 102135" d="M7445.7-237.044a18.116,18.116,0,0,1-.806-5.372c0-9.027,6.528-16.345,14.58-16.345a14.149,14.149,0,0,1,11.841,6.806" transform="translate(-7254.072 300.532)" fill="none" stroke="#0ac4bf" stroke-linecap="round" stroke-linejoin="round" stroke-width="2"/>
        <path id="Trazado_102136" data-name="Trazado 102136" d="M7458.913-237.044a18.116,18.116,0,0,1-.806-5.372c0-9.027,6.528-16.345,14.58-16.345a14.149,14.149,0,0,1,11.841,6.806" transform="translate(-7254.072 300.532)" fill="none" stroke="#0ac4bf" stroke-linecap="round" stroke-linejoin="round" stroke-width="2"/>
        <path id="Trazado_102137" data-name="Trazado 102137" d="M7474.4-237.044a18.116,18.116,0,0,1-.806-5.372c0-9.027,6.528-16.345,14.58-16.345a14.149,14.149,0,0,1,11.841,6.806" transform="translate(-7254.072 300.532)" fill="none" stroke="#0ac4bf" stroke-linecap="round" stroke-linejoin="round" stroke-width="2"/>
        <path id="Trazado_102138" data-name="Trazado 102138" d="M7487.615-237.044a18.1,18.1,0,0,1-.806-5.372c0-9.027,6.528-16.345,14.58-16.345a14.149,14.149,0,0,1,11.841,6.806" transform="translate(-7254.072 300.532)" fill="none" stroke="#0ac4bf" stroke-linecap="round" stroke-linejoin="round" stroke-width="2"/>
        <path id="Trazado_102139" data-name="Trazado 102139" d="M7503.107-237.044a18.116,18.116,0,0,1-.806-5.372c0-9.027,6.528-16.345,14.58-16.345a14.15,14.15,0,0,1,11.841,6.806" transform="translate(-7254.072 300.532)" fill="none" stroke="#0ac4bf" stroke-linecap="round" stroke-linejoin="round" stroke-width="2"/>
        <path id="Trazado_102140" data-name="Trazado 102140" d="M7516.317-237.044a18.116,18.116,0,0,1-.806-5.372c0-9.027,6.528-16.345,14.58-16.345a14.15,14.15,0,0,1,11.841,6.806" transform="translate(-7254.072 300.532)" fill="none" stroke="#0ac4bf" stroke-linecap="round" stroke-linejoin="round" stroke-width="2"/>
        <path id="Trazado_102141" data-name="Trazado 102141" d="M7531.809-237.044a18.116,18.116,0,0,1-.806-5.372c0-9.027,6.528-16.345,14.58-16.345a14.149,14.149,0,0,1,11.841,6.806" transform="translate(-7254.072 300.532)" fill="none" stroke="#0ac4bf" stroke-linecap="round" stroke-linejoin="round" stroke-width="2"/>
        <path id="Trazado_102142" data-name="Trazado 102142" d="M7545.019-237.044a18.116,18.116,0,0,1-.806-5.372c0-9.027,6.528-16.345,14.58-16.345a14.149,14.149,0,0,1,11.841,6.806" transform="translate(-7254.072 300.532)" fill="none" stroke="#0ac4bf" stroke-linecap="round" stroke-linejoin="round" stroke-width="2"/>
        <path id="Trazado_102143" data-name="Trazado 102143" d="M7560.511-237.044a18.1,18.1,0,0,1-.806-5.372c0-9.027,6.528-16.345,14.58-16.345a14.149,14.149,0,0,1,11.841,6.806" transform="translate(-7254.072 300.532)" fill="none" stroke="#0ac4bf" stroke-linecap="round" stroke-linejoin="round" stroke-width="2"/>
        <path id="Trazado_102144" data-name="Trazado 102144" d="M7573.721-237.044a18.116,18.116,0,0,1-.806-5.372c0-9.027,6.528-16.345,14.58-16.345a14.149,14.149,0,0,1,11.841,6.806" transform="translate(-7254.072 300.532)" fill="none" stroke="#0ac4bf" stroke-linecap="round" stroke-linejoin="round" stroke-width="2"/>
        <path id="Trazado_102145" data-name="Trazado 102145" d="M7589.213-237.044a18.116,18.116,0,0,1-.806-5.372c0-9.027,6.528-16.345,14.58-16.345a14.151,14.151,0,0,1,11.841,6.806" transform="translate(-7254.072 300.532)" fill="none" stroke="#0ac4bf" stroke-linecap="round" stroke-linejoin="round" stroke-width="2"/>
        <line id="Línea_306" data-name="Línea 306" x1="10.456" y1="3.322" transform="translate(20.518 92.82)" fill="none" stroke="#339ce9" stroke-linecap="round" stroke-linejoin="round" stroke-width="2"/>
        <line id="Línea_307" data-name="Línea 307" y1="8.697" transform="translate(17.97 80.352)" fill="none" stroke="#339ce9" stroke-linecap="round" stroke-linejoin="round" stroke-width="2"/>
        <line id="Línea_308" data-name="Línea 308" y1="8.404" transform="translate(33.435 100.154)" fill="none" stroke="#339ce9" stroke-linecap="round" stroke-linejoin="round" stroke-width="2"/>
        <line id="Línea_309" data-name="Línea 309" y1="3.322" x2="10.456" transform="translate(35.292 92.82)" fill="none" stroke="#339ce9" stroke-linecap="round" stroke-linejoin="round" stroke-width="2"/>
        <line id="Línea_310" data-name="Línea 310" x1="10.456" y1="3.322" transform="translate(50.543 92.82)" fill="none" stroke="#339ce9" stroke-linecap="round" stroke-linejoin="round" stroke-width="2"/>
        <line id="Línea_311" data-name="Línea 311" y1="8.697" transform="translate(47.995 80.352)" fill="none" stroke="#339ce9" stroke-linecap="round" stroke-linejoin="round" stroke-width="2"/>
        <line id="Línea_312" data-name="Línea 312" y1="8.404" transform="translate(62.809 100.154)" fill="none" stroke="#339ce9" stroke-linecap="round" stroke-linejoin="round" stroke-width="2"/>
        <line id="Línea_313" data-name="Línea 313" y1="3.322" x2="10.456" transform="translate(64.666 92.82)" fill="none" stroke="#339ce9" stroke-linecap="round" stroke-linejoin="round" stroke-width="2"/>
        <line id="Línea_314" data-name="Línea 314" x1="10.456" y1="3.322" transform="translate(79.917 92.82)" fill="none" stroke="#339ce9" stroke-linecap="round" stroke-linejoin="round" stroke-width="2"/>
        <line id="Línea_315" data-name="Línea 315" y1="8.697" transform="translate(77.369 80.352)" fill="none" stroke="#339ce9" stroke-linecap="round" stroke-linejoin="round" stroke-width="2"/>
        <line id="Línea_316" data-name="Línea 316" y1="8.404" transform="translate(92.834 100.154)" fill="none" stroke="#339ce9" stroke-linecap="round" stroke-linejoin="round" stroke-width="2"/>
        <line id="Línea_317" data-name="Línea 317" y1="3.322" x2="10.456" transform="translate(94.691 92.82)" fill="none" stroke="#339ce9" stroke-linecap="round" stroke-linejoin="round" stroke-width="2"/>
        <line id="Línea_318" data-name="Línea 318" x1="10.456" y1="3.322" transform="translate(109.942 92.82)" fill="none" stroke="#339ce9" stroke-linecap="round" stroke-linejoin="round" stroke-width="2"/>
        <line id="Línea_319" data-name="Línea 319" y1="8.697" transform="translate(107.394 80.352)" fill="none" stroke="#339ce9" stroke-linecap="round" stroke-linejoin="round" stroke-width="2"/>
        <g id="Grupo_56950" data-name="Grupo 56950" transform="translate(122.812 81.288)">
          <line id="Línea_320" data-name="Línea 320" y1="8.404" transform="translate(0 18.078)" fill="none" stroke="#339ce9" stroke-linecap="round" stroke-linejoin="round" stroke-width="2"/>
          <line id="Línea_321" data-name="Línea 321" y1="3.322" x2="10.456" transform="translate(1.857 11.629)" fill="none" stroke="#339ce9" stroke-linecap="round" stroke-linejoin="round" stroke-width="2"/>
          <line id="Línea_322" data-name="Línea 322" x1="10.456" y1="3.322" transform="translate(17.108 11.629)" fill="none" stroke="#339ce9" stroke-linecap="round" stroke-linejoin="round" stroke-width="2"/>
          <line id="Línea_323" data-name="Línea 323" y1="8.697" transform="translate(14.561)" fill="none" stroke="#339ce9" stroke-linecap="round" stroke-linejoin="round" stroke-width="2"/>
          <line id="Línea_324" data-name="Línea 324" y1="8.404" transform="translate(30.025 18.078)" fill="none" stroke="#339ce9" stroke-linecap="round" stroke-linejoin="round" stroke-width="2"/>
          <line id="Línea_325" data-name="Línea 325" y1="3.322" x2="10.456" transform="translate(31.882 11.629)" fill="none" stroke="#339ce9" stroke-linecap="round" stroke-linejoin="round" stroke-width="2"/>
          <line id="Línea_326" data-name="Línea 326" x1="10.456" y1="3.322" transform="translate(47.133 11.629)" fill="none" stroke="#339ce9" stroke-linecap="round" stroke-linejoin="round" stroke-width="2"/>
          <line id="Línea_327" data-name="Línea 327" y1="8.697" transform="translate(44.585)" fill="none" stroke="#339ce9" stroke-linecap="round" stroke-linejoin="round" stroke-width="2"/>
          <line id="Línea_328" data-name="Línea 328" y1="8.404" transform="translate(59.399 18.078)" fill="none" stroke="#339ce9" stroke-linecap="round" stroke-linejoin="round" stroke-width="2"/>
          <line id="Línea_329" data-name="Línea 329" y1="3.322" x2="10.456" transform="translate(61.256 11.629)" fill="none" stroke="#339ce9" stroke-linecap="round" stroke-linejoin="round" stroke-width="2"/>
          <line id="Línea_330" data-name="Línea 330" x1="10.456" y1="3.322" transform="translate(76.507 11.629)" fill="none" stroke="#339ce9" stroke-linecap="round" stroke-linejoin="round" stroke-width="2"/>
          <line id="Línea_331" data-name="Línea 331" y1="8.697" transform="translate(73.959)" fill="none" stroke="#339ce9" stroke-linecap="round" stroke-linejoin="round" stroke-width="2"/>
          <line id="Línea_332" data-name="Línea 332" y1="8.404" transform="translate(89.424 18.078)" fill="none" stroke="#339ce9" stroke-linecap="round" stroke-linejoin="round" stroke-width="2"/>
          <line id="Línea_333" data-name="Línea 333" y1="3.322" x2="10.456" transform="translate(91.281 11.629)" fill="none" stroke="#339ce9" stroke-linecap="round" stroke-linejoin="round" stroke-width="2"/>
          <line id="Línea_334" data-name="Línea 334" x1="10.456" y1="3.322" transform="translate(106.532 11.629)" fill="none" stroke="#339ce9" stroke-linecap="round" stroke-linejoin="round" stroke-width="2"/>
          <line id="Línea_335" data-name="Línea 335" y1="8.697" transform="translate(103.984)" fill="none" stroke="#339ce9" stroke-linecap="round" stroke-linejoin="round" stroke-width="2"/>
        </g>
        <g id="Grupo_56951" data-name="Grupo 56951" transform="translate(239.8 81.288)">
          <line id="Línea_336" data-name="Línea 336" y1="8.404" transform="translate(0 18.078)" fill="none" stroke="#339ce9" stroke-linecap="round" stroke-linejoin="round" stroke-width="2"/>
          <line id="Línea_337" data-name="Línea 337" y1="3.322" x2="10.456" transform="translate(1.856 11.629)" fill="none" stroke="#339ce9" stroke-linecap="round" stroke-linejoin="round" stroke-width="2"/>
          <line id="Línea_338" data-name="Línea 338" x1="10.456" y1="3.322" transform="translate(17.108 11.629)" fill="none" stroke="#339ce9" stroke-linecap="round" stroke-linejoin="round" stroke-width="2"/>
          <line id="Línea_339" data-name="Línea 339" y1="8.697" transform="translate(14.56)" fill="none" stroke="#339ce9" stroke-linecap="round" stroke-linejoin="round" stroke-width="2"/>
          <line id="Línea_340" data-name="Línea 340" y1="8.404" transform="translate(30.025 18.078)" fill="none" stroke="#339ce9" stroke-linecap="round" stroke-linejoin="round" stroke-width="2"/>
          <line id="Línea_341" data-name="Línea 341" y1="3.322" x2="10.456" transform="translate(31.881 11.629)" fill="none" stroke="#339ce9" stroke-linecap="round" stroke-linejoin="round" stroke-width="2"/>
          <line id="Línea_342" data-name="Línea 342" x1="10.456" y1="3.322" transform="translate(47.133 11.629)" fill="none" stroke="#339ce9" stroke-linecap="round" stroke-linejoin="round" stroke-width="2"/>
          <line id="Línea_343" data-name="Línea 343" y1="8.697" transform="translate(44.585)" fill="none" stroke="#339ce9" stroke-linecap="round" stroke-linejoin="round" stroke-width="2"/>
          <line id="Línea_344" data-name="Línea 344" y1="8.404" transform="translate(59.399 18.078)" fill="none" stroke="#339ce9" stroke-linecap="round" stroke-linejoin="round" stroke-width="2"/>
          <line id="Línea_345" data-name="Línea 345" y1="3.322" x2="10.456" transform="translate(61.255 11.629)" fill="none" stroke="#339ce9" stroke-linecap="round" stroke-linejoin="round" stroke-width="2"/>
          <line id="Línea_346" data-name="Línea 346" x1="10.456" y1="3.322" transform="translate(76.507 11.629)" fill="none" stroke="#339ce9" stroke-linecap="round" stroke-linejoin="round" stroke-width="2"/>
          <line id="Línea_347" data-name="Línea 347" y1="8.697" transform="translate(73.959)" fill="none" stroke="#339ce9" stroke-linecap="round" stroke-linejoin="round" stroke-width="2"/>
          <line id="Línea_348" data-name="Línea 348" y1="8.404" transform="translate(89.424 18.078)" fill="none" stroke="#339ce9" stroke-linecap="round" stroke-linejoin="round" stroke-width="2"/>
          <line id="Línea_349" data-name="Línea 349" y1="3.322" x2="10.456" transform="translate(91.28 11.629)" fill="none" stroke="#339ce9" stroke-linecap="round" stroke-linejoin="round" stroke-width="2"/>
          <line id="Línea_350" data-name="Línea 350" x1="10.456" y1="3.322" transform="translate(106.532 11.629)" fill="none" stroke="#339ce9" stroke-linecap="round" stroke-linejoin="round" stroke-width="2"/>
          <line id="Línea_351" data-name="Línea 351" y1="8.697" transform="translate(103.984)" fill="none" stroke="#339ce9" stroke-linecap="round" stroke-linejoin="round" stroke-width="2"/>
        </g>
        <path id="Trazado_102200" data-name="Trazado 102200" d="M15.342,0H353.377" transform="translate(3.41 128.584)" fill="none" stroke="#bf3976" stroke-linecap="round" stroke-width="2" stroke-dasharray="8"/>
        <line id="Línea_355" data-name="Línea 355" y2="11.051" transform="translate(19.172 146.007)" fill="none" stroke="#0ac4bf" stroke-linecap="round" stroke-linejoin="round" stroke-width="1.991"/>
        <line id="Línea_356" data-name="Línea 356" x2="10.946" y2="11.051" transform="translate(23.694 146.007)" fill="none" stroke="#0ac4bf" stroke-linecap="round" stroke-linejoin="round" stroke-width="1.991"/>
        <line id="Línea_357" data-name="Línea 357" x1="10.946" y2="11.051" transform="translate(23.694 146.007)" fill="none" stroke="#0ac4bf" stroke-linecap="round" stroke-linejoin="round" stroke-width="1.991"/>
        <line id="Línea_358" data-name="Línea 358" y2="11.051" transform="translate(39.456 146.007)" fill="none" stroke="#0ac4bf" stroke-linecap="round" stroke-linejoin="round" stroke-width="1.991"/>
        <line id="Línea_359" data-name="Línea 359" x2="10.946" y2="11.051" transform="translate(43.321 146.007)" fill="none" stroke="#0ac4bf" stroke-linecap="round" stroke-linejoin="round" stroke-width="1.991"/>
        <line id="Línea_360" data-name="Línea 360" x1="10.946" y2="11.051" transform="translate(43.321 146.007)" fill="none" stroke="#0ac4bf" stroke-linecap="round" stroke-linejoin="round" stroke-width="1.991"/>
        <line id="Línea_361" data-name="Línea 361" y2="11.051" transform="translate(59.083 146.007)" fill="none" stroke="#0ac4bf" stroke-linecap="round" stroke-linejoin="round" stroke-width="1.991"/>
        <line id="Línea_362" data-name="Línea 362" x2="10.946" y2="11.051" transform="translate(63.693 146.007)" fill="none" stroke="#0ac4bf" stroke-linecap="round" stroke-linejoin="round" stroke-width="1.991"/>
        <line id="Línea_363" data-name="Línea 363" x1="10.946" y2="11.051" transform="translate(63.693 146.007)" fill="none" stroke="#0ac4bf" stroke-linecap="round" stroke-linejoin="round" stroke-width="1.991"/>
        <line id="Línea_364" data-name="Línea 364" y2="11.051" transform="translate(79.456 146.007)" fill="none" stroke="#0ac4bf" stroke-linecap="round" stroke-linejoin="round" stroke-width="1.991"/>
        <line id="Línea_365" data-name="Línea 365" x2="10.946" y2="11.051" transform="translate(83.978 146.007)" fill="none" stroke="#0ac4bf" stroke-linecap="round" stroke-linejoin="round" stroke-width="1.991"/>
        <line id="Línea_366" data-name="Línea 366" x1="10.946" y2="11.051" transform="translate(83.978 146.007)" fill="none" stroke="#0ac4bf" stroke-linecap="round" stroke-linejoin="round" stroke-width="1.991"/>
        <line id="Línea_367" data-name="Línea 367" y2="11.051" transform="translate(99.74 146.007)" fill="none" stroke="#0ac4bf" stroke-linecap="round" stroke-linejoin="round" stroke-width="1.991"/>
        <line id="Línea_368" data-name="Línea 368" x2="10.946" y2="11.051" transform="translate(103.604 146.007)" fill="none" stroke="#0ac4bf" stroke-linecap="round" stroke-linejoin="round" stroke-width="1.991"/>
        <line id="Línea_369" data-name="Línea 369" x1="10.946" y2="11.051" transform="translate(103.604 146.007)" fill="none" stroke="#0ac4bf" stroke-linecap="round" stroke-linejoin="round" stroke-width="1.991"/>
        <line id="Línea_370" data-name="Línea 370" y2="11.051" transform="translate(119.367 146.007)" fill="none" stroke="#0ac4bf" stroke-linecap="round" stroke-linejoin="round" stroke-width="1.991"/>
        <line id="Línea_371" data-name="Línea 371" x2="10.946" y2="11.051" transform="translate(122.538 146.007)" fill="none" stroke="#0ac4bf" stroke-linecap="round" stroke-linejoin="round" stroke-width="1.991"/>
        <line id="Línea_372" data-name="Línea 372" x1="10.946" y2="11.051" transform="translate(122.538 146.007)" fill="none" stroke="#0ac4bf" stroke-linecap="round" stroke-linejoin="round" stroke-width="1.991"/>
        <line id="Línea_373" data-name="Línea 373" y2="11.051" transform="translate(138.3 146.007)" fill="none" stroke="#0ac4bf" stroke-linecap="round" stroke-linejoin="round" stroke-width="1.991"/>
        <line id="Línea_374" data-name="Línea 374" x2="10.946" y2="11.051" transform="translate(142.822 146.007)" fill="none" stroke="#0ac4bf" stroke-linecap="round" stroke-linejoin="round" stroke-width="1.991"/>
        <line id="Línea_375" data-name="Línea 375" x1="10.946" y2="11.051" transform="translate(142.822 146.007)" fill="none" stroke="#0ac4bf" stroke-linecap="round" stroke-linejoin="round" stroke-width="1.991"/>
        <line id="Línea_376" data-name="Línea 376" y2="11.051" transform="translate(158.584 146.007)" fill="none" stroke="#0ac4bf" stroke-linecap="round" stroke-linejoin="round" stroke-width="1.991"/>
        <line id="Línea_377" data-name="Línea 377" x2="10.946" y2="11.051" transform="translate(162.449 146.007)" fill="none" stroke="#0ac4bf" stroke-linecap="round" stroke-linejoin="round" stroke-width="1.991"/>
        <line id="Línea_378" data-name="Línea 378" x1="10.946" y2="11.051" transform="translate(162.449 146.007)" fill="none" stroke="#0ac4bf" stroke-linecap="round" stroke-linejoin="round" stroke-width="1.991"/>
        <line id="Línea_379" data-name="Línea 379" y2="11.051" transform="translate(178.211 146.007)" fill="none" stroke="#0ac4bf" stroke-linecap="round" stroke-linejoin="round" stroke-width="1.991"/>
        <line id="Línea_380" data-name="Línea 380" x2="10.946" y2="11.051" transform="translate(182.822 146.007)" fill="none" stroke="#0ac4bf" stroke-linecap="round" stroke-linejoin="round" stroke-width="1.991"/>
        <line id="Línea_381" data-name="Línea 381" x1="10.946" y2="11.051" transform="translate(182.822 146.007)" fill="none" stroke="#0ac4bf" stroke-linecap="round" stroke-linejoin="round" stroke-width="1.991"/>
        <line id="Línea_382" data-name="Línea 382" y2="11.051" transform="translate(198.583 146.007)" fill="none" stroke="#0ac4bf" stroke-linecap="round" stroke-linejoin="round" stroke-width="1.991"/>
        <line id="Línea_383" data-name="Línea 383" x2="10.946" y2="11.051" transform="translate(203.106 146.007)" fill="none" stroke="#0ac4bf" stroke-linecap="round" stroke-linejoin="round" stroke-width="1.991"/>
        <line id="Línea_384" data-name="Línea 384" x1="10.946" y2="11.051" transform="translate(203.106 146.007)" fill="none" stroke="#0ac4bf" stroke-linecap="round" stroke-linejoin="round" stroke-width="1.991"/>
        <line id="Línea_385" data-name="Línea 385" y2="11.051" transform="translate(218.868 146.007)" fill="none" stroke="#0ac4bf" stroke-linecap="round" stroke-linejoin="round" stroke-width="1.991"/>
        <line id="Línea_386" data-name="Línea 386" x2="10.946" y2="11.051" transform="translate(222.733 146.007)" fill="none" stroke="#0ac4bf" stroke-linecap="round" stroke-linejoin="round" stroke-width="1.991"/>
        <line id="Línea_387" data-name="Línea 387" x1="10.946" y2="11.051" transform="translate(222.733 146.007)" fill="none" stroke="#0ac4bf" stroke-linecap="round" stroke-linejoin="round" stroke-width="1.991"/>
        <line id="Línea_388" data-name="Línea 388" y2="11.051" transform="translate(238.495 146.007)" fill="none" stroke="#0ac4bf" stroke-linecap="round" stroke-linejoin="round" stroke-width="1.991"/>
        <line id="Línea_389" data-name="Línea 389" x2="10.946" y2="11.051" transform="translate(242.532 146.007)" fill="none" stroke="#0ac4bf" stroke-linecap="round" stroke-linejoin="round" stroke-width="1.991"/>
        <line id="Línea_390" data-name="Línea 390" x1="10.946" y2="11.051" transform="translate(242.532 146.007)" fill="none" stroke="#0ac4bf" stroke-linecap="round" stroke-linejoin="round" stroke-width="1.991"/>
        <line id="Línea_391" data-name="Línea 391" y2="11.051" transform="translate(258.294 146.007)" fill="none" stroke="#0ac4bf" stroke-linecap="round" stroke-linejoin="round" stroke-width="1.991"/>
        <line id="Línea_392" data-name="Línea 392" x2="10.946" y2="11.051" transform="translate(262.816 146.007)" fill="none" stroke="#0ac4bf" stroke-linecap="round" stroke-linejoin="round" stroke-width="1.991"/>
        <line id="Línea_393" data-name="Línea 393" x1="10.946" y2="11.051" transform="translate(262.816 146.007)" fill="none" stroke="#0ac4bf" stroke-linecap="round" stroke-linejoin="round" stroke-width="1.991"/>
        <line id="Línea_394" data-name="Línea 394" y2="11.051" transform="translate(278.578 146.007)" fill="none" stroke="#0ac4bf" stroke-linecap="round" stroke-linejoin="round" stroke-width="1.991"/>
        <line id="Línea_395" data-name="Línea 395" x2="10.946" y2="11.051" transform="translate(282.443 146.007)" fill="none" stroke="#0ac4bf" stroke-linecap="round" stroke-linejoin="round" stroke-width="1.991"/>
        <line id="Línea_396" data-name="Línea 396" x1="10.946" y2="11.051" transform="translate(282.443 146.007)" fill="none" stroke="#0ac4bf" stroke-linecap="round" stroke-linejoin="round" stroke-width="1.991"/>
        <line id="Línea_397" data-name="Línea 397" y2="11.051" transform="translate(298.205 146.007)" fill="none" stroke="#0ac4bf" stroke-linecap="round" stroke-linejoin="round" stroke-width="1.991"/>
        <line id="Línea_398" data-name="Línea 398" x2="10.946" y2="11.051" transform="translate(302.815 146.007)" fill="none" stroke="#0ac4bf" stroke-linecap="round" stroke-linejoin="round" stroke-width="1.991"/>
        <line id="Línea_399" data-name="Línea 399" x1="10.946" y2="11.051" transform="translate(302.815 146.007)" fill="none" stroke="#0ac4bf" stroke-linecap="round" stroke-linejoin="round" stroke-width="1.991"/>
        <line id="Línea_400" data-name="Línea 400" y2="11.051" transform="translate(318.577 146.007)" fill="none" stroke="#0ac4bf" stroke-linecap="round" stroke-linejoin="round" stroke-width="1.991"/>
        <line id="Línea_401" data-name="Línea 401" x2="10.946" y2="11.051" transform="translate(323.099 146.007)" fill="none" stroke="#0ac4bf" stroke-linecap="round" stroke-linejoin="round" stroke-width="1.991"/>
        <line id="Línea_402" data-name="Línea 402" x1="10.946" y2="11.051" transform="translate(323.099 146.007)" fill="none" stroke="#0ac4bf" stroke-linecap="round" stroke-linejoin="round" stroke-width="1.991"/>
        <line id="Línea_403" data-name="Línea 403" y2="11.051" transform="translate(338.861 146.007)" fill="none" stroke="#0ac4bf" stroke-linecap="round" stroke-linejoin="round" stroke-width="1.991"/>
        <line id="Línea_404" data-name="Línea 404" x2="10.946" y2="11.051" transform="translate(342.726 146.007)" fill="none" stroke="#0ac4bf" stroke-linecap="round" stroke-linejoin="round" stroke-width="1.991"/>
        <line id="Línea_405" data-name="Línea 405" x1="10.946" y2="11.051" transform="translate(342.726 146.007)" fill="none" stroke="#0ac4bf" stroke-linecap="round" stroke-linejoin="round" stroke-width="1.991"/>
        <line id="Línea_406" data-name="Línea 406" y2="11.051" transform="translate(358.488 146.007)" fill="none" stroke="#0ac4bf" stroke-linecap="round" stroke-linejoin="round" stroke-width="1.991"/>
      </g>
    </g>
  </g>
</svg>
