<svg xmlns="http://www.w3.org/2000/svg" width="401.006" height="324.646" viewBox="0 0 401.006 324.646">
  <g id="Grupo_53843" data-name="Grupo 53843" transform="translate(-1057.828 -968.959)">
    <path id="Trazado_100598" data-name="Trazado 100598" d="M1308.6,979.3c53.613.472,175.628,241.182,129.41,295.531s-348.007-8.517-334.841-86.158S1254.988,978.83,1308.6,979.3Z" transform="translate(-8.3 -1.65)" fill="#fff" opacity="0.2"/>
    <path id="Trazado_100599" data-name="Trazado 100599" d="M1398,970.368s137.338,115.082,121.393,293.946" transform="translate(-62.853)" fill="none" stroke="#fff" stroke-linecap="round" stroke-linejoin="round" stroke-width="2" stroke-dasharray="12"/>
    <g id="Grupo_53842" data-name="Grupo 53842" transform="translate(1057.828 1003.612)">
      <path id="Trazado_100600" data-name="Trazado 100600" d="M1485.624,1076.636h0a1.029,1.029,0,0,1-1.029-1.029V1031a1.029,1.029,0,0,1,1.029-1.029h0a1.029,1.029,0,0,1,1.029,1.029v44.605A1.029,1.029,0,0,1,1485.624,1076.636Z" transform="translate(-1136.681 -1014.625)" fill="#33353a"/>
      <g id="Grupo_53835" data-name="Grupo 53835" transform="translate(113.927)">
        <g id="Grupo_53824" data-name="Grupo 53824" transform="translate(0 20.98)">
          <g id="Grupo_53814" data-name="Grupo 53814" transform="translate(49.048 154.252)">
            <path id="Trazado_100601" data-name="Trazado 100601" d="M1259.929,1231.727a2.548,2.548,0,0,1-1.431-.438,1.532,1.532,0,0,1-.5-2.168,8.457,8.457,0,0,0,.982-3.028l.3.019a8.483,8.483,0,0,1-1.01,3.115,1.306,1.306,0,0,0,.423,1.875,2.1,2.1,0,0,0,2.146.152l.173.2A2.194,2.194,0,0,1,1259.929,1231.727Z" transform="translate(-1257.74 -1226.093)" fill="#6cdcd9"/>
          </g>
          <path id="Trazado_100602" data-name="Trazado 100602" d="M1469.361,1102.277v157.409a11.152,11.152,0,0,1-11.154,11.152H1208.95a11.3,11.3,0,0,1-11.316-10.012c-.029-.281-.047-.564-.054-.852,0-.1,0-.191,0-.288v-38.458c0-.3.013-.6.036-.89a11.433,11.433,0,0,1,8.658-3.925H1359.13a14,14,0,0,0,13.942-11.86,13.589,13.589,0,0,0,.139-1.952v-35.9a12.824,12.824,0,0,0-.76-4.362,13.331,13.331,0,0,0-12.579-8.723h-54.4c-11.745,0-22.015,8.152-27.587,18.71a38.732,38.732,0,0,0-3.575,9.616,5.724,5.724,0,0,1-3.474,1.164h-48.7a9.358,9.358,0,0,1-9.448-9.263V1102.72a14.662,14.662,0,0,1,.214-2.512,15.6,15.6,0,0,1,12.644-6.382h231.4a15.151,15.151,0,0,1,12.236,6.142A14.783,14.783,0,0,1,1469.361,1102.277Z" transform="translate(-1197.576 -1047.403)" fill="#f7af70"/>
          <path id="Trazado_100603" data-name="Trazado 100603" d="M1469.361,1100.84v157.409a11.152,11.152,0,0,1-11.154,11.152H1208.732a11.155,11.155,0,0,1-11.1-10.012c-.029-.281-.047-.564-.054-.852,0-.1,0-.191,0-.288v-38.458c0-.3.013-.6.036-.89a11.151,11.151,0,0,1,11.12-10.264h149.909a13.813,13.813,0,0,0,13.812-13.811v-35.9a13.082,13.082,0,0,0-13.083-13.085h-53.355c-13.739,0-25.421,11.606-29.68,25.051a37.705,37.705,0,0,0-1.369,5.931,5.687,5.687,0,0,1-2.138,3.686,5.533,5.533,0,0,1-3.4,1.164h-47.759a9.264,9.264,0,0,1-9.263-9.263v-71.126a15.226,15.226,0,0,1,15.235-15.235H1454.57a14.778,14.778,0,0,1,14.792,14.792Z" transform="translate(-1197.576 -1045.965)" fill="#fdf0e0"/>
          <rect id="Rectángulo_5248" data-name="Rectángulo 5248" width="5.285" height="18.665" transform="translate(49.442 135.599)" fill="#33353a"/>
          <rect id="Rectángulo_5249" data-name="Rectángulo 5249" width="6.191" height="3.322" transform="translate(54.727 140.083)" fill="#33353a"/>
          <path id="Trazado_100604" data-name="Trazado 100604" d="M1271.527,1210.043a3.122,3.122,0,1,1,3.122,3.121A3.122,3.122,0,0,1,1271.527,1210.043Z" transform="translate(-1211.24 -1068.299)" fill="#33353a"/>
          <rect id="Rectángulo_5250" data-name="Rectángulo 5250" width="3.473" height="2.736" transform="translate(46.724 148.142)" fill="#33353a"/>
          <rect id="Rectángulo_5251" data-name="Rectángulo 5251" width="8.053" height="5.234" transform="translate(59.383 34.741)" fill="#33353a"/>
          <path id="Trazado_100605" data-name="Trazado 100605" d="M1492.625,1073.528h-17.811a3.049,3.049,0,0,1-3.047-3.223l.29-5v-.047l.2-3.369.542-9.386.173-2.957.414-7.174.152-2.622a3.048,3.048,0,0,1,3.042-2.873h13.968a3.016,3.016,0,0,1,1.376.328,3.059,3.059,0,0,1,1.668,2.514l.144,2.1.412,6.057.065.956.677,9.971.542,7.977.238,3.485A3.05,3.05,0,0,1,1492.625,1073.528Z" transform="translate(-1248.237 -1036.881)" fill="#6cdcd9"/>
          <g id="Grupo_53815" data-name="Grupo 53815" transform="translate(51.833 39.881)" opacity="0.3">
            <path id="Trazado_100606" data-name="Trazado 100606" d="M1272.984,1168.589h-11.828V1085.9h.5v82.19h10.822V1085.8h.5Z" transform="translate(-1261.157 -1085.801)" fill="#33353a"/>
          </g>
          <path id="Rectángulo_5252" data-name="Rectángulo 5252" d="M0,0H7.442a3.932,3.932,0,0,1,3.932,3.932V40.6a3.932,3.932,0,0,1-3.932,3.932H0a0,0,0,0,1,0,0V0A0,0,0,0,1,0,0Z" transform="translate(271.786 63.268)" fill="#686b71"/>
          <rect id="Rectángulo_5253" data-name="Rectángulo 5253" width="37.647" height="0.889" transform="translate(32.581 161.675)" fill="#33353a"/>
          <path id="Trazado_100607" data-name="Trazado 100607" d="M1260.644,1116.518l-3.624-4.228v-26.373h3.624Z" transform="translate(-1208.559 -1045.941)" fill="#33353a"/>
          <g id="Grupo_53816" data-name="Grupo 53816" transform="translate(51.833 122.417)" opacity="0.3">
            <rect id="Rectángulo_5254" data-name="Rectángulo 5254" width="0.503" height="13.182" fill="#33353a"/>
          </g>
          <g id="Grupo_53817" data-name="Grupo 53817" transform="translate(0 211.923)" opacity="0.3">
            <rect id="Rectángulo_5255" data-name="Rectángulo 5255" width="271.786" height="0.503" fill="#33353a"/>
          </g>
          <g id="Grupo_53818" data-name="Grupo 53818" transform="translate(77.476 51.25)">
            <path id="Trazado_100608" data-name="Trazado 100608" d="M1292.612,1101.759a2.013,2.013,0,1,1,2.014,2.014A2.014,2.014,0,0,1,1292.612,1101.759Z" transform="translate(-1292.612 -1099.746)" fill="#33353a"/>
            <path id="Trazado_100609" data-name="Trazado 100609" d="M1302.305,1101.759a2.013,2.013,0,1,1,2.013,2.014A2.013,2.013,0,0,1,1302.305,1101.759Z" transform="translate(-1294.403 -1099.746)" fill="#33353a"/>
            <path id="Trazado_100610" data-name="Trazado 100610" d="M1312,1101.759a2.013,2.013,0,1,1,2.013,2.014A2.013,2.013,0,0,1,1312,1101.759Z" transform="translate(-1296.194 -1099.746)" fill="#33353a"/>
          </g>
          <rect id="Rectángulo_5256" data-name="Rectángulo 5256" width="1.309" height="7.046" transform="translate(62.78 29.557)" fill="#33353a"/>
          <path id="Trazado_100611" data-name="Trazado 100611" d="M1261.591,1233.519h-.123l-.412-7.412h.967Z" transform="translate(-1209.305 -1071.844)" fill="#33353a"/>
          <path id="Trazado_100612" data-name="Trazado 100612" d="M1263.456,1233.519h-.123l-.412-7.412h.967Z" transform="translate(-1209.65 -1071.844)" fill="#33353a"/>
          <g id="Grupo_53819" data-name="Grupo 53819" transform="translate(50.598 160.328)">
            <path id="Trazado_100613" data-name="Trazado 100613" d="M1263.366,1234.894h-2.773a1,1,0,0,1-.951-1.036.286.286,0,1,1,.571,0,.4.4,0,0,0,.381.414h2.773a.4.4,0,0,0,.381-.414.286.286,0,1,1,.571,0A1,1,0,0,1,1263.366,1234.894Z" transform="translate(-1259.642 -1233.546)" fill="#33353a"/>
          </g>
          <g id="Grupo_53823" data-name="Grupo 53823" transform="translate(220.618 149.514)">
            <g id="Grupo_53821" data-name="Grupo 53821" transform="translate(0 10.699)">
              <path id="Trazado_100614" data-name="Trazado 100614" d="M1481.083,1241.452h-8.709a3.88,3.88,0,0,1-3.87-3.869h0a3.88,3.88,0,0,1,3.87-3.869h8.709a3.88,3.88,0,0,1,3.869,3.869h0A3.88,3.88,0,0,1,1481.083,1241.452Z" transform="translate(-1468.253 -1233.462)" fill="#6cdcd9"/>
              <g id="Grupo_53820" data-name="Grupo 53820">
                <path id="Trazado_100615" data-name="Trazado 100615" d="M1498.591,1241.647h-26.369a4.031,4.031,0,0,1-4.026-4.026v-.189a4.031,4.031,0,0,1,4.026-4.026h26.369a4.031,4.031,0,0,1,4.026,4.026v.189A4.031,4.031,0,0,1,1498.591,1241.647Zm-26.369-7.739a3.528,3.528,0,0,0-3.523,3.524v.189a3.528,3.528,0,0,0,3.523,3.523h26.369a3.528,3.528,0,0,0,3.523-3.523v-.189a3.528,3.528,0,0,0-3.523-3.524Z" transform="translate(-1468.196 -1233.405)" fill="#0ac4bf"/>
              </g>
            </g>
            <g id="Grupo_53822" data-name="Grupo 53822" transform="translate(2.606)">
              <path id="Trazado_100616" data-name="Trazado 100616" d="M1472.462,1225.94h0a1.072,1.072,0,0,1-1.069-1.069v-3.521a1.072,1.072,0,0,1,1.069-1.069h0a1.072,1.072,0,0,1,1.069,1.069v3.521A1.072,1.072,0,0,1,1472.462,1225.94Z" transform="translate(-1471.393 -1220.281)" fill="#33353a"/>
              <path id="Trazado_100617" data-name="Trazado 100617" d="M1489.889,1225.94h0a1.071,1.071,0,0,1-1.068-1.069v-3.521a1.071,1.071,0,0,1,1.068-1.069h0a1.072,1.072,0,0,1,1.07,1.069v3.521A1.072,1.072,0,0,1,1489.889,1225.94Z" transform="translate(-1474.613 -1220.281)" fill="#33353a"/>
              <path id="Trazado_100618" data-name="Trazado 100618" d="M1507.317,1225.94h0a1.072,1.072,0,0,1-1.069-1.069v-3.521a1.072,1.072,0,0,1,1.069-1.069h0a1.072,1.072,0,0,1,1.069,1.069v3.521A1.072,1.072,0,0,1,1507.317,1225.94Z" transform="translate(-1477.833 -1220.281)" fill="#33353a"/>
            </g>
          </g>
          <path id="Trazado_100619" data-name="Trazado 100619" d="M1472.909,1055s9.456,1.095,21.348-4.621l.369,5.417s-5.682,7.031-22.259,8.591Z" transform="translate(-1248.349 -1039.375)" fill="#0ac4bf"/>
          <path id="Trazado_100620" data-name="Trazado 100620" d="M1495.431,1071.758a29.55,29.55,0,0,1-9.47,6.74h-11.147a3.049,3.049,0,0,1-3.047-3.223l.29-5v-.047a69.314,69.314,0,0,0,22.83-6.451Z" transform="translate(-1248.237 -1041.851)" fill="#0ac4bf"/>
          <path id="Trazado_100621" data-name="Trazado 100621" d="M1494.009,1041.9c-2.005,1.848-8.108,6.387-20.766,7.723l.414-7.174a30.589,30.589,0,0,0,18.539-5.167,3.059,3.059,0,0,1,1.668,2.514Z" transform="translate(-1248.511 -1036.955)" fill="#0ac4bf"/>
        </g>
        <g id="Grupo_53830" data-name="Grupo 53830" transform="translate(52.006)">
          <g id="Grupo_53825" data-name="Grupo 53825" transform="translate(0 38.918)">
            <path id="Trazado_100622" data-name="Trazado 100622" d="M1261.526,1081l-.157-.161,10.726-10.448.042,0c37.388-1.839,72.737-11.409,73.089-11.506l.059.217c-.353.1-35.7,9.667-73.1,11.512Z" transform="translate(-1261.369 -1058.885)" fill="#43474f"/>
          </g>
          <g id="Grupo_53827" data-name="Grupo 53827" transform="translate(62.892)">
            <g id="Grupo_53826" data-name="Grupo 53826">
              <path id="Trazado_100623" data-name="Trazado 100623" d="M1389.317,1113.954a1.078,1.078,0,0,1,.192,1.152l0,.006a7.167,7.167,0,0,1-2.263,2.483c-.136.11-.257.21-.364.3l-.082.073-.062.056c-.995.917-.621,1.128-2.408,2.988-2.038,2.12-3.441,2.159-3.84,1.965-.338-.165.348-1.289,1.108-2.553.037-.06.073-.122.111-.184.1-.168.2-.339.3-.507.891-1.521.662-2.235.451-4.5-.171-1.839-2.861-10.278-2.861-10.278l3.9-.672s1.176,6.719,2.472,7.754c.693.552,1.468.558,2.134.968.047.029.094.058.139.087A5.15,5.15,0,0,1,1389.317,1113.954Z" transform="translate(-1346.107 -1028.355)" fill="#c77d68"/>
              <path id="Trazado_100624" data-name="Trazado 100624" d="M1389.5,1115.931a1.078,1.078,0,0,1,.192,1.152l0,.006a8.289,8.289,0,0,1-2.267,2.475c-.134.112-.254.214-.359.311-.028.024-.055.049-.081.073l-.063.056c-.995.917-.62,1.127-2.407,2.988-2.038,2.12-3.441,2.159-3.84,1.966-.338-.165.348-1.289,1.108-2.553a8.676,8.676,0,0,0,3.633-2.676c1.227-1.566,2.046-3.578,2.881-4.743.047.029.094.058.139.087A5.15,5.15,0,0,1,1389.5,1115.931Z" transform="translate(-1346.288 -1030.332)" fill="#33353a"/>
              <path id="Trazado_100625" data-name="Trazado 100625" d="M1350.236,1111.245c-.241,1.2-1.959,1-3.879.535s-1.463.089-4.2-.214-3.559-1.322-3.643-1.727c-.074-.36,1.276-.488,2.724-.655q.274-.031.548-.065c1.635-.206,2.832-1.26,4.317-2.127,1.406-.82,3.506-4.164,3.506-4.164l3.747.3s-1.966,2.987-2.727,4.285a4.525,4.525,0,0,0-.368,2.554A4.814,4.814,0,0,1,1350.236,1111.245Z" transform="translate(-1338.516 -1028.086)" fill="#c77d68"/>
              <path id="Trazado_100626" data-name="Trazado 100626" d="M1346.358,1113.221c-1.92-.469-1.463.089-4.2-.214s-3.559-1.321-3.643-1.727c-.074-.36,1.276-.488,2.724-.655l.014.028a7.7,7.7,0,0,0,3.912,1.216c1.854.046,3.817-.486,5.1-.465a4.813,4.813,0,0,1-.029,1.281C1350,1113.891,1348.278,1113.69,1346.358,1113.221Z" transform="translate(-1338.516 -1029.526)" fill="#33353a"/>
              <path id="Trazado_100627" data-name="Trazado 100627" d="M1370.507,1082.4l3.5,9.425,4.573,12.307a7.411,7.411,0,0,0,2.429-.222,10.537,10.537,0,0,0,2.35-1.144s-1.269-13.214-3.638-20.8a13.513,13.513,0,0,0-2.038-4.409C1374.013,1073.222,1370.507,1082.4,1370.507,1082.4Z" transform="translate(-1344.426 -1023.202)" fill="#33353a"/>
              <path id="Trazado_100628" data-name="Trazado 100628" d="M1370.181,1064.975c2.294-.74,8.84.21,15.414,1.5l1.377-2.27,14.2-1.109s4.687,10.392,2.121,17.014a2.4,2.4,0,0,1-2.4,1.618h-.207s-8.452-.006-11.2-.006c-7.062,0-14.946-4.854-15.966-5.059-1.67-.333-2.337,3-4.007,6.51s-15.692,15.525-15.692,15.525a12.363,12.363,0,0,1-3.046-.312,3.006,3.006,0,0,1-1.308-.826S1365.006,1066.645,1370.181,1064.975Z" transform="translate(-1340.539 -1020.744)" fill="#43474f"/>
              <path id="Trazado_100629" data-name="Trazado 100629" d="M1391.758,1033.581c4.283,3.872,14.728,10.739,14.788,10.715,0,0,3.344,2.249,5.752,1.357,4.013-1.485,7.338-7.248,2.252-14.084-2.537-3.408-4.726-4.6-3.971-8.918.818-4.676-1-10.7-6.4-11.236a14.963,14.963,0,0,0-5.165-.042C1393.941,1012.677,1384.627,1030.791,1391.758,1033.581Z" transform="translate(-1347.874 -1011.146)" fill="#33353a"/>
              <path id="Trazado_100630" data-name="Trazado 100630" d="M1400.081,1034.061c-.025.009,2.371,1.529,4.176,1.19,1.7-.316,3.34-2.521,3.318-2.528-.692-.2-1.2-1.039-.842-5.189l-.323.037-5.43.62s-.016,1.692-.143,3.276C1400.731,1032.8,1400.4,1033.943,1400.081,1034.061Z" transform="translate(-1349.891 -1014.174)" fill="#c77d68"/>
              <path id="Trazado_100631" data-name="Trazado 100631" d="M1401.151,1028.2s-.016,1.693-.143,3.276c3,.161,4.8-2.437,5.573-3.9Z" transform="translate(-1350.062 -1014.182)" fill="#b0604d"/>
              <path id="Trazado_100632" data-name="Trazado 100632" d="M1399.409,1027.412s7.066.7,7.432-3.71,1.525-7.284-2.971-7.916-5.514.977-5.994,2.419S1397.58,1027.117,1399.409,1027.412Z" transform="translate(-1349.442 -1011.977)" fill="#c77d68"/>
              <path id="Trazado_100633" data-name="Trazado 100633" d="M1400.735,1014.807s.89,5.384,4.914,6.661c2.936.932,4.265.317,4.265.317a11.963,11.963,0,0,1-1.916-4.479,2.153,2.153,0,0,0-1.436-1.644C1404.476,1014.976,1401.948,1013.1,1400.735,1014.807Z" transform="translate(-1350.012 -1011.694)" fill="#33353a"/>
              <path id="Trazado_100634" data-name="Trazado 100634" d="M1401.419,1016.094a4.668,4.668,0,0,0-2.511,2.014,9.019,9.019,0,0,0-1.264,4.354s-1.237-4.983.567-6.837C1400.122,1013.661,1401.419,1016.094,1401.419,1016.094Z" transform="translate(-1349.364 -1011.832)" fill="#33353a"/>
              <path id="Trazado_100635" data-name="Trazado 100635" d="M1411.738,1049.742c-.125.535-.234,1.027-.321,1.481-.144.733-.243,1.365-.313,1.922-.215,1.738-.15,2.768-.3,3.894a9.7,9.7,0,0,1-.528,2.12c-.292.807-7.97,1.526-12.339,1.236a5.983,5.983,0,0,1-2.819-.609c-1.559-1.353-1.4,1.623-1.617-12.62-.1-6.947,5.895-13.134,5.895-13.134s.479,2.967,6.428-.565c.211-.123,2.554,3.346,4.809,7.617C1413.121,1045.805,1412.44,1046.8,1411.738,1049.742Z" transform="translate(-1348.676 -1015.27)" fill="#6cdcd9"/>
              <path id="Trazado_100636" data-name="Trazado 100636" d="M1374.8,1093.091l4.573,12.307a7.415,7.415,0,0,0,2.429-.222,10.535,10.535,0,0,0,2.349-1.144s-1.269-13.214-3.638-20.8Z" transform="translate(-1345.22 -1024.465)" fill="#43474f"/>
              <path id="Trazado_100637" data-name="Trazado 100637" d="M1397.9,1034.16s-6.121,1.038-6.84,3.673-5.685,17.375-5.685,17.375,3.848,1.313,5.285-.125,5-13.337,5-13.337Z" transform="translate(-1347.173 -1015.398)" fill="#6cdcd9"/>
              <path id="Trazado_100638" data-name="Trazado 100638" d="M1368.7,1055.671l-1.45-.575a3.46,3.46,0,0,0-1.344-.045c-.471.148-1.649.133-1.655.326s1.344.794,1.344.794l.042-.016c-.513,1.161-3.076,1.824-3.2,2.25-.15.516,1.043.783,1.693.944a3.585,3.585,0,0,0,3.026-.682c.574-.6,1.544-1.437,1.544-1.437Z" transform="translate(-1342.934 -1019.248)" fill="#c77d68"/>
              <path id="Trazado_100639" data-name="Trazado 100639" d="M1401.237,1026.858a1.215,1.215,0,0,1-1.078.725c-.783,0-.994-.117-1.141-.283a2.432,2.432,0,0,1-.3-.484A6.65,6.65,0,0,1,1401.237,1026.858Z" transform="translate(-1349.64 -1014.023)" fill="#fff"/>
              <path id="Trazado_100640" data-name="Trazado 100640" d="M1384.1,1053.243l-14.819,1.132a4.62,4.62,0,0,0,.646,3.066s13.37,2.614,16.858,1.279,3.1-7.63,3.1-7.63Z" transform="translate(-1344.19 -1018.526)" fill="#6cdcd9"/>
              <path id="Trazado_100641" data-name="Trazado 100641" d="M1397.236,1053.489l-.984-1.21a3.469,3.469,0,0,0-1.15-.7c-.483-.1-1.5-.69-1.6-.524s.784,1.35.784,1.35l.045.006c-1.014.762-3.575.089-3.89.4-.383.378.527,1.193,1.016,1.651a3.588,3.588,0,0,0,2.974.882c.8-.248,2.049-.5,2.049-.5Z" transform="translate(-1348.092 -1018.516)" fill="#c77d68"/>
              <path id="Trazado_100642" data-name="Trazado 100642" d="M1412.082,1057.516c-.215,1.738-.15,2.768-.3,3.895-5.557.018-12.988-4.292-12.988-4.292Z" transform="translate(-1349.654 -1019.64)" fill="#0ac4bf"/>
              <path id="Trazado_100643" data-name="Trazado 100643" d="M1398.8,1051.034s8.659-.258,10.118-5.179c1.6-5.407,3.4,2.223,3.4,2.223l-.956,4.87h-9.5Z" transform="translate(-1349.654 -1017.202)" fill="#0ac4bf"/>
              <path id="Trazado_100644" data-name="Trazado 100644" d="M1406.516,1033.47s5.62.369,7.026,2.56,3.148,13.322,2.417,17.144-18.729-.73-18.729-.73l.574-3.316s10.388.06,10.98-1.293C1409.57,1046.035,1406.516,1033.47,1406.516,1033.47Z" transform="translate(-1349.364 -1015.271)" fill="#6cdcd9"/>
            </g>
          </g>
          <g id="Grupo_53828" data-name="Grupo 53828" transform="translate(108.401 31.119)">
            <path id="Trazado_100645" data-name="Trazado 100645" d="M1413.5,1054.409c-6.906,0-13.654-.51-19.077-1.93a.111.111,0,0,1-.08-.137.113.113,0,0,1,.137-.081c6.178,1.617,18.18,3.043,40.272.657,13.217-1.428,23.922-3.577,24.029-3.6a.113.113,0,0,1,.044.221c-.106.021-10.82,2.172-24.048,3.6A203.145,203.145,0,0,1,1413.5,1054.409Z" transform="translate(-1394.338 -1049.318)" fill="#43474f"/>
          </g>
          <g id="Grupo_53829" data-name="Grupo 53829" transform="translate(84.517 35.839)">
            <path id="Trazado_100646" data-name="Trazado 100646" d="M1371.975,1057.615a66.8,66.8,0,0,1-6.833-.36.113.113,0,0,1,.023-.224c13.922,1.437,21.491-1.879,21.566-1.913a.112.112,0,0,1,.092.2C1386.761,1055.35,1381.589,1057.615,1371.975,1057.615Z" transform="translate(-1365.041 -1055.108)" fill="#43474f"/>
          </g>
        </g>
        <g id="Grupo_53831" data-name="Grupo 53831" transform="translate(213.635 107.51)">
          <circle id="Elipse_4097" data-name="Elipse 4097" cx="20.455" cy="20.455" r="20.455" transform="translate(0 9.399) rotate(-13.282)" fill="#33353a"/>
          <path id="Trazado_100647" data-name="Trazado 100647" d="M1470.915,1170.111a15.409,15.409,0,1,1,15.409,15.409A15.409,15.409,0,0,1,1470.915,1170.111Z" transform="translate(-1461.716 -1145.181)" fill="#f7af70"/>
        </g>
        <g id="Grupo_53832" data-name="Grupo 53832" transform="translate(220.463 75.199)">
          <circle id="Elipse_4098" data-name="Elipse 4098" cx="12.498" cy="12.498" r="12.498" transform="translate(0 24.617) rotate(-80.008)" fill="#33353a"/>
          <path id="Trazado_100648" data-name="Trazado 100648" d="M1474.216,1119.253a9.415,9.415,0,1,1,9.415,9.415A9.414,9.414,0,0,1,1474.216,1119.253Z" transform="translate(-1469.153 -1104.58)" fill="#d6ebfb"/>
        </g>
        <g id="Grupo_53834" data-name="Grupo 53834" transform="translate(170.881 103.413)">
          <path id="Trazado_100649" data-name="Trazado 100649" d="M1436.77,1167.178s7.342,2.008,11.145,1.065,11.119-4.965,11.119-4.965l1.153,2.014s-5.985,8.916-11.517,9.929S1436.77,1167.178,1436.77,1167.178Z" transform="translate(-1412.653 -1142.668)" fill="#0ac4bf"/>
          <path id="Trazado_100650" data-name="Trazado 100650" d="M1478.727,1197.932s3.8,1.515,5.086,1.111,3.494-1.642,3.892-2.658-2.609.265-3.626,0a6.663,6.663,0,0,0-4.114,0C1477.976,1196.959,1478.727,1197.932,1478.727,1197.932Z" transform="translate(-1420.379 -1148.712)" fill="#c77d68"/>
          <path id="Trazado_100651" data-name="Trazado 100651" d="M1436.354,1305.231s.287,4.626,1.146,5.714h13.218a2.351,2.351,0,0,0-2.11-1.889c-2.089-.363-5.585-1.831-6.849-4.591C1440.428,1301.561,1436.354,1305.231,1436.354,1305.231Z" transform="translate(-1412.576 -1168.549)" fill="#33353a"/>
          <path id="Trazado_100652" data-name="Trazado 100652" d="M1407.507,1304.455s-.872,5.759.26,5.862c.15.014,5.445,0,6.885.22a36.078,36.078,0,0,0,6.272.045.621.621,0,0,0,.563-.934,2.5,2.5,0,0,0-1.8-1.152c-2.081-.4-5.551-1.93-6.767-4.712C1411.645,1300.857,1407.507,1304.455,1407.507,1304.455Z" transform="translate(-1407.187 -1168.418)" fill="#33353a"/>
          <path id="Trazado_100653" data-name="Trazado 100653" d="M1437.253,1227.558s-3.324,11.63-12.85,31.827-10.261,29.4-10.261,29.4l-6.562-.309s.616-24.039,5.116-34.231,5.416-38.083,5.416-38.083Z" transform="translate(-1407.259 -1152.44)" fill="#636363"/>
          <path id="Trazado_100654" data-name="Trazado 100654" d="M1445.614,1217.866a290.024,290.024,0,0,1-2.851,40.121c-3.116,22.112-2.059,31.5-2.059,31.5l-7.464.248s-4.46-22.12-3.181-33.188-6.107-37.977-6.107-37.977Z" transform="translate(-1410.284 -1152.755)" fill="#afafaf"/>
          <path id="Trazado_100655" data-name="Trazado 100655" d="M1432.46,1164.152l3.52,2.607,5.087-1.071c-.07-.464-.406-2.386-.712-4.127-.019-.1-.037-.205-.055-.307-.262-1.481-.488-2.755-.488-2.755l-4.751-2.367-1.771-.883c.005.031.138,1.644.156,1.88A15.206,15.206,0,0,1,1432.46,1164.152Z" transform="translate(-1411.856 -1141.185)" fill="#c77d68"/>
          <path id="Trazado_100656" data-name="Trazado 100656" d="M1445.584,1208.566c.321,3.214-25.395,7.016-25.492,1.626-.085-4.741,2.738-30.836,3.614-34.57,1.547-6.608,2.937-10.381,5.883-11.249,1.088-.315,5.1.725,7.995,1.565a4.9,4.9,0,0,1,.6.207,6.152,6.152,0,0,1,3.6,3.943c.446,1.505.96,3.431,1.377,5.557a42.5,42.5,0,0,1,.78,6.034q.037.641.04,1.279c.016,1.576.154,3.614.348,5.877.122,1.428.267,2.946.419,4.493q.067.665.132,1.338c.033.311.526,10.505.669,13.235,0,.04,0,.075,0,.109a.019.019,0,0,0,0,.013c0,.038,0,.078,0,.114C1445.573,1208.383,1445.581,1208.532,1445.584,1208.566Z" transform="translate(-1409.571 -1142.86)" fill="#6cdcd9"/>
          <path id="Trazado_100657" data-name="Trazado 100657" d="M1434.076,1157.4c1.043,2,4.931,3.723,6.553,4.358-.019-.1-.037-.205-.055-.307-.262-1.481-.488-2.755-.488-2.755l-4.751-2.367C1434.285,1156.316,1433.646,1156.58,1434.076,1157.4Z" transform="translate(-1412.13 -1141.385)" fill="#b0604d"/>
          <path id="Trazado_100658" data-name="Trazado 100658" d="M1441.6,1155.7s-8.572,2.674-10.155-2.69-3.755-8.631,1.651-10.565,7.078-.2,8.041,1.459S1443.791,1154.864,1441.6,1155.7Z" transform="translate(-1411.337 -1138.661)" fill="#c77d68"/>
          <path id="Trazado_100659" data-name="Trazado 100659" d="M1439.966,1142.722s-.546,6.241-1.838,5.97-2.461-.471-2.272,1.41,1.979,4.054-2,4.388-9.7-9.926-8.6-11.869C1428.406,1137.016,1444.523,1135.885,1439.966,1142.722Z" transform="translate(-1410.5 -1137.997)" fill="#33353a"/>
          <g id="Grupo_53833" data-name="Grupo 53833" transform="translate(46.381 15.907)">
            <path id="Trazado_100660" data-name="Trazado 100660" d="M1464.08,1162.212s1.587-3.112,2.839-4.061,4.529-.635,4.649-.382c.372.783-2.68,1.919-3.044,2.621s1.085.664-.055,1.873a11.958,11.958,0,0,1-3.236,1.963Z" transform="translate(-1464.08 -1157.51)" fill="#c77d68"/>
            <path id="Trazado_100661" data-name="Trazado 100661" d="M1467.749,1161.675c.021,0,1.034-.118,2.025-.226.728-.079,1.441-.4,1.739-.417.705-.034.209,1.085-1.317,1.642-1.291.472-1.658,1.237-2.877,1.444C1465.846,1164.366,1467.749,1161.675,1467.749,1161.675Z" transform="translate(-1464.575 -1158.16)" fill="#c77d68"/>
          </g>
          <path id="Trazado_100662" data-name="Trazado 100662" d="M1440.578,1164.141c-.111-.047-6.92-2.056-7.659-1.812s-1.178,1.675-1.178,1.675l10.512,2.995S1442,1164.74,1440.578,1164.141Z" transform="translate(-1411.723 -1142.489)" fill="#0ac4bf"/>
          <path id="Trazado_100663" data-name="Trazado 100663" d="M1480.278,1196a6.685,6.685,0,0,1,2.278-1.261c1.061-.231,1.99-1.193,1.99-.73s-.8,1.592-.8,1.991S1480.278,1196,1480.278,1196Z" transform="translate(-1420.692 -1148.323)" fill="#c77d68"/>
          <path id="Trazado_100664" data-name="Trazado 100664" d="M1447.644,1192.1c-5.461-2.072-9.6-10.125-9.6-10.125l9.213,2.969c.025.427.037.854.04,1.279C1447.312,1187.8,1447.45,1189.836,1447.644,1192.1Z" transform="translate(-1412.888 -1146.123)" fill="#0ac4bf"/>
          <path id="Trazado_100665" data-name="Trazado 100665" d="M1471.194,1192.345l.011-.045a2.021,2.021,0,0,0-1.082-2.328c-3.431-1.652-12.318-5.938-13.31-6.471-1.047-.561-11.451-10.565-14.562-13.567a2.023,2.023,0,0,0-2.034-.466l-8.62,2.817a2.024,2.024,0,0,0-.517,3.593c6.34,4.347,19.6,13.389,21.989,14.607,4.2,2.148,12.71,3.272,15.85,3.626a2.017,2.017,0,0,0,2.086-1.213A4.214,4.214,0,0,0,1471.194,1192.345Z" transform="translate(-1411.439 -1143.794)" fill="#6cdcd9"/>
        </g>
      </g>
      <g id="Grupo_53841" data-name="Grupo 53841" transform="translate(0 108.199)">
        <path id="Trazado_100666" data-name="Trazado 100666" d="M1136.091,1213.909s-10.514.995-16.157,17.47-4,47.2-8.168,50.28-26.652-4.786-28.452.271,0,5.656-4.946,3.259-13.34-3.226-11.541.785-9.293,1.322-8.994,6.788h56.6s26.8-2.777,25.868-14.769-10.385-39.94-4.694-50.512a51.955,51.955,0,0,1,13.132-16.061Z" transform="translate(-1057.828 -1156.35)" fill="#0ac4bf"/>
        <g id="Grupo_53836" data-name="Grupo 53836" transform="translate(40.012)">
          <path id="Trazado_100667" data-name="Trazado 100667" d="M1139.674,1289.5l-2.379.885s-10.331-14.329-11.6-26.936a19.179,19.179,0,0,1,.34-6.445s-.1-.577-.277-1.6c-.082-.476-.183-1.049-.3-1.705-.336-1.925-.8-4.558-1.326-7.556-1.215-6.9-2.791-15.72-4.014-22.2l.641-.205,6.935-2.237,1.433-4.552,5.164-1.36s1.154,2.257,2.185,12.917c.19,1.4.363,2.94.493,4.612a91.263,91.263,0,0,1-.492,18.672q-.355,2.78-.906,5.731a25.5,25.5,0,0,0-.2,5.659C1135.891,1273.487,1139.674,1289.5,1139.674,1289.5Z" transform="translate(-1109.349 -1157.12)" fill="#fffff6"/>
          <path id="Trazado_100668" data-name="Trazado 100668" d="M1136.967,1233.119l-11.213,22.292c-.082-.476-.183-1.049-.3-1.705-.336-1.925-.8-4.558-1.326-7.556-1.215-6.9-2.791-15.72-4.014-22.2l.641-.205,6.935-2.237,1.433-4.552,5.164-1.36s1.154,2.257,2.185,12.917C1136.664,1229.906,1136.836,1231.447,1136.967,1233.119Z" transform="translate(-1109.349 -1157.12)" fill="#fdf0e0"/>
          <path id="Trazado_100669" data-name="Trazado 100669" d="M1129.685,1217.865l-.259-2.226c-4.349,1.155-15.969-3.227-15.969-3.227s-4.212,3.7-3.66,12.58c.27,4.333.763,22.744,1.278,28.192.186,1.975.349,3.38.416,3.942l0,0a.783.783,0,0,1-.126.483,25.542,25.542,0,0,0-1.9,4c-5.056,13.472.779,30.062.779,30.062l1.514-.61s3.32-18.463,6.017-26.62a16.2,16.2,0,0,1,1.3-3.121,35.216,35.216,0,0,0,3.25-8.665,213.266,213.266,0,0,0,4.37-22.987C1126.833,1229.677,1129.685,1217.865,1129.685,1217.865Z" transform="translate(-1107 -1156.533)" fill="#fffff6"/>
          <path id="Trazado_100670" data-name="Trazado 100670" d="M1167.233,1204.443l-.324,2.178s-.144,0-.4-.018c-.792-.054-2.718-.162-4.9-.4-3.276-.324-7.164-.9-8.712-1.854-2.358-1.44-6.228-5.851-8.748-10.261a2.947,2.947,0,0,1-.18-.324,15.826,15.826,0,0,1-2.3-6.516,9.288,9.288,0,0,1,.306-2.952,7.539,7.539,0,0,1,1.332-2.664,1.35,1.35,0,0,1,.252-.306,6.216,6.216,0,0,1,1.71-1.458c.432-.18.9.036,1.386.557v.019a8.245,8.245,0,0,1,1.242,1.836c.018.018.036.036.036.054.09.162.18.341.288.54a.467.467,0,0,1,.072.126q.3.621.594,1.3c2.214,4.824,4.573,12.132,6.534,14.311.846.936,4.717,2.772,7.795,4.14C1165.433,1203.723,1167.233,1204.443,1167.233,1204.443Z" transform="translate(-1113.329 -1150.509)" fill="#c77d68"/>
          <path id="Trazado_100671" data-name="Trazado 100671" d="M1141.642,1182.313a13.546,13.546,0,0,1-5.009,1.173c-7.476.409-9.174-6.144-9.482-10.495a6.265,6.265,0,0,1,2.566-.324c.53.029,1.083.083,1.54.139.914-.477,2.557-2.8,3.507-6.68l.322.15,5.394,2.536s-.572,1.755-1,3.435a6.851,6.851,0,0,0-.369,2.94c.426.173.68.281.68.281l0,.006A37.021,37.021,0,0,1,1141.642,1182.313Z" transform="translate(-1110.649 -1147.981)" fill="#c77d68"/>
          <path id="Trazado_100672" data-name="Trazado 100672" d="M1140.741,1188.669c-.056.149-.118.295-.187.445-1.893,4.078-5.4,20.971-5.4,20.971.5,3.037-22.826-.6-22.886-3.362-.822-2.932,2.915-7.644,5.022-10.006a6.719,6.719,0,0,0,.707-.952,6.63,6.63,0,0,0,.955-2.788,96.11,96.11,0,0,0,.291-9.828h0c.412-.3.81-.587,1.181-.854a10.575,10.575,0,0,0,1.436-1.193,2.176,2.176,0,0,0,.69-1.357,7.222,7.222,0,0,0-.029-1.138c-.017-.181-.041-.361-.068-.541a15.419,15.419,0,0,0-1.083-3.618c2.006-.812,5.573-.329,5.573-.329s0,.2-.006.523c-.011,1.3,0,4.648.418,5.282.522.788,10.079,4.243,10.583,3.173.5-1.052-.864-5.983-.915-6.17l0-.006a15.086,15.086,0,0,1,4.344,2.311C1139.44,1180.481,1142.232,1184.713,1140.741,1188.669Z" transform="translate(-1107.878 -1149.431)" fill="#0ac4bf"/>
          <path id="Trazado_100673" data-name="Trazado 100673" d="M1137.5,1147.868c-.012-.324-.263-3.817-5.583-4,0,0,2.616.312,3.068,1.463,0,0-1.781-1.422-3.232-.964s-2.3,3-2.312,3.835.8,3.531,1.719,3.76a2.807,2.807,0,0,0,1.115,0,12.485,12.485,0,0,0-.715,1.276c-2.123,4.358.067,8.616,1.864,8.146,1.153-.3,1.479,1.665,1.479,1.665l11.2-9.066S1141.985,1145.473,1137.5,1147.868Z" transform="translate(-1111.071 -1143.868)" fill="#33353a"/>
          <path id="Trazado_100674" data-name="Trazado 100674" d="M1142.279,1168.848s-.574,1.754-1,3.435c-3.153-.88-4.111-4.194-4.4-5.971Z" transform="translate(-1112.447 -1148.015)" fill="#b0604d"/>
          <path id="Trazado_100675" data-name="Trazado 100675" d="M1142.842,1168.591s-7.544-1.746-6.385-6.427.967-8.06,5.833-7.143,5.356,2.934,5.349,4.591S1144.834,1168.925,1142.842,1168.591Z" transform="translate(-1112.345 -1145.901)" fill="#c77d68"/>
          <path id="Trazado_100676" data-name="Trazado 100676" d="M1147.633,1156.76c-.811-1.7-1.766-1.606-2.363-1.305a5.411,5.411,0,0,0-7.022-.6,9.212,9.212,0,0,1-4.238,4.554s1.159,1.187,4.518,1.161a5.531,5.531,0,0,0,3-1.128,18.065,18.065,0,0,1-3.934,2.934c4.205-.8,7.025-5.673,7.313-6.19a6.064,6.064,0,0,1,1.095,2.592c.078,1.285-.364,3.78.372,3.875C1146.37,1162.651,1148.85,1159.3,1147.633,1156.76Z" transform="translate(-1111.916 -1145.707)" fill="#33353a"/>
          <path id="Trazado_100677" data-name="Trazado 100677" d="M1147.711,1180.421s1.817,3.169,2.089,3.984a3.784,3.784,0,0,0-3.307,1.722S1146.265,1180.848,1147.711,1180.421Z" transform="translate(-1114.22 -1150.622)" fill="#0ac4bf"/>
          <path id="Trazado_100678" data-name="Trazado 100678" d="M1130.2,1206.023c-4.6-.049-8.5-4.825-10.877-8.644a6.63,6.63,0,0,0,.955-2.788,96.113,96.113,0,0,0,.291-9.828h0c.412-.3.81-.587,1.181-.854a10.559,10.559,0,0,0,1.436-1.193C1126.955,1189.084,1136.438,1206.089,1130.2,1206.023Z" transform="translate(-1109.202 -1151.046)" fill="#3dc9c5"/>
          <path id="Trazado_100679" data-name="Trazado 100679" d="M1118.955,1309.624h-11.981a6.58,6.58,0,0,1,.338-3.21c.6-1.33,1.539-1.934,1.314-3.542a4.316,4.316,0,0,0,3.734,1.429,13.208,13.208,0,0,0,2.079,2.694C1115.222,1307.557,1118.713,1307.356,1118.955,1309.624Z" transform="translate(-1106.908 -1173.247)" fill="#33353a"/>
          <path id="Trazado_100680" data-name="Trazado 100680" d="M1150.494,1309.745h-11.981a4.979,4.979,0,0,1,.339-3.21,2.31,2.31,0,0,0-.086-2.758,4.661,4.661,0,0,0,2.018.38,4.209,4.209,0,0,0,1.781-.627,43.2,43.2,0,0,0,3.413,3.586C1146.762,1307.679,1150.253,1307.478,1150.494,1309.745Z" transform="translate(-1112.725 -1173.369)" fill="#33353a"/>
          <path id="Trazado_100681" data-name="Trazado 100681" d="M1148.73,1207.729l-.482,1.86s-5.983-1.255-7.3-1.542h-.018c-2.25-.54-4.77-1.188-6.894-1.908a18.922,18.922,0,0,1-3.672-1.638,2.22,2.22,0,0,1-.252-.18c-2.107-1.53-4.609-6.03-6.553-10.855-.27-.666-.522-1.332-.774-1.98a49.263,49.263,0,0,1-2.052-6.84,19.445,19.445,0,0,1-.487-3.259,8.009,8.009,0,0,1-.018-.918c.037-5.22,2.628-5.941,2.628-5.941.054-.018.108-.036.18-.054.45-.072.918.234,1.4.828a16.351,16.351,0,0,1,1.926,3.4c1.026,2.323,2.106,5.328,3.114,8.317.557,1.638,1.1,3.276,1.638,4.788.307.918.612,1.782.9,2.574a24.821,24.821,0,0,0,1.512,3.51,8.714,8.714,0,0,0,2.214,2C1137.657,1201.277,1148.73,1207.729,1148.73,1207.729Z" transform="translate(-1109.369 -1149.521)" fill="#c77d68"/>
          <path id="Trazado_100682" data-name="Trazado 100682" d="M1126.365,1178.713c-3.465-.955-6.139,1.75-6.139,1.75.044-5.212,2.638-5.925,2.638-5.925C1123.908,1174.106,1125.117,1175.914,1126.365,1178.713Z" transform="translate(-1109.369 -1149.523)" fill="#0ac4bf"/>
        </g>
        <path id="Trazado_100683" data-name="Trazado 100683" d="M1285.677,1235.073c.1.287-42.761,22.028-42.761,22.028a19.145,19.145,0,0,0,11.88.812c6.935-1.606,33.54-16.911,33.54-16.911Z" transform="translate(-1092.026 -1160.72)" fill="#33353a"/>
        <path id="Trazado_100684" data-name="Trazado 100684" d="M1226.087,1230.5s-14.218,22.9-52.17-18.967a5.4,5.4,0,0,0-5.325-1.618l-14.763,3.689a2.785,2.785,0,0,1,1.957.6,3.837,3.837,0,0,1,.775,1.369c3.047,8.5,14.448,36.968,32.931,44.839,21.809,9.286,44.928,3.922,62.22-29.909Z" transform="translate(-1075.566 -1156.04)" fill="#6cdcd9"/>
        <g id="Grupo_53840" data-name="Grupo 53840" transform="translate(191.496 29.032)">
          <path id="Trazado_100685" data-name="Trazado 100685" d="M1355.587,1243.093c-.033.06-.069.124-.105.187-.841,1.461-2.77,5.043-4.895,8.962-1.005,1.859-2.058,3.795-3.056,5.616-1.72,3.143-3.285,5.942-4.2,7.422-.929,1.5-1.613,2.561-1.889,2.984l0,0a.7.7,0,0,0-.09.436,22.779,22.779,0,0,1-.061,3.942,30.233,30.233,0,0,1-9.88,19.583l-2.556.378s3.617-13.4,4.683-20.978a14.508,14.508,0,0,0,.2-3,31.428,31.428,0,0,1,.825-8.2,183.592,183.592,0,0,1,5.228-18.98c.119-.371,3.714-13.376,3.714-13.376,3.017,2.637,14.023,3.726,14.023,3.726S1359.392,1236.327,1355.587,1243.093Z" transform="translate(-1299.401 -1188.457)" fill="#6cdcd9"/>
          <path id="Trazado_100686" data-name="Trazado 100686" d="M1322.275,1309.852h10.67a5.866,5.866,0,0,0-.3-2.86c-.534-1.184-1.3-1.221-.1-3.077-.678.7-2.857.986-4.4.779a13.082,13.082,0,0,1-1.85,2.816C1325.6,1308.012,1322.49,1307.833,1322.275,1309.852Z" transform="translate(-1298.185 -1202.472)" fill="#33353a"/>
          <path id="Trazado_100687" data-name="Trazado 100687" d="M1359.918,1245.073c-.033.06-.069.124-.105.187-.841,1.461-5.389,9.861-7.513,13.78a56.813,56.813,0,0,0,.749-20.258Z" transform="translate(-1303.733 -1190.437)" fill="#0ac4bf"/>
          <path id="Trazado_100688" data-name="Trazado 100688" d="M1311.131,1184.084s-.422-4.6,4.721-4.6a6.045,6.045,0,0,0-2.364,1.269,6.083,6.083,0,0,1,6.85,1.034c3.57,2.959,1.351,10.381,2.438,11.791s5.314,1.691,4.8,6.248-13.418,10.264-12.59,14.033c0,0-5.056-7.432-1.441-10.824a6.7,6.7,0,0,0-1.942,3.633s-.478-3.853,1.973-5.084c2.169-1.09,3.947-5.078,3.758-5.791S1311.131,1184.084,1311.131,1184.084Z" transform="translate(-1296.125 -1179.48)" fill="#33353a"/>
          <path id="Trazado_100689" data-name="Trazado 100689" d="M1315.42,1208.84s-7.318,18.467-8.9,17.783-10.87-3.636-10.87-3.636l-.611,2.262s8.844,6.815,13.394,7.114,10.715-13.11,10.715-13.11Z" transform="translate(-1293.153 -1184.905)" fill="#c77d68"/>
          <g id="Grupo_53839" data-name="Grupo 53839" transform="translate(0 34.75)">
            <g id="Grupo_53837" data-name="Grupo 53837" transform="translate(3.045 22.701)">
              <path id="Trazado_100690" data-name="Trazado 100690" d="M1301.29,1251.059a9.21,9.21,0,1,1-3.723,12.481A9.221,9.221,0,0,1,1301.29,1251.059Zm7.056,13.053a5.628,5.628,0,1,0-7.627-2.275A5.635,5.635,0,0,0,1308.345,1264.113Z" transform="translate(-1296.461 -1249.953)" fill="#33353a"/>
            </g>
            <g id="Grupo_53838" data-name="Grupo 53838">
              <path id="Trazado_100691" data-name="Trazado 100691" d="M1292.982,1229.163a9.21,9.21,0,1,1,6.8,11.109A9.221,9.221,0,0,1,1292.982,1229.163Zm3.483.837a5.628,5.628,0,1,0,6.788-4.155A5.635,5.635,0,0,0,1296.464,1230Z" transform="translate(-1292.725 -1222.106)" fill="#33353a"/>
            </g>
          </g>
          <path id="Trazado_100692" data-name="Trazado 100692" d="M1311.591,1184.316c-.07-.281,6.094,2.786,6.406,3.132,2.891,3.206,2.067,7.391.412,7.431-1.061.026-.855,1.789-.855,1.789l-11.818-5S1307.16,1183.372,1311.591,1184.316Z" transform="translate(-1295.13 -1180.36)" fill="#33353a"/>
          <path id="Trazado_100693" data-name="Trazado 100693" d="M1317.432,1209.312s-1.573,1.63-1.573,6.507c0,0,2.168,3.423,7.792,4.29C1323.651,1220.109,1318.816,1209.309,1317.432,1209.312Z" transform="translate(-1297 -1184.992)" fill="#43474f"/>
          <path id="Trazado_100694" data-name="Trazado 100694" d="M1351.435,1232.08l-.036-1.995c3.975.5,13.708-4.751,13.708-4.751s4.159,2.767,4.728,10.667c.278,3.856,2.036,20.164,2.23,25.034.071,1.764.095,3.024.1,3.528v0a.7.7,0,0,0,.17.411,22.759,22.759,0,0,1,2.154,3.3c6.067,11.288,2.894,26.625,2.894,26.625l-1.409-.358s-5.129-15.9-8.482-22.777a14.393,14.393,0,0,0-1.518-2.6,31.387,31.387,0,0,1-3.9-7.26C1359.6,1255.994,1351.435,1232.08,1351.435,1232.08Z" transform="translate(-1303.566 -1187.952)" fill="#6cdcd9"/>
          <path id="Trazado_100695" data-name="Trazado 100695" d="M1372.868,1309.835h10.669a5.854,5.854,0,0,0-.3-2.86c-.534-1.184-1.37-1.722-1.17-3.154a3.841,3.841,0,0,1-3.325,1.272,11.708,11.708,0,0,1-1.851,2.4C1376.192,1307.994,1373.082,1307.816,1372.868,1309.835Z" transform="translate(-1307.533 -1202.454)" fill="#33353a"/>
          <path id="Trazado_100696" data-name="Trazado 100696" d="M1324.728,1220.93c1.433.244-.234,1.384,1.737,1.6,2.806.307,5.7.516,7.219,1.121a1.626,1.626,0,0,1,1.039.842c.658,1.978,3.556,5.029,3.556,5.029,18.578-.845,20.618-8.616,20.618-8.616-12.057-11.71-23.144-18.616-31.609-19.53-1.449-.156-3.281.763-4.585,1.344-2.966,1.32-4.914,5.125-4.914,5.125S1319.283,1220,1324.728,1220.93Z" transform="translate(-1297.356 -1183.522)" fill="#43474f"/>
          <path id="Trazado_100697" data-name="Trazado 100697" d="M1328.431,1223.9c2.806.307,5.7.516,7.22,1.121a29.589,29.589,0,0,0-3.753-16.235S1329.046,1220.4,1328.431,1223.9Z" transform="translate(-1299.323 -1184.895)" fill="#33353a"/>
          <path id="Trazado_100698" data-name="Trazado 100698" d="M1324.181,1206.861s7.055-.386,8.309,4.044-2.352,22.109-3.129,23.934c-1.414,3.322-8.3,12.8-8.3,12.8l-2.533-.77s4.592-14.485,5.617-15.919C1325.753,1228.7,1322.069,1208.788,1324.181,1206.861Z" transform="translate(-1297.493 -1184.538)" fill="#c77d68"/>
          <path id="Trazado_100699" data-name="Trazado 100699" d="M1317.964,1255.872a3.99,3.99,0,0,1-.6,1.7c-.474.579-1.855,1.983-1.879,2.8,0,0,.069.365.365.3s1.325-1.085,1.852-1.012a10.191,10.191,0,0,1-.561,2.109,6.041,6.041,0,0,0,.111,2.83c.167.4,2.226-2.147,3.072-3.285s.014-5.756.014-5.756Z" transform="translate(-1296.93 -1193.538)" fill="#c77d68"/>
          <path id="Trazado_100700" data-name="Trazado 100700" d="M1334.636,1216.532c-.019.1-6.677,1.224-10.841-.889,0,0-3.479-10.9,1.493-10.377s7.915,2.088,8.041,4.468A45.866,45.866,0,0,0,1334.636,1216.532Z" transform="translate(-1298.247 -1184.241)" fill="#43474f"/>
          <path id="Trazado_100701" data-name="Trazado 100701" d="M1295.677,1225.134s-1.83-.378-2.5.577-.225,3.822,1.012,3.709,1.355-1.911,1.493-2.585A6.413,6.413,0,0,0,1295.677,1225.134Z" transform="translate(-1292.75 -1187.902)" fill="#c77d68"/>
          <path id="Trazado_100702" data-name="Trazado 100702" d="M1322.083,1202.187s-1.962,7.318-4.914,5.125a6.035,6.035,0,0,0-1.039-2.424c-.775-1.334-1.7-2.7-1.7-2.7l3.993-3.5.239-.209A10.544,10.544,0,0,0,1322.083,1202.187Z" transform="translate(-1296.736 -1182.991)" fill="#c77d68"/>
          <path id="Trazado_100703" data-name="Trazado 100703" d="M1314.431,1202.241s.923,1.359,1.7,2.694c2.481-1.53,2.484-4.6,2.293-6.195Z" transform="translate(-1296.736 -1183.039)" fill="#b0604d"/>
          <path id="Trazado_100704" data-name="Trazado 100704" d="M1312.82,1202.376s6.026-3.354,3.88-7.074-2.813-6.66-6.752-4.676-3.86,3.831-3.446,5.247S1311.2,1203.152,1312.82,1202.376Z" transform="translate(-1295.236 -1181.422)" fill="#c77d68"/>
          <path id="Trazado_100705" data-name="Trazado 100705" d="M1305.288,1193.589c.276-1.652,1.115-1.809,1.7-1.7a4.82,4.82,0,0,1,5.862-2.244,8.2,8.2,0,0,0,4.75,2.853s-.7,1.3-3.581,2.106a4.918,4.918,0,0,1-2.842-.227,16.1,16.1,0,0,0,4.089,1.542c-3.8.347-7.41-3.124-7.784-3.495a5.405,5.405,0,0,0-.3,2.487c.25,1.119,1.243,3.145.637,3.408C1307.82,1198.319,1304.874,1196.066,1305.288,1193.589Z" transform="translate(-1295.039 -1181.307)" fill="#33353a"/>
        </g>
        <path id="Trazado_100706" data-name="Trazado 100706" d="M1288.128,1257.22c.025-.3-46.98-10.323-46.98-10.323a19.146,19.146,0,0,1,11.274-3.832c7.115-.227,36.756,7.743,36.756,7.743Z" transform="translate(-1091.699 -1162.196)" fill="#33353a"/>
        <path id="Trazado_100707" data-name="Trazado 100707" d="M1275.422,1248.885a1.028,1.028,0,1,1-1.016,1.041A1.027,1.027,0,0,1,1275.422,1248.885Z" transform="translate(-1097.844 -1163.272)" fill="#6cdcd9"/>
        <path id="Trazado_100708" data-name="Trazado 100708" d="M1153.186,1214.44a29.584,29.584,0,0,1,3.636,1.649,7.549,7.549,0,0,1,1.927,2.769s-.011.326-.314.326-.986-1.167-1.485-.981a10.213,10.213,0,0,0,1.008,1.936,6.047,6.047,0,0,1,.51,2.786c-.076.426-2.641-1.609-3.716-2.535-.572-.492-.556-1.689-.733-3.04-.156-1.184-3.427-1.87-3.427-1.87Z" transform="translate(-1074.968 -1156.907)" fill="#c77d68"/>
      </g>
    </g>
  </g>
</svg>
