<svg xmlns="http://www.w3.org/2000/svg" width="40.95" height="36.461" viewBox="0 0 40.95 36.461">
  <g id="Grupo_57100" data-name="Grupo 57100" transform="translate(3190.577 9378.131)">
    <g id="Grupo_57099" data-name="Grupo 57099" transform="translate(-3970.078 -10690.437)">
      <path id="Trazado_100854" data-name="Trazado 100854" d="M5376.989,2147.669a3.721,3.721,0,0,1-3.256,1.88h-33.418a3.76,3.76,0,0,1-3.255-5.64l16.709-28.941a3.759,3.759,0,0,1,6.512,0l16.709,28.941A3.722,3.722,0,0,1,5376.989,2147.669Z" transform="translate(-4557.049 -800.78)" fill="#fff"/>
      <path id="Trazado_100855" data-name="Trazado 100855" d="M5380.291,2147.669a3.72,3.72,0,0,1-3.256,1.88h-16.709v-36.461a3.719,3.719,0,0,1,3.255,1.88l16.709,28.941A3.722,3.722,0,0,1,5380.291,2147.669Z" transform="translate(-4560.351 -800.78)" fill="#fff"/>
      <g id="Grupo_53955" data-name="Grupo 53955" transform="translate(796.606 1321.058)">
        <g id="Grupo_53954" data-name="Grupo 53954">
          <path id="Trazado_100856" data-name="Trazado 100856" d="M5363.151,2126.618v8.753a3.369,3.369,0,1,1-6.737,0v-8.753a3.369,3.369,0,1,1,6.737,0Z" transform="translate(-5356.414 -2123.249)" fill="#339ce9"/>
          <path id="Trazado_100857" data-name="Trazado 100857" d="M5363.151,2145.814a3.369,3.369,0,1,1-3.368-3.369A3.373,3.373,0,0,1,5363.151,2145.814Z" transform="translate(-5356.414 -2125.915)" fill="#339ce9"/>
        </g>
      </g>
    </g>
  </g>
</svg>
