<svg xmlns="http://www.w3.org/2000/svg" width="260" height="255.433" viewBox="0 0 260 255.433"><g transform="translate(-1549 10320)"><rect width="260" height="255" transform="translate(1549 -10319.781)" fill="#fff"/><g transform="translate(-6213.431 -11043)"><path d="M7762.932,723.5h43.1v42.044h-43.1V723.5Z" transform="translate(0.131 0.132)" fill-rule="evenodd"/><path d="M7831.1,723.5h43.1v42.044h-43.1V723.5Z" transform="translate(18.156 0.132)" fill-rule="evenodd"/><path d="M7899.27,723.5h43.174v42.044H7899.27V723.5Z" transform="translate(36.18 0.132)" fill-rule="evenodd"/><path d="M7797.016,756.752h43.1V798.8h-43.1V756.752Z" transform="translate(9.144 8.924)" fill-rule="evenodd"/><path d="M7865.185,756.752h43.1V798.8h-43.1V756.752Z" transform="translate(27.169 8.924)" fill-rule="evenodd"/><path d="M7933.415,756.752h43.175V798.8h-43.175V756.752Z" transform="translate(45.209 8.924)" fill-rule="evenodd"/><path d="M7762.932,790h43.1v43.948h-43.1V790Z" transform="translate(0.131 17.716)" fill-rule="evenodd"/><path d="M7831.1,790h43.1v43.948h-43.1V790Z" transform="translate(18.156 17.716)" fill-rule="evenodd"/><path d="M7899.27,790h43.174v43.948H7899.27V790Z" transform="translate(36.18 17.716)" fill-rule="evenodd"/><path d="M7797.016,824.761h43.1v42.044h-43.1V824.761Z" transform="translate(9.144 26.906)" fill-rule="evenodd"/><path d="M7865.185,824.761h43.1v42.044h-43.1V824.761Z" transform="translate(27.169 26.906)" fill-rule="evenodd"/><path d="M7933.415,824.761h43.175v42.044h-43.175V824.761Z" transform="translate(45.209 26.906)" fill-rule="evenodd"/><path d="M7762.932,858.014h43.1v42.044h-43.1V858.014Z" transform="translate(0.131 35.698)" fill-rule="evenodd"/><path d="M7831.1,858.014h43.1v42.044h-43.1V858.014Z" transform="translate(18.156 35.698)" fill-rule="evenodd"/><path d="M7899.27,858.014h43.174v42.044H7899.27V858.014Z" transform="translate(36.18 35.698)" fill-rule="evenodd"/><path d="M7797.016,891.265h43.1v42.044h-43.1V891.265Z" transform="translate(9.144 44.49)" fill-rule="evenodd"/><path d="M7865.185,891.265h43.1v42.044h-43.1V891.265Z" transform="translate(27.169 44.49)" fill-rule="evenodd"/><path d="M7933.415,891.265h43.175v42.044h-43.175V891.265Z" transform="translate(45.209 44.49)" fill-rule="evenodd"/><line y2="255.432" transform="translate(7806.16 723)" fill="none" stroke="#000" stroke-linejoin="round" stroke-width="1"/><line y2="255.432" transform="translate(7849.256 723)" fill="none" stroke="#000" stroke-linejoin="round" stroke-width="1"/><line y2="255.432" transform="translate(7892.354 723)" fill="none" stroke="#000" stroke-linejoin="round" stroke-width="1"/><line y2="255.432" transform="translate(7935.45 723)" fill="none" stroke="#000" stroke-linejoin="round" stroke-width="1"/><line y2="255.432" transform="translate(7978.624 723)" fill="none" stroke="#000" stroke-linejoin="round" stroke-width="1"/><line x2="260" transform="translate(7762.431 765.676)" fill="none" stroke="#000" stroke-linejoin="round" stroke-width="1"/><line x2="260" transform="translate(7762.431 807.72)" fill="none" stroke="#000" stroke-linejoin="round" stroke-width="1"/><line x2="260" transform="translate(7762.431 851.668)" fill="none" stroke="#000" stroke-linejoin="round" stroke-width="1"/><line x2="260" transform="translate(7762.431 893.712)" fill="none" stroke="#000" stroke-linejoin="round" stroke-width="1"/><line x2="260" transform="translate(7762.431 935.756)" fill="none" stroke="#000" stroke-linejoin="round" stroke-width="1"/><line y2="255.432" transform="translate(7763.063 723)" fill="none" stroke="#000" stroke-linejoin="round" stroke-width="1"/><line y2="255.432" transform="translate(8021.798 723)" fill="none" stroke="#000" stroke-linejoin="round" stroke-width="1"/><line x2="260" transform="translate(7762.431 723.632)" fill="none" stroke="#000" stroke-linejoin="round" stroke-width="1"/><line x2="260" transform="translate(7762.431 977.8)" fill="none" stroke="#000" stroke-linejoin="round" stroke-width="1"/></g></g></svg>