<svg xmlns="http://www.w3.org/2000/svg" width="48.945" height="81.576" viewBox="0 0 48.945 81.576"><g transform="translate(-142.078 1221.198)"><rect width="48.945" height="1.512" transform="translate(142.078 -1141.134)" fill="#0ac4bf"/><g transform="translate(0 -5)"><path d="M164.079-1185.71a1.3,1.3,0,0,0-1.773-.475l-1.649.952v-1.9a1.3,1.3,0,0,0-1.3-1.3,1.3,1.3,0,0,0-1.3,1.3v1.9l-1.649-.952a1.3,1.3,0,0,0-1.772.475,1.3,1.3,0,0,0,.475,1.772l1.649.952-1.649.952a1.3,1.3,0,0,0-.475,1.773,1.3,1.3,0,0,0,1.125.649,1.292,1.292,0,0,0,.647-.175l1.649-.952v1.905a1.3,1.3,0,0,0,1.3,1.3,1.3,1.3,0,0,0,1.3-1.3v-1.905l1.649.952a1.3,1.3,0,0,0,.648.175,1.3,1.3,0,0,0,1.125-.649,1.3,1.3,0,0,0-.475-1.773l-1.649-.952,1.649-.952A1.3,1.3,0,0,0,164.079-1185.71Z" transform="translate(0.21 -0.766)" fill="#0ac4bf"/><path d="M177.336-1179.612a1.3,1.3,0,0,0,1.125-.649,1.3,1.3,0,0,0-.475-1.773l-1.65-.952,1.65-.952a1.3,1.3,0,0,0,.475-1.772,1.3,1.3,0,0,0-1.772-.475l-1.65.952v-1.9a1.3,1.3,0,0,0-1.3-1.3,1.3,1.3,0,0,0-1.3,1.3v1.9l-1.649-.952a1.3,1.3,0,0,0-1.772.475,1.3,1.3,0,0,0,.475,1.772l1.649.952-1.649.952a1.3,1.3,0,0,0-.475,1.773,1.3,1.3,0,0,0,1.125.649,1.289,1.289,0,0,0,.647-.175l1.649-.952v1.905a1.3,1.3,0,0,0,1.3,1.3,1.3,1.3,0,0,0,1.3-1.3v-1.905l1.65.952A1.289,1.289,0,0,0,177.336-1179.612Z" transform="translate(0.593 -0.766)" fill="#0ac4bf"/><path d="M180.044-1172.351a1.308,1.308,0,0,0,.917-.38,1.31,1.31,0,0,0,.38-.918,1.308,1.308,0,0,0-.38-.917,1.306,1.306,0,0,0-.917-.38,1.306,1.306,0,0,0-.917.38,1.3,1.3,0,0,0-.38.917,1.306,1.306,0,0,0,.38.918A1.306,1.306,0,0,0,180.044-1172.351Z" transform="translate(0.803 -0.99)" fill="#0ac4bf"/><path d="M187.334-1214.93a1.3,1.3,0,0,0-1.324-1.268,1.3,1.3,0,0,0-1.323,1.268v3.8h-3.706v-3.8a1.3,1.3,0,0,0-1.323-1.268,1.3,1.3,0,0,0-1.324,1.268v3.8h-3.7v-3.8a1.3,1.3,0,0,0-1.324-1.268,1.3,1.3,0,0,0-1.323,1.268v3.8h-3.706v-3.8a1.3,1.3,0,0,0-1.323-1.268,1.3,1.3,0,0,0-1.324,1.268v3.8h-3.7v-3.8a1.3,1.3,0,0,0-1.324-1.268,1.3,1.3,0,0,0-1.323,1.268v3.8H155.57v-3.8a1.3,1.3,0,0,0-1.323-1.268,1.3,1.3,0,0,0-1.324,1.268v3.8h-3.706v-3.8a1.3,1.3,0,0,0-1.323-1.268,1.3,1.3,0,0,0-1.323,1.268v62.356a1.3,1.3,0,0,0,1.323,1.267,1.3,1.3,0,0,0,1.323-1.267v-3.8h3.706v3.8a1.3,1.3,0,0,0,1.324,1.267,1.3,1.3,0,0,0,1.323-1.267v-3.8h3.706v3.8a1.3,1.3,0,0,0,1.323,1.267,1.3,1.3,0,0,0,1.324-1.267v-3.8h3.7v3.8a1.3,1.3,0,0,0,1.324,1.267,1.3,1.3,0,0,0,1.323-1.267v-3.8h3.706v3.8a1.3,1.3,0,0,0,1.323,1.267,1.3,1.3,0,0,0,1.324-1.267v-3.8h3.7v3.8a1.3,1.3,0,0,0,1.324,1.267,1.3,1.3,0,0,0,1.323-1.267v-3.8h3.706v3.8a1.3,1.3,0,0,0,1.323,1.267,1.3,1.3,0,0,0,1.324-1.267v-62.356Zm-2.647,20.784h-35.47v-5.228l1.553,1.487a1.367,1.367,0,0,0,1.872,0l2.876-2.754,2.877,2.754a1.367,1.367,0,0,0,1.872,0l2.876-2.754,2.875,2.754a1.367,1.367,0,0,0,1.872,0l2.877-2.754,2.876,2.754a1.35,1.35,0,0,0,.935.371,1.354,1.354,0,0,0,.936-.371l2.876-2.754,2.876,2.754a1.367,1.367,0,0,0,1.872,0l1.552-1.487v5.228Zm-35.47,20.783h26.205a1.3,1.3,0,0,0,1.323-1.268,1.3,1.3,0,0,0-1.323-1.267H149.217v-15.713h35.47v23.476l-1.553-1.487a1.366,1.366,0,0,0-1.871,0l-2.877,2.755-2.876-2.755a1.367,1.367,0,0,0-1.872,0l-2.876,2.755-2.876-2.755a1.367,1.367,0,0,0-1.872,0l-2.876,2.755-2.876-2.755a1.367,1.367,0,0,0-1.872,0l-2.876,2.755-2.876-2.755a1.367,1.367,0,0,0-1.872,0l-1.553,1.487v-5.227Zm35.47-29.6-2.488,2.383-2.876-2.754a1.367,1.367,0,0,0-1.872,0l-2.876,2.754-2.877-2.754a1.365,1.365,0,0,0-1.871,0l-2.876,2.754-2.877-2.754a1.367,1.367,0,0,0-1.872,0l-2.876,2.754-2.876-2.754a1.367,1.367,0,0,0-1.872,0l-2.876,2.754-2.488-2.383v-5.638h4.953c.025,0,.051,0,.077,0s.051,0,.077,0h6.2c.026,0,.051,0,.078,0s.051,0,.077,0h6.2c.025,0,.051,0,.077,0s.051,0,.078,0h6.2c.027,0,.052,0,.078,0s.051,0,.077,0h6.2c.026,0,.051,0,.078,0s.051,0,.077,0h4.952v5.638Zm-35.47,38.409,2.488-2.383,2.877,2.754a1.365,1.365,0,0,0,1.872,0l2.876-2.754,2.876,2.754a1.365,1.365,0,0,0,1.872,0l2.876-2.754,2.876,2.754a1.365,1.365,0,0,0,1.872,0l2.876-2.754,2.876,2.754a1.365,1.365,0,0,0,1.872,0l2.876-2.754,2.488,2.383v5.638H149.218v-5.638Z" fill="#0ac4bf"/></g></g></svg>