<svg xmlns="http://www.w3.org/2000/svg" xmlns:xlink="http://www.w3.org/1999/xlink" width="190" height="150" viewBox="0 0 190 150"><defs><linearGradient id="a" x1="-484.447" y1="0.905" x2="-485.112" y2="-0.007" gradientUnits="objectBoundingBox"><stop offset="0.257" stop-color="#c9bd9b"/><stop offset="0.295" stop-color="#d8cfb6"/><stop offset="0.657" stop-color="#d8cfb6"/><stop offset="0.684" stop-color="#e5dfcf"/></linearGradient><linearGradient id="b" x1="-360.829" y1="0.893" x2="-361.456" y2="0.007" xlink:href="#a"/><linearGradient id="c" x1="-3675.594" y1="0.5" x2="-3674.744" y2="0.5" gradientUnits="objectBoundingBox"><stop offset="0.01" stop-color="#7b827f"/><stop offset="0.11" stop-color="#848c89"/><stop offset="0.284" stop-color="#9ea8a6"/><stop offset="0.392" stop-color="#b2bdbb"/><stop offset="0.393" stop-color="#b6c0be"/><stop offset="0.403" stop-color="#cbd4d2"/><stop offset="0.414" stop-color="#dce4e2"/><stop offset="0.427" stop-color="#e8efed"/><stop offset="0.447" stop-color="#eff5f3"/><stop offset="0.5" stop-color="#f1f7f5"/><stop offset="0.573" stop-color="#eff5f3"/><stop offset="0.6" stop-color="#e8efed"/><stop offset="0.619" stop-color="#dce4e2"/><stop offset="0.634" stop-color="#cbd5d3"/><stop offset="0.646" stop-color="#b8c4c2"/><stop offset="0.68" stop-color="#aeb9b7"/><stop offset="0.83" stop-color="#89908e"/><stop offset="0.867" stop-color="#929a97"/><stop offset="0.97" stop-color="#a8b3ae"/></linearGradient><linearGradient id="d" y1="0.5" x2="1" y2="0.5" gradientUnits="objectBoundingBox"><stop offset="0.01" stop-color="#7b827f"/><stop offset="0.11" stop-color="#848c89"/><stop offset="0.284" stop-color="#9ea8a6"/><stop offset="0.392" stop-color="#b2bdbb"/><stop offset="0.568" stop-color="#dde5e3"/><stop offset="0.641" stop-color="#f1f7f5"/><stop offset="0.789" stop-color="#eff5f3"/><stop offset="0.843" stop-color="#e8eeec"/><stop offset="0.881" stop-color="#dce3e1"/><stop offset="0.912" stop-color="#cbd4d0"/><stop offset="0.938" stop-color="#b5bfbb"/><stop offset="0.951" stop-color="#a8b3ae"/><stop offset="1" stop-color="#89908e"/></linearGradient><linearGradient id="e" y1="0.5" x2="1" y2="0.5" gradientUnits="objectBoundingBox"><stop offset="0" stop-color="#c40700"/><stop offset="0.181" stop-color="#e31510"/><stop offset="0.441" stop-color="#f22421"/><stop offset="0.512" stop-color="#f62826"/><stop offset="0.678" stop-color="#ff3030"/><stop offset="0.848" stop-color="#fc2d2c"/><stop offset="0.982" stop-color="#f32522"/><stop offset="1" stop-color="#f22421"/></linearGradient><linearGradient id="f" y1="0.5" x2="1" y2="0.5" gradientUnits="objectBoundingBox"><stop offset="0" stop-color="#a0897f"/><stop offset="0.257" stop-color="#bfaba6"/><stop offset="0.295" stop-color="#cec4c2"/><stop offset="0.657" stop-color="#cec4c2"/><stop offset="0.684" stop-color="#dbdbdb"/></linearGradient><linearGradient id="g" y1="0.5" x2="1" y2="0.5" gradientUnits="objectBoundingBox"><stop offset="0.316" stop-color="#dbdbdb"/><stop offset="0.343" stop-color="#cec4c2"/><stop offset="0.705" stop-color="#cec4c2"/><stop offset="0.743" stop-color="#bfaba6"/><stop offset="1" stop-color="#a0897f"/></linearGradient><linearGradient id="h" x1="0" y1="0.5" x2="1" y2="0.5" xlink:href="#d"/><linearGradient id="i" y1="0.5" x2="1" y2="0.5" gradientUnits="objectBoundingBox"><stop offset="0" stop-color="#d06800"/><stop offset="0.181" stop-color="#ef7d0f"/><stop offset="0.441" stop-color="#fe8a1f"/><stop offset="0.481" stop-color="#fe8a21"/><stop offset="0.678" stop-color="#ff8e2b"/><stop offset="0.864" stop-color="#fe8c27"/><stop offset="1" stop-color="#fe8a1f"/></linearGradient><linearGradient id="j" x1="0" y1="0.5" x2="1" y2="0.5" xlink:href="#f"/><linearGradient id="k" x1="0" y1="0.5" x2="1" y2="0.5" xlink:href="#g"/></defs><g transform="translate(-2223.048 -104.423)"><path d="M0,0H190V150H0Z" transform="translate(2223.048 104.423)" fill="#f2d6e3"/><g transform="translate(-6.44)"><path d="M2260.488,208.141l64.92,37.461,40.347-23.567-64.92-37.461Z" transform="translate(0 7.016)" fill="#b0b4b5"/><path d="M2354.016,219.971l7.78-.571-2.773,2.06-11.882.287Z" transform="translate(9.048 10.652)" fill="#b0b4b5"/><path d="M2323.771,236.623l10.218-.179-5.089,1.895-9.566.452Z" transform="translate(6.144 12.432)" fill="#b0b4b5"/><g transform="translate(2331.104 228.847)"><path d="M2324.428,242.277l2.182,1.284,5.545.323,35.436-24.292-2.182-1.284Z" transform="translate(-2324.428 -218.308)" fill="#bcbcbc"/></g><path d="M2336.862,205.464s-.963,3.119-1.285,3.807a14.636,14.636,0,0,1-3.027,3.67,4.789,4.789,0,0,0-1.973,2.707c-.093.826.78,3.257,1.468,3.67s3.073.183,3.715-.6,2.937-3.578,2.937-3.578l1.7-2.89s3.3-1.284,3.577-2.156.643-1.912.643-1.912.23-2.308-.734-2.951-3.119-2.064-3.119-2.064Z" transform="translate(7.318 8.958)" fill="#6b2912"/><path d="M2346.167,207.711a2.873,2.873,0,0,0-1.606,2.1,14.587,14.587,0,0,1-1.238,4.221c-.459.733-3.946,5.871-4.4,6.789s-.643,2.064.367,2.432,3.3,1.193,4.817.55,3.3-1.284,3.624-1.972a19.121,19.121,0,0,0,1.56-3.9,21.479,21.479,0,0,1,1.7-4.633c.322-.458.366-3.808.366-3.808Z" transform="translate(8.151 9.432)" fill="#6b2912"/><path d="M2340.941,187.447s.668,7.523.884,9.909,1.96,7.523,1.96,8.441a6.146,6.146,0,0,1-2.845,3.945c-1.376.55-4.312,0-4.312,0s-3.578-8.9-4.863-11.744a35.8,35.8,0,0,1-2.477-10.918C2329.216,184.271,2340.941,187.447,2340.941,187.447Z" transform="translate(7.184 7.157)" fill="#323232"/><path d="M2347.288,163.46s-5.689,4.313-12.2,13.67-6.147,8.9-5.781,12.294,3.67,5.506,7.982,3.946,6.973-4.679,8.258-5.6,11.56-8.258,13.946-12.2S2348.388,163.368,2347.288,163.46Z" transform="translate(7.168 4.811)" fill="#404040"/><path d="M2352.655,192.2s.826,6.607.733,8.624-2.11,10.552-2.11,10.552a7.532,7.532,0,0,1-3.578,1.559c-1.927.183-3.12-2.2-3.12-2.2s-.712-7.238-1.365-8.161-2.213-10.1-2.213-10.1Z" transform="translate(8.407 7.813)" fill="#4d4d4d"/><path d="M2353.027,170.926v5.779c0,.459-9.266,11.01-10.459,13.12s-1.836,3.67-1.561,5.229,1.956,5.414,5.978,4.129a22.732,22.732,0,0,0,7.692-3.762c1.469-1.193,12.754-8.624,14.405-9.634s4.771-5.322,4.679-8.441a83.813,83.813,0,0,0-1.468-9.817Z" transform="translate(8.401 5.237)" fill="#555"/><path d="M2343.641,138.6a15.612,15.612,0,0,0-3.67,4.06,22.157,22.157,0,0,1-5.9,6.3c-1.865,1.224-2.906,2.263-3.181,3.3s2.111,6.453,3.976,5.413a26.149,26.149,0,0,0,4.374-3.67c.336-.275,4.4-3.3,5.229-4.526s2.337-1.934,2.82-3.735-.441-4.583-.441-4.583Z" transform="translate(7.349 2.215)" fill="#f6b486"/><path d="M2350.852,134.2s-4.147-.073-6.1,1.946-3.976,4.021-3.976,4.021,2.168,2.584,3.194,3.685,1.515,3,2.739,3S2350.852,134.2,2350.852,134.2Z" transform="translate(8.383 1.756)" fill="#3d7dc0"/><path d="M2375.595,142.169s-1.514,14.267-2.477,16.973a46.152,46.152,0,0,0-1.7,11.79c.183,1.927.413,3.853.413,3.853s-4.817,3.991-16.837,2.386-11.285-9.862-11.33-10.229,1.009-.734.917-6.01a119.133,119.133,0,0,1,1.927-17.89,87.384,87.384,0,0,1,3.624-8.624c.459-.643,8.717-.643,10.093-.275S2372.2,138.086,2375.595,142.169Z" transform="translate(8.685 1.724)" fill="#589fed"/><g transform="translate(2268.053 139.243)"><g transform="translate(42.965 48.887)"><g transform="translate(0 0.531)"><path d="M2306.241,184.514l2.321.946v-2.172l-2.321-1.366Z" transform="translate(-2306.241 -181.922)" fill="#50535a"/></g><g transform="translate(2.321 1.366)"><path d="M2308.343,185.381l.835-.517v-2.186l-.835.531Z" transform="translate(-2308.343 -182.677)" fill="#232323"/></g><path d="M2306.241,181.972l2.321,1.366.835-.531-2.322-1.366Z" transform="translate(-2306.241 -181.441)" fill="#686a73"/></g><g transform="translate(2.048 49.573)"><g transform="translate(0 23.969)"><path d="M2269.192,205.708l2.182,1.271v-1.931l-2.182-1.283Z" transform="translate(-2269.192 -203.765)" fill="#5f5f5f"/></g><g transform="translate(2.182 1.283)"><path d="M2271.168,209.124l40.981-23.956v-1.944l-40.981,23.969Z" transform="translate(-2271.168 -183.224)" fill="#939394"/></g><path d="M2269.192,206.031l2.182,1.283,40.981-23.969-2.182-1.283Z" transform="translate(-2269.192 -182.062)" fill="#d9d9d9"/></g><path d="M2272.446,208.747l1.841-1.05V159.968l-1.841,1.051Z" transform="translate(-2266.804 -134.796)" fill="#939394"/><path d="M2270.643,207.547l1.992,1.2V161.019l-1.992-1.051Z" transform="translate(-2266.992 -134.796)" fill="#5f5f5f"/><path d="M2305.732,189.22l1.841-1.051V140.44l-1.841,1.052Z" transform="translate(-2263.329 -136.835)" fill="#8d919c"/><path d="M2303.928,188.019l1.992,1.2V141.492l-1.992-1.052Z" transform="translate(-2263.517 -136.835)" fill="#b6b8d1"/><g transform="translate(68.597 87.997)"><g transform="translate(0 23.969)"><path d="M2329.449,240.5l2.182,1.271V239.84l-2.182-1.283Z" transform="translate(-2329.449 -238.556)" fill="#5f5f5f"/></g><g transform="translate(2.182 1.284)"><path d="M2331.425,243.915l40.981-23.956v-1.944l-40.981,23.969Z" transform="translate(-2331.425 -218.016)" fill="#939394"/></g><path d="M2329.449,240.822l2.182,1.283,40.981-23.969-2.182-1.284Z" transform="translate(-2329.449 -216.853)" fill="#d9d9d9"/></g><path d="M2332.7,243.539l1.841-1.05V194.76l-1.841,1.051Z" transform="translate(-2260.512 -131.163)" fill="#939394"/><path d="M2330.9,242.338l1.992,1.2V195.811l-1.992-1.051Z" transform="translate(-2260.701 -131.163)" fill="#5f5f5f"/><path d="M2365.989,224.011l1.841-1.05V175.232l-1.841,1.051Z" transform="translate(-2257.037 -133.202)" fill="#939394"/><path d="M2364.185,222.811l1.992,1.2V176.283l-1.992-1.051Z" transform="translate(-2257.225 -133.202)" fill="#5f5f5f"/><path d="M2267.342,164.184l71.874,41.474v-3.383L2267.342,160.8Z" transform="translate(-2267.337 -134.709)" fill="#78301d"/><path d="M2383.881,178.653l-44.657,26.089-71.886-41.467,11.492-6.718,16.435-9.59,16.752-9.78Z" transform="translate(-2267.338 -137.175)" fill="#ea9854"/><path d="M2267.342,163.267l71.875,39.523,41.859-23.944-69.065-41.67Z" transform="translate(-2267.337 -137.176)" fill="#d16d45"/><path d="M2332.42,204.2l44.666-26.091v-3.383L2332.42,200.82Z" transform="translate(-2260.542 -133.255)" fill="#b04833"/></g><g transform="translate(2279.545 146.96)"><path d="M2307.116,144.163h-3.8l-20.706,11.607,50.363,29.967,5.4.284Z" transform="translate(-2277.235 -144.163)" fill="#78301d"/><path d="M2315.831,166.554l-14.682,2.662-23.406-13.583,16.435-9.59h5.936Z" transform="translate(-2277.743 -143.967)" fill="#78301d"/><path d="M2334.877,195.172s-3.609,1.315-8.426-1.588-19.632-11.616-19.632-11.616l10.52-7.222Z" transform="translate(-2274.707 -140.97)" fill="#78301d"/><path d="M2287.753,155.032l18.826-10.869,49.182,28.4-18.826,10.869Z" transform="translate(-2276.698 -144.163)" fill="#eeeae0"/><path d="M2314.792,164.313h-10.68l-16.359-9.445,15.824-9.136Z" transform="translate(-2276.698 -143.999)" fill="#a26f4a"/><path d="M2342.087,168.875l-3.844-2.219-9.7,5.6,3.844,2.219Z" transform="translate(-2272.438 -141.814)" fill="#b0b4b5"/><path d="M2341.621,168.875l-4.611,2.662L2333,169.412l4.775-2.757Z" transform="translate(-2271.973 -141.814)" fill="#898386"/><path d="M2286.551,155.307l51.4,29.685-.894-2.593L2287.878,154Z" transform="translate(-2276.823 -143.135)" fill="#c9aa7e"/><path d="M2332.285,180.743l.894,2.592L2352,172.466l-.893-2.592Z" transform="translate(-2272.048 -141.478)" fill="#b18961"/></g><path d="M2374.222,173.4l-37.749,21.673a5.284,5.284,0,0,1-5.3,0l-19.583-11.2a1.77,1.77,0,0,1-.169-2.979c1.922-1.395,4.457-3.359,5.133-4.478a15.545,15.545,0,0,1,3.231-3.507l13.794-6.887,5.556-2.746,9.358-4.668Z" transform="translate(5.241 4.305)" fill="#abca1e"/><path d="M2362.333,166.277c-1.539-.393-6.645-2.15-8.714-1.184s-10.715-.4-10.339.51a1.693,1.693,0,0,1,.084.546l-5.74-3.313-3.108,1.535c-.263-.447-.52-.793-.52-.793s-8.191,2.986-8.852,6.761a3.038,3.038,0,0,0,2.685-.251,11.66,11.66,0,0,1,2.465-1.15s2.575-1.263,3.914-2.117l1.324.766-2.873,1.712,7.013,3.717,4.837-.425.033.043a28.441,28.441,0,0,0,3.046-.282c.748-.176,7.394-3.984,7.394-3.984l7,1.145,5.758.573S2363.874,166.671,2362.333,166.277Z" transform="translate(6.751 4.746)" fill="#919222"/><g transform="translate(2320.658 165.753)"><g transform="translate(33.183)"><path d="M2346.07,163.084l-.275-.488-.78.437.276.488Z" transform="translate(-2345.015 -161.031)" fill="#284702" fill-rule="evenodd"/><path d="M2347.335,162.375l-.275-.488-.78.437.275.488Z" transform="translate(-2344.883 -161.106)" fill="#284702" fill-rule="evenodd"/><rect width="0.893" height="0.56" transform="translate(2.791 0.437) rotate(-29.312)" fill="#284702"/></g><g transform="translate(28.985 2.354)"><path d="M2342.271,165.214l-.278-.487-.78.437.279.486Z" transform="translate(-2341.214 -163.163)" fill="#284702" fill-rule="evenodd"/><path d="M2343.535,164.505l-.277-.487-.78.437.277.487Z" transform="translate(-2341.082 -163.237)" fill="#284702" fill-rule="evenodd"/><path d="M2344.8,163.8l-.276-.487-.779.437.276.487Z" transform="translate(-2340.95 -163.311)" fill="#284702" fill-rule="evenodd"/></g><g transform="translate(24.788 4.708)"><path d="M2338.472,167.344l-.28-.486-.779.437.28.485Z" transform="translate(-2337.413 -165.294)" fill="#284702" fill-rule="evenodd"/><path d="M2339.737,166.635l-.279-.486-.779.437.28.486Z" transform="translate(-2337.281 -165.368)" fill="#284702" fill-rule="evenodd"/><path d="M2341,165.928l-.278-.486-.78.437.279.486Z" transform="translate(-2337.149 -165.442)" fill="#284702" fill-rule="evenodd"/></g><g transform="translate(20.59 7.061)"><path d="M2334.673,169.474l-.282-.485-.779.437.282.484Z" transform="translate(-2333.612 -167.425)" fill="#284702" fill-rule="evenodd"/><path d="M2335.938,168.765l-.281-.485-.78.437.282.485Z" transform="translate(-2333.48 -167.499)" fill="#284702" fill-rule="evenodd"/><path d="M2337.2,168.059l-.28-.486-.779.437.28.485Z" transform="translate(-2333.348 -167.573)" fill="#284702" fill-rule="evenodd"/></g><g transform="translate(16.454 9.415)"><path d="M2330.915,171.677l-.283-.483-.764.464.284.483Z" transform="translate(-2329.868 -169.549)" fill="#284702" fill-rule="evenodd"/><path d="M2332.154,170.925l-.283-.484-.763.463.283.483Z" transform="translate(-2329.738 -169.627)" fill="#284702" fill-rule="evenodd"/><path d="M2333.4,170.189l-.282-.484-.772.448.282.484Z" transform="translate(-2329.609 -169.704)" fill="#284702" fill-rule="evenodd"/></g><g transform="translate(12.341 11.897)"><path d="M2327.192,173.938l-.285-.482-.764.464.286.482Z" transform="translate(-2326.143 -171.795)" fill="#284702" fill-rule="evenodd"/><path d="M2328.431,173.185l-.284-.483-.763.464.284.482Z" transform="translate(-2326.014 -171.874)" fill="#284702" fill-rule="evenodd"/><path d="M2329.667,172.435l-.285-.483-.763.464.284.483Z" transform="translate(-2325.885 -171.952)" fill="#284702" fill-rule="evenodd"/></g><g transform="translate(8.227 14.396)"><path d="M2323.469,176.2l-.287-.481-.764.464.287.481Z" transform="translate(-2322.418 -174.057)" fill="#284702" fill-rule="evenodd"/><path d="M2324.708,175.446l-.287-.481-.763.463.286.482Z" transform="translate(-2322.289 -174.136)" fill="#284702" fill-rule="evenodd"/><path d="M2325.944,174.7l-.286-.482-.763.464.286.482Z" transform="translate(-2322.16 -174.214)" fill="#284702" fill-rule="evenodd"/></g><g transform="translate(4.114 16.893)"><path d="M2319.746,178.459l-.289-.48-.764.464.289.48Z" transform="translate(-2318.694 -176.319)" fill="#284702" fill-rule="evenodd"/><path d="M2320.985,177.707l-.287-.481-.764.464.289.481Z" transform="translate(-2318.564 -176.397)" fill="#284702" fill-rule="evenodd"/><path d="M2322.22,176.957l-.287-.481-.764.464.288.481Z" transform="translate(-2318.435 -176.476)" fill="#284702" fill-rule="evenodd"/></g><g transform="translate(0 19.391)"><rect width="0.893" height="0.56" transform="translate(0 2.124) rotate(-31.226)" fill="#284702"/><path d="M2317.262,179.968l-.289-.48-.763.464.29.479Z" transform="translate(-2314.839 -178.659)" fill="#284702" fill-rule="evenodd"/><path d="M2318.5,179.217l-.289-.48-.763.464.289.48Z" transform="translate(-2314.71 -178.738)" fill="#284702" fill-rule="evenodd"/></g></g><path d="M2336.476,191.5a5.332,5.332,0,0,1-5.3.007l-19.6-11.2a1.655,1.655,0,0,1-.412-.4,1.743,1.743,0,0,0,.412,2.685l19.6,11.2a5.334,5.334,0,0,0,5.3-.007l37.74-21.682-1.987-1.142Z" transform="translate(5.244 5.594)" fill="#8b9f17"/><path d="M2355.782,136.725a12.789,12.789,0,0,1,.873,3.165c0,1.008.045,2.661.688,3.165s2.125.221,3.5-.192,4.206-4.671,4.159-4.809a7.034,7.034,0,0,1-1.006-4.219c.011-2.97-1.976-2.525-2.113-2.478S2355.782,136.725,2355.782,136.725Z" transform="translate(9.95 1.454)" fill="#f6b486"/><path d="M2367.54,152.791s-.629,5.811-.681,6.607-.786,3.791-.664,5.076,2.507,6.729,4.1,6.24,3.487-2.937,3.732-5.445.918-7.707,1.039-9.052,0-5.139,0-5.139Z" transform="translate(11.036 3.519)" fill="#fcd1b3"/><path d="M2374.157,164.669s-2.939-2.875-5.2-2.63-4.219.979-6.91.612-5.138-1.346-6.728-1.1-4.985.887-6.209,1.039a24.779,24.779,0,0,0-3.547.826c-.7.214-1.865,1.682-1.865,1.682s-1.5-.031-1.9.459.275,1.1.275,1.1l1.346-.121-.674,1.07a16.193,16.193,0,0,0-2.323,1.8,1.286,1.286,0,0,0,.152,1.314c.122.062-.183.581.153,1.132s.612.581.764.612,1.224.458,1.468.306,1.468-1.163,1.468-1.163.408.9,1.835.4a32.509,32.509,0,0,0,5.169-3.027c.366-.306,2.477-2.2,3.058-2.294s.856-.152,3.639,1.162a32.589,32.589,0,0,0,10.949,2.386c3.792.214,4.343.826,5.566-1.039S2374.157,164.669,2374.157,164.669Z" transform="translate(8.333 4.608)" fill="#ffdec7"/><path d="M2337.459,153.893s.031-2.631-.918-3.7a3.765,3.765,0,0,0-3.688-.662c-.623.326-2.214,3.027-2.58,4.582s-.306,4.491-.582,5.346a7.037,7.037,0,0,1-1.529,2.721c-.551.4-1.836,1.1-2.325,1.561s-2.2,3.608-2.63,3.822-1.376,1.07-1.224,1.315.765.4.765.4-.887.55-.918.979a1.533,1.533,0,0,0,.122.734s-.062,1.008.458,1.1,1.345-.519,1.345-.519.214.458,1.284.367,2.691-1.651,2.691-1.651l1.468-1.315s-.458,1.009-.061,1.407a1.876,1.876,0,0,0,1.132.458c.091,0,.52-.733.52-.733s2.171-2.172,2.446-2.508a5.188,5.188,0,0,0,.7-2.691c-.062-1.009-.062-1.957-.062-1.957s1.041-3.762,1.193-3.976,1.958-2.325,1.988-2.539S2337.459,153.893,2337.459,153.893Z" transform="translate(6.405 3.335)" fill="#fcd1b3"/><path d="M2371.337,139.845s-3.311.847-3.985,6.842a79.035,79.035,0,0,0-.55,10.1s4.771-1.828,6.116-1.68,3.609.7,3.609.7-.062-6.79-.917-9.665S2372.874,139.669,2371.337,139.845Z" transform="translate(11.1 2.345)" fill="#3d7dc0"/><path d="M2355.523,119.663s-2.569,2.522-2.89,5.229a62.3,62.3,0,0,0-.825,7.982c.092,2.065,2.752,7.661,3.715,7.661a7.907,7.907,0,0,0,6.01-1.789,9.583,9.583,0,0,0,3.578-5.6s1.559-1.788.963-5.229-3.212-6.7-4.955-6.744A26.033,26.033,0,0,1,2355.523,119.663Z" transform="translate(9.534 0.238)" fill="#fcd1b3"/><path d="M2360.048,125.911a21.193,21.193,0,0,1-3.716.23c-1.238-.138-1.376-.964-2.156-.918a2.843,2.843,0,0,0-1.552.933l-.635,5.032-.061,1.925a12.3,12.3,0,0,1-1.284-3.67c-.092-1.421,2.156-7.936,3.073-9.541s5.826-3.671,9.221-1.744c4.22-.23,5.688,3.672,5.6,7.089s2.477,13.1,2.753,13.738,1.193,2.936,1.193,2.936-4.175-1.7-5.6-2.294-1.212-.457-1.992-1.467-.21-2.019-.485-4.542S2363.672,125.819,2360.048,125.911Z" transform="translate(9.413)" fill="#6a3120"/><g transform="translate(2297.923 132.083)"><path d="M2334.142,168.548l.217,1.58.217-1.329v-3.577l-.434-.251Z" transform="translate(-2290.233 -127.113)" fill="#dadbd9"/><path d="M2333.034,165.553l1.209.7v-1.143l-1.209-.7Z" transform="translate(-2290.348 -127.172)" fill="#abaea9"/><path d="M2335.339,165.553l-1.209.7v-1.143l1.209-.7Z" transform="translate(-2290.234 -127.172)" fill="#898386"/><path d="M2331.3,164.249l2.76,1.593v-2.589l-2.76-1.593Z" transform="translate(-2290.53 -127.459)" fill="#abaea9"/><path d="M2336.556,164.249l-2.76,1.593v-2.589l2.76-1.593Z" transform="translate(-2290.269 -127.459)" fill="#6b6366"/><g transform="translate(0 0.877)"><path d="M2294.384,138.252a8.007,8.007,0,0,1,3.634-6.268,2.531,2.531,0,0,1,2.618-.23v0l1.446.869-5.526,8.593-.889-.527a1.718,1.718,0,0,1-.478-.286l-.007,0h0A2.722,2.722,0,0,1,2294.384,138.252Z" transform="translate(-2294.384 -131.487)" fill="url(#a)"/><path d="M2302.923,134.819a8.006,8.006,0,0,1-3.635,6.268c-2.007,1.159-3.634.231-3.634-2.072a8.007,8.007,0,0,1,3.634-6.268C2301.3,131.589,2302.923,132.515,2302.923,134.819Z" transform="translate(-2294.251 -131.407)" fill="#b18961"/></g><g transform="translate(1.522 1.13)"><path d="M2295.762,140.275a10.131,10.131,0,0,1,4.6-7.931,3.2,3.2,0,0,1,3.312-.289v0l2.435,1.462-6.992,10.872-1.731-1.028a2.176,2.176,0,0,1-.6-.362l-.008,0v0A3.444,3.444,0,0,1,2295.762,140.275Z" transform="translate(-2295.762 -131.716)" fill="url(#b)"/><path d="M2307.113,136.259a10.131,10.131,0,0,1-4.6,7.931c-2.54,1.467-4.6.293-4.6-2.621a10.127,10.127,0,0,1,4.6-7.931C2305.055,132.172,2307.113,133.346,2307.113,136.259Z" transform="translate(-2295.537 -131.581)" fill="#b18961"/></g><path d="M2298.488,137.209v9.373a4.153,4.153,0,0,0,2.077,3.6l2.668,1.541,3.125,1.8,3.148-15.009.012-.054.658-3.14-2.16-3.843c-1.387-.8-8.439,3.3-9.37,5.162A1.29,1.29,0,0,0,2298.488,137.209Z" transform="translate(-2293.956 -130.621)" fill="#84878b"/><path d="M2298.488,136.74v9.373a4.153,4.153,0,0,0,2.077,3.6l2.668,1.541,6.272-13.2.025-.051-.013,0c-.334-.1-7.291-2.2-9.584-2.132a4.509,4.509,0,0,0-1.288.31A1.29,1.29,0,0,0,2298.488,136.74Z" transform="translate(-2293.956 -130.153)" fill="#2c333a"/><path d="M2320.1,160.141l-7.87,4.544V146.716l7.87-4.544Z" transform="translate(-2292.52 -129.494)" fill="#b18961"/><path d="M2301.824,137.417v21.829l11.5,6.638v-8.195c0-2.37,1.674-3.324,3.738-2.133l15.8,9.122V152.441l4.873-6.306-25.425-14.772a5.017,5.017,0,0,0-5.013,0l-.717.414c-1.37.792-4.524,3.473-4.717,5.02A5.019,5.019,0,0,0,2301.824,137.417Z" transform="translate(-2293.607 -130.693)" fill="#c9aa7e"/><path d="M2332.747,154.694v-2.253l4.873-6.306L2312.2,131.363a5.017,5.017,0,0,0-5.013,0l-.717.414a10.589,10.589,0,0,0-3.551,2.382Z" transform="translate(-2293.493 -130.693)" fill="#eeeae0"/><path d="M2331.647,154.029v-.991l4.873-6.306L2311.1,131.961a5.017,5.017,0,0,0-5.013,0l-.717.414c-.458.214-.835.4-1.17.579a12.851,12.851,0,0,1,2.137-1.176l.717-.414a5.017,5.017,0,0,1,5.013,0l25.425,14.772-4.873,6.306v2.253Z" transform="translate(-2293.36 -130.693)" fill="#d8cfb6"/><path d="M2328.823,144.238h-4.342l-.694-.4.5-.291h4.792Z" transform="translate(-2291.314 -129.35)" fill="#bb9875"/><path d="M2301.859,136.469a5.011,5.011,0,0,1,1.167-2.637l30.256,17.47-.424.812v2.253Z" transform="translate(-2293.604 -130.365)" fill="#d5cbb1"/><path d="M2325.916,148.248l7.978-4.606,7.052,4.072-7.978,4.606Z" transform="translate(-2291.092 -129.34)" fill="#f8f7f3"/><path d="M2332.412,151.935l7.978-4.606.735,1.469-.735,13.006-7.978,4.606-1.168-7.349Z" transform="translate(-2290.535 -128.955)" fill="#c9aa7e"/><path d="M2333.625,152.91l7.364-4.252.987,5.872-.987,7.489-7.364,4.252-1.078-6.784Z" transform="translate(-2290.399 -128.817)" fill="#d8cfb6"/><path d="M2326.026,161.614l7.052,4.071-1.168-7.349-7.052-4.072Z" transform="translate(-2291.202 -128.231)" fill="#b28b64"/><path d="M2326.026,147.813l7.052,4.072-1.168,7.126-7.052-4.072Z" transform="translate(-2291.202 -128.905)" fill="#d0b58f"/><g transform="translate(36.839 7.575)"><path d="M2327.74,137.822h1.035v6.72h0a.255.255,0,0,1-.152.21.805.805,0,0,1-.731,0,.255.255,0,0,1-.15-.211h0Z" transform="translate(-2327.74 -137.523)" fill="url(#c)"/><path d="M2327.89,138.062a.812.812,0,0,0,.731,0,.445.445,0,0,0,.042-.028h0c.159-.118.146-.287-.041-.4a.8.8,0,0,0-.731,0,.287.287,0,0,0-.046.031h0C2327.691,137.788,2327.707,137.956,2327.89,138.062Z" transform="translate(-2327.74 -137.551)" fill="#e4e5e5"/></g><path d="M2331.244,157.951l1.439.566,1.078,6.784h-1.349Z" transform="translate(-2290.535 -127.846)" fill="#bb9875"/><path d="M2341.014,148.8l-7.364,4.252-1.349-1.114,7.978-4.606Z" transform="translate(-2290.425 -128.955)" fill="#f1eee5"/><path d="M2303.5,142.921l6.07,3.5v3.405l-6.07-3.5Z" transform="translate(-2293.433 -129.416)" fill="#e9eaeb"/><path d="M2303.5,141.62l6.07,3.5v1.436l-6.07-3.5Z" transform="translate(-2293.433 -129.551)" fill="#efc42f"/><path d="M2304.462,142.592l3.937,2.273v.38l-3.937-2.273Z" transform="translate(-2293.332 -129.45)" fill="#84878b"/><path d="M2308.035,145.9l.761,2.754-1.638-.942Z" transform="translate(-2293.05 -129.105)" fill="#efc42f"/><path d="M2306.845,144.854v3.405l-.18-.1V144.75Z" transform="translate(-2293.102 -129.225)" fill="#84878b"/></g><g transform="translate(2318.043 132.443)"><path d="M2319.411,137.64H2312.6v.292h0a1.708,1.708,0,0,0,1,1.386,5.32,5.32,0,0,0,4.814.009,1.673,1.673,0,0,0,.989-1.395h0Z" transform="translate(-2312.602 -130.328)" fill="url(#d)"/><path d="M2318.421,139.22a5.318,5.318,0,0,1-4.813-.008,2.468,2.468,0,0,1-.276-.182h0a2.181,2.181,0,0,1-.405-.381c-.587-.723-.372-1.606.649-2.206l.019-.011a5.313,5.313,0,0,1,4.814.009,2.771,2.771,0,0,1,.309.205h0C2319.73,137.418,2319.632,138.519,2318.421,139.22Z" transform="translate(-2312.602 -130.514)" fill="#e4e5e5"/><path d="M2317.832,138.817a4.417,4.417,0,0,1-3.993-.006,2.072,2.072,0,0,1-.229-.151h0c-.872-.641-.8-1.567.218-2.155a4.408,4.408,0,0,1,3.992.008,2.071,2.071,0,0,1,.257.171h0C2318.918,137.324,2318.836,138.238,2317.832,138.817Z" transform="translate(-2312.56 -130.496)" fill="#89918f"/><path d="M2315.942,136.525l-1.484,2.506s-.733-.205-1.533-.437c-.587-.723-.372-1.606.649-2.206Z" transform="translate(-2312.602 -130.459)" fill="#89918f"/><path d="M2318.55,137.852a.927.927,0,0,1-.02.2,1.411,1.411,0,0,1-.74.875,4.093,4.093,0,0,1-3.7-.007,1.635,1.635,0,0,1-.657-.63.809.809,0,0,1-.057-.129.925.925,0,0,1-.039-.139.729.729,0,0,1-.019-.168h0l.026-.342.118-1.62.011-.157.178-2.4.087-1.166h4.4l.061.839h0l.205,2.78.049.646Z" transform="translate(-2312.528 -130.899)" fill="url(#e)"/><path d="M2317.452,133.189a3.44,3.44,0,0,1-3.11-.006,1.385,1.385,0,0,1-.178-.117h0c-.678-.5-.622-1.22.17-1.679a3.437,3.437,0,0,1,3.11.007,1.6,1.6,0,0,1,.2.133h0C2318.3,132.025,2318.234,132.737,2317.452,133.189Z" transform="translate(-2312.488 -131.019)" fill="#ff5e5e"/><path d="M2317.249,133.095a3.231,3.231,0,0,1-2.92,0,1.444,1.444,0,0,1-.167-.11h0c-.637-.468-.584-1.146.16-1.576a3.225,3.225,0,0,1,2.919.006,1.68,1.68,0,0,1,.189.125h0C2318.043,132,2317.983,132.671,2317.249,133.095Z" transform="translate(-2312.486 -131.015)" fill="#ff4040"/><path d="M2316.261,132.622a2.345,2.345,0,0,1-1.764-.176.665.665,0,0,1-.084-.055h0c-.319-.235-.293-.574.081-.79a1.613,1.613,0,0,1,1.462,0,.869.869,0,0,1,.095.063h0C2316.359,131.9,2316.629,132.41,2316.261,132.622Z" transform="translate(-2312.436 -130.977)" fill="#d36572" style="mix-blend-mode:multiply;isolation:isolate"/><g transform="translate(2.369 0.039)"><path d="M2316.817,131.6h-2.07v.539h0a.523.523,0,0,0,.306.421,1.614,1.614,0,0,0,1.462,0,.508.508,0,0,0,.3-.423h0Z" transform="translate(-2314.747 -130.998)" fill="url(#f)"/><path d="M2316.515,132.076a1.614,1.614,0,0,1-1.462,0,.719.719,0,0,1-.084-.055h0c-.319-.234-.293-.574.081-.79a1.613,1.613,0,0,1,1.462,0,.767.767,0,0,1,.095.062h0C2316.914,131.529,2316.884,131.863,2316.515,132.076Z" transform="translate(-2314.747 -131.055)" fill="#fff"/><path d="M2316.449,132.037a1.555,1.555,0,0,1-1.408,0,.871.871,0,0,1-.081-.053h0c-.307-.225-.281-.552.076-.76a1.558,1.558,0,0,1,1.408,0,.774.774,0,0,1,.091.06h0C2316.832,131.51,2316.8,131.832,2316.449,132.037Z" transform="translate(-2314.747 -131.055)" fill="#fdfdfd"/><path d="M2316.252,131.9a1.107,1.107,0,0,1-1,0c-.021-.012-.04-.025-.057-.038h0c-.218-.161-.2-.393.055-.54a1.1,1.1,0,0,1,1,0c.023.014.045.029.064.043h0C2316.524,131.53,2316.5,131.758,2316.252,131.9Z" transform="translate(-2314.716 -131.039)" fill="url(#g)"/><path d="M2316.238,131.889a1.107,1.107,0,0,1-1,0c-.021-.012-.04-.025-.057-.038.917.062,1.118-.5,1.118-.5h0C2316.51,131.514,2316.49,131.743,2316.238,131.889Z" transform="translate(-2314.701 -131.024)" fill="#886572" style="mix-blend-mode:multiply;isolation:isolate"/></g></g><g transform="translate(2312.253 129.892)"><path d="M2314.167,135.329h-6.808v.293h0a1.707,1.707,0,0,0,1,1.385,5.317,5.317,0,0,0,4.814.009,1.67,1.67,0,0,0,.988-1.394h0Z" transform="translate(-2307.359 -128.018)" fill="url(#h)"/><path d="M2313.178,136.909a5.314,5.314,0,0,1-4.813-.008,2.419,2.419,0,0,1-.276-.181h0a2.219,2.219,0,0,1-.406-.381c-.587-.723-.371-1.606.651-2.206l.018-.011a5.31,5.31,0,0,1,4.814.009,2.73,2.73,0,0,1,.308.205h0C2314.486,135.108,2314.389,136.209,2313.178,136.909Z" transform="translate(-2307.359 -128.204)" fill="#e4e5e5"/><path d="M2312.588,136.507a4.409,4.409,0,0,1-3.991-.007,1.932,1.932,0,0,1-.23-.15h0c-.872-.641-.8-1.567.218-2.156a4.408,4.408,0,0,1,3.992.009,2.178,2.178,0,0,1,.257.17h0C2313.675,135.013,2313.593,135.928,2312.588,136.507Z" transform="translate(-2307.317 -128.186)" fill="#89918f"/><path d="M2310.7,134.215l-1.484,2.5s-.733-.205-1.533-.436c-.587-.723-.371-1.606.651-2.206Z" transform="translate(-2307.359 -128.149)" fill="#89918f"/><path d="M2313.307,135.541a.947.947,0,0,1-.02.2,1.419,1.419,0,0,1-.741.875,4.088,4.088,0,0,1-3.7-.008,1.629,1.629,0,0,1-.657-.628.893.893,0,0,1-.058-.13.911.911,0,0,1-.039-.138.731.731,0,0,1-.019-.169h0l.027-.342.118-1.619.011-.157.178-2.4.087-1.165h4.4l.061.838h0l.206,2.78.049.646Z" transform="translate(-2307.285 -128.589)" fill="url(#i)"/><path d="M2312.208,130.879a3.438,3.438,0,0,1-3.109-.006,1.5,1.5,0,0,1-.178-.117h0c-.679-.5-.623-1.22.169-1.679a3.434,3.434,0,0,1,3.109.007,1.541,1.541,0,0,1,.2.133h0C2313.054,129.715,2312.991,130.427,2312.208,130.879Z" transform="translate(-2307.245 -128.709)" fill="#ffa759"/><path d="M2312,130.785a3.228,3.228,0,0,1-2.919,0,1.556,1.556,0,0,1-.168-.11h0c-.637-.468-.585-1.146.159-1.576a3.225,3.225,0,0,1,2.919.006,1.781,1.781,0,0,1,.188.125h0C2312.8,129.692,2312.739,130.361,2312,130.785Z" transform="translate(-2307.242 -128.705)" fill="#ff973b"/><path d="M2311.018,130.312a2.337,2.337,0,0,1-1.762-.176.707.707,0,0,1-.084-.055h0c-.319-.235-.293-.574.081-.79a1.61,1.61,0,0,1,1.462,0,.8.8,0,0,1,.094.062h0C2311.116,129.591,2311.386,130.1,2311.018,130.312Z" transform="translate(-2307.193 -128.667)" fill="#df9966" style="mix-blend-mode:multiply;isolation:isolate"/><g transform="translate(2.369 0.04)"><path d="M2311.573,129.286h-2.07v.539h0a.522.522,0,0,0,.306.421,1.613,1.613,0,0,0,1.462,0,.508.508,0,0,0,.3-.423h0Z" transform="translate(-2309.504 -128.689)" fill="url(#j)"/><path d="M2311.272,129.765a1.613,1.613,0,0,1-1.462,0,.562.562,0,0,1-.084-.055h0c-.319-.234-.293-.574.081-.79a1.617,1.617,0,0,1,1.462,0,.791.791,0,0,1,.094.063h0C2311.671,129.219,2311.641,129.553,2311.272,129.765Z" transform="translate(-2309.504 -128.745)" fill="#fff"/><path d="M2311.206,129.727a1.555,1.555,0,0,1-1.408,0,.833.833,0,0,1-.081-.053h0c-.307-.225-.282-.552.076-.76a1.558,1.558,0,0,1,1.408,0,.817.817,0,0,1,.091.06h0C2311.589,129.2,2311.559,129.522,2311.206,129.727Z" transform="translate(-2309.504 -128.745)" fill="#fdfdfd"/><path d="M2311.01,129.594a1.107,1.107,0,0,1-1,0,.441.441,0,0,1-.057-.039h0c-.218-.16-.2-.392.055-.539a1.1,1.1,0,0,1,1,0,.563.563,0,0,1,.064.042h0C2311.281,129.22,2311.261,129.449,2311.01,129.594Z" transform="translate(-2309.473 -128.729)" fill="url(#k)"/><path d="M2311,129.579a1.107,1.107,0,0,1-1,0,.441.441,0,0,1-.057-.039c.917.063,1.118-.495,1.118-.495h0C2311.267,129.2,2311.247,129.434,2311,129.579Z" transform="translate(-2309.458 -128.714)" fill="#886572" style="mix-blend-mode:multiply;isolation:isolate"/></g></g><path d="M2304.529,163.407l-1.294,1.259-15.836-9.145,1.285-1.262Z" transform="translate(2.81 3.851)" fill="#b18961"/></g></g></svg>