<svg xmlns="http://www.w3.org/2000/svg" width="715" height="203.105" viewBox="0 0 715 203.105"><g transform="translate(-4368.218 1008.861)"><rect width="715" height="202" transform="translate(4368.218 -1007.756)" fill="#fff"/><path d="M4666.2-1006.85l-1.232,41.886,21.929,23.653s45.335,2.218,57.161,0,26.857-5.667,31.538-17.247-6.16-10.6-13.551,0-45.089,4.189-45.089,4.189-18.479-6.16-18.972-19.219.493-33.262.493-33.262" fill="#fff" stroke="#333" stroke-linecap="round" stroke-linejoin="round" stroke-width="2.107"/><path d="M4758.352-913.509c-2.218-.616-5.174,5.175-8.5,7.146s-33.878,1.232-38.559,0-9.856-8.87-9.856-8.87v-19.958h-24.885v18.938c0,1.2,7.761,9.705,11.827,12.754s9.239,6.129,9.239,6.129h11.352v2.833l2.574-2.833h3.445v3.48l3.161-3.48h2.1v2.833l2.574-2.833h2.508v2.186l1.986-2.186h3.927v2.186l1.987-2.186h4.2v1.725l1.566-1.725h2.345s4.435.123,6.9,0,8.87-7.145,11.58-10.841S4760.569-912.893,4758.352-913.509Z" fill="#fff" stroke="#333" stroke-linecap="round" stroke-linejoin="round" stroke-width="2.107"/><path d="M4795.8-878.381,4783.9-890.287v20.635h-4.514l-20.635-20.635v20.635h-5.085l-20.635-20.635v20.635h-7.707l-20.635-20.635v20.635H4701.9l-20.635-20.635v20.635h-4.4l-20.635-20.635v20.635h-7.515l-18.479-21.436v39.422H4795.8v-14.253h0Z" fill="#fff" stroke="#333" stroke-linecap="round" stroke-linejoin="round" stroke-width="2.107"/><path d="M4813.62-963.165a9.028,9.028,0,0,0-.069-1.126,9.072,9.072,0,0,0-9-7.945,9.071,9.071,0,0,0-9.071,9.071,9.071,9.071,0,0,0,9.071,9.071A9.071,9.071,0,0,0,4813.62-963.165Z" fill="none" stroke="#0ac4bf" stroke-miterlimit="10" stroke-width="1"/><line x1="94.025" transform="translate(4813.551 -963.165)" fill="none" stroke="#0ac4bf" stroke-miterlimit="10" stroke-width="1"/><path d="M4809.368-963.165a4.737,4.737,0,0,0-.037-.6,4.82,4.82,0,0,0-4.782-4.221,4.819,4.819,0,0,0-4.819,4.819,4.82,4.82,0,0,0,4.819,4.819A4.819,4.819,0,0,0,4809.368-963.165Z" fill="#0ac4bf"/><path d="M4625.979-910.18a9.106,9.106,0,0,0,.069,1.125,9.072,9.072,0,0,0,9,7.945,9.071,9.071,0,0,0,9.071-9.07,9.071,9.071,0,0,0-9.071-9.071A9.07,9.07,0,0,0,4625.979-910.18Z" fill="none" stroke="#0ac4bf" stroke-miterlimit="10" stroke-width="1"/><line x2="94.025" transform="translate(4532.022 -910.18)" fill="none" stroke="#0ac4bf" stroke-miterlimit="10" stroke-width="1"/><path d="M4630.23-910.18a4.922,4.922,0,0,0,.037.6,4.819,4.819,0,0,0,4.782,4.221,4.818,4.818,0,0,0,4.819-4.818,4.819,4.819,0,0,0-4.819-4.819A4.819,4.819,0,0,0,4630.23-910.18Z" fill="#0ac4bf"/><text transform="translate(4883.938 -968.748)" font-size="16" font-family="Roboto-Regular, Roboto"><tspan x="0" y="0">Pie prensatelas</tspan></text><path d="M4829.786-860.337a9.028,9.028,0,0,0-.069-1.126,9.072,9.072,0,0,0-9-7.945,9.071,9.071,0,0,0-9.071,9.071,9.071,9.071,0,0,0,9.071,9.07A9.071,9.071,0,0,0,4829.786-860.337Z" fill="none" stroke="#0ac4bf" stroke-miterlimit="10" stroke-width="1"/><line x1="65.112" transform="translate(4829.717 -860.337)" fill="none" stroke="#0ac4bf" stroke-miterlimit="10" stroke-width="1"/><path d="M4825.534-860.337a4.737,4.737,0,0,0-.037-.6,4.82,4.82,0,0,0-4.782-4.221,4.819,4.819,0,0,0-4.819,4.819,4.82,4.82,0,0,0,4.819,4.819A4.819,4.819,0,0,0,4825.534-860.337Z" fill="#0ac4bf"/><text transform="translate(4873.646 -865.92)" font-size="16" font-family="Roboto-Regular, Roboto"><tspan x="0" y="0">Diente inferior</tspan></text><text transform="translate(4455.929 -919.251)" font-size="16" font-family="Roboto-Regular, Roboto"><tspan x="0" y="0">Diente superior</tspan></text><path d="M4715.419-1007.756V-847.8s3.646,25.5,4.78,30.332l6.087-30.54v-159.751" fill="#fff" stroke="#333" stroke-linecap="square" stroke-linejoin="round" stroke-width="2.21"/><rect width="4.204" height="17.883" rx="1.407" transform="translate(4718.75 -871.18)" fill="#fff" stroke="#333" stroke-linecap="square" stroke-linejoin="round" stroke-width="1.955"/></g></svg>