<svg xmlns="http://www.w3.org/2000/svg" width="30.163" height="61.043" viewBox="0 0 30.163 61.043"><g transform="translate(-297.744 1239.412)"><path d="M303.415-1227.342a7.031,7.031,0,0,1,4.3-1.442,6.083,6.083,0,0,1,4.344,1.561,5.166,5.166,0,0,1,1.659,3.931,6.07,6.07,0,0,1-1.087,3.438,7.166,7.166,0,0,1-2.972,2.548,18.168,18.168,0,0,1-5.877,1.244v9.483c4.216.053,7.556.988,9.847,2.8a8.207,8.207,0,0,1,3.4,6.677,8.2,8.2,0,0,1-2.566,6.085,8.838,8.838,0,0,1-6.429,2.489,8.82,8.82,0,0,1-6.143-2.193,6.1,6.1,0,0,1-1.063-1.184v12.608a23.007,23.007,0,0,0,6.61.923q8.928,0,14.7-5.432a17.52,17.52,0,0,0,5.767-13.256,14.89,14.89,0,0,0-2.984-9.265,15.665,15.665,0,0,0-8.278-5.512,15.1,15.1,0,0,0,6.144-5.176,12.56,12.56,0,0,0,2.114-7.072,14.309,14.309,0,0,0-4.84-10.786,16.84,16.84,0,0,0-11.986-4.544,19.4,19.4,0,0,0-7.242,1.327v14.29A6.82,6.82,0,0,1,303.415-1227.342Z" fill="#0ac4bf"/><path d="M300.835-1223.8v-14.29a15.566,15.566,0,0,0-3.091,1.685v12.836h3.018A.512.512,0,0,0,300.835-1223.8Z" fill="#068781"/><path d="M297.744-1191.948v11.36a16.566,16.566,0,0,0,3.091,1.3V-1191.9a.075.075,0,0,0-.044-.048Z" fill="#068781"/><path d="M303.786-1206.579c.45.006.885.027,1.314.052v-9.671c-.423.052-.857.1-1.314.136Z" fill="#068781"/><path d="M305.1-1188.934a8.194,8.194,0,0,1-3.2-1.782,6.1,6.1,0,0,1-1.063-1.184v12.608a22.586,22.586,0,0,0,4.265.8Z" fill="#068781"/><path d="M300.835-1223.8a6.82,6.82,0,0,1,2.58-3.547,7.363,7.363,0,0,1,1.685-.927v-10.918a18.808,18.808,0,0,0-4.265,1.1Z" fill="#068781"/></g></svg>