<svg xmlns="http://www.w3.org/2000/svg" width="715" height="202.198" viewBox="0 0 715 202.198"><g transform="translate(-3497.415 1007.954)"><rect width="715" height="202" transform="translate(3497.415 -1007.756)" fill="#fff"/><path d="M3785.29-1006.85l-1.411,47.98L3809-931.775s51.931,2.54,65.478,0,30.764-6.492,36.127-19.757-7.056-12.136-15.523,0-51.65,4.8-51.65,4.8-21.167-7.055-21.732-22.014.565-38.1.565-38.1" fill="#fff" stroke="#333" stroke-linecap="square" stroke-linejoin="round" stroke-width="2.107"/><path d="M3890.846-899.928c-2.54-.705-5.927,5.927-9.737,8.185s-38.808,1.411-44.17,0-11.289-10.16-11.289-10.16v-22.862h-28.506v21.693c0,1.372,8.89,11.117,13.547,14.61s10.584,7.021,10.584,7.021h13v3.245l2.948-3.245h3.946v3.986l3.621-3.986h2.412v3.245l2.948-3.245h2.872v2.505l2.276-2.505h4.5v2.505l2.276-2.505h4.815v1.975l1.795-1.975h2.686s5.08.141,7.9,0,10.161-8.185,13.266-12.419S3893.386-899.222,3890.846-899.928Z" fill="#fff" stroke="#333" stroke-linecap="round" stroke-linejoin="round" stroke-width="2.107"/><path d="M3933.746-859.689l-13.638-13.638v23.637h-5.171L3891.3-873.327v23.637h-5.825l-23.637-23.637v23.637h-8.829l-23.637-23.637v23.637h-3.193l-23.637-23.637v23.637H3797.5l-23.637-23.637v23.637h-8.608l-21.168-24.555v45.158h189.663v-16.327h0Z" fill="#fff" stroke="#333" stroke-linecap="round" stroke-linejoin="round" stroke-width="2.107"/><path d="M3942.817-963.165a9.317,9.317,0,0,0-.069-1.126,9.072,9.072,0,0,0-9-7.945,9.071,9.071,0,0,0-9.071,9.071,9.071,9.071,0,0,0,9.071,9.071A9.071,9.071,0,0,0,3942.817-963.165Z" fill="none" stroke="#0ac4bf" stroke-miterlimit="10" stroke-width="1"/><line x1="94.025" transform="translate(3942.748 -963.165)" fill="none" stroke="#0ac4bf" stroke-miterlimit="10" stroke-width="1"/><path d="M3938.565-963.165a4.926,4.926,0,0,0-.037-.6,4.82,4.82,0,0,0-4.782-4.221,4.819,4.819,0,0,0-4.819,4.819,4.82,4.82,0,0,0,4.819,4.819A4.82,4.82,0,0,0,3938.565-963.165Z" fill="#0ac4bf"/><path d="M3755.175-910.18a9.3,9.3,0,0,0,.069,1.125,9.073,9.073,0,0,0,9,7.945,9.07,9.07,0,0,0,9.071-9.07,9.071,9.071,0,0,0-9.071-9.071A9.071,9.071,0,0,0,3755.175-910.18Z" fill="none" stroke="#0ac4bf" stroke-miterlimit="10" stroke-width="1"/><line x2="94.025" transform="translate(3661.219 -910.18)" fill="none" stroke="#0ac4bf" stroke-miterlimit="10" stroke-width="1"/><path d="M3759.427-910.18a4.873,4.873,0,0,0,.037.6,4.819,4.819,0,0,0,4.782,4.221,4.818,4.818,0,0,0,4.819-4.818,4.818,4.818,0,0,0-4.819-4.819A4.819,4.819,0,0,0,3759.427-910.18Z" fill="#0ac4bf"/><text transform="translate(4013.135 -968.748)" font-size="16" font-family="Roboto-Regular, Roboto"><tspan x="0" y="0">Pie prensatelas</tspan></text><path d="M3970.6-842.595a9.1,9.1,0,0,0-.069-1.125,9.072,9.072,0,0,0-9-7.945,9.07,9.07,0,0,0-9.071,9.07,9.071,9.071,0,0,0,9.071,9.071A9.071,9.071,0,0,0,3970.6-842.595Z" fill="none" stroke="#0ac4bf" stroke-miterlimit="10" stroke-width="1"/><line x1="65.112" transform="translate(3970.527 -842.595)" fill="none" stroke="#0ac4bf" stroke-miterlimit="10" stroke-width="1"/><path d="M3966.344-842.595a4.911,4.911,0,0,0-.036-.6,4.82,4.82,0,0,0-4.782-4.221,4.818,4.818,0,0,0-4.819,4.818,4.818,4.818,0,0,0,4.819,4.819A4.818,4.818,0,0,0,3966.344-842.595Z" fill="#0ac4bf"/><text transform="translate(4014.456 -848.177)" font-size="16" font-family="Roboto-Regular, Roboto"><tspan x="0" y="0">Diente inferior</tspan></text><text transform="translate(3585.126 -919.251)" font-size="16" font-family="Roboto-Regular, Roboto"><tspan x="0" y="0">Diente superior</tspan></text></g></svg>