<svg xmlns="http://www.w3.org/2000/svg" width="297.768" height="101.844" viewBox="0 0 297.768 101.844"><g transform="translate(-1122.232 -7437.928)"><g transform="translate(-6591.737 6973.657)"><g transform="translate(7714.737 500.508)"><path d="M7826.6,531.9c2.9-.563,68.544-4.463,68.544-4.463l-24.056-12.086-65.538-20.935-55.126-2.484-6.656,33.859s17.979,4.011,23.438,4.353S7826.6,531.9,7826.6,531.9Z" transform="translate(-7704.786 -491.398)" fill="#fff" stroke="#515151" stroke-miterlimit="10" stroke-width="1.571"/><path d="M7767.146,508.728a17.195,17.195,0,1,1-17.194-17.195A17.2,17.2,0,0,1,7767.146,508.728Z" transform="translate(-7708.562 -491.533)" fill="#fff" stroke="#515151" stroke-miterlimit="10" stroke-width="1.571"/><path d="M7756.789,499.795s2.678,2.914,1.863,4.314c0,0,1.175,3.976-1.65,4.784a3.2,3.2,0,0,1-2.8,1.493s-1.59,2.021-2.433,2.134-34.835-4.3-34.835-4.3-2.217-1.6-2.133-2.04-.3-2.8.215-3.214,1.465-4.024,2.316-4.075c0,0,1.973-1.836,3.307-2.014l.353-.047a9.85,9.85,0,0,1,3.212-1.117C7725.885,495.485,7756.789,499.795,7756.789,499.795Z" transform="translate(-7714.737 -490.104)" fill="#fff" stroke="#515151" stroke-miterlimit="10" stroke-width="1.571"/><path d="M7724.2,496.238l-.241,1.754s3.56-.475,3.531.734l-.029,1.208s1.978,2.319-.5,3.4a21.772,21.772,0,0,1-2.166.921s-1.332,2.876-3.009,2.813L7720.1,507l-1.466,1.426" transform="translate(-7713.4 -489.921)" fill="#fff" stroke="#515151" stroke-miterlimit="10" stroke-width="1.571"/><line x2="28.09" y2="3.251" transform="translate(14.713 8.147)" fill="#fff" stroke="#515151" stroke-miterlimit="10" stroke-width="1.571"/><line x1="28.514" y1="3.21" transform="translate(15.156 11.459)" fill="#fff" stroke="#515151" stroke-miterlimit="10" stroke-width="1.571"/><path d="M7723.588,502.057s29.824,4.416,29.964,4.4" transform="translate(-7711.704 -487.926)" fill="#fff" stroke="#515151" stroke-miterlimit="10" stroke-width="1.571"/><line x1="29.437" y1="3.76" transform="translate(9.356 17.3)" fill="#fff" stroke="#515151" stroke-miterlimit="10" stroke-width="1.571"/><path d="M7722.483,497.671s-.411,1.735.136,2.35,3.3-.44,3.3-.44" transform="translate(-7712.133 -489.43)" fill="#fff" stroke="#515151" stroke-miterlimit="10" stroke-width="1.571"/><path d="M7722.871,500.181s-.193,1.617.282,2.115" transform="translate(-7711.962 -488.569)" fill="#fff" stroke="#515151" stroke-miterlimit="10" stroke-width="1.571"/><path d="M7719.714,504.572s.2-2.523,1.276-2.495,2.63.146,2.63.146" transform="translate(-7713.031 -487.92)" fill="#fff" stroke="#515151" stroke-miterlimit="10" stroke-width="1.571"/><path d="M7720.3,496.569s.432,1.807,1.656,1.643,1.176-.651,1.176-.651" transform="translate(-7712.83 -489.807)" fill="#fff" stroke="#515151" stroke-miterlimit="10" stroke-width="1.571"/><path d="M7717.227,497.7s.8,1.946,2.05,1.692a3.674,3.674,0,0,0,2.048-1.8" transform="translate(-7713.884 -489.456)" fill="#fff" stroke="#515151" stroke-miterlimit="10" stroke-width="1.571"/><path d="M7719.31,499.4a.833.833,0,0,0,1.1.714,27.376,27.376,0,0,0,2.79-1.062" transform="translate(-7713.17 -488.957)" fill="#fff" stroke="#515151" stroke-miterlimit="10" stroke-width="1.571"/><path d="M7719.769,500.243s-.347,1.423.595,1.772" transform="translate(-7713.034 -488.548)" fill="#fff" stroke="#515151" stroke-miterlimit="10" stroke-width="1.571"/><path d="M7720.294,503.7s-2.455-2.034-3.477-.588-.243,2.2-.243,2.2" transform="translate(-7714.205 -487.743)" fill="#fff" stroke="#515151" stroke-miterlimit="10" stroke-width="1.571"/><path d="M7717.826,502.581s.235-1.183.911-1.473a2.171,2.171,0,0,1,1.389-.054" transform="translate(-7713.678 -488.301)" fill="#fff" stroke="#515151" stroke-miterlimit="10" stroke-width="1.571"/><path d="M7717.991,499.283s-1.181.716-.3,1.674" transform="translate(-7713.836 -488.877)" fill="#fff" stroke="#515151" stroke-miterlimit="10" stroke-width="1.571"/><path d="M7715.671,500.9s1.432-.794,1.9-.252" transform="translate(-7714.417 -488.474)" fill="#fff" stroke="#515151" stroke-miterlimit="10" stroke-width="1.571"/></g><path d="M7865.418,551.181c3.234-.627,76.43-4.977,76.43-4.977l-26.823-13.475-73.077-23.344-61.47-2.77-7.421,37.754s20.045,4.473,26.135,4.853S7865.418,551.181,7865.418,551.181Z" transform="translate(19.987 14.144)" fill="#fff" stroke="#515151" stroke-miterlimit="10" stroke-width="1.571"/><path d="M7948.642,490.722l-31.273-1.783-24.359,4.014,31.021,15.893,24.612,10.664Z" transform="translate(61.096 8.086)" fill="#fff" stroke="#515151" stroke-miterlimit="10" stroke-width="1.571"/><path d="M7799.119,525.347a19.178,19.178,0,0,1-16.66,19.01,19.4,19.4,0,0,1-2.512.162,19.173,19.173,0,1,1,19.172-19.172Z" transform="translate(15.776 13.992)" fill="#fff" stroke="#515151" stroke-miterlimit="10" stroke-width="1.571"/><path d="M7962.859,513.335c-14.727-6.163-48.509-20.124-58.676-22.838-13.132-3.5-52.662,0-52.662,0l5.466,9.023,104.478,49.1,1.395.322Z" transform="translate(46.876 8.086)" fill="#fff" stroke="#515151" stroke-miterlimit="10" stroke-width="1.571"/><path d="M7787.571,515.386s2.986,3.249,2.077,4.811c0,0,1.311,4.432-1.84,5.333a3.572,3.572,0,0,1-3.127,1.665s-1.771,2.253-2.712,2.378-38.844-4.8-38.844-4.8-2.472-1.782-2.378-2.275-.337-3.122.239-3.584,1.634-4.487,2.583-4.544c0,0,2.2-2.046,3.688-2.245l.393-.052a10.982,10.982,0,0,1,3.581-1.246C7753.113,510.58,7787.571,515.386,7787.571,515.386Z" transform="translate(8.891 15.586)" fill="#fff" stroke="#515151" stroke-miterlimit="10" stroke-width="1.571"/><path d="M7751.23,511.419l-.271,1.956s3.971-.53,3.938.819l-.033,1.348s2.208,2.585-.558,3.786a24.022,24.022,0,0,1-2.415,1.026s-1.484,3.206-3.355,3.137l-1.87-.07-1.636,1.59" transform="translate(10.381 15.79)" fill="#fff" stroke="#515151" stroke-miterlimit="10" stroke-width="1.571"/><line x2="31.322" y2="3.625" transform="translate(7765.979 529.251)" fill="#fff" stroke="#515151" stroke-miterlimit="10" stroke-width="1.571"/><line x1="31.795" y1="3.579" transform="translate(7766.472 532.943)" fill="#fff" stroke="#515151" stroke-miterlimit="10" stroke-width="1.571"/><path d="M7750.551,517.908s33.255,4.924,33.411,4.9" transform="translate(12.274 18.014)" fill="#fff" stroke="#515151" stroke-miterlimit="10" stroke-width="1.571"/><line x1="32.824" y1="4.192" transform="translate(7760.004 539.456)" fill="#fff" stroke="#515151" stroke-miterlimit="10" stroke-width="1.571"/><path d="M7749.319,513.018s-.459,1.933.151,2.62,3.683-.491,3.683-.491" transform="translate(11.794 16.338)" fill="#fff" stroke="#515151" stroke-miterlimit="10" stroke-width="1.571"/><path d="M7749.751,515.816s-.216,1.8.314,2.358" transform="translate(11.985 17.297)" fill="#fff" stroke="#515151" stroke-miterlimit="10" stroke-width="1.571"/><path d="M7746.23,520.712s.223-2.813,1.423-2.781,2.933.162,2.933.162" transform="translate(10.793 18.022)" fill="#fff" stroke="#515151" stroke-miterlimit="10" stroke-width="1.571"/><path d="M7746.885,511.788s.481,2.017,1.847,1.834,1.312-.726,1.312-.726" transform="translate(11.017 15.917)" fill="#fff" stroke="#515151" stroke-miterlimit="10" stroke-width="1.571"/><path d="M7743.456,513.052s.889,2.168,2.287,1.886a4.1,4.1,0,0,0,2.283-2.007" transform="translate(9.842 16.309)" fill="#fff" stroke="#515151" stroke-miterlimit="10" stroke-width="1.571"/><path d="M7745.779,514.943a.929.929,0,0,0,1.223.8,30.384,30.384,0,0,0,3.111-1.184" transform="translate(10.638 16.865)" fill="#fff" stroke="#515151" stroke-miterlimit="10" stroke-width="1.571"/><path d="M7746.291,515.886s-.385,1.587.664,1.975" transform="translate(10.79 17.321)" fill="#fff" stroke="#515151" stroke-miterlimit="10" stroke-width="1.571"/><path d="M7746.876,519.74s-2.734-2.269-3.875-.655-.27,2.457-.27,2.457" transform="translate(9.485 18.219)" fill="#fff" stroke="#515151" stroke-miterlimit="10" stroke-width="1.571"/><path d="M7744.126,518.491s.262-1.318,1.017-1.641a2.416,2.416,0,0,1,1.547-.06" transform="translate(10.072 17.596)" fill="#fff" stroke="#515151" stroke-miterlimit="10" stroke-width="1.571"/><path d="M7744.31,514.815s-1.318.8-.335,1.866" transform="translate(9.895 16.954)" fill="#fff" stroke="#515151" stroke-miterlimit="10" stroke-width="1.571"/><path d="M7741.723,516.619s1.6-.885,2.114-.282" transform="translate(9.249 17.404)" fill="#fff" stroke="#515151" stroke-miterlimit="10" stroke-width="1.571"/><path d="M7992.21,550.717l-22.2-12.642s-89.062-41.867-106.062-48.972-83.83-18.081-83.83-18.081l-3.2,19.308-11.037,19.938s149.832,40.747,164.55,45.569,44.657,7.288,56.837,7.542a16.4,16.4,0,0,0,4.947-.568Z" transform="translate(17.526 1.946)" fill="#fff" stroke="#515151" stroke-miterlimit="10" stroke-width="1.571"/><ellipse cx="21.072" cy="17.367" rx="21.072" ry="17.367" transform="translate(7763.795 501.842) rotate(-60)" fill="#fff" stroke="#515151" stroke-miterlimit="10" stroke-width="1.571"/><path d="M7787.087,481.27s3.046,3.616,1.712,5.043c0,0,.857,4.567-3.044,5.043,0,0-1.143,1.427-4,1.237,0,0-2.472,2-3.614,2s-45.578-9.9-45.578-9.9-2.666-2.093-2.475-2.569.1-3.141.856-3.521,2.664-4.232,3.806-4.162c0,0,2.949-1.737,4.758-1.737h.476a15.516,15.516,0,0,1,4.473-.761C7746.743,471.945,7787.087,481.27,7787.087,481.27Z" transform="translate(5.258 2.262)" fill="#fff" stroke="#515151" stroke-miterlimit="10" stroke-width="1.571"/><path d="M7744.459,472.677l-.635,1.9s4.82,0,4.566,1.333l-.254,1.332s2.222,2.855-1.269,3.679-3.044.7-3.044.7-2.283,2.981-4.5,2.664l-2.219-.317-2.206,1.36" transform="translate(6.908 2.513)" fill="#fff" stroke="#515151" stroke-miterlimit="10" stroke-width="1.571"/><line x2="36.792" y2="7.739" transform="translate(7756.25 477.791)" fill="#fff" stroke="#515151" stroke-miterlimit="10" stroke-width="1.571"/><line x1="37.363" y1="7.757" transform="translate(7756.25 481.516)" fill="#fff" stroke="#515151" stroke-miterlimit="10" stroke-width="1.571"/><path d="M7742.061,479.229s38.89,9.282,39.081,9.282" transform="translate(9.364 4.759)" fill="#fff" stroke="#515151" stroke-miterlimit="10" stroke-width="1.571"/><line x1="38.493" y1="8.5" transform="translate(7747.497 487.116)" fill="#fff" stroke="#515151" stroke-miterlimit="10" stroke-width="1.571"/><path d="M7741.438,474.213s-.856,1.854-.237,2.616,4.473,0,4.473,0" transform="translate(8.992 3.04)" fill="#fff" stroke="#515151" stroke-miterlimit="10" stroke-width="1.571"/><path d="M7741.489,477.047s-.545,1.759,0,2.379" transform="translate(9.085 4.011)" fill="#fff" stroke="#515151" stroke-miterlimit="10" stroke-width="1.571"/><path d="M7736.572,481.39s.714-2.759,2.142-2.569,3.472.55,3.472.55" transform="translate(7.482 4.616)" fill="#fff" stroke="#515151" stroke-miterlimit="10" stroke-width="1.571"/><path d="M7738.663,472.677s.251,2.062,1.909,2.062,1.68-.547,1.68-.547" transform="translate(8.2 2.513)" fill="#fff" stroke="#515151" stroke-miterlimit="10" stroke-width="1.571"/><path d="M7734.375,473.445s.715,2.268,2.427,2.172a4.983,4.983,0,0,0,3.045-1.688" transform="translate(6.73 2.776)" fill="#fff" stroke="#515151" stroke-miterlimit="10" stroke-width="1.571"/><path d="M7736.855,475.559s0,1.094,1.333.952,3.9-.761,3.9-.761" transform="translate(7.581 3.501)" fill="#fff" stroke="#515151" stroke-miterlimit="10" stroke-width="1.571"/><path d="M7737.335,476.657s-.714,1.523.476,2.046" transform="translate(7.672 3.877)" fill="#fff" stroke="#515151" stroke-miterlimit="10" stroke-width="1.571"/><path d="M7737.476,480.5s-2.9-2.61-4.52-1.161-.713,2.4-.713,2.4" transform="translate(5.913 4.647)" fill="#fff" stroke="#515151" stroke-miterlimit="10" stroke-width="1.571"/><path d="M7734.375,478.9s.524-1.272,1.476-1.493a3.451,3.451,0,0,1,1.855.145" transform="translate(6.73 4.11)" fill="#fff" stroke="#515151" stroke-miterlimit="10" stroke-width="1.571"/><path d="M7735.153,475.313s-1.7.616-.7,1.8" transform="translate(6.65 3.417)" fill="#fff" stroke="#515151" stroke-miterlimit="10" stroke-width="1.571"/><path d="M7731.753,476.733s2.046-.666,2.57,0" transform="translate(5.832 3.802)" fill="#fff" stroke="#515151" stroke-miterlimit="10" stroke-width="1.571"/></g><rect width="4" height="65" transform="translate(1416 7473)" fill="#fff"/></g></svg>