<svg xmlns="http://www.w3.org/2000/svg" xmlns:xlink="http://www.w3.org/1999/xlink" width="190" height="190" viewBox="0 0 190 190"><defs><clipPath id="a"><rect width="164.601" height="164.601" transform="translate(4297.46 479.505)" fill="#fff"/></clipPath></defs><g transform="translate(-4284.761 -466.806)"><rect width="190" height="190" transform="translate(4284.761 466.806)" fill="#f2d6e3"/><rect width="164.601" height="164.601" transform="translate(4297.46 479.505)" fill="#fff"/><g clip-path="url(#a)"><path d="M4282.057,690.368a2.536,2.536,0,0,1-2.037-1.093,1.225,1.225,0,0,0-.094-.114c-.407-.34-1.088-.908-19.853-37.659l3.623-1.85c3.338,6.537,7.727,15.084,11.465,22.291l.445-16.365c-.026-.946-.115-9.32,4.757-14.39a12.573,12.573,0,0,1,9.448-3.789c8.5,0,13.237,5.047,13.334,14.211.054,5.217-3.029,12.232-4.667,15.213-11.655,21.2-13.009,22.045-13.738,22.5A5.411,5.411,0,0,1,4282.057,690.368Zm-3.13-11.2c.709,1.35,1.348,2.559,1.9,3.585.771,1.446,1.362,2.529,1.712,3.131.545-.616,2.965-3.9,12.379-21.016,2.047-3.724,4.2-9.62,4.164-13.21-.073-6.854-3.1-10.187-9.267-10.187a8.546,8.546,0,0,0-6.5,2.53c-3.86,4-3.636,11.425-3.633,11.5l-.641,23.67Z" fill="#fff" stroke="#020202" stroke-miterlimit="10" stroke-width="1.356"/><path d="M4448.454,690.368a2.534,2.534,0,0,1-2.036-1.093c-.03-.039-.081-.1-.094-.114-.408-.34-5.881-10.019-24.645-46.77l3.622-1.85c3.338,6.537,12.519,24.2,16.258,31.4l.445-16.365c-.027-.946-.115-9.32,4.757-14.39a12.569,12.569,0,0,1,9.448-3.789c8.5,0,13.237,5.047,13.334,14.211.054,5.217-3.03,12.232-4.667,15.213-11.655,21.2-13.01,22.045-13.738,22.5A5.411,5.411,0,0,1,4448.454,690.368Zm-3.13-11.2c.709,1.35,1.348,2.559,1.9,3.585.772,1.446,1.362,2.529,1.712,3.131.546-.616,2.966-3.9,12.379-21.016,2.047-3.724,4.2-9.62,4.164-13.21-.072-6.854-3.1-10.187-9.266-10.187a8.549,8.549,0,0,0-6.5,2.53c-3.859,4-3.635,11.425-3.633,11.5l-.641,23.67Z" fill="#fff" stroke="#020202" stroke-miterlimit="10" stroke-width="1.356"/><line x2="6.544" y2="12.552" transform="translate(4273.411 668.562)" fill="#020202"/><rect width="1.355" height="14.156" transform="translate(4272.81 668.875) rotate(-27.531)" fill="#020202"/><line x2="6.544" y2="12.552" transform="translate(4305.82 668.562)" fill="#f42ff4"/><rect width="1.355" height="14.156" transform="translate(4305.22 668.875) rotate(-27.531)" fill="#fff"/><path d="M4322.221,637.4a12.571,12.571,0,0,0-9.448,3.789c-4.872,5.07-4.783,13.444-4.757,14.39l-.445,16.365c-3.253-6.271-11.372-21.966-15.627-30.245a13.014,13.014,0,0,0-4.552.039c18.226,35.672,24.541,47.088,24.944,47.424a1.31,1.31,0,0,1,.094.114,2.534,2.534,0,0,0,2.037,1.093,5.408,5.408,0,0,0,2.683-1.045c.728-.455,2.083-1.3,13.738-22.5,1.638-2.981,4.721-10,4.667-15.213C4335.458,642.446,4330.722,637.4,4322.221,637.4Zm5.1,27.464c-9.414,17.121-11.834,20.4-12.379,21.016-.35-.6-.941-1.685-1.713-3.131-.548-1.026-1.187-2.235-1.9-3.585l.106,0,.64-23.67c0-.075-.226-7.5,3.633-11.5a8.55,8.55,0,0,1,6.505-2.53c6.163,0,9.194,3.333,9.267,10.187C4331.526,655.243,4329.371,661.139,4327.324,664.863Z" fill="#fff" stroke="#020202" stroke-miterlimit="10" stroke-width="1.356"/><path d="M4356.933,637.4a12.571,12.571,0,0,0-9.448,3.789c-4.872,5.07-4.784,13.444-4.757,14.39l-.445,16.365c-3.014-5.809-10.207-19.764-14.632-28.362a8.618,8.618,0,0,0-5.323-1.4c18.015,35.249,24.319,46.65,24.72,46.984.013.011.063.075.094.114a2.534,2.534,0,0,0,2.036,1.093,5.411,5.411,0,0,0,2.684-1.045c.728-.455,2.082-1.3,13.737-22.5,1.638-2.981,4.722-10,4.667-15.213C4370.17,642.446,4365.434,637.4,4356.933,637.4Zm5.1,27.464c-9.413,17.121-11.833,20.4-12.379,21.016-.35-.6-.941-1.685-1.712-3.131-.548-1.026-1.187-2.235-1.9-3.585l.106,0,.641-23.67c0-.075-.226-7.5,3.633-11.5a8.546,8.546,0,0,1,6.5-2.53c6.163,0,9.193,3.333,9.266,10.187C4366.238,655.243,4364.082,661.139,4362.035,664.863Z" fill="#fff" stroke="#020202" stroke-miterlimit="10" stroke-width="1.356"/><line x2="6.544" y2="12.552" transform="translate(4305.82 668.562)" fill="#020202"/><rect width="1.355" height="14.156" transform="translate(4305.22 668.875) rotate(-27.531)" fill="#020202"/><line x2="6.544" y2="12.552" transform="translate(4340.531 668.562)" fill="#020202"/><rect width="1.355" height="14.156" transform="translate(4339.931 668.875) rotate(-27.531)" fill="#020202"/><path d="M4389.587,637.4a12.57,12.57,0,0,0-9.448,3.789c-4.872,5.07-4.784,13.444-4.757,14.39l-.445,16.365c-3.253-6.271-11.372-21.966-15.627-30.245a13.024,13.024,0,0,0-4.553.039c18.227,35.672,24.542,47.088,24.945,47.424.013.011.064.075.094.114a2.534,2.534,0,0,0,2.036,1.093,5.409,5.409,0,0,0,2.684-1.045c.728-.455,2.083-1.3,13.738-22.5,1.637-2.981,4.721-10,4.667-15.213C4402.824,642.446,4398.088,637.4,4389.587,637.4Zm5.1,27.464c-9.413,17.121-11.833,20.4-12.379,21.016-.35-.6-.94-1.685-1.712-3.131-.548-1.026-1.187-2.235-1.9-3.585l.106,0,.641-23.67c0-.075-.226-7.5,3.633-11.5a8.549,8.549,0,0,1,6.5-2.53c6.163,0,9.194,3.333,9.266,10.187C4398.892,655.243,4396.736,661.139,4394.689,664.863Z" fill="#020202"/><path d="M4423.436,637.4a12.571,12.571,0,0,0-9.448,3.789c-4.872,5.07-4.784,13.444-4.757,14.39l-.445,16.365c-3.253-6.271-11.373-21.966-15.627-30.245a13.023,13.023,0,0,0-4.553.039c18.227,35.672,24.542,47.088,24.945,47.424.013.011.063.075.094.114a2.534,2.534,0,0,0,2.036,1.093,5.415,5.415,0,0,0,2.684-1.045c.728-.455,2.082-1.3,13.737-22.5,1.638-2.981,4.722-10,4.667-15.213C4436.673,642.446,4431.937,637.4,4423.436,637.4Zm5.1,27.464c-9.413,17.121-11.833,20.4-12.379,21.016-.35-.6-.941-1.685-1.712-3.131-.548-1.026-1.187-2.235-1.9-3.585l.106,0,.641-23.67c0-.075-.226-7.5,3.633-11.5a8.548,8.548,0,0,1,6.5-2.53c6.163,0,9.193,3.333,9.266,10.187C4432.74,655.243,4430.585,661.139,4428.538,664.863Z" fill="#fff" stroke="#020202" stroke-miterlimit="10" stroke-width="1.356"/><line x2="6.544" y2="12.552" transform="translate(4407.02 668.562)" fill="#020202"/><rect width="1.355" height="14.156" transform="translate(4406.419 668.875) rotate(-27.531)" fill="#020202"/><line x2="6.544" y2="12.552" transform="translate(4439.819 668.562)" fill="#020202"/><rect width="1.355" height="14.156" transform="translate(4439.218 668.875) rotate(-27.531)" fill="#020202"/><path d="M4447.265,649.4c-.728-.455-2.083-1.3-13.738-22.5-1.637-2.981-4.721-10-4.667-15.212.1-9.165,4.833-14.212,13.334-14.212a12.568,12.568,0,0,1,9.448,3.79c4.872,5.069,4.783,13.444,4.757,14.39l.445,16.364c3.739-7.207,8.128-15.754,11.465-22.29l3.623,1.849c-18.765,36.751-19.445,37.319-19.853,37.659-.013.011-.064.076-.094.114a2.533,2.533,0,0,1-2.036,1.093A5.407,5.407,0,0,1,4447.265,649.4Zm5.707-10.157-.64-23.671c0-.074.226-7.5-3.633-11.5a8.546,8.546,0,0,0-6.505-2.53c-6.163,0-9.194,3.332-9.266,10.186-.039,3.591,2.117,9.487,4.163,13.211,9.414,17.121,11.834,20.4,12.38,21.016.349-.6.94-1.686,1.712-3.131.548-1.027,1.187-2.236,1.9-3.586Z" fill="#fff" stroke="#020202" stroke-miterlimit="10" stroke-width="1.356"/><path d="M4279.919,649.4c-.728-.455-2.083-1.3-13.738-22.5-1.637-2.981-4.721-10-4.667-15.212.1-9.165,4.833-14.212,13.334-14.212a12.567,12.567,0,0,1,9.448,3.79c4.872,5.069,4.783,13.444,4.757,14.39l.445,16.364c3.739-7.207,12.92-24.865,16.258-31.4l3.622,1.849c-18.764,36.751-24.237,46.43-24.645,46.77-.013.011-.064.076-.094.114a2.534,2.534,0,0,1-2.036,1.093A5.409,5.409,0,0,1,4279.919,649.4Zm5.708-10.157-.641-23.671c0-.074.226-7.5-3.633-11.5a8.546,8.546,0,0,0-6.5-2.53c-6.163,0-9.194,3.332-9.266,10.186-.039,3.591,2.117,9.487,4.164,13.211,9.413,17.121,11.833,20.4,12.379,21.016.35-.6.94-1.686,1.712-3.131.548-1.027,1.187-2.236,1.9-3.586Z" fill="#fff" stroke="#020202" stroke-miterlimit="10" stroke-width="1.356"/><line x1="6.544" y2="12.552" transform="translate(4451.751 629.029)" fill="#020202"/><rect width="14.156" height="1.355" transform="translate(4451.151 641.269) rotate(-62.469)" fill="#020202"/><line x1="6.544" y2="12.552" transform="translate(4419.342 629.029)" fill="#f42ff4"/><rect width="14.156" height="1.355" transform="translate(4418.741 641.269) rotate(-62.469)" fill="#fff"/><path d="M4396.45,611.683c-.054,5.216,3.03,12.231,4.667,15.212,11.655,21.2,13.01,22.046,13.738,22.5a5.407,5.407,0,0,0,2.684,1.044,2.534,2.534,0,0,0,2.036-1.093c.03-.038.081-.1.094-.114.4-.336,6.718-11.751,24.945-47.424a13.025,13.025,0,0,0-4.553-.038c-4.254,8.279-12.374,23.973-15.627,30.244l-.445-16.364c.027-.946.115-9.321-4.757-14.39a12.567,12.567,0,0,0-9.448-3.79C4401.283,597.471,4396.547,602.518,4396.45,611.683Zm4.068.042c.073-6.854,3.1-10.186,9.266-10.186a8.546,8.546,0,0,1,6.5,2.53c3.859,4,3.635,11.425,3.633,11.5l.641,23.671.106,0c-.709,1.35-1.348,2.559-1.9,3.586-.772,1.445-1.362,2.529-1.712,3.131-.546-.616-2.966-3.9-12.379-21.016C4402.635,621.212,4400.479,615.316,4400.518,611.725Z" fill="#fff" stroke="#020202" stroke-miterlimit="10" stroke-width="1.356"/><path d="M4361.739,611.683c-.054,5.216,3.029,12.231,4.667,15.212,11.655,21.2,13.009,22.046,13.737,22.5a5.414,5.414,0,0,0,2.684,1.044,2.531,2.531,0,0,0,2.036-1.093c.031-.038.081-.1.094-.114.4-.334,6.705-11.735,24.72-46.984a8.619,8.619,0,0,0-5.323,1.4c-4.425,8.6-11.618,22.553-14.632,28.361l-.445-16.364c.027-.946.116-9.321-4.757-14.39a12.567,12.567,0,0,0-9.447-3.79C4366.571,597.471,4361.836,602.518,4361.739,611.683Zm4.067.042c.073-6.854,3.1-10.186,9.267-10.186a8.542,8.542,0,0,1,6.5,2.53c3.86,4,3.636,11.425,3.633,11.5l.641,23.671.106,0c-.709,1.35-1.348,2.559-1.9,3.586-.771,1.445-1.362,2.529-1.712,3.131-.545-.616-2.966-3.9-12.379-21.016C4367.923,621.212,4365.768,615.316,4365.806,611.725Z" fill="#fff" stroke="#020202" stroke-miterlimit="10" stroke-width="1.356"/><line x1="6.544" y2="12.552" transform="translate(4419.459 629.029)" fill="#020202"/><rect width="14.156" height="1.355" transform="translate(4418.858 641.269) rotate(-62.469)" fill="#020202"/><line x1="6.544" y2="12.552" transform="translate(4384.713 629.029)" fill="#020202"/><rect width="14.156" height="1.355" transform="translate(4384.112 641.269) rotate(-62.469)" fill="#020202"/><path d="M4327.913,611.683c-.054,5.216,3.03,12.231,4.667,15.212,11.655,21.2,13.01,22.046,13.738,22.5A5.41,5.41,0,0,0,4349,650.44a2.534,2.534,0,0,0,2.036-1.093c.03-.038.081-.1.094-.114.4-.336,6.718-11.751,24.945-47.424a13.028,13.028,0,0,0-4.553-.038c-4.254,8.279-12.374,23.973-15.627,30.244l-.445-16.364c.027-.946.115-9.321-4.757-14.39a12.567,12.567,0,0,0-9.448-3.79C4332.746,597.471,4328.01,602.518,4327.913,611.683Zm4.068.042c.073-6.854,3.1-10.186,9.266-10.186a8.544,8.544,0,0,1,6.5,2.53c3.859,4,3.635,11.425,3.633,11.5l.641,23.671.106,0c-.709,1.35-1.348,2.559-1.9,3.586-.772,1.445-1.362,2.529-1.712,3.131-.546-.616-2.966-3.9-12.379-21.016C4334.1,621.212,4331.942,615.316,4331.981,611.725Z" fill="#020202"/><path d="M4295.236,611.683c-.054,5.216,3.029,12.231,4.667,15.212,11.655,21.2,13.009,22.046,13.737,22.5a5.414,5.414,0,0,0,2.684,1.044,2.532,2.532,0,0,0,2.036-1.093c.031-.038.081-.1.094-.114.4-.336,6.719-11.751,24.945-47.424a13.025,13.025,0,0,0-4.553-.038c-4.254,8.279-12.373,23.973-15.627,30.244l-.444-16.364c.026-.946.115-9.321-4.758-14.39a12.568,12.568,0,0,0-9.447-3.79C4300.068,597.471,4295.333,602.518,4295.236,611.683Zm4.067.042c.073-6.854,3.1-10.186,9.267-10.186a8.542,8.542,0,0,1,6.5,2.53c3.86,4,3.636,11.425,3.633,11.5l.641,23.671.106,0c-.709,1.35-1.348,2.559-1.9,3.586-.771,1.445-1.362,2.529-1.712,3.131-.545-.616-2.966-3.9-12.379-21.016C4301.42,621.212,4299.265,615.316,4299.3,611.725Z" fill="#fff" stroke="#020202" stroke-miterlimit="10" stroke-width="1.356"/><line x1="6.544" y2="12.552" transform="translate(4318.142 629.029)" fill="#020202"/><rect width="14.156" height="1.355" transform="translate(4317.542 641.269) rotate(-62.469)" fill="#020202"/><path d="M4312.518,650.928a13.723,13.723,0,0,1,3.19-6.852,6.629,6.629,0,0,1,1.8-1.6l2.578-4.84a11.656,11.656,0,0,0-7.32,3.635c-1.828,1.9-3.206,5.232-4.009,7.822" fill="#fff" stroke="#020202" stroke-linecap="round" stroke-linejoin="round" stroke-width="1.356"/><path d="M4379.857,650.925a13.71,13.71,0,0,1,3.2-6.846,6.6,6.6,0,0,1,1.8-1.6l2.586-4.836a11.652,11.652,0,0,0-7.326,3.622c-1.831,1.9-3.215,5.226-4.022,7.816" fill="#020202"/><path d="M4413.741,650.848a13.719,13.719,0,0,1,3.19-6.852,6.633,6.633,0,0,1,1.8-1.6l2.579-4.84a11.658,11.658,0,0,0-7.32,3.635c-1.828,1.9-3.207,5.232-4.009,7.822" fill="#fff" stroke="#020202" stroke-linecap="round" stroke-linejoin="round" stroke-width="1.356"/><path d="M4446.484,650.848a13.723,13.723,0,0,1,3.19-6.852,6.631,6.631,0,0,1,1.8-1.6l2.578-4.84a11.658,11.658,0,0,0-7.32,3.635c-1.828,1.9-3.207,5.232-4.009,7.822" fill="#fff" stroke="#020202" stroke-linecap="round" stroke-linejoin="round" stroke-width="1.356"/><path d="M4347.191,650.928a13.707,13.707,0,0,1,3.19-6.852,6.641,6.641,0,0,1,1.8-1.6l2.578-4.84a11.663,11.663,0,0,0-7.32,3.635c-1.828,1.9-3.206,5.232-4.008,7.822" fill="#fff" stroke="#020202" stroke-miterlimit="10" stroke-width="1.356"/><path d="M4280.092,650.928a14.321,14.321,0,0,1,2.732-6.056,6.425,6.425,0,0,0,.757-1.736l2.745-5.275c-2.986.365-3.992,1.331-5.988,3.407-1.828,1.9-3.206,5.232-4.009,7.822" fill="#fff" stroke="#020202" stroke-linecap="round" stroke-linejoin="round" stroke-width="1.356"/><line x1="6.544" y2="12.552" transform="translate(4284.386 629.029)" fill="#020202"/><rect width="14.156" height="1.355" transform="translate(4283.786 641.269) rotate(-62.469)" fill="#020202"/><path d="M4282.057,610.233a2.536,2.536,0,0,1-2.037-1.093,1.374,1.374,0,0,0-.094-.114c-.407-.34-1.088-.908-19.853-37.659l3.623-1.849c3.338,6.536,7.727,15.083,11.465,22.29l.445-16.364c-.026-.946-.115-9.321,4.757-14.39a12.57,12.57,0,0,1,9.448-3.79c8.5,0,13.237,5.047,13.334,14.212.054,5.216-3.029,12.231-4.667,15.212-11.655,21.2-13.009,22.046-13.738,22.5A5.42,5.42,0,0,1,4282.057,610.233Zm-3.13-11.2c.709,1.35,1.348,2.559,1.9,3.586.771,1.445,1.362,2.529,1.712,3.131.545-.616,2.965-3.9,12.379-21.016,2.047-3.725,4.2-9.62,4.164-13.211-.073-6.854-3.1-10.186-9.267-10.186a8.542,8.542,0,0,0-6.5,2.53c-3.86,4-3.636,11.425-3.633,11.5l-.641,23.671Z" fill="#fff" stroke="#020202" stroke-miterlimit="10" stroke-width="1.356"/><path d="M4448.454,610.233a2.534,2.534,0,0,1-2.036-1.093c-.03-.038-.081-.1-.094-.114-.408-.34-5.881-10.019-24.645-46.77l3.622-1.849c3.338,6.536,12.519,24.194,16.258,31.4l.445-16.364c-.027-.946-.115-9.321,4.757-14.39a12.566,12.566,0,0,1,9.448-3.79c8.5,0,13.237,5.047,13.334,14.212.054,5.216-3.03,12.231-4.667,15.212-11.655,21.2-13.01,22.046-13.738,22.5A5.42,5.42,0,0,1,4448.454,610.233Zm-3.13-11.2c.709,1.35,1.348,2.559,1.9,3.586.772,1.445,1.362,2.529,1.712,3.131.546-.616,2.966-3.9,12.379-21.016,2.047-3.725,4.2-9.62,4.164-13.211-.072-6.854-3.1-10.186-9.266-10.186a8.545,8.545,0,0,0-6.5,2.53c-3.859,4-3.635,11.425-3.633,11.5l-.641,23.671Z" fill="#fff" stroke="#020202" stroke-miterlimit="10" stroke-width="1.356"/><line x2="6.544" y2="12.552" transform="translate(4273.411 588.427)" fill="#020202"/><rect width="1.355" height="14.156" transform="translate(4272.81 588.741) rotate(-27.531)" fill="#020202"/><line x2="6.544" y2="12.552" transform="translate(4305.82 588.427)" fill="#f42ff4"/><rect width="1.355" height="14.156" transform="translate(4305.22 588.741) rotate(-27.531)" fill="#fff"/><path d="M4322.221,557.264a12.568,12.568,0,0,0-9.448,3.79c-4.872,5.069-4.783,13.444-4.757,14.39l-.445,16.364c-3.253-6.271-11.372-21.965-15.627-30.244a13.019,13.019,0,0,0-4.552.038c18.226,35.673,24.541,47.088,24.944,47.424.014.011.064.076.094.114a2.534,2.534,0,0,0,2.037,1.093,5.416,5.416,0,0,0,2.683-1.044c.728-.455,2.083-1.3,13.738-22.5,1.638-2.981,4.721-10,4.667-15.212C4335.458,562.311,4330.722,557.264,4322.221,557.264Zm5.1,27.465c-9.414,17.121-11.834,20.4-12.379,21.016-.35-.6-.941-1.686-1.713-3.131-.548-1.027-1.187-2.236-1.9-3.586l.106,0,.64-23.671c0-.074-.226-7.5,3.633-11.5a8.546,8.546,0,0,1,6.505-2.53c6.163,0,9.194,3.332,9.267,10.186C4331.526,575.109,4329.371,581,4327.324,584.729Z" fill="#fff" stroke="#020202" stroke-miterlimit="10" stroke-width="1.356"/><path d="M4356.933,557.264a12.568,12.568,0,0,0-9.448,3.79c-4.872,5.069-4.784,13.444-4.757,14.39l-.445,16.364c-3.014-5.809-10.207-19.764-14.632-28.361a8.619,8.619,0,0,0-5.323-1.405c18.015,35.249,24.319,46.65,24.72,46.984.013.011.063.076.094.114a2.534,2.534,0,0,0,2.036,1.093,5.42,5.42,0,0,0,2.684-1.044c.728-.455,2.082-1.3,13.737-22.5,1.638-2.981,4.722-10,4.667-15.212C4370.17,562.311,4365.434,557.264,4356.933,557.264Zm5.1,27.465c-9.413,17.121-11.833,20.4-12.379,21.016-.35-.6-.941-1.686-1.712-3.131-.548-1.027-1.187-2.236-1.9-3.586l.106,0,.641-23.671c0-.074-.226-7.5,3.633-11.5a8.543,8.543,0,0,1,6.5-2.53c6.163,0,9.193,3.332,9.266,10.186C4366.238,575.109,4364.082,581,4362.035,584.729Z" fill="#fff" stroke="#020202" stroke-miterlimit="10" stroke-width="1.356"/><line x2="6.544" y2="12.552" transform="translate(4305.82 588.427)" fill="#020202"/><rect width="1.355" height="14.156" transform="translate(4305.22 588.741) rotate(-27.531)" fill="#020202"/><line x2="6.544" y2="12.552" transform="translate(4340.531 588.427)" fill="#020202"/><rect width="1.355" height="14.156" transform="translate(4339.931 588.741) rotate(-27.531)" fill="#020202"/><path d="M4389.587,557.264a12.567,12.567,0,0,0-9.448,3.79c-4.872,5.069-4.784,13.444-4.757,14.39l-.445,16.364c-3.253-6.271-11.372-21.965-15.627-30.244a13.029,13.029,0,0,0-4.553.038c18.227,35.673,24.542,47.088,24.945,47.424.013.011.064.076.094.114a2.534,2.534,0,0,0,2.036,1.093,5.418,5.418,0,0,0,2.684-1.044c.728-.455,2.083-1.3,13.738-22.5,1.637-2.981,4.721-10,4.667-15.212C4402.824,562.311,4398.088,557.264,4389.587,557.264Zm5.1,27.465c-9.413,17.121-11.833,20.4-12.379,21.016-.35-.6-.94-1.686-1.712-3.131-.548-1.027-1.187-2.236-1.9-3.586l.106,0,.641-23.671c0-.074-.226-7.5,3.633-11.5a8.545,8.545,0,0,1,6.5-2.53c6.163,0,9.194,3.332,9.266,10.186C4398.892,575.109,4396.736,581,4394.689,584.729Z" fill="#020202"/><path d="M4423.436,557.264a12.568,12.568,0,0,0-9.448,3.79c-4.872,5.069-4.784,13.444-4.757,14.39l-.445,16.364c-3.253-6.271-11.373-21.965-15.627-30.244a13.028,13.028,0,0,0-4.553.038c18.227,35.673,24.542,47.088,24.945,47.424.013.011.063.076.094.114a2.534,2.534,0,0,0,2.036,1.093,5.424,5.424,0,0,0,2.684-1.044c.728-.455,2.082-1.3,13.737-22.5,1.638-2.981,4.722-10,4.667-15.212C4436.673,562.311,4431.937,557.264,4423.436,557.264Zm5.1,27.465c-9.413,17.121-11.833,20.4-12.379,21.016-.35-.6-.941-1.686-1.712-3.131-.548-1.027-1.187-2.236-1.9-3.586l.106,0,.641-23.671c0-.074-.226-7.5,3.633-11.5a8.544,8.544,0,0,1,6.5-2.53c6.163,0,9.193,3.332,9.266,10.186C4432.74,575.109,4430.585,581,4428.538,584.729Z" fill="#fff" stroke="#020202" stroke-miterlimit="10" stroke-width="1.356"/><line x2="6.544" y2="12.552" transform="translate(4407.02 588.427)" fill="#020202"/><rect width="1.355" height="14.156" transform="translate(4406.419 588.741) rotate(-27.531)" fill="#020202"/><line x2="6.544" y2="12.552" transform="translate(4439.819 588.427)" fill="#020202"/><rect width="1.355" height="14.156" transform="translate(4439.218 588.741) rotate(-27.531)" fill="#020202"/><path d="M4447.265,569.261c-.728-.455-2.083-1.3-13.738-22.5-1.637-2.981-4.721-10-4.667-15.213.1-9.164,4.833-14.211,13.334-14.211a12.571,12.571,0,0,1,9.448,3.789c4.872,5.069,4.783,13.444,4.757,14.39l.445,16.365c3.739-7.208,8.128-15.754,11.465-22.291l3.623,1.85c-18.765,36.751-19.445,37.319-19.853,37.659a1.339,1.339,0,0,0-.094.114,2.534,2.534,0,0,1-2.036,1.093A5.408,5.408,0,0,1,4447.265,569.261Zm5.707-10.157-.64-23.671c0-.074.226-7.5-3.633-11.5a8.546,8.546,0,0,0-6.505-2.53c-6.163,0-9.194,3.332-9.266,10.187-.039,3.59,2.117,9.486,4.163,13.21,9.414,17.121,11.834,20.4,12.38,21.016.349-.6.94-1.685,1.712-3.131.548-1.026,1.187-2.236,1.9-3.585Z" fill="#fff" stroke="#020202" stroke-miterlimit="10" stroke-width="1.356"/><path d="M4279.919,569.261c-.728-.455-2.083-1.3-13.738-22.5-1.637-2.981-4.721-10-4.667-15.213.1-9.164,4.833-14.211,13.334-14.211a12.57,12.57,0,0,1,9.448,3.789c4.872,5.069,4.783,13.444,4.757,14.39l.445,16.365c3.739-7.208,12.92-24.865,16.258-31.4l3.622,1.85c-18.764,36.751-24.237,46.43-24.645,46.77a1.354,1.354,0,0,0-.094.114,2.534,2.534,0,0,1-2.036,1.093A5.409,5.409,0,0,1,4279.919,569.261Zm5.708-10.157-.641-23.671c0-.074.226-7.5-3.633-11.5a8.545,8.545,0,0,0-6.5-2.53c-6.163,0-9.194,3.332-9.266,10.187-.039,3.59,2.117,9.486,4.164,13.21,9.413,17.121,11.833,20.4,12.379,21.016.35-.6.94-1.685,1.712-3.131.548-1.026,1.187-2.236,1.9-3.585Z" fill="#fff" stroke="#020202" stroke-miterlimit="10" stroke-width="1.356"/><line x1="6.544" y2="12.552" transform="translate(4451.751 548.895)" fill="#020202"/><rect width="14.156" height="1.355" transform="translate(4451.151 561.134) rotate(-62.469)" fill="#020202"/><line x1="6.544" y2="12.552" transform="translate(4419.342 548.895)" fill="#f42ff4"/><rect width="14.156" height="1.355" transform="translate(4418.741 561.134) rotate(-62.469)" fill="#fff"/><path d="M4396.45,531.548c-.054,5.217,3.03,12.232,4.667,15.213,11.655,21.2,13.01,22.045,13.738,22.5a5.408,5.408,0,0,0,2.684,1.045,2.534,2.534,0,0,0,2.036-1.093,1.264,1.264,0,0,1,.094-.114c.4-.336,6.718-11.752,24.945-47.425a13.05,13.05,0,0,0-4.553-.038c-4.254,8.279-12.374,23.973-15.627,30.245l-.445-16.365c.027-.946.115-9.321-4.757-14.39a12.57,12.57,0,0,0-9.448-3.789C4401.283,517.337,4396.547,522.384,4396.45,531.548Zm4.068.043c.073-6.855,3.1-10.187,9.266-10.187a8.545,8.545,0,0,1,6.5,2.53c3.859,4,3.635,11.425,3.633,11.5l.641,23.671.106,0c-.709,1.349-1.348,2.559-1.9,3.585-.772,1.446-1.362,2.529-1.712,3.131-.546-.616-2.966-3.9-12.379-21.016C4402.635,541.077,4400.479,535.181,4400.518,531.591Z" fill="#fff" stroke="#020202" stroke-miterlimit="10" stroke-width="1.356"/><path d="M4361.739,531.548c-.054,5.217,3.029,12.232,4.667,15.213,11.655,21.2,13.009,22.045,13.737,22.5a5.415,5.415,0,0,0,2.684,1.045,2.532,2.532,0,0,0,2.036-1.093c.031-.039.081-.1.094-.114.4-.335,6.705-11.735,24.72-46.984a8.618,8.618,0,0,0-5.323,1.4c-4.425,8.6-11.618,22.553-14.632,28.362l-.445-16.365c.027-.946.116-9.321-4.757-14.39a12.57,12.57,0,0,0-9.447-3.789C4366.571,517.337,4361.836,522.384,4361.739,531.548Zm4.067.043c.073-6.855,3.1-10.187,9.267-10.187a8.542,8.542,0,0,1,6.5,2.53c3.86,4,3.636,11.425,3.633,11.5l.641,23.671.106,0c-.709,1.349-1.348,2.559-1.9,3.585-.771,1.446-1.362,2.529-1.712,3.131-.545-.616-2.966-3.9-12.379-21.016C4367.923,541.077,4365.768,535.181,4365.806,531.591Z" fill="#fff" stroke="#020202" stroke-miterlimit="10" stroke-width="1.356"/><line x1="6.544" y2="12.552" transform="translate(4419.459 548.895)" fill="#020202"/><rect width="14.156" height="1.355" transform="translate(4418.858 561.134) rotate(-62.469)" fill="#020202"/><line x1="6.544" y2="12.552" transform="translate(4384.713 548.895)" fill="#020202"/><rect width="14.156" height="1.355" transform="translate(4384.112 561.134) rotate(-62.469)" fill="#020202"/><path d="M4327.913,531.548c-.054,5.217,3.03,12.232,4.667,15.213,11.655,21.2,13.01,22.045,13.738,22.5a5.411,5.411,0,0,0,2.684,1.045,2.534,2.534,0,0,0,2.036-1.093,1.354,1.354,0,0,1,.094-.114c.4-.336,6.718-11.752,24.945-47.425a13.053,13.053,0,0,0-4.553-.038c-4.254,8.279-12.374,23.973-15.627,30.245l-.445-16.365c.027-.946.115-9.321-4.757-14.39a12.57,12.57,0,0,0-9.448-3.789C4332.746,517.337,4328.01,522.384,4327.913,531.548Zm4.068.043c.073-6.855,3.1-10.187,9.266-10.187a8.544,8.544,0,0,1,6.5,2.53c3.859,4,3.635,11.425,3.633,11.5l.641,23.671.106,0c-.709,1.349-1.348,2.559-1.9,3.585-.772,1.446-1.362,2.529-1.712,3.131-.546-.616-2.966-3.9-12.379-21.016C4334.1,541.077,4331.942,535.181,4331.981,531.591Z" fill="#020202"/><path d="M4295.236,531.548c-.054,5.217,3.029,12.232,4.667,15.213,11.655,21.2,13.009,22.045,13.737,22.5a5.415,5.415,0,0,0,2.684,1.045,2.532,2.532,0,0,0,2.036-1.093c.031-.039.081-.1.094-.114.4-.336,6.719-11.752,24.945-47.425a13.05,13.05,0,0,0-4.553-.038c-4.254,8.279-12.373,23.973-15.627,30.245l-.444-16.365c.026-.946.115-9.321-4.758-14.39a12.571,12.571,0,0,0-9.447-3.789C4300.068,517.337,4295.333,522.384,4295.236,531.548Zm4.067.043c.073-6.855,3.1-10.187,9.267-10.187a8.542,8.542,0,0,1,6.5,2.53c3.86,4,3.636,11.425,3.633,11.5l.641,23.671.106,0c-.709,1.349-1.348,2.559-1.9,3.585-.771,1.446-1.362,2.529-1.712,3.131-.545-.616-2.966-3.9-12.379-21.016C4301.42,541.077,4299.265,535.181,4299.3,531.591Z" fill="#fff" stroke="#020202" stroke-miterlimit="10" stroke-width="1.356"/><path d="M4313.375,527.849a2.534,2.534,0,0,1-2.036-1.093c-.03-.039-.081-.1-.094-.114-.408-.34-1.088-.908-19.853-37.659l3.623-1.85c3.337,6.537,7.726,15.084,11.465,22.291l.445-16.365c-.027-.946-.115-9.32,4.757-14.39a12.57,12.57,0,0,1,9.448-3.789c8.5,0,13.237,5.047,13.334,14.211.054,5.217-3.03,12.232-4.667,15.213-11.655,21.2-13.01,22.045-13.738,22.5A5.409,5.409,0,0,1,4313.375,527.849Zm-3.13-11.205c.709,1.349,1.348,2.559,1.9,3.585.772,1.446,1.362,2.529,1.712,3.131.546-.616,2.966-3.895,12.379-21.016,2.047-3.724,4.2-9.62,4.164-13.21-.072-6.854-3.1-10.187-9.266-10.187a8.549,8.549,0,0,0-6.5,2.53c-3.859,4-3.635,11.425-3.633,11.5l-.641,23.67Z" fill="#fff" stroke="#020202" stroke-miterlimit="10" stroke-width="1.356"/><line x2="6.544" y2="12.552" transform="translate(4304.729 506.043)" fill="#020202"/><rect width="1.355" height="14.156" transform="translate(4304.129 506.356) rotate(-27.531)" fill="#020202"/><line x2="6.544" y2="12.552" transform="translate(4337.139 506.043)" fill="#f42ff4"/><rect width="1.355" height="14.156" transform="translate(4336.539 506.356) rotate(-27.531)" fill="#fff"/><path d="M4353.54,474.88a12.571,12.571,0,0,0-9.448,3.789c-4.872,5.07-4.784,13.444-4.757,14.39l-.445,16.365c-3.253-6.271-11.373-21.966-15.627-30.245a13.025,13.025,0,0,0-4.553.039c18.227,35.672,24.542,47.088,24.945,47.424.013.011.063.075.094.114a2.534,2.534,0,0,0,2.036,1.093,5.415,5.415,0,0,0,2.684-1.045c.728-.455,2.082-1.3,13.737-22.5,1.638-2.981,4.722-10,4.667-15.213C4366.777,479.927,4362.041,474.88,4353.54,474.88Zm5.1,27.464c-9.413,17.121-11.833,20.4-12.379,21.016-.35-.6-.941-1.685-1.712-3.131-.548-1.026-1.187-2.236-1.9-3.585l.106,0,.641-23.67c0-.075-.226-7.5,3.633-11.5a8.547,8.547,0,0,1,6.5-2.53c6.163,0,9.193,3.333,9.266,10.187C4362.845,492.724,4360.689,498.62,4358.642,502.344Z" fill="#fff" stroke="#020202" stroke-miterlimit="10" stroke-width="1.356"/><path d="M4388.251,474.88a12.573,12.573,0,0,0-9.448,3.789c-4.872,5.07-4.783,13.444-4.757,14.39l-.444,16.365c-3.014-5.809-10.208-19.764-14.633-28.362a8.619,8.619,0,0,0-5.323-1.4c18.015,35.249,24.32,46.65,24.72,46.984a1.321,1.321,0,0,1,.094.114,2.536,2.536,0,0,0,2.037,1.093,5.411,5.411,0,0,0,2.683-1.045c.729-.455,2.083-1.3,13.738-22.5,1.638-2.981,4.721-10,4.667-15.213C4401.488,479.927,4396.753,474.88,4388.251,474.88Zm5.1,27.464c-9.414,17.121-11.834,20.4-12.379,21.016-.35-.6-.941-1.685-1.713-3.131-.547-1.026-1.186-2.236-1.9-3.585l.106,0,.641-23.67c0-.075-.227-7.5,3.633-11.5a8.545,8.545,0,0,1,6.5-2.53c6.163,0,9.194,3.333,9.267,10.187C4397.556,492.724,4395.4,498.62,4393.354,502.344Z" fill="#020202"/><line x2="6.544" y2="12.552" transform="translate(4337.139 506.043)" fill="#020202"/><rect width="1.355" height="14.156" transform="translate(4336.539 506.356) rotate(-27.531)" fill="#020202"/><line x2="6.544" y2="12.552" transform="translate(4405.676 506.043)" fill="#f42ff4"/><rect width="1.355" height="14.156" transform="translate(4405.076 506.356) rotate(-27.531)" fill="#fff"/><path d="M4422.077,474.88a12.571,12.571,0,0,0-9.448,3.789c-4.872,5.07-4.784,13.444-4.757,14.39l-.445,16.365c-3.253-6.271-11.373-21.966-15.627-30.245a13.022,13.022,0,0,0-4.553.039c18.227,35.672,24.542,47.088,24.945,47.424.013.011.063.075.094.114a2.533,2.533,0,0,0,2.036,1.093,5.411,5.411,0,0,0,2.684-1.045c.728-.455,2.082-1.3,13.737-22.5,1.638-2.981,4.722-10,4.667-15.213C4435.314,479.927,4430.578,474.88,4422.077,474.88Zm5.1,27.464c-9.413,17.121-11.833,20.4-12.379,21.016-.35-.6-.941-1.685-1.712-3.131-.548-1.026-1.187-2.236-1.9-3.585l.106,0,.641-23.67c0-.075-.226-7.5,3.633-11.5a8.548,8.548,0,0,1,6.505-2.53c6.163,0,9.193,3.333,9.266,10.187C4431.382,492.724,4429.226,498.62,4427.179,502.344Z" fill="#fff" stroke="#020202" stroke-miterlimit="10" stroke-width="1.356"/><path d="M4454.754,474.88a12.572,12.572,0,0,0-9.448,3.789c-4.872,5.07-4.783,13.444-4.757,14.39l-.444,16.365c-3.254-6.271-11.373-21.966-15.627-30.245a13.024,13.024,0,0,0-4.553.039c18.226,35.672,24.542,47.088,24.944,47.424a1.321,1.321,0,0,1,.094.114,2.536,2.536,0,0,0,2.037,1.093,5.41,5.41,0,0,0,2.683-1.045c.729-.455,2.083-1.3,13.738-22.5,1.638-2.981,4.721-10,4.667-15.213C4467.991,479.927,4463.255,474.88,4454.754,474.88Zm5.1,27.464c-9.414,17.121-11.834,20.4-12.379,21.016-.35-.6-.941-1.685-1.713-3.131-.547-1.026-1.186-2.236-1.9-3.585l.106,0,.641-23.67c0-.075-.227-7.5,3.633-11.5a8.545,8.545,0,0,1,6.5-2.53c6.163,0,9.194,3.333,9.267,10.187C4464.059,492.724,4461.9,498.62,4459.857,502.344Z" fill="#fff" stroke="#020202" stroke-miterlimit="10" stroke-width="1.356"/><line x2="6.544" y2="12.552" transform="translate(4405.676 506.043)" fill="#020202"/><rect width="1.355" height="14.156" transform="translate(4405.076 506.356) rotate(-27.531)" fill="#020202"/><line x1="6.544" y2="12.552" transform="translate(4318.142 548.895)" fill="#020202"/><rect width="14.156" height="1.355" transform="translate(4317.542 561.134) rotate(-62.469)" fill="#020202"/><path d="M4350.695,521.126a12.246,12.246,0,0,0-8.042-3.73l1.964,4.538a7.858,7.858,0,0,1,3.135,2,11.852,11.852,0,0,1,2.582,4.519l3.18-3.033A14.841,14.841,0,0,0,4350.695,521.126Z" fill="#020202"/><path d="M4318.264,530.786a13.711,13.711,0,0,0-3.19-6.852,6.624,6.624,0,0,0-1.8-1.6l-2.578-4.84a11.657,11.657,0,0,1,7.32,3.635c1.828,1.9,3.206,5.231,4.008,7.822" fill="#fff" stroke="#020202" stroke-linecap="round" stroke-linejoin="round" stroke-width="1.356"/><path d="M4384.814,530.866a13.713,13.713,0,0,0-3.189-6.852,6.665,6.665,0,0,0-1.8-1.6l-2.578-4.84a11.655,11.655,0,0,1,7.32,3.635c1.828,1.9,3.206,5.231,4.009,7.822" fill="#fff" stroke="#020202" stroke-linecap="round" stroke-linejoin="round" stroke-width="1.356"/><path d="M4419.487,530.866a13.719,13.719,0,0,0-3.19-6.852,6.632,6.632,0,0,0-1.8-1.6l-2.579-4.84a11.654,11.654,0,0,1,7.32,3.635c1.828,1.9,3.207,5.231,4.009,7.822" fill="#fff" stroke="#020202" stroke-linecap="round" stroke-linejoin="round" stroke-width="1.356"/><path d="M4451.914,530.866a13.723,13.723,0,0,0-3.19-6.852,6.63,6.63,0,0,0-1.8-1.6l-2.578-4.84a11.655,11.655,0,0,1,7.32,3.635c1.828,1.9,3.206,5.231,4.009,7.822" fill="#fff" stroke="#020202" stroke-linecap="round" stroke-linejoin="round" stroke-width="1.356"/><path d="M4312.518,570.794a13.719,13.719,0,0,1,3.19-6.852,6.6,6.6,0,0,1,1.8-1.6l2.578-4.841a11.653,11.653,0,0,0-7.32,3.636c-1.828,1.9-3.206,5.231-4.009,7.822" fill="#fff" stroke="#020202" stroke-linecap="round" stroke-linejoin="round" stroke-width="1.356"/><path d="M4379.857,570.79a13.71,13.71,0,0,1,3.2-6.846,6.615,6.615,0,0,1,1.8-1.6l2.586-4.836a11.658,11.658,0,0,0-7.326,3.623c-1.831,1.9-3.215,5.226-4.022,7.815" fill="#020202"/><path d="M4413.741,570.713a13.716,13.716,0,0,1,3.19-6.851,6.6,6.6,0,0,1,1.8-1.6l2.579-4.841a11.657,11.657,0,0,0-7.32,3.635c-1.828,1.9-3.207,5.232-4.009,7.823" fill="#fff" stroke="#020202" stroke-linecap="round" stroke-linejoin="round" stroke-width="1.356"/><path d="M4446.484,570.713a13.72,13.72,0,0,1,3.19-6.851,6.6,6.6,0,0,1,1.8-1.6l2.578-4.841a11.657,11.657,0,0,0-7.32,3.635c-1.828,1.9-3.207,5.232-4.009,7.823" fill="#fff" stroke="#020202" stroke-linecap="round" stroke-linejoin="round" stroke-width="1.356"/><path d="M4347.191,570.794a13.7,13.7,0,0,1,3.19-6.852,6.608,6.608,0,0,1,1.8-1.6l2.578-4.841a11.659,11.659,0,0,0-7.32,3.636c-1.828,1.9-3.206,5.231-4.008,7.822" fill="#fff" stroke="#020202" stroke-miterlimit="10" stroke-width="1.356"/><path d="M4280.092,570.794a14.311,14.311,0,0,1,2.732-6.056,6.426,6.426,0,0,0,.757-1.737l2.745-5.275c-2.986.366-3.992,1.331-5.988,3.408-1.828,1.9-3.206,5.231-4.009,7.822" fill="#fff" stroke="#020202" stroke-linecap="round" stroke-linejoin="round" stroke-width="1.356"/><line x1="6.544" y2="12.552" transform="translate(4284.386 548.895)" fill="#020202"/><rect width="14.156" height="1.355" transform="translate(4283.786 561.134) rotate(-62.469)" fill="#020202"/><line x2="6.544" y2="12.552" transform="translate(4405.676 588.889)" fill="#f42ff4"/><rect width="1.355" height="14.156" transform="translate(4405.076 589.202) rotate(-27.531)" fill="#fff"/><path d="M4350.695,603.972a12.251,12.251,0,0,0-8.042-3.73l1.964,4.538a7.858,7.858,0,0,1,3.135,2,11.852,11.852,0,0,1,2.582,4.519l3.18-3.033A14.841,14.841,0,0,0,4350.695,603.972Z" fill="#020202"/><path d="M4384.814,611a13.709,13.709,0,0,0-3.189-6.852,6.631,6.631,0,0,0-1.8-1.6l-2.578-4.841a11.656,11.656,0,0,1,7.32,3.636c1.828,1.9,3.206,5.231,4.009,7.822" fill="#fff" stroke="#020202" stroke-linecap="round" stroke-linejoin="round" stroke-width="1.356"/><path d="M4419.487,611a13.715,13.715,0,0,0-3.19-6.852,6.6,6.6,0,0,0-1.8-1.6l-2.579-4.841a11.655,11.655,0,0,1,7.32,3.636c1.828,1.9,3.207,5.231,4.009,7.822" fill="#fff" stroke="#020202" stroke-linecap="round" stroke-linejoin="round" stroke-width="1.356"/><path d="M4451.914,611a13.719,13.719,0,0,0-3.19-6.852,6.6,6.6,0,0,0-1.8-1.6l-2.578-4.841a11.656,11.656,0,0,1,7.32,3.636c1.828,1.9,3.206,5.231,4.009,7.822" fill="#fff" stroke="#020202" stroke-linecap="round" stroke-linejoin="round" stroke-width="1.356"/><path d="M4318.264,610.92a13.708,13.708,0,0,0-3.19-6.851,6.608,6.608,0,0,0-1.8-1.6l-2.578-4.841a11.659,11.659,0,0,1,7.32,3.636c1.828,1.9,3.206,5.231,4.008,7.822" fill="#fff" stroke="#020202" stroke-linecap="round" stroke-linejoin="round" stroke-width="1.356"/><path d="M4284.733,610.92a13.71,13.71,0,0,0-3.189-6.851,6.617,6.617,0,0,0-1.8-1.6l-2.578-4.841a11.655,11.655,0,0,1,7.32,3.636c1.828,1.9,3.206,5.231,4.009,7.822" fill="#fff" stroke="#020202" stroke-linecap="round" stroke-linejoin="round" stroke-width="1.356"/></g></g></svg>