<svg xmlns="http://www.w3.org/2000/svg" width="715" height="202.09" viewBox="0 0 715 202.09"><g transform="translate(-3497.415 703.972)"><rect width="715" height="202" transform="translate(3497.415 -703.882)" fill="#fff"/><rect width="547.843" height="19.843" transform="translate(3580.993 -586.799)" fill="none" stroke="#333" stroke-linecap="round" stroke-linejoin="round" stroke-width="2.23"/><path d="M3619.132-622.909a1,1,0,0,1-1-1v-36.949a1,1,0,0,1,1-1,1,1,0,0,1,1,1v36.949A1,1,0,0,1,3619.132-622.909Z" fill="#0ac4bf"/><path d="M3627.312-654.231l-1.465,1.364-6.713-7.224-6.715,7.224-1.465-1.364,8.18-8.8Z" fill="#0ac4bf"/><path d="M3882.537-688.545h2.321q2.1.006,2.1,2.326v1.787a2.085,2.085,0,0,1-1.517,2.2,3.62,3.62,0,0,1-1.09.124h-.463v5.1h-1.354Zm1.354,1.33v3.774h.574a1.91,1.91,0,0,0,.563-.059.916.916,0,0,0,.58-.932v-1.787q0-1-.926-1Z" fill="#077771"/><path d="M3892.61-680.535l.539,3.533h-1.377l-.334-2.221h-2.069L3889.03-677h-1.366l.528-3.521,1.189-6.639h2.045Zm-1.348.135-.861-5.743-.862,5.743Z" fill="#077771"/><path d="M3894.028-685.264q0-2.039,2.285-2.039t2.285,2.039v1.254h-1.354v-1.254q0-.867-.925-.867h-.012q-.925,0-.926.867v.95q0,.785,1.688,1.845a2.734,2.734,0,0,1,1.529,2.291v1.324q0,2.046-2.279,2.045t-2.291-2.045V-680.1h1.353v1.248q0,.875.938.874t.925-.874v-1.2q0-.837-1.687-1.9a2.752,2.752,0,0,1-1.529-2.326Z" fill="#077771"/><path d="M3904.457-678.854q0,2.04-2.285,2.045t-2.285-2.045v-6.41q0-2.039,2.285-2.039t2.285,2.039Zm-1.353-6.41q0-.867-.926-.867h-.012q-.925,0-.926.867v6.41q0,.875.932.874t.932-.874Z" fill="#077771"/><path d="M3911.8-688.545v10.213h1.6V-677h-4.57v-1.33h1.611v-8.883h-1.611v-1.33Z" fill="#077771"/><path d="M3882.537-525.644h2.321q2.1.006,2.1,2.326v1.787a2.085,2.085,0,0,1-1.517,2.2,3.658,3.658,0,0,1-1.09.123h-.463v5.1h-1.354Zm1.354,1.33v3.773h.574a1.919,1.919,0,0,0,.563-.058.916.916,0,0,0,.58-.932v-1.787q0-1-.926-1Z" fill="#077771"/><path d="M3892.61-517.635l.539,3.534h-1.377l-.334-2.221h-2.069l-.339,2.221h-1.366l.528-3.522,1.189-6.638h2.045Zm-1.348.135-.861-5.742-.862,5.742Z" fill="#077771"/><path d="M3894.028-522.363q0-2.039,2.285-2.039t2.285,2.039v1.254h-1.354v-1.254q0-.867-.925-.867h-.012q-.925,0-.926.867v.949q0,.786,1.688,1.846a2.732,2.732,0,0,1,1.529,2.291v1.324q0,2.044-2.279,2.045t-2.291-2.045V-517.2h1.353v1.248q0,.873.938.873t.925-.873v-1.2q0-.838-1.687-1.9a2.751,2.751,0,0,1-1.529-2.326Z" fill="#077771"/><path d="M3904.457-515.953q0,2.039-2.285,2.045t-2.285-2.045v-6.41q0-2.039,2.285-2.039t2.285,2.039Zm-1.353-6.41q0-.867-.926-.867h-.012q-.925,0-.926.867v6.41q0,.873.932.873t.932-.873Z" fill="#077771"/><path d="M3911.055-520.541a1.048,1.048,0,0,0,1-1.166v-1.81q0-.985-.926-.985t-.937.985v1.423h-1.354v-1.423a2.042,2.042,0,0,1,2.291-2.321,2.033,2.033,0,0,1,2.279,2.321v1.869a1.921,1.921,0,0,1-1.154,1.8,1.819,1.819,0,0,1,1.154,1.658v1.963a2.032,2.032,0,0,1-2.279,2.32,2.041,2.041,0,0,1-2.291-2.32v-1.424h1.354v1.424q0,.984.937.984t.926-.984v-1.963q.018-.961-1.014-1.014h-.65v-1.336Z" fill="#077771"/><path d="M4117.7-637.241h2.32q2.1.006,2.1,2.326v1.787a2.084,2.084,0,0,1-1.518,2.2,3.654,3.654,0,0,1-1.09.123h-.463v5.1H4117.7Zm1.353,1.33v3.773h.575a1.909,1.909,0,0,0,.562-.058.914.914,0,0,0,.58-.932v-1.787q0-1-.926-1Z" fill="#077771"/><path d="M4127.776-629.231l.539,3.533h-1.377l-.334-2.221h-2.068l-.34,2.221h-1.365l.527-3.522,1.19-6.638h2.044Zm-1.348.134-.861-5.742-.861,5.742Z" fill="#077771"/><path d="M4129.194-633.96q0-2.038,2.285-2.039t2.285,2.039v1.254h-1.353v-1.254q0-.867-.926-.867h-.012q-.926,0-.925.867v.949q0,.786,1.687,1.846a2.731,2.731,0,0,1,1.529,2.291v1.324q0,2.044-2.279,2.045t-2.291-2.045V-628.8h1.354v1.248q0,.873.937.873t.926-.873v-1.2q0-.839-1.688-1.9a2.754,2.754,0,0,1-1.529-2.327Z" fill="#077771"/><path d="M4139.624-627.55q0,2.04-2.285,2.045t-2.286-2.045v-6.41q0-2.038,2.286-2.039t2.285,2.039Zm-1.354-6.41q0-.867-.926-.867h-.011q-.926,0-.926.867v6.41q0,.873.932.873t.931-.873Z" fill="#077771"/><path d="M4144.007-628.065a3.173,3.173,0,0,1,1.523-2.614q1.688-1.2,1.693-2.092v-2.337q0-.992-.92-.991h-.011q-.932,0-.932.991v1.412h-1.353v-1.412a2.038,2.038,0,0,1,2.285-2.327,2.039,2.039,0,0,1,2.285,2.327v2.378a3.207,3.207,0,0,1-1.529,2.649q-1.687,1.2-1.688,2.162v.9h3.217v1.33h-4.57Z" fill="#077771"/><path d="M3569.611-637.241h2.32q2.1.006,2.1,2.326v1.787a2.085,2.085,0,0,1-1.518,2.2,3.655,3.655,0,0,1-1.09.123h-.463v5.1h-1.353Zm1.353,1.33v3.773h.575a1.911,1.911,0,0,0,.562-.058.914.914,0,0,0,.58-.932v-1.787q0-1-.926-1Z" fill="#077771"/><path d="M3579.683-629.231l.539,3.533h-1.377l-.334-2.221h-2.068l-.34,2.221h-1.365l.527-3.522,1.19-6.638h2.045Zm-1.347.134-.862-5.742-.861,5.742Z" fill="#077771"/><path d="M3581.1-633.96q0-2.038,2.285-2.039t2.285,2.039v1.254h-1.353v-1.254q0-.867-.926-.867h-.012q-.925,0-.925.867v.949q0,.786,1.687,1.846a2.73,2.73,0,0,1,1.529,2.291v1.324q0,2.044-2.279,2.045t-2.291-2.045V-628.8h1.354v1.248q0,.873.937.873t.926-.873v-1.2q0-.839-1.688-1.9a2.754,2.754,0,0,1-1.529-2.327Z" fill="#077771"/><path d="M3591.531-627.55q0,2.04-2.285,2.045t-2.285-2.045v-6.41q0-2.038,2.285-2.039t2.285,2.039Zm-1.354-6.41q0-.867-.925-.867h-.012q-.925,0-.926.867v6.41q0,.873.932.873t.931-.873Z" fill="#077771"/><path d="M3600.3-637.241v7.3h.663v1.33h-.663v2.918h-1.353v-2.918h-3.486v-1.289l2.947-7.336Zm-3.6,7.3h2.244v-5.69Z" fill="#077771"/><path d="M3619.132-587.778v32.43h91.443V-569.7l-14.62-14.62v15.152L3681.6-586.183V-569.7l-15.517-15.949V-569.6l-17.544-16.747V-569.6l-14.753-16.448V-569.9Z" fill="none" stroke="#333" stroke-linecap="round" stroke-linejoin="round" stroke-width="2.23"/><path d="M3647.043-692.512v76.025l17.81,26.582,15.684-27.114v-75.494" fill="none" stroke="#333" stroke-linecap="round" stroke-linejoin="round" stroke-width="2.23"/><ellipse cx="8.108" cy="12.095" rx="8.108" ry="12.095" transform="translate(3656.081 -643.468)" fill="none" stroke="#333" stroke-linecap="round" stroke-linejoin="round" stroke-width="2.23"/><line y2="52.007" transform="translate(3657.942 -692.512)" fill="none" stroke="#333" stroke-linecap="round" stroke-linejoin="round" stroke-width="2.23"/><line y2="52.007" transform="translate(3670.436 -692.512)" fill="none" stroke="#333" stroke-linecap="round" stroke-linejoin="round" stroke-width="2.23"/><path d="M3838.168-702.856v35.066l17.81,26.582,15.684-27.114v-34.534" fill="none" stroke="#333" stroke-linecap="square" stroke-linejoin="round" stroke-width="2.23"/><ellipse cx="8.108" cy="12.095" rx="8.108" ry="12.095" transform="translate(3847.206 -694.772)" fill="none" stroke="#333" stroke-linecap="round" stroke-linejoin="round" stroke-width="2.23"/><line y2="11.048" transform="translate(3849.067 -702.856)" fill="none" stroke="#333" stroke-linecap="square" stroke-linejoin="round" stroke-width="2.23"/><line y2="11.048" transform="translate(3861.56 -702.856)" fill="none" stroke="#333" stroke-linecap="square" stroke-linejoin="round" stroke-width="2.23"/><path d="M4098.781-625.078a1,1,0,0,1-1-1v-36.949a1,1,0,0,1,1-1,1,1,0,0,1,1,1v36.949A1,1,0,0,1,4098.781-625.078Z" fill="#0ac4bf"/><path d="M4090.6-632.7l1.465-1.364,6.713,7.224,6.715-7.224,1.465,1.364-8.18,8.8Z" fill="#0ac4bf"/><path d="M4052.639-547.944a1,1,0,0,1,1,1v24.949a1,1,0,0,1-1,1,1,1,0,0,1-1-1v-24.949A1,1,0,0,1,4052.639-547.944Z" fill="#0ac4bf"/><path d="M4060.819-540.317l-1.465,1.364-6.713-7.224-6.715,7.224-1.465-1.364,8.18-8.8Z" fill="#0ac4bf"/><path d="M4004.124-587.778v32.43h91.443V-569.7l-14.62-14.62v15.152l-14.354-17.013V-569.7l-15.517-15.949V-569.6l-17.544-16.747V-569.6l-14.753-16.448V-569.9Z" fill="none" stroke="#333" stroke-linecap="round" stroke-linejoin="round" stroke-width="2.23"/><path d="M4032.035-692.512v76.025l17.81,26.582,15.684-27.114v-75.494" fill="none" stroke="#333" stroke-linecap="round" stroke-linejoin="round" stroke-width="2.23"/><ellipse cx="8.108" cy="12.095" rx="8.108" ry="12.095" transform="translate(4041.073 -643.468)" fill="none" stroke="#333" stroke-linecap="round" stroke-linejoin="round" stroke-width="2.23"/><path d="M3809.193-606.472v39.516h91.443v-17.49l-14.62-17.814V-583.8l-14.354-20.729v20.082l-15.517-19.434v19.555L3838.6-604.732v20.406l-14.753-20.041v19.677Z" fill="none" stroke="#333" stroke-linecap="round" stroke-linejoin="round" stroke-width="2.462"/><path d="M3837.1-621.686v85.025l17.81,26.582,15.684-27.114v-84.494" fill="#fff" stroke="#333" stroke-linecap="round" stroke-linejoin="round" stroke-width="2.23"/><ellipse cx="8.108" cy="12.095" rx="8.108" ry="12.095" transform="translate(3846.143 -563.642)" fill="none" stroke="#333" stroke-linecap="round" stroke-linejoin="round" stroke-width="2.23"/><line y2="52.007" transform="translate(4042.934 -692.512)" fill="none" stroke="#333" stroke-linecap="round" stroke-linejoin="round" stroke-width="2.23"/><line y2="52.007" transform="translate(4055.428 -692.512)" fill="none" stroke="#333" stroke-linecap="round" stroke-linejoin="round" stroke-width="2.23"/><line y2="61.076" transform="translate(3848.668 -621.438)" fill="none" stroke="#333" stroke-linecap="round" stroke-linejoin="round" stroke-width="2.21"/><line y2="61.076" transform="translate(3861.162 -621.438)" fill="none" stroke="#333" stroke-linecap="round" stroke-linejoin="round" stroke-width="2.21"/></g></svg>