<svg xmlns="http://www.w3.org/2000/svg" width="190" height="209" viewBox="0 0 190 209"><g transform="translate(3949 6816)"><rect width="190" height="209" transform="translate(-3949 -6816)" fill="none"/><g transform="translate(-6145.676 -6525.063)"><path d="M2326.452-52.892c11.908,7.576,31.77,8.395,44.366,1.828s13.146-18.031,1.238-25.608-31.774-8.391-44.366-1.825S2314.542-60.465,2326.452-52.892Z" transform="translate(-92.354 -41.285)" fill="#b0b4b5"/><g transform="translate(2278.971 -283.937)"><g transform="translate(0 142.271)"><path d="M2302.849-225.5h-2.3a17.445,17.445,0,0,0-4.943-4.076c-9.7-5.6-25.469-5.57-35.226.062a17.942,17.942,0,0,0-4.917,4.014h-2.433v3.228h0c-.041,3.7,2.368,7.392,7.236,10.2,9.7,5.6,25.471,5.57,35.229-.065,4.859-2.8,7.31-6.471,7.348-10.137h0Z" transform="translate(-2253.03 239.141)" fill="#a3a3a3"/><path d="M2260.381-231.344c9.757-5.635,25.53-5.662,35.226-.065s9.649,14.707-.109,20.339-25.53,5.662-35.229.065S2250.623-225.709,2260.381-231.344Z" transform="translate(-2253.03 235.588)" fill="#bababa"/><path d="M2260.729-232.672c6.707-3.872,17.541-3.89,24.2-.044s6.629,10.1-.074,13.972-17.541,3.893-24.2.044S2254.025-228.8,2260.729-232.672Z" transform="translate(-2247.883 235.589)" fill="#dedede"/></g><g transform="translate(22.186 67.974)"><path d="M2266-175.937l.012-84.385-5.426.253L2260.574-176a1.137,1.137,0,0,0,0,.191v.074h.012a1.428,1.428,0,0,0,.762.939,4.261,4.261,0,0,0,3.852,0,1.34,1.34,0,0,0,.8-1.142Z" transform="translate(-2260.569 261.836)" fill="#cfcfcf"/><path d="M2265.227-260.377a4.253,4.253,0,0,0-3.853,0,1.172,1.172,0,0,0-.015,2.222,4.252,4.252,0,0,0,3.852,0A1.172,1.172,0,0,0,2265.227-260.377Z" transform="translate(-2260.57 260.837)" fill="#6c6267"/></g><g transform="translate(3.448)"><path d="M2274.2-270.148s-6.8,10.326-9.432,13.46c-.473.58-.814.895-.947.895-.895-.053-8.375-9.113-9.3-10.826a5.393,5.393,0,0,1-.132-3.4,13.05,13.05,0,0,1,2.975-6.085c2.661-2.9,4.058-1.66,4.847-1.395.765.262,3.979,2.422,5.635,3.475C2269.513-272.94,2274.2-270.148,2274.2-270.148Z" transform="translate(-2254.201 295.501)" fill="#31272c"/><path d="M2264.772-261.949c-.473.58-.814.895-.947.895-.895-.053-8.375-9.113-9.3-10.826a5.393,5.393,0,0,1-.132-3.4,5.269,5.269,0,0,0,.394.656c2.16,3.319,4.293,6.453,8.007,8.113a2.683,2.683,0,0,1,1.053.633,2.43,2.43,0,0,1,.474,1.106A20.022,20.022,0,0,1,2264.772-261.949Z" transform="translate(-2254.201 300.762)" fill="#22171d"/><path d="M2273.495-227.21c-.6,1.133-3.028,1.106-4.161,1.159a14,14,0,0,1-2.107,0,17.671,17.671,0,0,1-6.688-1.792c-.368-.182-.739-.368-1.081-.58-2.975-1.789-2.845-3.449-3.266-6.583a48.724,48.724,0,0,1-.448-9.4c.026-.344.185-3.11.5-5.217.211-1.315.474-2.369.788-2.4,0,0,.872-.053,2.213-.159,4.453-.341,14.092-1.053,14.092-1.053-.026,3.634-.053,7.268-.079,10.932-.026.842-.026,1.683-.026,2.528,0,.789-.026,1.554-.026,2.342-.027,1.924-.053,3.872-.08,5.794C2273.126-230.636,2273.892-228.026,2273.495-227.21Z" transform="translate(-2251.336 343.585)" fill="#31272c"/><path d="M2266.219-230.02c-.6,1.133-3.028,1.106-4.161,1.159a14,14,0,0,1-2.107,0c-.28-1.951-.762-3.87-.4-5.823a32.115,32.115,0,0,0,.28-5.953,77.977,77.977,0,0,1,.323-8.772c.33-2.919,2.952-3.184,4.085-.606,1.286,2.931,1.359,6.633,1.692,9.775-.027,1.924-.053,3.872-.08,5.794C2265.851-233.445,2266.616-230.835,2266.219-230.02Z" transform="translate(-2244.06 346.394)" fill="#22171d"/><path d="M2282.741-236.6c-.712,3.316-.105,8.242-3.107,10.614a3.932,3.932,0,0,1-.633.421c-3.345,2.08-9.033,1.922-12.379.5-3.634-1.527-2.922-4.058-3.237-7.4-.132-1.554-.159-3.293-1-4.661-.447-.765-2.263-4.084-2.315-7.086-.026-.974,0-2.054.027-3.028.079-2.054.208-3.767.208-3.767l21.414,1.027,2.027.106C2284.454-245.559,2283.662-240.8,2282.741-236.6Z" transform="translate(-2242.83 347.898)" fill="#443a3f"/><path d="M2296.772-252.621a150.822,150.822,0,0,1-3.713,17.435c-1.266,4.426-2.346,9.4-1.5,14.7s.5,15.881.315,17.305c-.053.447-.789,1.053-2.134,1.607-2.948,1.262-8.795,2.4-16.855,1.66-.106,0-.212-.027-.318-.027-1.577-.159-3.028-.371-4.343-.606a25.658,25.658,0,0,1-9.932-3.714c-1.634-1.133-2.4-2.239-2.422-2.978v-.076c.053-1.845,4.028-19.386,3.819-21.334a112.148,112.148,0,0,0-1.739-13.721,65.451,65.451,0,0,1-1.341-10.114,67.432,67.432,0,0,1,.709-10.061,16.925,16.925,0,0,1,4.425-9.034c1.922-1.766,4.108-3.054,6.086-2.9.553.026,1.368.053,2.289.053,2.4,0,5.374-.079,5.374-.079.765-1.368,4.793.053,9.245,2.133.027,0,.05,0,.05.026,5.453,2.581,11.511,6.112,13.092,6.8C2300.8-264.315,2297.14-256.494,2296.772-252.621Z" transform="translate(-2250.96 301.204)" fill="#4b4146"/><path d="M2275.332-253.606c.015-2.6.091-5.188.112-7.733a2.721,2.721,0,0,0-.359-1.68,2.206,2.206,0,0,0-1.636-.73,2.987,2.987,0,0,0-1.557.227,4.092,4.092,0,0,0-1.668,2.139,21.548,21.548,0,0,0-1.239,3.063,21.32,21.32,0,0,0-.624,4.164,97.348,97.348,0,0,1-5.885,25.539,5.185,5.185,0,0,0-.448,2.057c.077,1.233,1.009,2.216,1.613,3.293a12.646,12.646,0,0,1,1.125,3.3q1.685,7.1,2.739,14.339a22.975,22.975,0,0,0,1.248,5.544c1.571.388,3.192-.271,4.669-.933a1.1,1.1,0,0,0,.424-.277,1.064,1.064,0,0,0,.174-.474,116.619,116.619,0,0,0,2.127-18.5,32.707,32.707,0,0,1,.633-4.087,40.652,40.652,0,0,0,.094-6.162c-.006-2.328-.08-4.655-.2-6.98a52.613,52.613,0,0,0-.738-5.335A70.863,70.863,0,0,1,2275.332-253.606Z" transform="translate(-2239.007 323.123)" fill="#5c5257"/><path d="M2260.1-248.261c-.118.992-.221,1.983-.253,2.984a33.71,33.71,0,0,1-1.689,10.026,20.267,20.267,0,0,0-.286,11.353c.185.789.427,1.563.568,2.36.4,2.254.047,4.8,1.437,6.627a4.189,4.189,0,0,0,3.54,1.616c-.662-3.77-.236-7.827-.291-11.679-.018-1.236-.833-8.169-.126-8.478a2.292,2.292,0,0,1,1.591.135,21.885,21.885,0,0,0,9.02.921,2.891,2.891,0,0,0,1.436-.438,2.935,2.935,0,0,0,.823-1.186,33.113,33.113,0,0,0,2.975-16.12c-.111-1.613-.412-3.358-1.606-4.452a7.035,7.035,0,0,0-2.325-1.248c-2.392-.921-4.829-1.707-7.236-2.584-1.627-.594-4.226-2.325-5.935-1.177-1.813,1.215-1.048,4.317-1.107,6.118C2260.576-251.734,2260.311-250,2260.1-248.261Z" transform="translate(-2248.372 330.463)" fill="#5c5257"/><path d="M2261.332-243.455c1.521,1.813,3.775,2.813,5.947,3.755a2.031,2.031,0,0,0,.979.241,1.646,1.646,0,0,0,1.013-.624c1.376-1.571,1.4-3.878,1.338-5.968l-.282-10.485a33.372,33.372,0,0,0-.218-4.57,9.076,9.076,0,0,0-.612-3.155c-.974-1.724-3.107-2.366-4.452-3.728-1.445-1.462-4.062-4.543-6.445-2.863-2.5,1.769-2.05,6.462-1.974,9.087a78.089,78.089,0,0,0,.972,10.181A16.136,16.136,0,0,0,2261.332-243.455Z" transform="translate(-2249.648 308.41)" fill="#5c5257"/><path d="M2270.493-274.795c-.132.026-.235.053-.368.079a11.822,11.822,0,0,0-3.528,1.292,10.277,10.277,0,0,0-3.031,3.263c-6,9.166-4.767,18.571-3.107,28.867.58,3.555,1.5,6.768,1.368,10.349a95.672,95.672,0,0,1-.947,10.667c-.5,3.293-1.133,6.718-1.634,10.114-.261,1.845-.474,3.687-.579,5.532a39.235,39.235,0,0,0-.077,4.293,98.979,98.979,0,0,0,1.948,14.51c-.368-.182-.739-.368-1.081-.58-2.975-1.789-2.845-3.449-3.266-6.583a48.724,48.724,0,0,1-.448-9.4c.026-.344.185-3.11.5-5.217v-.076c.053-1.845,4.028-19.386,3.819-21.334a112.148,112.148,0,0,0-1.739-13.721,65.451,65.451,0,0,1-1.341-10.114,67.432,67.432,0,0,1,.709-10.061,16.925,16.925,0,0,1,4.425-9.034c1.922-1.766,4.108-3.054,6.086-2.9C2268.757-274.821,2269.572-274.795,2270.493-274.795Z" transform="translate(-2251.336 301.569)" fill="#22171d"/><path d="M2273.2-266.707a2.894,2.894,0,0,0-.647-1.766,6.791,6.791,0,0,0-1.533-1.392c-2.457-1.81-4.87-3.823-7.489-5.376-1.616-.956-3.7-3.646-5.838-2.537a6.2,6.2,0,0,0-2.7,3.275,1.338,1.338,0,0,0-.105.862,1.453,1.453,0,0,0,.8.753,41.992,41.992,0,0,1,4.32,2.363c1.509,1.059,1.977,2.263,2.911,3.728.371.583,1.139,1.092,1.359,1.754a5.384,5.384,0,0,1-.247,2.307l-.971,5.762a.908.908,0,0,0,.036.6.883.883,0,0,0,.492.341,12.452,12.452,0,0,1,3.083,1.245c.665.53,1.089,1.4,1.8,1.948a3.986,3.986,0,0,0,2.352.9c.079-.877-.794-1.492-1.448-2.083a4.509,4.509,0,0,1-1.606-4.367c.353-1.315.486-3.5,1.245-4.593a7.411,7.411,0,0,1,2.133-1.61C2271.867-265.015,2273.132-265.75,2273.2-266.707Z" transform="translate(-2252.938 295.391)" fill="#5c5257"/><path d="M2266.446-241.984a8.668,8.668,0,0,0,5.879,1.256,5.475,5.475,0,0,0,2.319-.85,5.641,5.641,0,0,0,2.086-3.39,26.147,26.147,0,0,0,.447-4.043c.333-4.173,1.492-8.278,1.41-12.465a5.9,5.9,0,0,0-.938-3.516,5.763,5.763,0,0,0-1.8-1.424,18.626,18.626,0,0,0-6.671-2.307c-1.918-.253-4.3-.953-6.035.265-2.5,1.766-2.05,6.462-1.972,9.087a77.584,77.584,0,0,0,.972,10.181,9.98,9.98,0,0,0,3.366,6.515A7.958,7.958,0,0,0,2266.446-241.984Z" transform="translate(-2240.824 312.654)" fill="#5c5257"/><path d="M2277.682-254.4a150.822,150.822,0,0,1-3.713,17.435c-1.266,4.426-2.346,9.4-1.5,14.7s.5,15.881.315,17.305c.712,4.32-.08,9.084-1,13.274-.712,3.316-.105,8.242-3.107,10.614a3.932,3.932,0,0,1-.633.421c0-.606.027-1.212.053-1.819.421-6.029,1.79-11.823,2.319-17.8q.114-1.54.235-3.081c.026-.58.053-1.133.106-1.713a122.234,122.234,0,0,0-.186-14.934,61.175,61.175,0,0,1-.314-7.321,50.348,50.348,0,0,1,.659-5.609c.477-3.081.356-6.194.827-9.272a79.143,79.143,0,0,1,1.736-8.425c.642-2.416,3.048-4.276,4.267-6.468,1.359-2.451,1.039-6.277-.247-8.7-1.607-3.054-4.926-3.908-7.769-5.829-1.318-.871-2.66-1.713-4.031-2.5,5.453,2.581,11.511,6.112,13.092,6.8C2281.71-266.1,2278.05-258.276,2277.682-254.4Z" transform="translate(-2231.87 302.986)" fill="#392f34"/><path d="M2260.057-267.267s1.313,4.014,1.2,5.541-.077,4.284,2.622,4.985,8.333-.73,10.049-3.39c1.274-2.575.5-5.444.457-6a17.167,17.167,0,0,1,.48-6.453c.879-2.542,2.047-4.994,2.047-4.994s-7.438,1.395-9.24,2.937S2260.057-267.267,2260.057-267.267Z" transform="translate(-2242.827 296.284)" fill="#392f34"/><path d="M2278.322-282.063s-13.109-6.739-18.071,5.338c-2,8.763-1.218,10.9-1.168,13.095s.253,10.226,2.166,11.718,8.05.021,10.631-1.633,4.553-5.406,5.353-6.026a18.524,18.524,0,0,0,5.415-12.388C2282.862-278.958,2278.322-282.063,2278.322-282.063Z" transform="translate(-2245.09 283.937)" fill="#554a50"/><path d="M2280.111-265.44a21.819,21.819,0,0,1-2.91,4.084c-.559.571-1.184,1.08-1.751,1.642-1.033,1.018-1.89,2.2-2.916,3.228a13.205,13.205,0,0,1-3.887,2.648,8.25,8.25,0,0,1-4.173.25,2.833,2.833,0,0,1-1.209-.383,4.491,4.491,0,0,1-1.351-1.389,8.351,8.351,0,0,1-.895-1.763c-1.1-2.919-.954-6.806-.918-9.893.068-6.077,1.1-13.077,7.257-15.849,1.9-.853,4.958-.3,6.944.094a21.163,21.163,0,0,1,5.138,1.736,9.234,9.234,0,0,0-1.118-1.03s-13.112-6.739-18.071,5.338c-2,8.763-1.218,10.9-1.168,13.095s.253,10.226,2.166,11.718,8.05.021,10.631-1.633,4.553-5.406,5.353-6.026a18.566,18.566,0,0,0,5.2-10.311A29.16,29.16,0,0,1,2280.111-265.44Z" transform="translate(-2245.09 283.937)" fill="#4b4146"/><path d="M2266.218-283.513a8.693,8.693,0,0,0-2.721.182c-.6.165-1.663.491-1.939,1.089a2.377,2.377,0,0,0,.409,2.507,10.137,10.137,0,0,0,5.082,2.793,26.412,26.412,0,0,0,5.826.909,5.267,5.267,0,0,0,1.637-.141,1.962,1.962,0,0,0,1.271-.912,2.869,2.869,0,0,0-.306-1.795,6.745,6.745,0,0,0-2.318-2.675A12.314,12.314,0,0,0,2266.218-283.513Z" transform="translate(-2240.287 284.71)" fill="#6a6165"/><path d="M2288.178-264.4a13.24,13.24,0,0,0-3.925,6.271,25.584,25.584,0,0,0-.709,5.556c-.027.686-.106,1.08-.318,1.159-.606.212-8.69-.606-9.243-.5a22.1,22.1,0,0,1-3.5.026c-.053,0-.129-.053-.209-.159-.95-1.106-3.74-7.716-3.083-12.194a14.05,14.05,0,0,1,4.743-8.086s6.056,1.027,9.8,3.608C2285.465-266.114,2288.178-264.4,2288.178-264.4Z" transform="translate(-2229.172 306.481)" fill="#443a3f"/><path d="M2286.293-269.189a39.817,39.817,0,0,1-7.1-2.763,14.583,14.583,0,0,0-4.52-1.168.708.708,0,0,0-.609.144.734.734,0,0,0-.109.5,7.826,7.826,0,0,1-.6,3.711,11.611,11.611,0,0,1-5.382,4.688,19.376,19.376,0,0,0-6.186,4.125.423.423,0,0,0-.129.2c-.05.241.3.344.547.338a32.684,32.684,0,0,1,6.076.132c2.081.335,3.264-.662,4.873-1.86a7.739,7.739,0,0,1,3.652-1.545,10.872,10.872,0,0,1,6.471,1.136,22.524,22.524,0,0,0,3.172,1.368,58.71,58.71,0,0,0,8.613,1.665c1.324.156,3.466-1.445,3.558-2.91.062-1.045-.957-1.789-1.854-2.322l-7.535-4.473A8.665,8.665,0,0,0,2286.293-269.189Z" transform="translate(-2239.722 304.933)" fill="#5c5257"/><path d="M2281.442-265.271c-.027.686-.106,1.08-.318,1.159-.606.212-8.69-.606-9.243-.5a22.1,22.1,0,0,1-3.5.026c-.053,0-.129-.053-.209-.159a.875.875,0,0,1,.683-.527,25.716,25.716,0,0,1,4.058-.5,24.121,24.121,0,0,1,3.634.212C2278.229-265.457,2279.836-265.3,2281.442-265.271Z" transform="translate(-2227.071 319.174)" fill="#22171d"/><path d="M2276.9-269.734s-8.245,7.136-3.275,13.28c5.679,1.439,6.141-4.258,6.756-5.823S2280.762-270.026,2276.9-269.734Z" transform="translate(-2219.569 311.508)" fill="#392f34"/></g></g><g transform="translate(2239.676 -260.113)"><path d="M2245.4-228.076s-.477,3.255-.441,4.152-.836,3.29-.368,5.02,3.346,2.116,4.664,1.642,3.949-1.91,5.073-1.919,6.359.2,7.313-.094,5.464-.706,5.847-2.125-1.624-2.169-2.349-2.79a4.454,4.454,0,0,0-2.843-1.365,66.308,66.308,0,0,0-6.647.109,5.406,5.406,0,0,1-2.7-2.175C2252.347-228.6,2245.4-228.076,2245.4-228.076Z" transform="translate(-2230.403 368.356)" fill="#6b2912"/><path d="M2241.649-221.033a17.456,17.456,0,0,1-.477,3.675,10.427,10.427,0,0,0-.486,4.54c.3.992,4.238,3.475,5.415,3.649a63.882,63.882,0,0,1,6.194,2.054c1.157.4,4.72,1.863,7.383,1.327s4.522-2.251,4.708-3.278-3.649-3.146-4.235-3.44-5.915-3.125-6.394-3.614-3.12-2.169-3.411-3.049-1.209-4.152-1.209-4.152Z" transform="translate(-2237.914 377.871)" fill="#6b2912"/><path d="M2243.876-207.3s1.73,15.307,1.968,16.4c.085.391-.049.856.118,1.206a1.744,1.744,0,0,0,1.033.706,5.03,5.03,0,0,0,1.486.156,7.309,7.309,0,0,0,3.919-.824,4.779,4.779,0,0,0,1.833-2.316,7.674,7.674,0,0,0,.035-2.81c.027-3.658-.008-12.2.209-13.312s2.439-8.557,2.76-10.305,2.269-17.962,2.113-22a41.955,41.955,0,0,1,.145-6.371s-9.475,1.062-10.2,2.392S2243.876-207.3,2243.876-207.3Z" transform="translate(-2231.516 332.309)" fill="#404040"/><path d="M2242.074-249.167s-1.568,3.643-1.433,5.435-1.209,5.947-.927,8.7,5.721,13.309,5.9,15.7a91.442,91.442,0,0,1-.977,13.059c-.436,2.21-3.614,14.984-3.8,17.55s1.927,14.793,2.068,16.661c.068.933.094,1.872.106,2.807a1.946,1.946,0,0,0,1.2,1.819c.606.347,1.218.683,1.854.977a3.416,3.416,0,0,0,1.445.283,9.167,9.167,0,0,0,3.961-.515,2.774,2.774,0,0,0,.938-.544,3.2,3.2,0,0,0,.689-2.354c0-2.231-.274-4.44-.145-6.674.262-4.526,2.966-18.615,4.408-21.425s6.194-16.6,6.733-18.441,3.037-16.423,3.154-21.1.407-4.891.407-4.891Z" transform="translate(-2239.675 327.658)" fill="#4d4d4d"/><path d="M2266.669-208.4s1.356-7.477,1.392-8.492,4.355-14.8,3.955-17.918-3.984-8.937-4.92-10.894a38.857,38.857,0,0,0-3.243-5s-11.724-15.284-14.178-15.719-7.477.165-8.825,7.751-.376,15.349.488,22.405a84.512,84.512,0,0,1,.7,16.92c-.374,4.026-.948,3.9-.948,3.9s.492,6.606,11.806,8.072S2266.669-208.4,2266.669-208.4Z" transform="translate(-2238.691 293.936)" fill="#589fed"/><path d="M2262.048-272.762s.1,30.068-.011,34.582-.4,18.768-.091,22.17a17.792,17.792,0,0,1,.1,4.346s-2.633,3.949-2.842,5.656-1.16,14.16-1.277,16.608-1.975,18.333-2.175,26.963.059,13.621.059,13.621l.9.777s-.038-10.358-.062-12.156,1.177-16.7,1.713-21.581,1.818-21.722,1.807-22.6a11.606,11.606,0,0,1,.747-2.813s2.655-2.9,2.463-5.476-.218-16.535-.218-16.535l-.053-43.724Z" transform="translate(-2208.604 281.507)" fill="#ead645"/><path d="M2281.406-267.258s.883.759.542,1.2-1.157.085-1.157.085l-1.331-.689s-4.538.527-5.479.482-2.431-.868-2.919-.868-1.754.129-1.754.129-1.3.171-5.4,4.081-4.62,5.523-8.484,6.562-10.4-.518-8.978-4.143,7.815-4.667,12.212-6.85,9.51-4.593,10.111-4.864,5.979-3.6,6.479-3.693a2.349,2.349,0,0,1,1.989.977,23.012,23.012,0,0,0,1.433,1.866s1.271,1.2,1.3,1.592-.238.58.118.836,1.4,1.415,1.38,1.869.727.471.674,1.018-.162.574-.162.574Z" transform="translate(-2226.906 275.841)" fill="#f6b486"/><path d="M2284.067-238.122a6.055,6.055,0,0,1,1.383-.694,4.425,4.425,0,0,1,1.086.215l-.518,1.348a10.124,10.124,0,0,1,.232,2.01,6.391,6.391,0,0,1-.7,1.883c-.232.268-.788,1.86-1.715,2.266a9.454,9.454,0,0,1-3.637.3c-.683-.091-3.775-.789-5.912-1.136s-5.412-.338-8.481-2.213c-3.816-1.854-9.59-3.263-11.043-4.129s-10.417-7.333-10.317-11.017-.276-8.763,5.159-10.37,12.45,11.918,14.9,14.545,5.535,1.721,7.718,3.811,5.879,4.367,6.924,4.29,1.154-.65,2.093-1.133a7.2,7.2,0,0,1,2.513-.524Z" transform="translate(-2230.417 307.02)" fill="#fcd1b3"/><path d="M2256.475-238.082a13.951,13.951,0,0,1-.81-6.359c.424-3.369.924-4.2.924-4.2s.294-.586,1.657-.424,2.589.483,3.522-1.616,2.534-4.767,2.77-5.4,1.354-1.454,1.2-2.737.4-6-.026-7.88-1.365-6.259-3.764-6.7-15.413,3.964-16.861,6.435-1.183,14.333-1.413,15.814-1.915,4.479-2.012,5.444,1.359,3.163,5.838,5.082S2256.7-235.846,2256.475-238.082Z" transform="translate(-2235.82 280.529)" fill="#fcd1b3"/><path d="M2265.013-268.3a26.37,26.37,0,0,1-.974,9.59c-1.521,5.291-4.158,7.683-6.438,8.81s-5.132,3.649-9.007,3.769a18.022,18.022,0,0,0-5.579.809s-.875-2.019-1.227-9.028-.715-14.136,5.314-18.583a11.172,11.172,0,0,1,13.557-.165C2262.108-271.74,2264.951-269.024,2265.013-268.3Z" transform="translate(-2235.901 276.895)" fill="#6a3120"/><path d="M2245.228-271.253s-1.565,26.993-4.46,38.848,2.23,17.659,2.23,17.659,8.89-36.739,11.789-39.758a26.931,26.931,0,0,0,4.658-7.23Z" transform="translate(-2239.274 284.753)" fill="#6a3120"/></g></g></g></svg>