<svg xmlns="http://www.w3.org/2000/svg" width="90.982" height="91.483" viewBox="0 0 90.982 91.483">
  <g id="Grupo_56973" data-name="Grupo 56973" transform="translate(-17.246)">
    <g id="Grupo_56719" data-name="Grupo 56719" transform="translate(17.246 0)">
      <g id="Grupo_56170" data-name="Grupo 56170">
        <ellipse id="Elipse_4081" data-name="Elipse 4081" cx="45.491" cy="45.491" rx="45.491" ry="45.491" fill="#ff9800"/>
      </g>
    </g>
    <path id="Sustracción_1" data-name="Sustracción 1" d="M43.759,33.023a45.406,45.406,0,0,1-14.85-2.479,45.316,45.316,0,0,1-12.8-6.884A45.669,45.669,0,0,1,6.2,13.2,45.238,45.238,0,0,1,0,0H87.524a45.231,45.231,0,0,1-6.2,13.2A45.675,45.675,0,0,1,71.41,23.66a45.332,45.332,0,0,1-12.8,6.884A45.4,45.4,0,0,1,43.759,33.023Z" transform="translate(18.977 57.96)" fill="#ee6e00" stroke="rgba(0,0,0,0)" stroke-miterlimit="10" stroke-width="1"/>
    <text id="_301" data-name="301" transform="translate(29.246 61)" fill="#fff" font-size="40" font-family="Roboto-Bold, Roboto" font-weight="700"><tspan x="0" y="0">301</tspan></text>
    <text id="_301-2" data-name="301" transform="translate(29.246 61)" fill="#fff" font-size="40" font-family="Roboto-Bold, Roboto" font-weight="700"><tspan x="0" y="0">301</tspan></text>
  </g>
</svg>
