<svg xmlns="http://www.w3.org/2000/svg" xmlns:xlink="http://www.w3.org/1999/xlink" width="190" height="190" viewBox="0 0 190 190"><defs><clipPath id="a"><rect width="164.601" height="164.601" transform="translate(4066.958 479.505)" fill="#f2d6e3"/></clipPath></defs><g transform="translate(-1902 9394)"><path d="M0,0H190V190H0Z" transform="translate(1902 -9394)" fill="#f2d6e3"/><g transform="translate(-2152.258 -9860.807)"><path d="M0,0H164.6V164.6H0Z" transform="translate(4066.958 479.505)" fill="#fff"/><g clip-path="url(#a)"><path d="M4076.743,618.509a22.787,22.787,0,0,1-3.716,1.676c1.35,5.287,3.117,11.7,5.125,17.719.908,2.723.776,4.892-.4,6.629-2.4,3.531-8.811,4.637-11.08,4.766l.111,2,.107,2c.413-.023,10.161-.612,14.175-6.508,1.908-2.8,2.21-6.224.9-10.165C4079.9,630.456,4078.094,623.847,4076.743,618.509Z" fill="#fff" stroke="#000" stroke-miterlimit="10" stroke-width="1.004"/><path d="M4117.652,618.446a15.956,15.956,0,0,1-3.718,1.667c1.351,5.3,3.124,11.735,5.143,17.791,1.67,5.009-.467,7.4-4.721,9.834-2.33,1.332-7.929,1.416-9.844.948-2.649-.646-6.112-1.969-7.569-4.6-.917-1.658-.958-3.679-.125-6.177,2.012-6.037,3.782-12.456,5.131-17.744a16.877,16.877,0,0,1-3.757-1.514c-1.346,5.311-3.138,11.857-5.183,17.988-1.19,3.572-1.048,6.731.421,9.389,2.161,3.91,6.7,5.727,10.131,6.564,2.477.605,9.236.671,12.79-1.366,2.864-1.639,9.57-5.479,6.534-14.587C4120.816,630.425,4119,623.791,4117.652,618.446Z" fill="#fff" stroke="#000" stroke-miterlimit="10" stroke-width="1.004"/><path d="M4159.127,618.709a11.826,11.826,0,0,1-3.724,1.643c1.343,5.251,3.1,11.588,5.083,17.552.843,2.527.791,4.567-.159,6.237-1.639,2.885-5.773,4.167-8.093,4.674a24.358,24.358,0,0,1-5.5.151c-2.517-.471-7.007-1.715-8.794-4.751-.99-1.682-1.056-3.747-.2-6.311,2.022-6.066,3.8-12.515,5.149-17.817a25.237,25.237,0,0,1-3.765-1.485c-1.347,5.318-3.143,11.883-5.193,18.032-1.225,3.679-1.04,6.914.55,9.618,2.464,4.184,7.622,5.932,11.515,6.66a26.793,26.793,0,0,0,7.094-.176c3.628-.793,8.435-2.585,10.723-6.612,1.523-2.678,1.684-5.871.477-9.49C4162.258,630.527,4160.472,624.009,4159.127,618.709Z" fill="#fff" stroke="#000" stroke-miterlimit="10" stroke-width="1.004"/><path d="M4200,618.517a20.047,20.047,0,0,1-3.719,1.665c1.348,5.284,3.115,11.693,5.125,17.722.833,2.5.792,4.518-.125,6.177-1.457,2.636-4.92,3.959-7.569,4.6-1.913.468-7.516.386-9.844-.948-4.254-2.436-6.391-4.825-4.721-9.834,2.012-6.036,3.78-12.452,5.13-17.74a12.51,12.51,0,0,1-3.736-1.6c-1.348,5.324-3.148,11.9-5.2,18.069-3.036,9.108,3.67,12.948,6.533,14.587,3.555,2.036,10.313,1.97,12.79,1.366,3.431-.837,7.972-2.654,10.133-6.565,1.469-2.657,1.61-5.816.419-9.388C4203.159,630.452,4201.354,623.85,4200,618.517Z" fill="#fff" stroke="#000" stroke-miterlimit="10" stroke-width="1.004"/><path d="M4220.48,644.533c-1.179-1.737-1.31-3.906-.4-6.629,2.017-6.051,3.79-12.484,5.14-17.779a18.45,18.45,0,0,1-3.764-1.482c-1.347,5.311-3.139,11.859-5.184,17.991-1.313,3.941-1.012,7.361.9,10.165,4.015,5.9,13.762,6.485,14.174,6.508l.219-4.008C4229.29,649.17,4222.876,648.064,4220.48,644.533Z" fill="#fff" stroke="#000" stroke-miterlimit="10" stroke-width="1.004"/><path d="M4231.34,525.137c-.412-.023-10.159-.612-14.174-6.509-1.909-2.8-2.21-6.224-.9-10.164,2.6-7.8,4.8-16.281,6.181-22.022.549-2.278,1.46-7.813-1.941-9.975-1.274-.811-5.1-2.014-9.625-2.149l-.687.015c-4.064.173-7.8,1.229-9.218,2.134-3.4,2.163-2.489,7.7-1.94,9.975,1.384,5.74,3.58,14.22,6.18,22.022,1.191,3.572,1.05,6.73-.419,9.388-2.161,3.91-6.7,5.727-10.133,6.564-2.477.6-9.235.671-12.79-1.365-2.863-1.639-9.569-5.479-6.533-14.587,2.6-7.8,4.8-16.282,6.18-22.022.549-2.278,1.461-7.812-1.941-9.975-1.274-.812-5.1-2.014-9.624-2.149l-.687.015c-4.064.173-7.8,1.229-9.219,2.134-3.4,2.162-2.489,7.7-1.94,9.975,1.384,5.741,3.58,14.222,6.181,22.022,1.207,3.619,1.046,6.812-.477,9.49-2.288,4.027-7.095,5.818-10.723,6.612a26.791,26.791,0,0,1-7.094.176c-3.893-.728-9.051-2.476-11.515-6.66-1.59-2.7-1.775-5.939-.55-9.618,2.6-7.8,4.8-16.282,6.18-22.022.55-2.278,1.462-7.812-1.94-9.975-1.421-.9-5.153-1.961-9.267-2.136l-.732-.012c-4.428.134-8.257,1.337-9.532,2.148-3.4,2.162-2.488,7.7-1.939,9.975,1.384,5.74,3.58,14.22,6.18,22.022,3.036,9.108-3.67,12.948-6.534,14.587-3.554,2.037-10.313,1.971-12.79,1.365-3.429-.837-7.97-2.654-10.131-6.563-1.469-2.659-1.611-5.817-.421-9.389,2.6-7.8,4.8-16.281,6.181-22.022.549-2.278,1.461-7.813-1.94-9.975-1.422-.9-5.154-1.961-9.268-2.136l-.732-.012c-4.427.134-8.256,1.336-9.531,2.148-3.4,2.163-2.489,7.7-1.939,9.975,1.386,5.746,3.582,14.231,6.18,22.022,1.313,3.94,1.011,7.361-.9,10.164-4.014,5.9-13.762,6.486-14.175,6.509l-.215-4.009.108,2-.111-2c2.269-.128,8.683-1.234,11.08-4.765,1.178-1.737,1.31-3.906.4-6.629-2.643-7.926-4.871-16.53-6.274-22.351-1.59-6.588-.246-11.8,3.687-14.3,2.356-1.5,7.151-2.64,11.66-2.774l.878.013c4.412.187,9.039,1.321,11.3,2.761,3.932,2.5,5.275,7.715,3.688,14.3-1.4,5.817-3.63,14.416-6.275,22.351-.833,2.5-.792,4.519.125,6.177,1.457,2.636,4.92,3.959,7.569,4.6,1.915.467,7.514.384,9.844-.948,4.254-2.436,6.391-4.825,4.721-9.834-2.645-7.936-4.872-16.535-6.274-22.351-1.588-6.588-.244-11.8,3.686-14.3,2.357-1.5,7.153-2.64,11.662-2.774l.878.013c4.413.187,9.039,1.322,11.3,2.761,3.934,2.5,5.277,7.716,3.688,14.3-1.4,5.816-3.629,14.415-6.274,22.351-.855,2.564-.789,4.628.2,6.311,1.787,3.036,6.277,4.28,8.794,4.751a24.42,24.42,0,0,0,5.5-.151c2.32-.507,6.454-1.789,8.093-4.674.95-1.67,1-3.71.159-6.237-2.645-7.935-4.873-16.534-6.275-22.351-1.588-6.588-.244-11.8,3.687-14.3,2.263-1.44,6.891-2.574,11.253-2.759l.832-.016c4.6.135,9.4,1.276,11.755,2.775,3.934,2.5,5.278,7.716,3.688,14.3-1.4,5.816-3.629,14.415-6.274,22.351-1.67,5.009.467,7.4,4.721,9.834,2.328,1.334,7.931,1.415,9.844.948,2.649-.646,6.112-1.969,7.569-4.6.917-1.659.958-3.679.125-6.177-2.645-7.936-4.872-16.535-6.274-22.351-1.59-6.587-.246-11.8,3.687-14.3,2.263-1.439,6.889-2.574,11.252-2.759l.832-.016c4.6.135,9.4,1.276,11.756,2.775,3.932,2.5,5.276,7.715,3.688,14.3-1.4,5.817-3.63,14.416-6.275,22.351-.907,2.723-.776,4.892.4,6.629,2.4,3.531,8.81,4.637,11.079,4.765Z" fill="#f9f9f9" stroke="#000" stroke-miterlimit="10" stroke-width="1.004"/><path d="M4107.508,523.073" fill="none" stroke="#000" stroke-miterlimit="10" stroke-width="4.014"/><path d="M4190.721,523.073" fill="none" stroke="#000" stroke-miterlimit="10" stroke-width="4.014"/><path d="M4076.743,522.381a22.792,22.792,0,0,1-3.716,1.676c1.35,5.287,3.117,11.7,5.125,17.719.908,2.724.776,4.893-.4,6.629-2.4,3.531-8.811,4.638-11.08,4.766l.111,2,.107,2c.413-.022,10.161-.611,14.175-6.508,1.908-2.8,2.21-6.224.9-10.165C4079.9,534.329,4078.094,527.72,4076.743,522.381Z" fill="#fff" stroke="#000" stroke-miterlimit="10" stroke-width="1.004"/><path d="M4099.257,518.193a12.752,12.752,0,0,0,3.679,1.878l.157-.646c1.587-6.587.244-11.8-3.688-14.3-2.263-1.439-6.89-2.573-11.3-2.76l-.878-.013c-4.509.134-9.3,1.275-11.66,2.773-3.933,2.5-5.277,7.716-3.687,14.3.048.2.1.415.151.624a17.089,17.089,0,0,0,3.731-1.652c-.551-2.327-1.4-7.75,1.959-9.888,1.275-.811,5.1-2.014,9.531-2.147l.732.012c4.114.174,7.846,1.231,9.268,2.135C4100.517,510.587,4099.805,515.768,4099.257,518.193Z" fill="#fff" stroke="#000" stroke-miterlimit="10" stroke-width="1.004"/><path d="M4117.652,522.318a16,16,0,0,1-3.718,1.668c1.351,5.3,3.124,11.734,5.143,17.79,1.67,5.009-.467,7.4-4.721,9.835-2.33,1.332-7.929,1.415-9.844.947-2.649-.645-6.112-1.968-7.569-4.6-.917-1.658-.958-3.679-.125-6.177,2.012-6.037,3.782-12.455,5.131-17.744a16.871,16.871,0,0,1-3.757-1.513c-1.346,5.31-3.138,11.856-5.183,17.987-1.19,3.572-1.048,6.731.421,9.39,2.161,3.909,6.7,5.726,10.131,6.563,2.477.606,9.236.671,12.79-1.365,2.864-1.64,9.57-5.48,6.534-14.588C4120.816,534.3,4119,527.663,4117.652,522.318Z" fill="#fff" stroke="#000" stroke-miterlimit="10" stroke-width="1.004"/><path d="M4140.165,518.27a16.217,16.217,0,0,0,3.7,1.8c.066-.268.1-.387.157-.645,1.589-6.586.246-11.8-3.688-14.3-2.262-1.438-6.888-2.573-11.3-2.76l-.878-.013c-4.509.134-9.3,1.275-11.662,2.773-3.93,2.5-5.274,7.716-3.686,14.3.049.205.1.42.153.631a13.337,13.337,0,0,0,3.665-1.937c-.544-2.456-1.209-7.553,2.023-9.61,1.275-.81,5.1-2.014,9.532-2.147l.732.012c4.114.174,7.846,1.231,9.267,2.135C4141.478,510.61,4140.715,515.88,4140.165,518.27Z" fill="#fff" stroke="#000" stroke-miterlimit="10" stroke-width="1.004"/><path d="M4159.127,522.581a11.8,11.8,0,0,1-3.724,1.643c1.343,5.251,3.1,11.589,5.083,17.552.843,2.528.791,4.567-.159,6.237-1.639,2.885-5.773,4.167-8.093,4.675a24.417,24.417,0,0,1-5.5.151c-2.517-.472-7.007-1.715-8.794-4.751-.99-1.683-1.056-3.748-.2-6.312,2.022-6.066,3.8-12.515,5.149-17.816a25.344,25.344,0,0,1-3.765-1.485c-1.347,5.318-3.143,11.882-5.193,18.031-1.225,3.679-1.04,6.914.55,9.618,2.464,4.185,7.622,5.932,11.515,6.66a26.826,26.826,0,0,0,7.094-.175c3.628-.794,8.435-2.585,10.723-6.612,1.523-2.679,1.684-5.872.477-9.491C4162.258,534.4,4160.472,527.881,4159.127,522.581Z" fill="#fff" stroke="#000" stroke-miterlimit="10" stroke-width="1.004"/><path d="M4181.6,518.141a10.989,10.989,0,0,0,3.653,1.987c.067-.277.106-.438.17-.7,1.59-6.586.246-11.8-3.688-14.3-2.356-1.5-7.151-2.639-11.755-2.774l-.832.015c-4.362.186-8.99,1.32-11.253,2.759-3.931,2.5-5.275,7.716-3.687,14.3.05.208.1.426.155.64a15.237,15.237,0,0,0,3.728-1.664c-.55-2.324-1.4-7.753,1.959-9.892,1.423-.9,5.155-1.961,9.219-2.133l.687-.015c4.521.134,8.35,1.337,9.624,2.148C4182.827,510.573,4182.149,515.693,4181.6,518.141Z" fill="#fff" stroke="#000" stroke-miterlimit="10" stroke-width="1.004"/><path d="M4200,522.389a20.043,20.043,0,0,1-3.719,1.665c1.348,5.284,3.115,11.693,5.125,17.722.833,2.5.792,4.518-.125,6.177-1.457,2.637-4.92,3.96-7.569,4.6-1.913.468-7.516.387-9.844-.947-4.254-2.437-6.391-4.826-4.721-9.835,2.012-6.036,3.78-12.452,5.13-17.739a12.54,12.54,0,0,1-3.736-1.6c-1.348,5.325-3.148,11.906-5.2,18.069-3.036,9.108,3.67,12.948,6.533,14.588,3.555,2.035,10.313,1.97,12.79,1.365,3.431-.837,7.972-2.654,10.133-6.564,1.469-2.658,1.61-5.817.419-9.389C4203.159,534.324,4201.354,527.722,4200,522.389Z" fill="#fff" stroke="#000" stroke-miterlimit="10" stroke-width="1.004"/><path d="M4222.485,518.328a12.483,12.483,0,0,0,3.712,1.736l.155-.639c1.588-6.587.244-11.8-3.688-14.3-2.356-1.5-7.151-2.639-11.756-2.774l-.832.015c-4.363.186-8.989,1.321-11.252,2.759-3.933,2.5-5.277,7.717-3.687,14.3.048.2.1.413.15.62a18.424,18.424,0,0,0,3.694-1.813c-.551-2.313-1.374-7.577,2-9.723,1.422-.9,5.154-1.961,9.218-2.133l.687-.015c4.522.134,8.351,1.338,9.625,2.148C4223.838,510.626,4223.036,515.965,4222.485,518.328Z" fill="#fff" stroke="#000" stroke-miterlimit="10" stroke-width="1.004"/><path d="M4220.48,548.405c-1.179-1.736-1.31-3.905-.4-6.629,2.017-6.05,3.79-12.483,5.14-17.778a18.456,18.456,0,0,1-3.764-1.483c-1.347,5.312-3.139,11.859-5.184,17.991-1.313,3.941-1.012,7.361.9,10.165,4.015,5.9,13.762,6.486,14.174,6.508l.219-4.008C4229.29,553.043,4222.876,551.936,4220.48,548.405Z" fill="#fff" stroke="#000" stroke-miterlimit="10" stroke-width="1.004"/><path d="M4107.508,651.243" fill="none" stroke="#000" stroke-miterlimit="10" stroke-width="4.014"/><path d="M4190.721,651.243" fill="none" stroke="#000" stroke-miterlimit="10" stroke-width="4.014"/><path d="M4099.257,646.363a12.7,12.7,0,0,0,3.679,1.878c.065-.266.095-.39.157-.645,1.587-6.588.244-11.8-3.688-14.3-2.263-1.439-6.89-2.573-11.3-2.76l-.878-.013c-4.509.134-9.3,1.275-11.66,2.773-3.933,2.5-5.277,7.716-3.687,14.3.048.2.1.415.151.623a17.091,17.091,0,0,0,3.731-1.652c-.551-2.327-1.4-7.749,1.959-9.888,1.275-.811,5.1-2.014,9.531-2.147l.732.012c4.114.174,7.846,1.231,9.268,2.135C4100.517,638.757,4099.805,643.938,4099.257,646.363Z" fill="#fff" stroke="#000" stroke-miterlimit="10" stroke-width="1.004"/><path d="M4140.165,646.44a16.217,16.217,0,0,0,3.7,1.8c.066-.268.1-.387.157-.644,1.589-6.587.246-11.8-3.688-14.3-2.262-1.438-6.888-2.573-11.3-2.76l-.878-.013c-4.509.134-9.3,1.275-11.662,2.773-3.93,2.5-5.274,7.716-3.686,14.3.049.2.1.42.153.63a13.337,13.337,0,0,0,3.665-1.937c-.544-2.455-1.209-7.553,2.023-9.61,1.275-.81,5.1-2.014,9.532-2.147l.732.012c4.114.174,7.846,1.231,9.267,2.135C4141.478,638.781,4140.715,644.05,4140.165,646.44Z" fill="#fff" stroke="#000" stroke-miterlimit="10" stroke-width="1.004"/><path d="M4181.6,646.311a10.971,10.971,0,0,0,3.653,1.987c.067-.276.106-.438.17-.7,1.59-6.587.246-11.8-3.688-14.3-2.356-1.5-7.151-2.639-11.755-2.774l-.832.016c-4.362.185-8.99,1.319-11.253,2.758-3.931,2.5-5.275,7.716-3.687,14.3l.155.64a15.275,15.275,0,0,0,3.728-1.665c-.55-2.324-1.4-7.753,1.959-9.892,1.423-.9,5.155-1.961,9.219-2.133l.687-.015c4.521.134,8.35,1.337,9.624,2.148C4182.827,638.743,4182.149,643.864,4181.6,646.311Z" fill="#fff" stroke="#000" stroke-miterlimit="10" stroke-width="1.004"/><path d="M4222.485,646.5a12.48,12.48,0,0,0,3.712,1.737c.06-.249.1-.4.155-.639,1.588-6.588.244-11.8-3.688-14.3-2.356-1.5-7.151-2.639-11.756-2.774l-.832.016c-4.363.185-8.989,1.32-11.252,2.758-3.933,2.5-5.277,7.717-3.687,14.3.048.2.1.412.15.619a18.424,18.424,0,0,0,3.694-1.813c-.551-2.312-1.374-7.577,2-9.723,1.422-.9,5.154-1.961,9.218-2.133l.687-.015c4.522.134,8.351,1.338,9.625,2.148C4223.838,638.8,4223.036,644.136,4222.485,646.5Z" fill="#fff" stroke="#000" stroke-miterlimit="10" stroke-width="1.004"/><path d="M4107.508,619.2" fill="none" stroke="#000" stroke-miterlimit="10" stroke-width="4.014"/><path d="M4190.721,619.2" fill="none" stroke="#000" stroke-miterlimit="10" stroke-width="4.014"/><path d="M4107.508,587.158" fill="none" stroke="#000" stroke-miterlimit="10" stroke-width="4.014"/><path d="M4190.721,587.158" fill="none" stroke="#000" stroke-miterlimit="10" stroke-width="4.014"/><path d="M4117.652,586.4a16,16,0,0,1-3.718,1.668c1.351,5.3,3.124,11.735,5.143,17.791,1.67,5.008-.467,7.4-4.721,9.834-2.33,1.332-7.929,1.415-9.844.948-2.649-.646-6.112-1.969-7.569-4.606-.917-1.658-.958-3.678-.125-6.176,2.012-6.038,3.782-12.456,5.131-17.744a16.927,16.927,0,0,1-3.757-1.514c-1.346,5.311-3.138,11.856-5.183,17.987-1.19,3.573-1.048,6.731.421,9.39,2.161,3.909,6.7,5.726,10.131,6.563,2.477.606,9.236.671,12.79-1.365,2.864-1.64,9.57-5.479,6.534-14.588C4120.816,598.382,4119,591.748,4117.652,586.4Z" fill="#fff" stroke="#000" stroke-miterlimit="10" stroke-width="1.004"/><path d="M4159.127,586.666a11.826,11.826,0,0,1-3.724,1.644c1.343,5.25,3.1,11.588,5.083,17.552.843,2.527.791,4.566-.159,6.236-1.639,2.885-5.773,4.167-8.093,4.675a24.42,24.42,0,0,1-5.5.151c-2.517-.472-7.007-1.715-8.794-4.751-.99-1.683-1.056-3.748-.2-6.311,2.022-6.066,3.8-12.515,5.149-17.817a25.35,25.35,0,0,1-3.765-1.485c-1.347,5.318-3.143,11.882-5.193,18.031-1.225,3.679-1.04,6.914.55,9.618,2.464,4.185,7.622,5.932,11.515,6.66a26.781,26.781,0,0,0,7.094-.175c3.628-.794,8.435-2.585,10.723-6.612,1.523-2.679,1.684-5.871.477-9.491C4162.258,598.485,4160.472,591.966,4159.127,586.666Z" fill="#fff" stroke="#000" stroke-miterlimit="10" stroke-width="1.004"/><path d="M4200,586.474a20.042,20.042,0,0,1-3.719,1.666c1.348,5.283,3.115,11.692,5.125,17.722.833,2.5.792,4.517-.125,6.176-1.457,2.637-4.92,3.96-7.569,4.606-1.913.467-7.516.386-9.844-.948-4.254-2.436-6.391-4.826-4.721-9.834,2.012-6.037,3.78-12.453,5.13-17.74a12.54,12.54,0,0,1-3.736-1.6c-1.348,5.325-3.148,11.906-5.2,18.069-3.036,9.109,3.67,12.948,6.533,14.588,3.555,2.035,10.313,1.97,12.79,1.365,3.431-.837,7.972-2.654,10.133-6.564,1.469-2.658,1.61-5.816.419-9.389C4203.159,598.41,4201.354,591.807,4200,586.474Z" fill="#fff" stroke="#000" stroke-miterlimit="10" stroke-width="1.004"/><path d="M4107.508,555.116" fill="none" stroke="#000" stroke-miterlimit="10" stroke-width="4.014"/><path d="M4190.721,555.116" fill="none" stroke="#000" stroke-miterlimit="10" stroke-width="4.014"/><path d="M4076.743,554.423a22.7,22.7,0,0,1-3.716,1.677c1.35,5.286,3.117,11.7,5.125,17.719.908,2.723.776,4.892-.4,6.629-2.4,3.531-8.811,4.637-11.08,4.765l.111,2.005.107,2c.413-.023,10.161-.612,14.175-6.509,1.908-2.8,2.21-6.224.9-10.164C4079.9,566.371,4078.094,559.762,4076.743,554.423Z"/><path d="M4099.257,550.235a12.7,12.7,0,0,0,3.679,1.878c.065-.266.095-.389.157-.645,1.587-6.588.244-11.8-3.688-14.3-2.263-1.44-6.89-2.574-11.3-2.761l-.878-.013c-4.509.135-9.3,1.275-11.66,2.774-3.933,2.5-5.277,7.715-3.687,14.3.048.2.1.415.151.623a17.045,17.045,0,0,0,3.731-1.652c-.551-2.327-1.4-7.749,1.959-9.887,1.275-.812,5.1-2.014,9.531-2.148l.732.012c4.114.175,7.846,1.231,9.268,2.136C4100.517,542.63,4099.805,547.81,4099.257,550.235Z"/><path d="M4117.652,554.361a15.958,15.958,0,0,1-3.718,1.667c1.351,5.3,3.124,11.735,5.143,17.791,1.67,5.009-.467,7.4-4.721,9.834-2.33,1.332-7.929,1.415-9.844.948-2.649-.646-6.112-1.969-7.569-4.605-.917-1.658-.958-3.679-.125-6.177,2.012-6.038,3.782-12.456,5.131-17.744a16.877,16.877,0,0,1-3.757-1.514c-1.346,5.311-3.138,11.857-5.183,17.988-1.19,3.572-1.048,6.731.421,9.389,2.161,3.91,6.7,5.726,10.131,6.563,2.477.606,9.236.672,12.79-1.365,2.864-1.639,9.57-5.479,6.534-14.587C4120.816,566.34,4119,559.706,4117.652,554.361Z"/><path d="M4140.165,550.313a16.3,16.3,0,0,0,3.7,1.8c.066-.269.1-.387.157-.645,1.589-6.587.246-11.8-3.688-14.3-2.262-1.439-6.888-2.574-11.3-2.761l-.878-.013c-4.509.135-9.3,1.275-11.662,2.774-3.93,2.5-5.274,7.715-3.686,14.3.049.2.1.42.153.631a13.391,13.391,0,0,0,3.665-1.937c-.544-2.456-1.209-7.554,2.023-9.61,1.275-.811,5.1-2.014,9.532-2.148l.732.012c4.114.175,7.846,1.231,9.267,2.136C4141.478,542.653,4140.715,547.922,4140.165,550.313Z"/><path d="M4159.127,554.624a11.827,11.827,0,0,1-3.724,1.643c1.343,5.251,3.1,11.588,5.083,17.552.843,2.527.791,4.567-.159,6.237-1.639,2.885-5.773,4.167-8.093,4.674a24.358,24.358,0,0,1-5.5.151c-2.517-.471-7.007-1.715-8.794-4.751-.99-1.682-1.056-3.747-.2-6.311,2.022-6.066,3.8-12.515,5.149-17.817a25.244,25.244,0,0,1-3.765-1.485c-1.347,5.318-3.143,11.883-5.193,18.032-1.225,3.679-1.04,6.914.55,9.618,2.464,4.184,7.622,5.932,11.515,6.66a26.791,26.791,0,0,0,7.094-.176c3.628-.793,8.435-2.585,10.723-6.612,1.523-2.678,1.684-5.871.477-9.49C4162.258,566.442,4160.472,559.924,4159.127,554.624Z"/><path d="M4181.6,550.183a10.971,10.971,0,0,0,3.653,1.987c.067-.276.106-.437.17-.7,1.59-6.587.246-11.8-3.688-14.3-2.356-1.5-7.151-2.639-11.755-2.775l-.832.016c-4.362.185-8.99,1.319-11.253,2.759-3.931,2.5-5.275,7.715-3.687,14.3.05.207.1.426.155.64a15.271,15.271,0,0,0,3.728-1.664c-.55-2.324-1.4-7.754,1.959-9.892,1.423-.905,5.155-1.961,9.219-2.134l.687-.015c4.521.135,8.35,1.337,9.624,2.149C4182.827,542.615,4182.149,547.736,4181.6,550.183Z"/><path d="M4200,554.431a19.978,19.978,0,0,1-3.719,1.666c1.348,5.284,3.115,11.692,5.125,17.722.833,2.5.792,4.518-.125,6.177-1.457,2.636-4.92,3.959-7.569,4.605-1.913.467-7.516.386-9.844-.948-4.254-2.436-6.391-4.825-4.721-9.834,2.012-6.036,3.78-12.453,5.13-17.74a12.508,12.508,0,0,1-3.736-1.6c-1.348,5.324-3.148,11.905-5.2,18.069-3.036,9.108,3.67,12.948,6.533,14.587,3.555,2.036,10.313,1.97,12.79,1.365,3.431-.837,7.972-2.653,10.133-6.564,1.469-2.657,1.61-5.816.419-9.388C4203.159,566.367,4201.354,559.764,4200,554.431Z"/><path d="M4222.485,550.37a12.458,12.458,0,0,0,3.712,1.737l.155-.639c1.588-6.588.244-11.8-3.688-14.3-2.356-1.5-7.151-2.639-11.756-2.775l-.832.016c-4.363.185-8.989,1.32-11.252,2.759-3.933,2.5-5.277,7.716-3.687,14.3.048.2.1.413.15.62a18.482,18.482,0,0,0,3.694-1.813c-.551-2.313-1.374-7.578,2-9.723,1.422-.905,5.154-1.961,9.218-2.134l.687-.015c4.522.135,8.351,1.338,9.625,2.149C4223.838,542.669,4223.036,548.008,4222.485,550.37Z"/><path d="M4220.48,580.448c-1.179-1.737-1.31-3.906-.4-6.629,2.017-6.051,3.79-12.484,5.14-17.779a18.506,18.506,0,0,1-3.764-1.482c-1.347,5.311-3.139,11.859-5.184,17.991-1.313,3.94-1.012,7.361.9,10.164,4.015,5.9,13.762,6.486,14.174,6.509l.219-4.009C4229.29,585.085,4222.876,583.979,4220.48,580.448Z"/><path d="M4076.743,586.466a22.792,22.792,0,0,1-3.716,1.676c1.35,5.287,3.117,11.7,5.125,17.72.908,2.723.776,4.892-.4,6.628-2.4,3.531-8.811,4.638-11.08,4.766l.111,2,.107,2c.413-.022,10.161-.611,14.175-6.508,1.908-2.8,2.21-6.224.9-10.165C4079.9,598.414,4078.094,591.8,4076.743,586.466Z" fill="#fff" stroke="#000" stroke-miterlimit="10" stroke-width="1.004"/><path d="M4099.257,614.321a12.726,12.726,0,0,0,3.679,1.877c.065-.266.095-.389.157-.645,1.587-6.588.244-11.8-3.688-14.3-2.263-1.44-6.89-2.574-11.3-2.761l-.878-.013c-4.509.135-9.3,1.275-11.66,2.774-3.933,2.5-5.277,7.715-3.687,14.3.048.2.1.415.151.624a17.1,17.1,0,0,0,3.731-1.653c-.551-2.326-1.4-7.749,1.959-9.887,1.275-.812,5.1-2.014,9.531-2.147l.732.011c4.114.175,7.846,1.231,9.268,2.136C4100.517,606.715,4099.805,611.9,4099.257,614.321Z" fill="#fff" stroke="#000" stroke-miterlimit="10" stroke-width="1.004"/><path d="M4140.165,614.4a16.261,16.261,0,0,0,3.7,1.8c.066-.269.1-.387.157-.645,1.589-6.587.246-11.8-3.688-14.3-2.262-1.439-6.888-2.574-11.3-2.761l-.878-.013c-4.509.135-9.3,1.275-11.662,2.774-3.93,2.5-5.274,7.715-3.686,14.3.049.2.1.42.153.631a13.337,13.337,0,0,0,3.665-1.937c-.544-2.456-1.209-7.554,2.023-9.61,1.275-.811,5.1-2.014,9.532-2.147l.732.011c4.114.175,7.846,1.231,9.267,2.136C4141.478,606.738,4140.715,612.007,4140.165,614.4Z" fill="#fff" stroke="#000" stroke-miterlimit="10" stroke-width="1.004"/><path d="M4181.6,614.268a10.972,10.972,0,0,0,3.653,1.987c.067-.276.106-.437.17-.7,1.59-6.587.246-11.8-3.688-14.3-2.356-1.5-7.151-2.639-11.755-2.775l-.832.016c-4.362.185-8.99,1.319-11.253,2.759-3.931,2.5-5.275,7.715-3.687,14.3.05.207.1.426.155.64a15.271,15.271,0,0,0,3.728-1.664c-.55-2.324-1.4-7.754,1.959-9.892,1.423-.905,5.155-1.961,9.219-2.134l.687-.014c4.521.134,8.35,1.336,9.624,2.148C4182.827,606.7,4182.149,611.821,4181.6,614.268Z" fill="#fff" stroke="#000" stroke-miterlimit="10" stroke-width="1.004"/><path d="M4099.257,582.278a12.73,12.73,0,0,0,3.679,1.878c.065-.266.095-.39.157-.646,1.587-6.587.244-11.8-3.688-14.3-2.263-1.439-6.89-2.573-11.3-2.76l-.878-.013c-4.509.134-9.3,1.275-11.66,2.773-3.933,2.5-5.277,7.716-3.687,14.3.048.2.1.416.151.624a17.091,17.091,0,0,0,3.731-1.652c-.551-2.327-1.4-7.75,1.959-9.888,1.275-.811,5.1-2.014,9.531-2.147l.732.012c4.114.174,7.846,1.231,9.268,2.135C4100.517,574.672,4099.805,579.853,4099.257,582.278Z" fill="#fff" stroke="#000" stroke-miterlimit="10" stroke-width="1.004"/><path d="M4140.165,582.355a16.22,16.22,0,0,0,3.7,1.8c.066-.268.1-.387.157-.645,1.589-6.586.246-11.8-3.688-14.3-2.262-1.438-6.888-2.573-11.3-2.76l-.878-.013c-4.509.134-9.3,1.275-11.662,2.773-3.93,2.5-5.274,7.716-3.686,14.3.049.205.1.42.153.631a13.335,13.335,0,0,0,3.665-1.937c-.544-2.456-1.209-7.553,2.023-9.61,1.275-.81,5.1-2.014,9.532-2.147l.732.012c4.114.174,7.846,1.231,9.267,2.135C4141.478,574.7,4140.715,579.965,4140.165,582.355Z" fill="#fff" stroke="#000" stroke-miterlimit="10" stroke-width="1.004"/><path d="M4181.6,582.226a10.989,10.989,0,0,0,3.653,1.987c.067-.276.106-.438.17-.7,1.59-6.586.246-11.8-3.688-14.3-2.356-1.5-7.151-2.639-11.755-2.774l-.832.016c-4.362.185-8.99,1.319-11.253,2.758-3.931,2.5-5.275,7.716-3.687,14.3.05.208.1.426.155.64a15.237,15.237,0,0,0,3.728-1.664c-.55-2.324-1.4-7.753,1.959-9.892,1.423-.9,5.155-1.961,9.219-2.133l.687-.015c4.521.134,8.35,1.337,9.624,2.148C4182.827,574.658,4182.149,579.779,4181.6,582.226Z" fill="#fff" stroke="#000" stroke-miterlimit="10" stroke-width="1.004"/><path d="M4222.485,582.413a12.508,12.508,0,0,0,3.712,1.737c.06-.249.1-.4.155-.64,1.588-6.587.244-11.8-3.688-14.3-2.356-1.5-7.151-2.639-11.756-2.774l-.832.016c-4.363.185-8.989,1.32-11.252,2.758-3.933,2.5-5.277,7.717-3.687,14.3.048.2.1.413.15.62a18.427,18.427,0,0,0,3.694-1.813c-.551-2.313-1.374-7.577,2-9.723,1.422-.9,5.154-1.961,9.218-2.133l.687-.015c4.522.134,8.351,1.338,9.625,2.148C4223.838,574.711,4223.036,580.051,4222.485,582.413Z" fill="#fff" stroke="#000" stroke-miterlimit="10" stroke-width="1.004"/><path d="M4220.48,612.49c-1.179-1.736-1.31-3.9-.4-6.628,2.017-6.051,3.79-12.484,5.14-17.779a18.457,18.457,0,0,1-3.764-1.483c-1.347,5.312-3.139,11.859-5.184,17.991-1.313,3.941-1.012,7.361.9,10.165,4.015,5.9,13.762,6.486,14.174,6.508l.219-4.008C4229.29,617.128,4222.876,616.021,4220.48,612.49Z" fill="#fff" stroke="#000" stroke-miterlimit="10" stroke-width="1.004"/><path d="M4222.485,614.455a12.458,12.458,0,0,0,3.712,1.737l.155-.639c1.588-6.588.244-11.8-3.688-14.3-2.356-1.5-7.151-2.639-11.756-2.775l-.832.016c-4.363.185-8.989,1.32-11.252,2.759-3.933,2.5-5.277,7.716-3.687,14.3.048.2.1.413.15.62a18.424,18.424,0,0,0,3.694-1.813c-.551-2.313-1.374-7.578,2-9.723,1.422-.905,5.154-1.961,9.218-2.134l.687-.014c4.522.134,8.351,1.337,9.625,2.148C4223.838,606.754,4223.036,612.093,4222.485,614.455Z" fill="#fff" stroke="#000" stroke-miterlimit="10" stroke-width="1.004"/></g></g></g></svg>