<svg xmlns="http://www.w3.org/2000/svg" width="190" height="150" viewBox="0 0 190 150"><g transform="translate(8142 2765)"><g transform="translate(-10671.189 -3468.158)"><path d="M0,0H190V150H0Z" transform="translate(2529.19 703.157)" fill="#f1f1ef"/><g transform="translate(2538.497 725.282)"><g transform="translate(23.879 29.222)"><rect width="123.628" height="32.094" transform="translate(0 14.347)" fill="#bf3976"/><path d="M2562.376,792.408V772.685l13.265,19.723Z" transform="translate(-2562.376 -772.685)" fill="#bf3976"/><path d="M2572.2,792.408V772.685l13.265,19.723Z" transform="translate(-2562.376 -772.685)" fill="#bf3976"/><path d="M2583.163,792.408V772.685l13.265,19.723Z" transform="translate(-2562.376 -772.685)" fill="#bf3976"/><path d="M2594.219,792.408V772.685l13.265,19.723Z" transform="translate(-2562.376 -772.685)" fill="#bf3976"/><path d="M2605.462,792.408V772.685l13.265,19.723Z" transform="translate(-2562.376 -772.685)" fill="#bf3976"/><path d="M2615.289,792.408V772.685l13.265,19.723Z" transform="translate(-2562.376 -772.685)" fill="#bf3976"/><path d="M2626.25,792.408V772.685l13.265,19.723Z" transform="translate(-2562.376 -772.685)" fill="#bf3976"/><path d="M2637.3,792.408V772.685l13.265,19.723Z" transform="translate(-2562.376 -772.685)" fill="#bf3976"/><path d="M2651.242,792.408V772.685l13.265,19.723Z" transform="translate(-2562.376 -772.685)" fill="#bf3976"/><path d="M2661.069,792.408V772.685l13.265,19.723Z" transform="translate(-2562.376 -772.685)" fill="#bf3976"/><path d="M2672.03,792.408V772.685l13.265,19.723Z" transform="translate(-2562.376 -772.685)" fill="#bf3976"/><path d="M2686,795.526V775.8l-13.265,19.723Z" transform="translate(-2562.376 -772.685)" fill="#bf3976"/></g><rect width="171.385" height="4.466" transform="translate(0 21.165)" fill="#0ac4bf"/><rect width="171.385" height="4.466" fill="#0ac4bf"/></g></g><text transform="translate(-8130.5 -2631.084)" font-size="14" font-family="Roboto-Regular, Roboto"><tspan x="0" y="0">Arrastre de material liviano</tspan></text></g></svg>