<svg xmlns="http://www.w3.org/2000/svg" width="190" height="209" viewBox="0 0 190 209"><g transform="translate(3942 6801)"><g transform="translate(7 15)"><rect width="190" height="209" transform="translate(-3949 -6816)" fill="none"/></g><g transform="translate(-3881 -6789.5)"><g transform="translate(0 0)"><path d="M2326.452-52.892c11.908,7.576,31.77,8.395,44.366,1.828s13.146-18.031,1.238-25.608-31.774-8.391-44.366-1.825S2314.542-60.465,2326.452-52.892Z" transform="translate(-2313.03 237.128)" fill="#b0b4b5"/><g transform="translate(0)"><path d="M2323.779-110.64s15.13.586,19.729-4.3-.908-4.322-.908-4.322.812-1.49-5.235-2.264-14.074,1.484-14.074,1.484Z" transform="translate(-2294.997 152.472)" fill="#bcbcbc"/><path d="M2326.518-90.878s4.166,28.974,5.236,32.213,4.818.64,5.681-1.787,1.459-21.9,1.459-21.9Z" transform="translate(-2298.829 219.772)" fill="#d1d1d1"/><path d="M2322.483-86.059s3.083,21.251,2.679,25.187,1.837,6.038,3.688,5.408,3.166-8.331,3.3-9.079-.258-11.487.436-13.4,2.858-7.551,2.16-9.872S2322.483-86.059,2322.483-86.059Z" transform="translate(-2281.965 224.889)" fill="#e8e8e8"/><path d="M2334.393-79.672a12.274,12.274,0,0,0-2.042,3.08,9.4,9.4,0,0,1-3.01,3.522c-.561.325-1.942.287-2.534,2.07s.236,4.57,1.752,5.019a5.2,5.2,0,0,0,4.751-.682c1.653-1.146,2.634-3.9,3.353-4.366s5.188-3.111,5.392-3.806a25.127,25.127,0,0,0-.029-4l-1.621-3.516Z" transform="translate(-2302.378 238.409)" fill="#d1d1d1"/><path d="M2327.024-80.163c-.048,1.057.417,1.933,1.035,1.959s1.153-.806,1.2-1.86-.418-1.933-1.035-1.959S2327.069-81.217,2327.024-80.163Z" transform="translate(-2290.797 239.116)" fill="#626b6c"/><path d="M2330.888-79.655l-1.828,5.837s-5.047,7.876-5.49,8.6.217,2.758,2.175,3.325,5.19.707,6.515-.634,3.236-6.162,3.236-6.162l1.793-3.952.563-4.264-.6-4.156Z" transform="translate(-2287.982 241.229)" fill="#e8e8e8"/><path d="M2323.564-78.924c-.047,1.137.453,2.083,1.118,2.111s1.246-.869,1.3-2.01-.453-2.083-1.118-2.111S2323.612-80.064,2323.564-78.924Z" transform="translate(-2276.5 241.495)" fill="#626b6c"/><path d="M2370.072-70.457c.061-6.831.369-13.659-1.141-20.334a52.989,52.989,0,0,0-2.149-6.694c-1.529-4.118-4.765-11.911-10.277-11.312-3.29.357-6.583.672-9.876.987-5.083.49-10.169.939-15.252,1.436-1.378.134-2.375,2.691-3.092,3.748l-.1.143c-3.812,5.71-5.258,13.34-6.2,19.984s-1.36,13.331-1.78,20.015l-1.067,16.939a2.418,2.418,0,0,0,.458,1.959,1.991,1.991,0,0,0,1.125.433c1.573.2,3.175-.248,4.748-.035,4.478.608,2.287,4.857,3.927,7.388.936,1.443,4.144,2.255,6.21,1.048s2.561-3.277,3.248-3.557,3.519-.385,4.369.889,2.531,4.968,4.287,4.958a13.3,13.3,0,0,0,5-.933c1.22-.551,1.994-1.745,3.21-2.271,3.554-1.538,7.659.35,10.36-3.471a11.749,11.749,0,0,1,1.484-2.115c1.376-1.223,3.411-1.2,5.128-1.35.974-4.025-.462-8.181-1.382-12.219A66.82,66.82,0,0,1,2370.072-70.457Z" transform="translate(-2309.424 180.555)" fill="#339ce9"/><path d="M2339.3-120.8s-7.63,4-7.815,14.528-.567,13.493-1.322,14.41-.031,3.156,3.4,6.22,3.8,3.494,5.577,2.025,6.433-37.534,6.433-37.534Z" transform="translate(-2316.243 153.627)" fill="#bcbcbc"/><path d="M2349.9-109.319s-1.952-2.9-3.373-2.379-6.48,15.063-8.315,19.449a16.554,16.554,0,0,1-4.563,6.474,3.628,3.628,0,0,0-.723,3.134,28.166,28.166,0,0,1-.047,4.732c-.025.65,3.49,5.72,3.49,5.72l1.182-.484s1.219.624,1.108-.452a7.993,7.993,0,0,0-.258-1.5l-1.143-1.774-.131-1.761s1.382-3.025,2.309-4.732,1.637-2.943,1.694-3.962,11.3-14.146,11.513-15.187A8.913,8.913,0,0,0,2349.9-109.319Z" transform="translate(-2332.872 174.151)" fill="#e8e8e8"/><path d="M2333.042-108.784c-.057,1.3.516,2.382,1.278,2.417s1.426-1,1.48-2.3-.515-2.385-1.277-2.417S2333.1-110.087,2333.042-108.784Z" transform="translate(-2316.506 175.628)" fill="#626b6c"/><path d="M2336.321-122.087a44.494,44.494,0,0,0-8.487,2.067c-1.452.615-4.2,9.872-5.455,12.987a37.653,37.653,0,0,0-1.7,7.325c-.057,2.752-.777,7.051.659,9.49.545.924,1.611,1.446,2.239,2.318a11.084,11.084,0,0,1,1.589,5.06,21.467,21.467,0,0,1,.4,5.115c-.115,1.013-.793,2.048-.816,3.035-.038,1.8,1.195,2.837,2.583,3.825,3.8,2.71,8.746,3.427,13.3,3.344,4.2-.08,9.952-.6,12.608-4.411,2.385-3.427,1.144-8.07.953-11.939a9,9,0,0,1,.254-3.331,9.972,9.972,0,0,1,1.268-2.264,35.392,35.392,0,0,0,5.394-12.831c.51-2.264,2.675-8.067,1.37-10.3-.885-1.51-3.287-3.041-7.58-5.092l-4.292-2.048s-5.576,7.589-11.532,7.051S2335.374-120.657,2336.321-122.087Z" transform="translate(-2303.498 151.591)" fill="#339ce9"/><path d="M2325.694-119.286s-.318-1.08-2.383,2.287-2.477,5.5-2.917,10.044.385,6.328,1,6.968,1.478.662,2.924-.911S2331.938-119.534,2325.694-119.286Z" transform="translate(-2268.479 157.351)" fill="#cfcfcf"/><path d="M2325.946-108.371s.283-3.92-.863-6,1.494-8.153,6.634-9.92,7.719-.685,7.235-.255a7.555,7.555,0,0,0-1.58,5.866,69.016,69.016,0,0,1,.752,6.92C2338.006-111.317,2331.58-104.152,2325.946-108.371Z" transform="translate(-2293.531 144.643)" fill="#d9d9d9"/><path d="M2324.156-113.755a24.865,24.865,0,0,1,.589-7.06,9.906,9.906,0,0,1,.885-2.681c.866-1.761,1.181-3.586,2.945-4.627,1.745-1.032,3.538-2.439,5.541-2.965,3.526-.924,9.618.605,11.223,4.261.927,2.111.751,5.029.9,7.306.255,3.812-.22,7.7-2.761,10.723-.446.532-.9,1.073-1.354,1.611-2.366,2.793-4.907,5.551-8.347,7.025C2325.869-96.78,2324.808-109.22,2324.156-113.755Z" transform="translate(-2298.425 131.352)" fill="#e8e8e8"/><path d="M2324.34-123.824s.24-2.2,2.054-2.376,1.2,2.815.81,4.045a4.339,4.339,0,0,1-2.306,2.229c-.742.436-.882-.236-.882-.236a12.252,12.252,0,0,1,.271-2.242A3.836,3.836,0,0,0,2324.34-123.824Z" transform="translate(-2279.593 142.59)" fill="#e8e8e8"/><path d="M2339.4-104.191s-1.993.041-2.131,1.213.232,2.029.144,2.675a20.614,20.614,0,0,1-.37,3.328c-.261.519-.379,1.6.016,1.815a1.337,1.337,0,0,0,1.713-.127c.755-.621.939-3.06.9-3.408s1.1-2.118,1.125-3.395A1.9,1.9,0,0,0,2339.4-104.191Z" transform="translate(-2333.492 190.688)" fill="#f5f5f5"/><path d="M2330.58-98.3c.567,3.959,2.4,16.21,2.4,16.21a2.444,2.444,0,0,1-.16,1.076c-.529,1.357-2.241,2.178-3.987,2.653-2.159.586-3.239.038-3.3-.073a49.313,49.313,0,0,1-2.653-8.866c-.691-3.965-2.073-5.847-2.013-6.541s-4-7.06-2.522-14.181c.188-.9.4-1.755.637-2.557a28.775,28.775,0,0,1,4.115-8.815s3.774,3.484,5.2,6.385S2330.01-102.262,2330.58-98.3Z" transform="translate(-2265.889 157.464)" fill="#d9d9d9"/><path d="M2330.443-94.027c-.357,2.777-2.016,10.229-2.239,12.258a25.6,25.6,0,0,0,.208,6.064,7.874,7.874,0,0,1-1.2,4.707c-.4.318-.6,1.822-.7,2.038s-.808.7-.808.7a4.934,4.934,0,0,0-.517.761c-.306.529-1.2.513-1.2.513s-.427.57-.854,1.115a2.976,2.976,0,0,1-1.414.51,16.647,16.647,0,0,1-3.1.36c-.353-.07-.242-.573-.175-.946s.474-.347.917-.637a9.935,9.935,0,0,0,1.456-.853,11.023,11.023,0,0,0,.631-2.615,20.925,20.925,0,0,0-.185-2.844,7.613,7.613,0,0,0-.768.3c-.13.076-.443,2.525-1.08,3.427s-1.025.369-1.293.064a4.555,4.555,0,0,1,.342-3.283c.623-1.3.449-2.646.895-4.064s1.191-1.831,2.48-3.245,1.917-6.538,1.917-6.538-.044-.3-.022-3.933-.631-11.971-.656-14.27.21-2.29.21-2.29,1.134-.306,2.516-.522c1.713-.28,3.809-.446,4.56.232C2331.035-104.215,2330.8-96.8,2330.443-94.027Z" transform="translate(-2263.423 183.466)" fill="#e8e8e8"/><path d="M2319.564-114.49c-.064,1.459.729,2.675,1.771,2.72s1.933-1.1,2-2.557-.729-2.672-1.77-2.716S2319.626-115.945,2319.564-114.49Z" transform="translate(-2261.11 162.605)" fill="#626b6c"/><path d="M2318.144-105.624c-.057,1.3.516,2.382,1.277,2.417s1.427-1,1.48-2.3-.516-2.385-1.277-2.417S2318.2-106.927,2318.144-105.624Z" transform="translate(-2254.159 182.532)" fill="#626b6c"/></g></g></g></g></svg>