<svg xmlns="http://www.w3.org/2000/svg" width="63.633" height="80.641" viewBox="0 0 63.633 80.641"><g transform="translate(-360.837 1220.507)"><rect width="48.945" height="1.512" transform="translate(368.181 -1141.378)" fill="#0ac4bf"/><path d="M360.9-1177.631l.016.24c.02.271.04.55.079.9.03.283.061.574.106.849.044.311.088.612.144.919s.106.607.178.927l.5,2.032c.06.212.122.424.186.614.087.282.184.565.291.871.1.289.2.578.312.856a1.063,1.063,0,0,0,.835.678,1.062,1.062,0,0,0,1-.4,1.057,1.057,0,0,0,.134-1.067c-.1-.246-.187-.5-.283-.78-.089-.26-.179-.52-.268-.807-.063-.186-.115-.367-.168-.551l-.472-1.894c-.061-.285-.111-.56-.162-.848s-.092-.555-.131-.84c-.037-.258-.066-.524-.106-.865-.027-.247-.045-.5-.063-.743l-.016-.23c-.018-.253-.034-.5-.043-.758,0-.139-.007-.279-.008-.424a33.455,33.455,0,0,1,8.679,5.894l-10.467,9.831a1.062,1.062,0,0,0-.046,1.5,1.06,1.06,0,0,0,1.5.047l10.566-9.932c.29.283.581.557.872.849,1.379,1.394,2.747,2.933,4.1,4.575L365.4-1153.666a1.059,1.059,0,0,0-.3,1.027,1.058,1.058,0,0,0,.748.764,1.059,1.059,0,0,0,1.033-.276l12.6-12.363a98.244,98.244,0,0,1,7.031,10.474c-.106-.008-.212-.011-.318-.02-.364-.031-.716-.071-1.1-.125-.352-.04-.7-.1-1.061-.163s-.694-.119-1.06-.2c-.227-.048-.455-.106-.682-.159l-.343-.083c-.349-.092-.7-.194-1.034-.3s-.663-.212-1.013-.338c-.238-.082-.479-.174-.719-.264l-.255-.1c-.256-.106-.506-.212-.76-.326l-.212-.094c-.3-.132-.589-.274-.924-.435l-.954-.508a1.061,1.061,0,0,0-1.41.449,1.061,1.061,0,0,0,.412,1.421l.954.51.115.057c.312.15.624.3.945.444l.212.095c.273.12.542.24.849.362l.273.106c.262.1.53.2.767.282.368.134.735.255,1.1.368s.735.22,1.137.324l.35.087c.253.061.506.123.732.169.377.088.768.156,1.167.224s.781.133,1.147.176c.4.055.79.1,1.193.133s.782.055,1.2.077c.39.009.782.02,1.185.02a26.422,26.422,0,0,0,2.814-.142,25.138,25.138,0,0,0,2.739-.424c.389-.079.789-.168,1.166-.264l.026-.008c.483-.118.968-.258,1.466-.4.839-.269,1.684-.579,2.521-.924q1.209-.511,2.362-1.142a1.665,1.665,0,0,0,.147-.087,22.782,22.782,0,0,0,2.18-1.321c.794-.544,1.485-1.061,2.112-1.584.652-.538,1.292-1.117,1.969-1.783a24.733,24.733,0,0,0,1.766-1.951c.523-.637,1.06-1.338,1.59-2.121.424-.625.743-1.152.994-1.609.025-.041.045-.079.07-.121.007-.018.022-.032.029-.052.1-.164.2-.329.282-.484.416-.759.8-1.549,1.174-2.429.16-.388.3-.775.443-1.161,1.591-.4,3.377-.384,4.135.53a3.983,3.983,0,0,1-.043,4.934,7.533,7.533,0,0,1-2.418,1.4,7.245,7.245,0,0,0-3.623,2.6,5.015,5.015,0,0,0-.072,5.1,6.618,6.618,0,0,0,5.35,3.481h.3c2.651,0,5.763-1.353,6.534-3.973a1.06,1.06,0,0,0-.234-1.052,1.061,1.061,0,0,0-1.034-.3,1.06,1.06,0,0,0-.766.758c-.464,1.608-2.832,2.528-4.706,2.449a4.5,4.5,0,0,1-3.567-2.36,2.9,2.9,0,0,1,.01-2.99,5.447,5.447,0,0,1,2.658-1.762,9.205,9.205,0,0,0,3.091-1.86,6.1,6.1,0,0,0,.161-7.77c-1.167-1.405-3.149-1.7-5.039-1.468.157-.557.31-1.114.424-1.7a24.808,24.808,0,0,0,.417-2.726c.068-.578.1-1.167.125-1.8.01-.348.021-.688.021-1.039,0-.38-.011-.773-.021-1.154a.77.77,0,0,0-.007-.123c-.021-.351-.041-.7-.076-1.1-.032-.367-.066-.743-.116-1.081-.044-.382-.106-.775-.161-1.1-.036-.262-.083-.536-.135-.76l-.079-.381c-.08-.381-.157-.752-.251-1.1-.089-.368-.191-.726-.3-1.075s-.212-.687-.339-1.05c-.1-.312-.212-.616-.328-.926l-.055-.144c-.131-.343-.276-.685-.423-1.031s-.3-.655-.465-1c-.16-.318-.318-.647-.485-.96a1.061,1.061,0,0,0-1.43-.452,1.061,1.061,0,0,0-.452,1.43c.157.3.318.615.458.905.148.317.293.626.433.936s.265.619.382.928l.054.139c.106.271.2.538.318.884.036.106.069.221.106.329a45.208,45.208,0,0,0-6.126-3.664l8.624-8.467a5.3,5.3,0,0,0,6.188-.151,5.3,5.3,0,0,0,1.828-5.914,5.3,5.3,0,0,0-5.023-3.617c-.036,0-.072.007-.106.007a5.3,5.3,0,0,0-2.724-5.794,5.3,5.3,0,0,0-6.316,1.052,5.3,5.3,0,0,0-.7,6.364l-13.451,12.665a37.67,37.67,0,0,0-21.829,2.8,43.366,43.366,0,0,0-5.408-2.015c.024-.035.044-.071.069-.106a23.8,23.8,0,0,1,1.464-1.878c.516-.6,1.069-1.181,1.641-1.733s1.176-1.084,1.786-1.573c.668-.531,1.3-.985,1.943-1.4s1.338-.837,2.07-1.223c.625-.336,1.32-.663,2.166-1.023.785-.318,1.556-.592,2.292-.815.831-.249,1.615-.445,2.386-.6.939-.178,1.724-.3,2.47-.368a28.154,28.154,0,0,1,3.545-.106c.329.009.657.03.954.047l.976.093c.326.041.642.082.965.134s.636.106.954.163.629.133.977.212c.293.069.587.138.848.212l1.23.369c.192.064.383.127.607.212.294.106.586.212.881.328s.557.224.831.352a1.061,1.061,0,0,0,1.4-.52,1.06,1.06,0,0,0-.506-1.4c-.318-.149-.636-.287-.961-.408s-.636-.244-.922-.343c-.219-.083-.438-.157-.656-.23l-1.329-.4c-.318-.084-.628-.158-.987-.242-.33-.077-.673-.155-1.014-.221s-.671-.121-1.019-.175-.682-.1-1.061-.146l-1.045-.1c-.35-.022-.7-.043-1.05-.054a29.5,29.5,0,0,0-3.818.106c-.8.079-1.672.212-2.671.4-.849.169-1.7.381-2.591.65-.8.242-1.635.539-2.493.888-.924.391-1.672.742-2.352,1.109-.786.416-1.54.862-2.236,1.321s-1.373.943-2.1,1.514c-.667.536-1.319,1.111-1.938,1.708s-1.215,1.226-1.775,1.872a25.675,25.675,0,0,0-1.581,2.029c-.309.424-.6.874-.879,1.328a1.277,1.277,0,0,0-.081.113c-.155.255-.309.509-.451.759-.424.742-.828,1.526-1.188,2.313a23.2,23.2,0,0,0-.932,2.326,1,1,0,0,0-.049.117,26.178,26.178,0,0,0-.742,2.545,25.483,25.483,0,0,0-.5,2.643c-.117.87-.191,1.7-.227,2.488a1.033,1.033,0,0,0-.034.267,1.15,1.15,0,0,0,.019.129c0,.052-.008.106-.008.146v.128h.012a.555.555,0,0,1,.027-.085c-.008.029-.02.053-.026.082h.066a.893.893,0,0,0,.055.117l-.134.016v-.042a1.74,1.74,0,0,0-.011.177v.392c0,.318,0,.636.012.955C360.858-1178.181,360.876-1177.909,360.9-1177.631Zm30.116,23.531c-.627.066-1.318.106-2,.115a100.46,100.46,0,0,0-8.581-12.79q-.8-.993-1.6-1.935a64.587,64.587,0,0,0-4.893-5.142c-5.215-4.87-9.224-6.735-10.9-7.371.04-.555.094-1.127.175-1.728a23.581,23.581,0,0,1,.458-2.43c.106-.453.224-.879.343-1.287,4.7,2.37,23.714,12.993,29.529,32.182a23.094,23.094,0,0,1-2.523.386Zm7.318-1.867c-.773.318-1.564.609-2.325.849-.131.039-.272.073-.4.111-6.191-20.633-26.309-31.457-30.9-33.687.16-.4.335-.823.544-1.28.334-.729.7-1.45,1.105-2.149l.022-.037a39.815,39.815,0,0,1,5.949,2.178,1.055,1.055,0,0,0,.341.156,48.573,48.573,0,0,1,6.752,3.841,47.707,47.707,0,0,1,6.363,5.134,49.429,49.429,0,0,1,6.281,7.352,55.441,55.441,0,0,1,7.8,16.811c-.5.25-1,.492-1.536.721Zm-4.845-19.171a51.684,51.684,0,0,0-4.5-5.484c11.537.16,21.327,7.2,23.655,9.008-.056.172-.106.342-.176.523-.184.53-.39,1.061-.6,1.573-.251.589-.514,1.133-.788,1.666C408.593-1169.946,401.9-1174.83,393.485-1175.138Zm20.243-1.668a22.89,22.89,0,0,1-.388,2.526c-.03.152-.067.3-.1.448-3.585-2.679-14.058-9.544-26.337-8.863a49.787,49.787,0,0,0-4.461-3.744c15.775-3.835,28.95,6.469,31.364,8.513C413.786-1177.554,413.771-1177.183,413.728-1176.806Zm-4.216,11.614c-.493.724-.985,1.379-1.469,1.96s-1.027,1.189-1.632,1.8a23.677,23.677,0,0,1-1.824,1.649c-.577.482-1.217.962-1.951,1.463-.308.212-.6.391-.884.568a58.253,58.253,0,0,0-6.757-15.164c7.35.84,13.179,5.363,15.016,6.944C409.865-1165.721,409.7-1165.467,409.512-1165.192Zm8.59-41.8a3.212,3.212,0,0,1,3.147,2.433,3.212,3.212,0,0,1-1.632,3.628,3.212,3.212,0,0,1-3.908-.741,3.211,3.211,0,0,1-.191-3.973,5.331,5.331,0,0,0,1.231-1.029A3.152,3.152,0,0,1,418.1-1206.992Zm-5.3-6.362a3.181,3.181,0,0,1,3.181,3.181,3.181,3.181,0,0,1-3.181,3.181,3.182,3.182,0,0,1-3.182-3.181A3.182,3.182,0,0,1,412.8-1213.354Zm-3.123,7.444a5.251,5.251,0,0,0,3.123,1.039c.042,0,.082-.012.125-.013a5.181,5.181,0,0,0-.125,1.073,5.276,5.276,0,0,0,.833,2.851l-9.211,9.04a42.4,42.4,0,0,0-7.08-2.374Zm3.77,21.93c.019.106.041.212.059.337.06.328.106.677.153,1.046.047.327.077.663.107,1.03.025.3.044.607.064.954-4.7-3.579-18.113-12.119-33.649-7.4a51.075,51.075,0,0,0-4.666-2.757C395.432-1198.462,411.261-1185.846,413.447-1183.98Z" transform="translate(0 -5)" fill="#0ac4bf"/></g></svg>