<svg xmlns="http://www.w3.org/2000/svg" width="60.647" height="73.024" viewBox="0 0 60.647 73.024"><g transform="translate(-454.677 -3033.844)"><rect width="48.945" height="1.512" transform="translate(460.868 3105.356)" fill="#0ac4bf"/><g transform="translate(-206.521 4374.714)"><path d="M699.1-1295.058a1.105,1.105,0,0,0-.109-.2,1.03,1.03,0,0,0-.148-.18,1.163,1.163,0,0,0-.18-.148,1.292,1.292,0,0,0-.2-.109,1.207,1.207,0,0,0-.222-.067,1.194,1.194,0,0,0-1.07.324,1.123,1.123,0,0,0-.147.18,1.175,1.175,0,0,0-.109.2,1.24,1.24,0,0,0-.068.222,1.2,1.2,0,0,0-.023.231,1.2,1.2,0,0,0,.023.232,1.229,1.229,0,0,0,.068.221,1.184,1.184,0,0,0,.109.2,1.168,1.168,0,0,0,.147.18,1.211,1.211,0,0,0,.18.148,1.346,1.346,0,0,0,.2.109,1.136,1.136,0,0,0,.222.067,1.2,1.2,0,0,0,.231.024,1.208,1.208,0,0,0,.232-.024,1.136,1.136,0,0,0,.222-.067,1.292,1.292,0,0,0,.2-.109,1.163,1.163,0,0,0,.18-.148,1.067,1.067,0,0,0,.148-.18,1.113,1.113,0,0,0,.109-.2,1.229,1.229,0,0,0,.068-.221,1.2,1.2,0,0,0,.022-.232,1.2,1.2,0,0,0-.022-.231A1.24,1.24,0,0,0,699.1-1295.058Z" fill="#0ac4bf"/><path d="M701.757-1293.947a1.11,1.11,0,0,0,.147.18,1.214,1.214,0,0,0,.18.148,1.312,1.312,0,0,0,.206.109,1.128,1.128,0,0,0,.221.067,1.207,1.207,0,0,0,.231.024,1.2,1.2,0,0,0,.232-.024,1.156,1.156,0,0,0,.222-.067,1.29,1.29,0,0,0,.2-.109,1.171,1.171,0,0,0,.181-.148,1.168,1.168,0,0,0,.147-.18,1.18,1.18,0,0,0,.109-.2,1.151,1.151,0,0,0,.068-.221,1.2,1.2,0,0,0,.022-.232,1.2,1.2,0,0,0-.022-.231,1.162,1.162,0,0,0-.068-.222,1.171,1.171,0,0,0-.109-.2,1.123,1.123,0,0,0-.147-.18,1.171,1.171,0,0,0-.181-.148,1.29,1.29,0,0,0-.2-.109,1.156,1.156,0,0,0-.222-.067,1.164,1.164,0,0,0-.463,0,1.128,1.128,0,0,0-.221.067,1.312,1.312,0,0,0-.206.109,1.214,1.214,0,0,0-.18.148,1.07,1.07,0,0,0-.147.18,1.167,1.167,0,0,0-.109.2,1.158,1.158,0,0,0-.067.222,1.127,1.127,0,0,0-.024.231,1.127,1.127,0,0,0,.024.232,1.148,1.148,0,0,0,.067.221A1.176,1.176,0,0,0,701.757-1293.947Z" fill="#0ac4bf"/><path d="M703.9-1287.985a1.117,1.117,0,0,0-.109-.2,1.1,1.1,0,0,0-.147-.18,1.191,1.191,0,0,0-1.069-.323,1.091,1.091,0,0,0-.222.067,1.167,1.167,0,0,0-.2.109,1.114,1.114,0,0,0-.181.147,1.148,1.148,0,0,0-.146.18,1.185,1.185,0,0,0-.11.2,1.235,1.235,0,0,0-.067.222,1.125,1.125,0,0,0-.024.231,1.125,1.125,0,0,0,.024.231,1.212,1.212,0,0,0,.067.222,1.185,1.185,0,0,0,.11.2,1.1,1.1,0,0,0,.146.18,1.121,1.121,0,0,0,.181.147,1.113,1.113,0,0,0,.2.109,1.168,1.168,0,0,0,.222.068,1.207,1.207,0,0,0,.232.023,1.2,1.2,0,0,0,.231-.023,1.225,1.225,0,0,0,.223-.068,1.137,1.137,0,0,0,.2-.109,1.11,1.11,0,0,0,.18-.147,1.062,1.062,0,0,0,.147-.18,1.117,1.117,0,0,0,.109-.2,1.08,1.08,0,0,0,.068-.222,1.2,1.2,0,0,0,.024-.231,1.2,1.2,0,0,0-.024-.231A1.08,1.08,0,0,0,703.9-1287.985Z" fill="#0ac4bf"/><path d="M717.5-1288.717h-4.03v-21.917a4.675,4.675,0,0,0,2.331.621h.079a4.707,4.707,0,0,0,4.7-4.7v-16.712a4.707,4.707,0,0,0-4.7-4.7H715.8a4.708,4.708,0,0,0-4.7,4.7v3.819a12.677,12.677,0,0,0-7.111-4.881v-4.825a3.56,3.56,0,0,0-3.556-3.556,3.56,3.56,0,0,0-3.556,3.556v4.425h-24.95a7.041,7.041,0,0,0-.967-.434l-.012-.005c-.1-.036-.2-.07-.3-.1l-.069-.021c-.083-.025-.165-.048-.248-.07l-.077-.02c-.086-.022-.173-.042-.26-.06-.038-.009-.077-.016-.116-.024-.089-.017-.178-.033-.267-.047l-.1-.015c-.07-.01-.14-.019-.21-.026l-.111-.013c-.093-.009-.187-.016-.281-.021l-.1-.005c-.089,0-.178-.006-.267-.007h-.058a7.151,7.151,0,0,0-7.155,7.112v17.779a1.186,1.186,0,0,0,1.186,1.185h1.3v1.185a3.562,3.562,0,0,0,2.371,3.352v4.945h-1.185a1.186,1.186,0,0,0-1.186,1.185,1.186,1.186,0,0,0,1.186,1.185h1.185v3.556a1.186,1.186,0,0,0,1.185,1.186,1.186,1.186,0,0,0,1.186-1.186v-10.871a3.561,3.561,0,0,0,2.37-3.352v-1.185h3.556a1.186,1.186,0,0,0,1.186-1.185,3.521,3.521,0,0,1,3.516-3.517h7.067a3.555,3.555,0,0,1,3.551,3.551v20.116H665.544a4.326,4.326,0,0,0-3.072,1.271,4.317,4.317,0,0,0-1.274,3.074,4.351,4.351,0,0,0,4.346,4.346H717.5a4.319,4.319,0,0,0,3.074-1.273,4.325,4.325,0,0,0,1.272-3.073A4.351,4.351,0,0,0,717.5-1288.717Zm-4.03-42.71a2.333,2.333,0,0,1,2.331-2.331h.079a2.333,2.333,0,0,1,2.331,2.331v16.712a2.333,2.333,0,0,1-2.331,2.331H715.8a2.333,2.333,0,0,1-2.331-2.331Zm-14.223-5.887a1.186,1.186,0,0,1,1.185-1.185,1.186,1.186,0,0,1,1.185,1.185v4.45c-.261-.016-2.37-.025-2.37-.025Zm-30.7,30.817a1.187,1.187,0,0,1-1.145,1.184l-.041,0-.04,0a1.186,1.186,0,0,1-1.145-1.184v-1.185h2.371Zm50.349,23.522a1.963,1.963,0,0,1-1.4.579H665.544c-2.5,0-2.574-3.951,0-3.951H698.06a1.184,1.184,0,0,0,1.185-1.185,1.185,1.185,0,0,0-1.185-1.185h-5.9v-20.115a5.928,5.928,0,0,0-5.922-5.922h-7.066a5.9,5.9,0,0,0-5.767,4.7h-9.721v-16.594a4.777,4.777,0,0,1,4.8-4.741,4.836,4.836,0,0,1,4.8,4.74v3.683a1.184,1.184,0,0,0,1.185,1.185,1.185,1.185,0,0,0,1.186-1.185v-3.683a7.026,7.026,0,0,0-1.161-3.872h26.327a10.285,10.285,0,0,1,10.273,10.273v31.529h-3.556a1.185,1.185,0,0,0-1.185,1.185,1.185,1.185,0,0,0,1.185,1.185H717.5a1.978,1.978,0,0,1,1.976,1.975A1.965,1.965,0,0,1,718.9-1282.975Z" fill="#0ac4bf"/><path d="M675.573-1318.676a1.193,1.193,0,0,0-.109-.206,1.2,1.2,0,0,0-.147-.18,1.227,1.227,0,0,0-.18-.147,1.187,1.187,0,0,0-.205-.109,1.207,1.207,0,0,0-.222-.067,1.159,1.159,0,0,0-.462,0,1.207,1.207,0,0,0-.222.067,1.187,1.187,0,0,0-.205.109,1.281,1.281,0,0,0-.18.147,1.265,1.265,0,0,0-.147.18,1.351,1.351,0,0,0-.109.206,1.127,1.127,0,0,0-.067.221,1.137,1.137,0,0,0-.024.233,1.134,1.134,0,0,0,.024.231,1.147,1.147,0,0,0,.067.221,1.342,1.342,0,0,0,.109.205,1.211,1.211,0,0,0,.147.18,1.156,1.156,0,0,0,.18.148,1.166,1.166,0,0,0,.205.108,1.139,1.139,0,0,0,.222.068,1.2,1.2,0,0,0,.231.024,1.2,1.2,0,0,0,.231-.024,1.139,1.139,0,0,0,.222-.068,1.166,1.166,0,0,0,.205-.108,1.112,1.112,0,0,0,.18-.148,1.153,1.153,0,0,0,.147-.18,1.185,1.185,0,0,0,.109-.205,1.15,1.15,0,0,0,.068-.221,1.207,1.207,0,0,0,.024-.231,1.209,1.209,0,0,0-.024-.233A1.13,1.13,0,0,0,675.573-1318.676Z" fill="#0ac4bf"/><path d="M706.407-1320.731a5.9,5.9,0,0,0-1.741-4.186l-.016-.018c-.016-.016-.032-.03-.049-.044a5.894,5.894,0,0,0-4.11-1.667,5.923,5.923,0,0,0-5.916,5.915,5.891,5.891,0,0,0,1.62,4.061,1.191,1.191,0,0,0,.089.1c.03.029.06.056.092.082a6.059,6.059,0,0,0,.5.433v9.552a3.575,3.575,0,0,0,3.571,3.57,3.574,3.574,0,0,0,3.57-3.57v-9.482A5.909,5.909,0,0,0,706.407-1320.731Zm-5.916-3.545a3.52,3.52,0,0,1,1.493.331l-4.707,4.708a3.51,3.51,0,0,1-.331-1.494A3.549,3.549,0,0,1,700.491-1324.276Zm1.155,17.775a1.2,1.2,0,0,1-1.2,1.2,1.2,1.2,0,0,1-1.2-1.2v-8.446a5.932,5.932,0,0,0,1.245.132,5.872,5.872,0,0,0,1.155-.114Zm-1.155-10.684a3.521,3.521,0,0,1-1.554-.36l4.74-4.74a3.539,3.539,0,0,1,.359,1.554A3.549,3.549,0,0,1,700.491-1317.185Z" fill="#0ac4bf"/></g></g></svg>